<?xml version="1.0" encoding="utf-8" standalone="no"?>
<!DOCTYPE svg PUBLIC "-//W3C//DTD SVG 1.1//EN"
  "http://www.w3.org/Graphics/SVG/1.1/DTD/svg11.dtd">
<svg xmlns:xlink="http://www.w3.org/1999/xlink" width="460.8pt" height="345.6pt" viewBox="0 0 460.8 345.6" xmlns="http://www.w3.org/2000/svg" version="1.1">
 <metadata>
  <rdf:RDF xmlns:dc="http://purl.org/dc/elements/1.1/" xmlns:cc="http://creativecommons.org/ns#" xmlns:rdf="http://www.w3.org/1999/02/22-rdf-syntax-ns#">
   <cc:Work>
    <dc:type rdf:resource="http://purl.org/dc/dcmitype/StillImage"/>
    <dc:date>2022-05-27T21:48:07.202750</dc:date>
    <dc:format>image/svg+xml</dc:format>
    <dc:creator>
     <cc:Agent>
      <dc:title>Matplotlib v3.5.2, https://matplotlib.org/</dc:title>
     </cc:Agent>
    </dc:creator>
   </cc:Work>
  </rdf:RDF>
 </metadata>
 <defs>
  <style type="text/css">*{stroke-linejoin: round; stroke-linecap: butt}</style>
 </defs>
 <g id="figure_1">
  <g id="patch_1">
   <path d="M 0 345.6 
L 460.8 345.6 
L 460.8 0 
L 0 0 
z
" style="fill: #ffffff"/>
  </g>
  <g id="axes_1">
   <g id="patch_2">
    <path d="M 57.6 307.584 
L 414.72 307.584 
L 414.72 41.472 
L 57.6 41.472 
z
" style="fill: #ffffff"/>
   </g>
   <g id="matplotlib.axis_1">
    <g id="xtick_1">
     <g id="line2d_1">
      <defs>
       <path id="m6507352962" d="M 0 0 
L 0 3.5 
" style="stroke: #000000; stroke-width: 0.8"/>
      </defs>
      <g>
       <use xlink:href="#m6507352962" x="73.832727" y="307.584" style="stroke: #000000; stroke-width: 0.8"/>
      </g>
     </g>
     <g id="text_1">
      <!-- 0 -->
      <g transform="translate(70.651477 322.182437)scale(0.1 -0.1)">
       <defs>
        <path id="DejaVuSans-30" d="M 2034 4250 
Q 1547 4250 1301 3770 
Q 1056 3291 1056 2328 
Q 1056 1369 1301 889 
Q 1547 409 2034 409 
Q 2525 409 2770 889 
Q 3016 1369 3016 2328 
Q 3016 3291 2770 3770 
Q 2525 4250 2034 4250 
z
M 2034 4750 
Q 2819 4750 3233 4129 
Q 3647 3509 3647 2328 
Q 3647 1150 3233 529 
Q 2819 -91 2034 -91 
Q 1250 -91 836 529 
Q 422 1150 422 2328 
Q 422 3509 836 4129 
Q 1250 4750 2034 4750 
z
" transform="scale(0.015625)"/>
       </defs>
       <use xlink:href="#DejaVuSans-30"/>
      </g>
     </g>
    </g>
    <g id="xtick_2">
     <g id="line2d_2">
      <g>
       <use xlink:href="#m6507352962" x="123.212121" y="307.584" style="stroke: #000000; stroke-width: 0.8"/>
      </g>
     </g>
     <g id="text_2">
      <!-- 2500 -->
      <g transform="translate(110.487121 322.182437)scale(0.1 -0.1)">
       <defs>
        <path id="DejaVuSans-32" d="M 1228 531 
L 3431 531 
L 3431 0 
L 469 0 
L 469 531 
Q 828 903 1448 1529 
Q 2069 2156 2228 2338 
Q 2531 2678 2651 2914 
Q 2772 3150 2772 3378 
Q 2772 3750 2511 3984 
Q 2250 4219 1831 4219 
Q 1534 4219 1204 4116 
Q 875 4013 500 3803 
L 500 4441 
Q 881 4594 1212 4672 
Q 1544 4750 1819 4750 
Q 2544 4750 2975 4387 
Q 3406 4025 3406 3419 
Q 3406 3131 3298 2873 
Q 3191 2616 2906 2266 
Q 2828 2175 2409 1742 
Q 1991 1309 1228 531 
z
" transform="scale(0.015625)"/>
        <path id="DejaVuSans-35" d="M 691 4666 
L 3169 4666 
L 3169 4134 
L 1269 4134 
L 1269 2991 
Q 1406 3038 1543 3061 
Q 1681 3084 1819 3084 
Q 2600 3084 3056 2656 
Q 3513 2228 3513 1497 
Q 3513 744 3044 326 
Q 2575 -91 1722 -91 
Q 1428 -91 1123 -41 
Q 819 9 494 109 
L 494 744 
Q 775 591 1075 516 
Q 1375 441 1709 441 
Q 2250 441 2565 725 
Q 2881 1009 2881 1497 
Q 2881 1984 2565 2268 
Q 2250 2553 1709 2553 
Q 1456 2553 1204 2497 
Q 953 2441 691 2322 
L 691 4666 
z
" transform="scale(0.015625)"/>
       </defs>
       <use xlink:href="#DejaVuSans-32"/>
       <use xlink:href="#DejaVuSans-35" x="63.623047"/>
       <use xlink:href="#DejaVuSans-30" x="127.246094"/>
       <use xlink:href="#DejaVuSans-30" x="190.869141"/>
      </g>
     </g>
    </g>
    <g id="xtick_3">
     <g id="line2d_3">
      <g>
       <use xlink:href="#m6507352962" x="172.591514" y="307.584" style="stroke: #000000; stroke-width: 0.8"/>
      </g>
     </g>
     <g id="text_3">
      <!-- 5000 -->
      <g transform="translate(159.866514 322.182437)scale(0.1 -0.1)">
       <use xlink:href="#DejaVuSans-35"/>
       <use xlink:href="#DejaVuSans-30" x="63.623047"/>
       <use xlink:href="#DejaVuSans-30" x="127.246094"/>
       <use xlink:href="#DejaVuSans-30" x="190.869141"/>
      </g>
     </g>
    </g>
    <g id="xtick_4">
     <g id="line2d_4">
      <g>
       <use xlink:href="#m6507352962" x="221.970907" y="307.584" style="stroke: #000000; stroke-width: 0.8"/>
      </g>
     </g>
     <g id="text_4">
      <!-- 7500 -->
      <g transform="translate(209.245907 322.182437)scale(0.1 -0.1)">
       <defs>
        <path id="DejaVuSans-37" d="M 525 4666 
L 3525 4666 
L 3525 4397 
L 1831 0 
L 1172 0 
L 2766 4134 
L 525 4134 
L 525 4666 
z
" transform="scale(0.015625)"/>
       </defs>
       <use xlink:href="#DejaVuSans-37"/>
       <use xlink:href="#DejaVuSans-35" x="63.623047"/>
       <use xlink:href="#DejaVuSans-30" x="127.246094"/>
       <use xlink:href="#DejaVuSans-30" x="190.869141"/>
      </g>
     </g>
    </g>
    <g id="xtick_5">
     <g id="line2d_5">
      <g>
       <use xlink:href="#m6507352962" x="271.3503" y="307.584" style="stroke: #000000; stroke-width: 0.8"/>
      </g>
     </g>
     <g id="text_5">
      <!-- 10000 -->
      <g transform="translate(255.44405 322.182437)scale(0.1 -0.1)">
       <defs>
        <path id="DejaVuSans-31" d="M 794 531 
L 1825 531 
L 1825 4091 
L 703 3866 
L 703 4441 
L 1819 4666 
L 2450 4666 
L 2450 531 
L 3481 531 
L 3481 0 
L 794 0 
L 794 531 
z
" transform="scale(0.015625)"/>
       </defs>
       <use xlink:href="#DejaVuSans-31"/>
       <use xlink:href="#DejaVuSans-30" x="63.623047"/>
       <use xlink:href="#DejaVuSans-30" x="127.246094"/>
       <use xlink:href="#DejaVuSans-30" x="190.869141"/>
       <use xlink:href="#DejaVuSans-30" x="254.492188"/>
      </g>
     </g>
    </g>
    <g id="xtick_6">
     <g id="line2d_6">
      <g>
       <use xlink:href="#m6507352962" x="320.729694" y="307.584" style="stroke: #000000; stroke-width: 0.8"/>
      </g>
     </g>
     <g id="text_6">
      <!-- 12500 -->
      <g transform="translate(304.823444 322.182437)scale(0.1 -0.1)">
       <use xlink:href="#DejaVuSans-31"/>
       <use xlink:href="#DejaVuSans-32" x="63.623047"/>
       <use xlink:href="#DejaVuSans-35" x="127.246094"/>
       <use xlink:href="#DejaVuSans-30" x="190.869141"/>
       <use xlink:href="#DejaVuSans-30" x="254.492188"/>
      </g>
     </g>
    </g>
    <g id="xtick_7">
     <g id="line2d_7">
      <g>
       <use xlink:href="#m6507352962" x="370.109087" y="307.584" style="stroke: #000000; stroke-width: 0.8"/>
      </g>
     </g>
     <g id="text_7">
      <!-- 15000 -->
      <g transform="translate(354.202837 322.182437)scale(0.1 -0.1)">
       <use xlink:href="#DejaVuSans-31"/>
       <use xlink:href="#DejaVuSans-35" x="63.623047"/>
       <use xlink:href="#DejaVuSans-30" x="127.246094"/>
       <use xlink:href="#DejaVuSans-30" x="190.869141"/>
       <use xlink:href="#DejaVuSans-30" x="254.492188"/>
      </g>
     </g>
    </g>
    <g id="text_8">
     <!-- time -->
     <g transform="translate(224.863906 335.860562)scale(0.1 -0.1)">
      <defs>
       <path id="DejaVuSans-74" d="M 1172 4494 
L 1172 3500 
L 2356 3500 
L 2356 3053 
L 1172 3053 
L 1172 1153 
Q 1172 725 1289 603 
Q 1406 481 1766 481 
L 2356 481 
L 2356 0 
L 1766 0 
Q 1100 0 847 248 
Q 594 497 594 1153 
L 594 3053 
L 172 3053 
L 172 3500 
L 594 3500 
L 594 4494 
L 1172 4494 
z
" transform="scale(0.015625)"/>
       <path id="DejaVuSans-69" d="M 603 3500 
L 1178 3500 
L 1178 0 
L 603 0 
L 603 3500 
z
M 603 4863 
L 1178 4863 
L 1178 4134 
L 603 4134 
L 603 4863 
z
" transform="scale(0.015625)"/>
       <path id="DejaVuSans-6d" d="M 3328 2828 
Q 3544 3216 3844 3400 
Q 4144 3584 4550 3584 
Q 5097 3584 5394 3201 
Q 5691 2819 5691 2113 
L 5691 0 
L 5113 0 
L 5113 2094 
Q 5113 2597 4934 2840 
Q 4756 3084 4391 3084 
Q 3944 3084 3684 2787 
Q 3425 2491 3425 1978 
L 3425 0 
L 2847 0 
L 2847 2094 
Q 2847 2600 2669 2842 
Q 2491 3084 2119 3084 
Q 1678 3084 1418 2786 
Q 1159 2488 1159 1978 
L 1159 0 
L 581 0 
L 581 3500 
L 1159 3500 
L 1159 2956 
Q 1356 3278 1631 3431 
Q 1906 3584 2284 3584 
Q 2666 3584 2933 3390 
Q 3200 3197 3328 2828 
z
" transform="scale(0.015625)"/>
       <path id="DejaVuSans-65" d="M 3597 1894 
L 3597 1613 
L 953 1613 
Q 991 1019 1311 708 
Q 1631 397 2203 397 
Q 2534 397 2845 478 
Q 3156 559 3463 722 
L 3463 178 
Q 3153 47 2828 -22 
Q 2503 -91 2169 -91 
Q 1331 -91 842 396 
Q 353 884 353 1716 
Q 353 2575 817 3079 
Q 1281 3584 2069 3584 
Q 2775 3584 3186 3129 
Q 3597 2675 3597 1894 
z
M 3022 2063 
Q 3016 2534 2758 2815 
Q 2500 3097 2075 3097 
Q 1594 3097 1305 2825 
Q 1016 2553 972 2059 
L 3022 2063 
z
" transform="scale(0.015625)"/>
      </defs>
      <use xlink:href="#DejaVuSans-74"/>
      <use xlink:href="#DejaVuSans-69" x="39.208984"/>
      <use xlink:href="#DejaVuSans-6d" x="66.992188"/>
      <use xlink:href="#DejaVuSans-65" x="164.404297"/>
     </g>
    </g>
   </g>
   <g id="matplotlib.axis_2">
    <g id="ytick_1">
     <g id="line2d_8">
      <defs>
       <path id="ma2722da287" d="M 0 0 
L -3.5 0 
" style="stroke: #000000; stroke-width: 0.8"/>
      </defs>
      <g>
       <use xlink:href="#ma2722da287" x="57.6" y="273.738428" style="stroke: #000000; stroke-width: 0.8"/>
      </g>
     </g>
     <g id="text_9">
      <!-- 5 -->
      <g transform="translate(44.2375 277.537647)scale(0.1 -0.1)">
       <use xlink:href="#DejaVuSans-35"/>
      </g>
     </g>
    </g>
    <g id="ytick_2">
     <g id="line2d_9">
      <g>
       <use xlink:href="#ma2722da287" x="57.6" y="221.415427" style="stroke: #000000; stroke-width: 0.8"/>
      </g>
     </g>
     <g id="text_10">
      <!-- 10 -->
      <g transform="translate(37.875 225.214646)scale(0.1 -0.1)">
       <use xlink:href="#DejaVuSans-31"/>
       <use xlink:href="#DejaVuSans-30" x="63.623047"/>
      </g>
     </g>
    </g>
    <g id="ytick_3">
     <g id="line2d_10">
      <g>
       <use xlink:href="#ma2722da287" x="57.6" y="169.092426" style="stroke: #000000; stroke-width: 0.8"/>
      </g>
     </g>
     <g id="text_11">
      <!-- 15 -->
      <g transform="translate(37.875 172.891645)scale(0.1 -0.1)">
       <use xlink:href="#DejaVuSans-31"/>
       <use xlink:href="#DejaVuSans-35" x="63.623047"/>
      </g>
     </g>
    </g>
    <g id="ytick_4">
     <g id="line2d_11">
      <g>
       <use xlink:href="#ma2722da287" x="57.6" y="116.769425" style="stroke: #000000; stroke-width: 0.8"/>
      </g>
     </g>
     <g id="text_12">
      <!-- 20 -->
      <g transform="translate(37.875 120.568643)scale(0.1 -0.1)">
       <use xlink:href="#DejaVuSans-32"/>
       <use xlink:href="#DejaVuSans-30" x="63.623047"/>
      </g>
     </g>
    </g>
    <g id="ytick_5">
     <g id="line2d_12">
      <g>
       <use xlink:href="#ma2722da287" x="57.6" y="64.446423" style="stroke: #000000; stroke-width: 0.8"/>
      </g>
     </g>
     <g id="text_13">
      <!-- 25 -->
      <g transform="translate(37.875 68.245642)scale(0.1 -0.1)">
       <use xlink:href="#DejaVuSans-32"/>
       <use xlink:href="#DejaVuSans-35" x="63.623047"/>
      </g>
     </g>
    </g>
    <g id="text_14">
     <!-- Reward -->
     <g transform="translate(31.795312 193.149094)rotate(-90)scale(0.1 -0.1)">
      <defs>
       <path id="DejaVuSans-52" d="M 2841 2188 
Q 3044 2119 3236 1894 
Q 3428 1669 3622 1275 
L 4263 0 
L 3584 0 
L 2988 1197 
Q 2756 1666 2539 1819 
Q 2322 1972 1947 1972 
L 1259 1972 
L 1259 0 
L 628 0 
L 628 4666 
L 2053 4666 
Q 2853 4666 3247 4331 
Q 3641 3997 3641 3322 
Q 3641 2881 3436 2590 
Q 3231 2300 2841 2188 
z
M 1259 4147 
L 1259 2491 
L 2053 2491 
Q 2509 2491 2742 2702 
Q 2975 2913 2975 3322 
Q 2975 3731 2742 3939 
Q 2509 4147 2053 4147 
L 1259 4147 
z
" transform="scale(0.015625)"/>
       <path id="DejaVuSans-77" d="M 269 3500 
L 844 3500 
L 1563 769 
L 2278 3500 
L 2956 3500 
L 3675 769 
L 4391 3500 
L 4966 3500 
L 4050 0 
L 3372 0 
L 2619 2869 
L 1863 0 
L 1184 0 
L 269 3500 
z
" transform="scale(0.015625)"/>
       <path id="DejaVuSans-61" d="M 2194 1759 
Q 1497 1759 1228 1600 
Q 959 1441 959 1056 
Q 959 750 1161 570 
Q 1363 391 1709 391 
Q 2188 391 2477 730 
Q 2766 1069 2766 1631 
L 2766 1759 
L 2194 1759 
z
M 3341 1997 
L 3341 0 
L 2766 0 
L 2766 531 
Q 2569 213 2275 61 
Q 1981 -91 1556 -91 
Q 1019 -91 701 211 
Q 384 513 384 1019 
Q 384 1609 779 1909 
Q 1175 2209 1959 2209 
L 2766 2209 
L 2766 2266 
Q 2766 2663 2505 2880 
Q 2244 3097 1772 3097 
Q 1472 3097 1187 3025 
Q 903 2953 641 2809 
L 641 3341 
Q 956 3463 1253 3523 
Q 1550 3584 1831 3584 
Q 2591 3584 2966 3190 
Q 3341 2797 3341 1997 
z
" transform="scale(0.015625)"/>
       <path id="DejaVuSans-72" d="M 2631 2963 
Q 2534 3019 2420 3045 
Q 2306 3072 2169 3072 
Q 1681 3072 1420 2755 
Q 1159 2438 1159 1844 
L 1159 0 
L 581 0 
L 581 3500 
L 1159 3500 
L 1159 2956 
Q 1341 3275 1631 3429 
Q 1922 3584 2338 3584 
Q 2397 3584 2469 3576 
Q 2541 3569 2628 3553 
L 2631 2963 
z
" transform="scale(0.015625)"/>
       <path id="DejaVuSans-64" d="M 2906 2969 
L 2906 4863 
L 3481 4863 
L 3481 0 
L 2906 0 
L 2906 525 
Q 2725 213 2448 61 
Q 2172 -91 1784 -91 
Q 1150 -91 751 415 
Q 353 922 353 1747 
Q 353 2572 751 3078 
Q 1150 3584 1784 3584 
Q 2172 3584 2448 3432 
Q 2725 3281 2906 2969 
z
M 947 1747 
Q 947 1113 1208 752 
Q 1469 391 1925 391 
Q 2381 391 2643 752 
Q 2906 1113 2906 1747 
Q 2906 2381 2643 2742 
Q 2381 3103 1925 3103 
Q 1469 3103 1208 2742 
Q 947 2381 947 1747 
z
" transform="scale(0.015625)"/>
      </defs>
      <use xlink:href="#DejaVuSans-52"/>
      <use xlink:href="#DejaVuSans-65" x="64.982422"/>
      <use xlink:href="#DejaVuSans-77" x="126.505859"/>
      <use xlink:href="#DejaVuSans-61" x="208.292969"/>
      <use xlink:href="#DejaVuSans-72" x="269.572266"/>
      <use xlink:href="#DejaVuSans-64" x="308.935547"/>
     </g>
    </g>
   </g>
   <g id="line2d_13">
    <path d="M 73.832727 292.643315 
L 74.25467 279.940697 
L 74.927081 276.315143 
L 75.154456 279.289419 
L 75.178099 279.046984 
L 75.618185 273.950599 
L 75.654043 274.478522 
L 76.111309 276.028837 
L 76.273942 275.220432 
L 76.489502 276.643195 
L 76.803208 276.002261 
L 76.921292 274.773925 
L 77.056999 275.549656 
L 77.480894 276.411748 
L 77.787956 274.809343 
L 78.712464 271.732235 
L 78.833688 269.546769 
L 79.071017 268.852817 
L 79.63866 263.646011 
L 79.975596 262.287368 
L 80.031519 261.202631 
L 80.731145 261.413874 
L 81.190891 262.248566 
L 81.22727 261.631564 
L 82.148839 266.347318 
L 82.386415 268.870951 
L 82.486479 268.367254 
L 82.801695 269.314509 
L 83.457273 267.977682 
L 83.651336 268.774051 
L 84.401636 266.429098 
L 84.963367 266.360517 
L 85.398688 268.843516 
L 85.751903 266.852352 
L 86.17847 270.842669 
L 86.505816 270.578238 
L 86.721756 270.755794 
L 87.120231 273.061597 
L 87.155483 272.806198 
L 87.213104 272.128554 
L 87.419684 272.014075 
L 88.453527 267.673033 
L 88.649435 266.745873 
L 89.337143 267.675942 
L 89.439049 268.3891 
L 89.469842 268.088817 
L 89.567359 268.281767 
L 90.126328 262.864905 
L 90.184071 262.942219 
L 90.243019 263.441649 
L 90.607171 262.17226 
L 90.726509 264.791709 
L 90.901376 264.520412 
L 91.08881 263.345393 
L 92.724995 250.63685 
L 92.862039 251.099964 
L 92.89754 250.815659 
L 93.341914 254.518911 
L 93.765296 251.724496 
L 94.037669 250.75592 
L 94.271534 252.61785 
L 94.867869 252.639102 
L 95.694609 250.369711 
L 95.828027 250.882394 
L 96.005691 250.799132 
L 96.403278 249.638245 
L 97.018659 247.211711 
L 97.570901 250.552227 
L 97.749642 249.940723 
L 98.245569 249.186199 
L 98.267728 248.587804 
L 98.328702 249.589049 
L 98.705637 252.598953 
L 99.105188 252.529024 
L 99.912373 252.707763 
L 100.196648 255.677189 
L 100.341089 254.582557 
L 100.849217 254.0196 
L 101.21103 254.737743 
L 101.364002 254.006307 
L 102.297505 253.027851 
L 102.69196 251.884278 
L 102.925393 250.552067 
L 104.568021 245.427459 
L 104.630267 245.6371 
L 104.974467 238.558174 
L 105.197284 238.256005 
L 105.377653 238.900831 
L 105.661043 238.028136 
L 106.6951 233.396541 
L 106.733144 233.563603 
L 106.796406 234.060199 
L 106.929547 232.075283 
L 107.215416 231.43383 
L 107.812459 226.151331 
L 108.034272 228.514572 
L 108.476332 227.114943 
L 108.699611 226.178736 
L 108.760115 227.899905 
L 109.144903 226.219613 
L 109.714433 219.82155 
L 110.02733 220.353365 
L 110.089096 219.869733 
L 110.35794 219.28719 
L 110.628537 218.34779 
L 110.667327 218.449055 
L 111.439454 220.373105 
L 111.687277 218.759188 
L 112.376611 215.063122 
L 112.538947 215.17295 
L 112.640276 216.316248 
L 112.728462 216.216679 
L 112.867969 215.352457 
L 113.0556 216.883501 
L 113.195235 216.895856 
L 113.366727 216.274472 
L 114.077277 216.242916 
L 114.326742 218.869894 
L 115.573465 226.555524 
L 116.052932 227.305397 
L 116.176796 225.312507 
L 116.526478 225.200244 
L 116.564094 225.045856 
L 117.90455 224.443943 
L 118.611038 219.666124 
L 118.657149 219.866539 
L 119.871464 226.716079 
L 120.334314 225.835599 
L 120.705531 223.822171 
L 120.96912 220.877874 
L 121.15424 222.824608 
L 121.564816 222.272684 
L 121.871872 224.049162 
L 122.204209 224.617133 
L 122.287963 223.760695 
L 122.741808 217.062339 
L 122.846251 217.422451 
L 123.098215 214.497126 
L 123.767375 210.45466 
L 123.929372 210.015219 
L 123.998036 208.994543 
L 124.79793 205.18755 
L 125.06067 204.59409 
L 125.132995 203.543265 
L 126.199229 209.194259 
L 126.485253 209.264856 
L 126.686103 210.541994 
L 126.957575 210.348086 
L 127.225752 213.87683 
L 127.286398 213.709579 
L 127.510335 212.708323 
L 127.730276 214.539031 
L 128.593119 213.89175 
L 129.577999 216.173966 
L 129.640674 216.813163 
L 130.117077 218.568893 
L 130.36462 214.64347 
L 131.861913 207.823131 
L 131.985878 208.023007 
L 132.502131 204.514392 
L 133.175632 198.103974 
L 133.617719 199.568762 
L 133.840832 202.005624 
L 134.317784 205.086016 
L 134.356935 204.933644 
L 134.707169 204.67844 
L 134.832909 204.439004 
L 134.999949 205.190634 
L 135.060361 204.095279 
L 135.493071 203.111668 
L 135.517113 203.147605 
L 135.681344 203.70923 
L 136.092625 203.930412 
L 136.356001 205.606254 
L 139.267885 207.618834 
L 139.581135 207.697006 
L 139.906083 206.506444 
L 140.273069 208.115779 
L 140.611251 208.924953 
L 140.82756 205.515697 
L 140.963651 205.408534 
L 140.98691 205.71671 
L 141.229193 202.808082 
L 141.701393 202.534395 
L 142.67571 199.561227 
L 143.512034 201.410827 
L 143.99052 201.010077 
L 144.178947 202.447092 
L 144.957935 205.092083 
L 145.106606 205.160116 
L 146.286846 206.443601 
L 147.070886 206.360499 
L 147.976146 198.396762 
L 148.327901 195.853414 
L 148.911356 196.223945 
L 150.111913 188.173893 
L 151.576605 190.151194 
L 151.765476 189.169859 
L 152.217065 189.693041 
L 152.485714 190.222929 
L 152.594818 189.260745 
L 153.30498 189.842079 
L 153.568877 190.374134 
L 153.747763 190.384303 
L 153.920355 192.391584 
L 154.473715 189.51524 
L 154.882893 187.548846 
L 156.185673 184.99507 
L 156.559309 184.857189 
L 156.604505 185.452236 
L 156.935603 183.909815 
L 157.082223 184.394155 
L 157.545757 186.775231 
L 157.980855 187.728054 
L 158.280478 188.932339 
L 158.651612 191.939179 
L 158.77923 192.523158 
L 159.437723 191.692159 
L 160.117775 195.10894 
L 160.316568 194.815303 
L 160.453496 195.779364 
L 160.644019 194.559301 
L 161.045229 194.538563 
L 161.289051 194.992665 
L 162.238187 198.73409 
L 162.435818 198.680139 
L 162.971573 200.628249 
L 163.011691 200.360072 
L 163.164021 201.103868 
L 163.33822 201.237138 
L 163.446044 200.907934 
L 163.772741 198.994643 
L 164.00699 198.66937 
L 165.762949 192.814888 
L 166.093954 189.147534 
L 167.356798 183.443737 
L 168.656997 181.811268 
L 168.753092 181.463351 
L 169.213784 181.590624 
L 169.805058 186.250671 
L 170.157268 184.571108 
L 170.265984 186.41972 
L 170.534394 188.294948 
L 170.994804 189.633182 
L 171.327902 189.516957 
L 172.114945 192.869248 
L 172.620777 197.660231 
L 173.0558 197.583037 
L 174.766804 206.588637 
L 175.000408 206.981353 
L 175.064029 206.224693 
L 175.411116 204.850582 
L 175.561575 205.794433 
L 175.601126 205.744175 
L 177.576022 188.026211 
L 179.144113 179.893685 
L 179.21431 180.115038 
L 179.452011 181.538829 
L 179.86009 180.472146 
L 180.685002 186.263935 
L 180.77424 186.018651 
L 182.092776 187.671409 
L 183.222454 185.748956 
L 183.747369 185.899392 
L 184.051979 184.696244 
L 184.352803 184.019513 
L 184.715662 185.314335 
L 184.99407 185.458413 
L 185.361986 187.621729 
L 185.812097 191.129985 
L 185.941316 191.026185 
L 186.08785 191.521454 
L 186.447614 193.526809 
L 186.625214 193.519254 
L 187.371385 193.217225 
L 187.610085 194.331472 
L 188.174115 193.155001 
L 188.241676 192.676438 
L 188.457911 191.931974 
L 188.526073 190.887506 
L 188.765495 190.042804 
L 189.677876 188.431711 
L 190.316638 188.637964 
L 190.507069 187.530963 
L 190.775827 188.1159 
L 191.372003 186.338434 
L 191.749462 185.346859 
L 191.773738 185.443953 
L 192.19865 186.489638 
L 192.671927 185.636922 
L 192.752945 184.503774 
L 193.203747 183.257983 
L 194.000568 181.936764 
L 194.170449 180.496586 
L 194.237562 181.524867 
L 194.341705 181.184106 
L 194.47083 181.22674 
L 194.599309 182.25539 
L 195.196362 183.961001 
L 195.924898 182.306097 
L 196.094764 184.585379 
L 197.078773 190.012714 
L 197.143709 189.045031 
L 197.568103 190.408883 
L 197.635229 190.104678 
L 198.298702 184.467477 
L 198.427456 184.531198 
L 198.530975 185.336919 
L 199.288982 186.263974 
L 199.619813 183.654531 
L 200.433135 183.698512 
L 200.856778 180.795063 
L 201.175614 180.372647 
L 201.284075 181.961804 
L 202.295172 180.934261 
L 202.907015 183.965742 
L 203.317072 185.103321 
L 203.42519 184.308558 
L 204.036507 183.281236 
L 204.183543 183.626527 
L 204.48759 185.329324 
L 205.013071 182.181639 
L 206.074815 184.153582 
L 206.144002 183.384846 
L 206.441907 181.370399 
L 206.808637 177.810268 
L 207.006687 178.628833 
L 207.247352 179.066618 
L 208.498849 180.906428 
L 209.352241 181.870079 
L 209.95422 180.259586 
L 210.745906 178.950942 
L 212.196902 175.15382 
L 212.60619 172.312585 
L 213.161034 171.887863 
L 213.838911 179.010122 
L 214.461138 180.117233 
L 214.575005 181.530246 
L 214.67823 181.518949 
L 214.716309 181.538001 
L 214.847404 180.010749 
L 215.670878 177.59189 
L 216.892462 176.091414 
L 217.426126 173.674361 
L 218.989772 180.462974 
L 219.100525 179.306133 
L 219.680517 181.153947 
L 219.948999 180.288697 
L 220.089866 180.919431 
L 220.588606 182.087849 
L 220.652858 181.571104 
L 221.374568 187.71029 
L 221.77131 189.302281 
L 223.056345 187.357863 
L 223.251498 186.180623 
L 223.382434 186.602829 
L 223.966822 182.859469 
L 224.348788 181.817236 
L 224.712677 176.97378 
L 224.847462 176.979618 
L 225.021709 177.117868 
L 225.848435 174.105549 
L 226.038891 176.164366 
L 226.330991 176.101942 
L 227.264429 178.972648 
L 227.356338 178.987637 
L 228.682533 177.921194 
L 228.860592 178.194112 
L 229.012953 176.916136 
L 229.057666 177.298283 
L 229.163564 177.479238 
L 229.349554 178.302732 
L 230.206688 174.103693 
L 230.278265 174.040391 
L 230.866958 171.218447 
L 231.060914 171.57815 
L 231.711649 170.619219 
L 231.954036 171.1973 
L 232.717038 172.110683 
L 233.162144 171.732577 
L 233.329017 172.812125 
L 234.61063 183.771544 
L 234.746993 182.603915 
L 235.463939 185.323616 
L 235.53841 184.239698 
L 235.813087 184.580239 
L 237.109951 179.371392 
L 237.54503 175.555457 
L 238.034123 173.17053 
L 238.70842 171.833374 
L 238.838553 170.79189 
L 239.068077 171.271799 
L 239.196007 170.120477 
L 239.364509 170.431788 
L 240.704454 172.535604 
L 240.743893 172.226998 
L 241.792286 170.508203 
L 242.585022 172.45823 
L 243.219885 168.622796 
L 243.674134 171.401487 
L 243.94881 171.480797 
L 244.012691 171.010577 
L 244.163953 172.179673 
L 245.387802 173.912659 
L 245.515177 173.250069 
L 245.642844 173.18523 
L 246.001575 171.408123 
L 246.041817 171.476815 
L 246.104582 171.5385 
L 246.128445 171.501205 
L 247.183681 170.352298 
L 247.544992 173.0715 
L 247.609084 172.998817 
L 247.77639 172.188915 
L 248.012803 174.152654 
L 248.443544 178.177196 
L 248.883193 178.471032 
L 249.374461 179.440053 
L 249.398695 179.003895 
L 249.543685 180.151823 
L 249.672545 179.947806 
L 249.760876 179.166426 
L 250.455734 178.376982 
L 250.817217 180.120457 
L 251.535246 177.607758 
L 251.832021 173.875255 
L 252.024537 170.569439 
L 253.205195 153.717075 
L 254.735892 119.576688 
L 254.967041 119.18033 
L 255.663896 115.967486 
L 255.960726 111.651893 
L 256.052918 112.235433 
L 256.116173 111.619119 
L 257.592196 110.303918 
L 257.784639 110.806023 
L 258.016126 110.155319 
L 258.209055 108.718424 
L 258.928037 108.892253 
L 259.668336 110.754168 
L 260.911082 109.251087 
L 262.175043 127.628587 
L 262.510238 127.106822 
L 262.953221 128.94257 
L 263.605501 129.103525 
L 265.01644 120.754926 
L 265.333354 114.518556 
L 265.879643 113.785578 
L 265.920317 113.193455 
L 266.385493 115.958524 
L 266.67889 116.031876 
L 266.93344 116.594878 
L 269.442772 110.363079 
L 269.862936 109.196278 
L 269.966954 109.871173 
L 272.150075 101.521636 
L 272.40247 108.041473 
L 273.753969 113.934457 
L 273.945499 116.127363 
L 274.139575 116.784993 
L 274.179718 116.658988 
L 275.315656 122.146791 
L 275.570342 118.566651 
L 276.322089 114.146548 
L 276.38573 114.383349 
L 276.42521 114.426462 
L 277.329894 113.016533 
L 278.176718 116.367817 
L 278.346142 113.282715 
L 278.410976 113.491992 
L 278.474515 113.633526 
L 279.328207 115.866231 
L 280.543866 115.95551 
L 280.752549 114.916471 
L 281.20353 114.003517 
L 281.347747 114.936251 
L 281.56462 113.394649 
L 281.798401 113.315149 
L 282.074946 112.371937 
L 283.048207 110.801053 
L 283.28161 110.16929 
L 283.598893 110.127056 
L 283.686938 110.252782 
L 284.159643 109.057239 
L 284.788805 106.478633 
L 284.828914 106.489092 
L 285.254772 105.595259 
L 285.806134 102.848892 
L 285.880903 105.286763 
L 285.994648 105.0313 
L 287.207468 115.226824 
L 287.804678 128.981392 
L 288.442474 135.565518 
L 288.635263 136.024291 
L 288.956412 136.114708 
L 289.422401 135.222632 
L 290.020814 133.059885 
L 290.155368 130.56465 
L 291.38477 111.114559 
L 291.686057 111.763407 
L 291.896077 109.060732 
L 292.07378 108.917023 
L 292.097515 109.273462 
L 292.679661 107.307198 
L 293.23286 107.24187 
L 293.588158 109.065662 
L 293.725311 109.431303 
L 294.296805 108.090274 
L 294.757733 108.217816 
L 295.482147 106.884253 
L 295.907293 110.395034 
L 296.296896 110.50583 
L 297.510148 116.205226 
L 297.987928 119.89241 
L 298.053694 119.812971 
L 298.268177 119.590421 
L 298.403185 120.972466 
L 298.942286 123.846974 
L 299.320414 120.360883 
L 299.401877 120.846601 
L 299.830594 121.15851 
L 300.130223 119.737403 
L 300.688303 113.881225 
L 301.677707 110.628681 
L 301.899386 109.08634 
L 302.196217 105.674559 
L 302.409283 105.333628 
L 302.717688 107.190553 
L 302.949476 107.657489 
L 303.07772 106.572004 
L 303.248535 106.951098 
L 304.592139 104.989464 
L 304.696483 102.439041 
L 305.059628 101.99466 
L 305.292935 104.10603 
L 306.019237 99.638644 
L 306.552041 98.972311 
L 307.067079 99.021033 
L 307.432314 101.478204 
L 307.808025 102.147491 
L 308.001529 102.172819 
L 308.371841 106.605876 
L 308.863562 103.528538 
L 309.161778 103.925256 
L 309.201987 104.942918 
L 310.291596 104.126968 
L 311.041563 100.953246 
L 311.277226 101.20825 
L 311.384081 100.408587 
L 311.579468 96.523862 
L 312.840102 101.47529 
L 313.267571 100.983285 
L 313.307569 100.725546 
L 313.56404 102.710672 
L 313.669184 101.943902 
L 314.254391 104.256466 
L 314.86005 105.666056 
L 315.640516 105.882818 
L 315.783585 107.758485 
L 316.201115 107.421806 
L 316.517045 107.318036 
L 317.155192 105.44638 
L 317.698579 106.606035 
L 318.588027 105.785994 
L 318.721828 104.937409 
L 318.787347 105.560689 
L 319.316763 102.14286 
L 319.605 102.524947 
L 319.745173 102.201442 
L 320.368331 102.220423 
L 321.477389 108.495455 
L 322.096583 114.501171 
L 322.139983 114.454506 
L 322.234723 114.246107 
L 322.341883 114.41271 
L 323.290936 118.103527 
L 323.708682 117.285541 
L 324.534662 113.516003 
L 325.429572 106.599529 
L 326.37385 108.726568 
L 326.573042 109.985522 
L 327.030682 107.546773 
L 327.589325 107.467134 
L 327.889059 106.525119 
L 327.953676 106.717909 
L 328.058573 106.881778 
L 329.329724 104.950503 
L 329.370282 105.077067 
L 329.946442 101.452955 
L 330.875663 101.793826 
L 332.125738 100.350804 
L 332.428748 101.45541 
L 333.463508 102.339482 
L 334.6207 103.60678 
L 334.662188 103.929687 
L 335.164217 102.755082 
L 335.581371 103.360718 
L 336.187624 103.207328 
L 336.377026 103.308803 
L 336.649126 103.925515 
L 336.83234 103.754042 
L 336.856667 103.909029 
L 337.286573 102.63239 
L 337.762372 103.575623 
L 338.209716 103.85426 
L 338.411888 105.219379 
L 338.854494 104.565382 
L 338.920883 105.696694 
L 338.962115 105.590509 
L 339.382175 109.213224 
L 339.72077 110.49577 
L 340.531489 112.464529 
L 341.504581 112.60249 
L 341.754163 117.289154 
L 342.867236 125.592185 
L 343.002838 125.429813 
L 343.029166 126.982813 
L 343.116263 125.939542 
L 343.602205 126.547393 
L 343.883863 126.365302 
L 344.103743 124.292752 
L 344.248588 124.120241 
L 344.640385 124.871482 
L 344.680765 124.544743 
L 344.915251 126.730802 
L 345.281844 119.466012 
L 346.195458 112.264793 
L 346.471217 112.936774 
L 346.886843 112.337526 
L 346.951937 111.967474 
L 347.123546 112.760331 
L 347.624766 113.977131 
L 347.689916 113.788772 
L 348.554538 110.804366 
L 348.817288 110.92117 
L 348.858154 111.586804 
L 349.404605 118.291287 
L 349.832927 124.853159 
L 351.454448 143.27988 
L 351.718948 143.559035 
L 351.884826 144.724638 
L 352.047482 144.776154 
L 352.294997 143.890166 
L 352.51606 142.027572 
L 354.993854 102.138768 
L 355.173305 101.06476 
L 355.4692 98.25095 
L 355.874601 97.929001 
L 356.370824 99.49226 
L 356.540943 98.412104 
L 357.199977 97.617471 
L 357.93304 99.228633 
L 357.97973 98.998059 
L 358.137326 100.385454 
L 359.219807 107.697488 
L 360.329021 110.137754 
L 360.723921 112.242878 
L 361.037453 114.589552 
L 361.546066 115.278679 
L 361.587718 115.546717 
L 361.850088 115.753259 
L 362.265181 112.694804 
L 363.827405 109.193464 
L 363.896758 109.243941 
L 363.939025 109.459665 
L 364.14417 107.663417 
L 365.311256 102.701291 
L 365.477024 100.806502 
L 366.614241 101.135198 
L 366.832779 100.419904 
L 367.497102 101.987973 
L 367.743027 100.810334 
L 368.485758 99.096081 
L 368.822456 100.550101 
L 369.934531 97.600106 
L 370.35715 97.14315 
L 370.744895 97.614177 
L 370.948558 96.357977 
L 371.196298 97.160195 
L 371.475206 97.382745 
L 371.973794 100.287272 
L 373.081633 103.126092 
L 373.273839 105.072836 
L 373.897336 107.83539 
L 374.101706 109.459086 
L 374.376398 110.146057 
L 374.752606 111.939052 
L 374.943601 111.707061 
L 375.086162 111.821729 
L 375.738134 111.78149 
L 376.615549 108.503139 
L 376.768486 107.470607 
L 377.27827 106.39584 
L 377.443506 105.474204 
L 378.027855 102.061784 
L 379.041946 100.19432 
L 379.630606 101.530758 
L 379.947381 104.259879 
L 380.183795 104.654961 
L 380.360131 105.441271 
L 382.183309 104.195729 
L 383.533301 101.21328 
L 383.694283 102.050387 
L 383.970803 101.740993 
L 384.68399 103.28048 
L 384.92816 105.436061 
L 385.033783 105.343648 
L 385.212487 107.00439 
L 385.833332 105.292471 
L 386.101308 105.350394 
L 386.750134 103.158167 
L 388.80675 97.469689 
L 389.195648 98.261189 
L 389.345182 97.879421 
L 389.411434 97.929819 
L 389.651051 99.743312 
L 389.953694 100.820334 
L 390.174382 102.572611 
L 390.43994 103.143876 
L 390.659117 102.493032 
L 390.683706 102.50399 
L 391.067573 104.077847 
L 391.426548 104.674202 
L 391.956728 102.922424 
L 392.171756 102.786319 
L 392.481099 102.921246 
L 393.28544 103.415646 
L 393.353612 103.154275 
L 393.76736 102.085975 
L 393.793441 102.096454 
L 394.073725 101.739556 
L 394.272024 100.601976 
L 394.336242 101.260165 
L 394.888396 99.937619 
L 395.023955 99.189133 
L 396.00978 98.747146 
L 396.122455 98.838162 
L 396.656538 95.445203 
L 397.280538 93.778174 
L 397.624799 94.090382 
L 397.805228 93.960425 
L 398.487273 96.993213 
L 398.487273 96.993213 
" clip-path="url(#pbf82671383)" style="fill: none; stroke: #2e8b57; stroke-width: 1.5; stroke-linecap: square"/>
   </g>
   <g id="line2d_14">
    <path d="M 73.832727 284.562384 
L 73.884131 295.488 
L 73.925642 288.257076 
L 74.019939 275.438151 
L 74.18058 276.288023 
L 74.188549 275.674514 
L 74.209674 272.921106 
L 74.294986 275.484218 
L 74.303636 275.894409 
L 74.359872 274.508676 
L 74.367577 274.52141 
L 74.449643 274.780491 
L 74.500638 273.258534 
L 74.797504 267.330171 
L 75.280388 263.642842 
L 75.329784 264.780247 
L 75.752205 256.879303 
L 75.828354 257.496345 
L 76.077753 252.94888 
L 76.600606 239.934391 
L 76.878349 234.639158 
L 77.127202 228.490262 
L 77.203435 226.590523 
L 77.255304 227.638015 
L 78.060013 215.970726 
L 78.587093 199.770484 
L 78.862548 195.247509 
L 78.986725 196.994547 
L 79.336887 187.800308 
L 79.463087 188.109373 
L 79.538953 187.698334 
L 79.78786 182.566631 
L 80.668654 164.736893 
L 81.146608 161.253656 
L 81.273917 158.248952 
L 81.551331 153.35381 
L 81.753154 152.808113 
L 82.330874 144.584841 
L 82.737654 135.380572 
L 82.864072 134.449096 
L 82.990757 133.154593 
L 83.016067 134.06112 
L 83.091647 133.918129 
L 83.271118 135.439793 
L 83.425135 133.059905 
L 83.526214 133.458898 
L 83.629683 132.511913 
L 83.655393 133.178425 
L 83.756321 133.881444 
L 83.881759 132.678616 
L 84.239007 128.053468 
L 84.341345 128.103068 
L 84.367391 128.463359 
L 84.59814 125.079062 
L 84.724901 124.080861 
L 84.880094 122.118569 
L 84.905328 122.455467 
L 84.955815 123.291597 
L 85.006366 122.974418 
L 85.082516 124.12563 
L 85.134373 123.230081 
L 85.50019 123.367463 
L 85.608953 120.845962 
L 85.63552 120.899973 
L 85.746807 120.687023 
L 85.804226 121.267789 
L 85.895123 120.39681 
L 85.983474 120.323099 
L 86.138221 118.903889 
L 86.528946 114.460154 
L 86.581289 115.106487 
L 86.870098 112.016615 
L 86.974955 110.399984 
L 87.026904 110.9952 
L 87.131098 110.272701 
L 87.235491 110.673591 
L 87.365322 109.225439 
L 87.493132 108.862553 
L 87.859138 106.263767 
L 87.885219 105.520031 
L 88.015882 106.995528 
L 88.041857 106.59863 
L 88.32768 103.355648 
L 88.431574 102.347127 
L 88.719791 99.493397 
L 88.798825 99.273921 
L 89.246646 92.936735 
L 89.274186 93.047811 
L 89.378614 93.007672 
L 89.563042 93.721528 
L 90.031475 89.966741 
L 90.160949 89.974265 
L 90.292964 89.274161 
L 90.449262 87.705712 
L 90.500476 87.546035 
L 90.736384 82.722509 
L 90.762369 83.22613 
L 90.892626 83.423511 
L 90.997025 83.194155 
L 91.049672 82.085537 
L 91.420662 80.746784 
L 91.579775 82.478243 
L 91.606201 82.376987 
L 91.684705 82.180006 
L 91.710504 81.393496 
L 91.789624 81.682312 
L 91.86765 81.695106 
L 92.052699 78.618547 
L 92.211099 78.636471 
L 92.289435 78.305959 
L 92.62837 77.768107 
L 92.654503 78.081174 
L 92.706192 77.429571 
L 92.785922 76.992415 
L 92.994966 77.689905 
L 93.021972 77.679326 
L 93.260793 76.945829 
L 93.366478 77.777887 
L 93.550508 75.307342 
L 93.57675 75.059244 
L 93.709346 75.538395 
L 94.105853 74.023798 
L 94.158674 73.47866 
L 94.265336 73.986773 
L 94.370226 75.509833 
L 94.39699 74.618296 
L 95.526352 67.449212 
L 95.711504 65.817491 
L 95.895502 66.854474 
L 95.973231 65.43211 
L 95.999873 65.710168 
L 96.18373 66.460152 
L 96.52686 64.837852 
L 96.948144 60.111688 
L 97.212162 60.747563 
L 97.238294 60.364258 
L 97.318845 60.60541 
L 97.534604 59.387293 
L 97.64003 59.618067 
L 97.692861 59.565293 
L 97.952297 58.682778 
L 98.082609 58.368493 
L 98.134993 58.458491 
L 98.187329 58.926445 
L 98.719073 54.844958 
L 98.7728 54.951103 
L 98.799112 54.984216 
L 98.931519 54.145173 
L 99.009763 54.882941 
L 99.322792 53.568 
L 99.375939 53.648417 
L 99.557121 55.126588 
L 99.636177 54.893041 
L 99.688954 54.464008 
L 99.739984 54.609534 
L 99.895148 54.233235 
L 100.077232 54.661669 
L 100.182478 56.232393 
L 100.363091 56.815214 
L 100.491368 58.229514 
L 100.517232 58.175603 
L 100.646721 58.827824 
L 100.777777 58.083869 
L 100.908691 58.200114 
L 101.434993 61.704847 
L 101.616835 62.35641 
L 101.772657 64.106251 
L 102.163439 66.088803 
L 102.556462 69.520064 
L 102.610048 68.560864 
L 102.663562 69.698164 
L 102.742776 68.897823 
L 102.77007 69.332783 
L 102.849259 69.742535 
L 102.875721 69.374758 
L 103.159618 70.225418 
L 103.211579 69.453818 
L 103.503534 70.786444 
L 103.636072 70.735427 
L 103.68829 70.262982 
L 103.871269 72.836838 
L 104.02905 73.322137 
L 104.395759 70.734988 
L 104.632672 74.831325 
L 104.788956 76.088802 
L 104.894593 73.807954 
L 105.264933 76.637453 
L 105.396099 76.636475 
L 105.475503 75.938686 
L 105.708077 78.529008 
L 105.812792 78.988898 
L 105.917591 78.941055 
L 106.335781 83.342036 
L 106.387789 83.095774 
L 106.571358 83.69123 
L 107.073398 86.937885 
L 107.33784 83.707218 
L 107.363848 84.18589 
L 107.390811 83.243096 
L 107.442669 83.950007 
L 107.653469 86.948543 
L 107.75872 86.949761 
L 107.892032 87.303067 
L 107.91874 87.203189 
L 108.022634 87.30163 
L 108.102402 88.280011 
L 108.207908 88.107141 
L 108.733667 89.844947 
L 108.840615 89.67517 
L 109.131272 89.921572 
L 109.292877 87.347417 
L 109.318537 87.571264 
L 109.371679 87.702998 
L 109.584042 89.036841 
L 109.637159 89.036522 
L 109.821846 90.715107 
L 109.902752 92.027633 
L 110.144056 91.981966 
L 110.302984 94.153016 
L 110.489722 94.097169 
L 110.595431 94.530093 
L 110.673945 94.350636 
L 110.781095 94.93749 
L 110.989429 96.896488 
L 111.173304 95.996508 
L 111.227135 96.212651 
L 111.279907 96.573961 
L 111.332371 96.291093 
L 111.35801 95.910841 
L 111.547581 96.188759 
L 111.682818 94.960164 
L 111.841601 95.81749 
L 111.921157 95.611407 
L 112.028162 96.869822 
L 112.21628 96.557115 
L 112.350164 99.038058 
L 112.697 100.717642 
L 112.857914 98.516732 
L 112.884265 98.645991 
L 112.962993 102.559677 
L 113.067879 101.123222 
L 113.200985 102.381877 
L 113.465337 102.485308 
L 113.491983 101.84638 
L 113.51917 102.120106 
L 113.677962 101.379444 
L 113.888353 102.736659 
L 113.967815 102.166752 
L 114.313728 104.485304 
L 114.420131 103.807035 
L 114.578353 106.595197 
L 114.65827 106.261532 
L 114.685007 106.497954 
L 114.818696 106.624937 
L 114.951874 105.476539 
L 114.978663 105.641965 
L 115.086105 103.670312 
L 115.247749 103.68077 
L 115.462388 105.43668 
L 115.647126 100.479763 
L 115.700587 102.265831 
L 115.862733 102.326449 
L 115.889665 102.459859 
L 115.916063 102.070127 
L 115.943059 102.395709 
L 116.074967 102.567961 
L 116.230565 106.003753 
L 116.308813 105.068385 
L 116.442234 104.554025 
L 116.494917 105.132535 
L 116.521457 104.827552 
L 116.574298 103.928829 
L 116.735683 104.088286 
L 116.867869 103.185991 
L 116.894698 104.157985 
L 116.920998 104.024675 
L 117.053825 105.639969 
L 117.267756 106.630646 
L 117.294723 106.502106 
L 117.401269 106.073213 
L 117.695471 108.783852 
L 117.912547 108.785149 
L 117.994749 109.017719 
L 118.349087 113.263414 
L 118.427208 112.804183 
L 118.559908 112.125515 
L 118.585744 112.321858 
L 118.664239 112.561912 
L 118.853761 116.197341 
L 119.010941 116.800003 
L 119.464999 120.506808 
L 119.572245 122.136492 
L 119.651661 121.742709 
L 119.73179 121.187611 
L 119.758017 121.375032 
L 119.81107 121.595506 
L 119.971176 120.882727 
L 120.157795 121.911248 
L 120.184072 121.422576 
L 120.211301 121.986655 
L 120.237988 122.868951 
L 120.318777 122.522651 
L 120.555801 126.220375 
L 120.688941 125.392489 
L 120.715712 125.519532 
L 120.742455 125.824695 
L 120.847738 124.354268 
L 120.926657 124.50652 
L 121.005767 124.52113 
L 121.085963 124.22944 
L 121.295392 126.392746 
L 121.348288 124.935892 
L 121.587208 126.507434 
L 121.66497 125.786991 
L 121.824213 128.585911 
L 121.85103 128.243264 
L 121.878243 127.554916 
L 121.956705 128.500145 
L 122.092058 128.493638 
L 122.695758 136.869102 
L 122.800483 136.511386 
L 122.853763 136.699406 
L 122.933396 135.809765 
L 123.093091 137.253166 
L 123.278118 134.668712 
L 123.305616 135.072296 
L 123.40987 135.618012 
L 123.860457 138.825746 
L 123.913013 139.667025 
L 123.939334 138.838121 
L 124.016486 138.990892 
L 124.694903 139.208712 
L 124.800676 139.689819 
L 124.930797 140.547425 
L 124.983798 139.440862 
L 125.064088 139.963226 
L 125.196719 138.813451 
L 125.487423 141.95412 
L 125.725248 143.366644 
L 126.095776 147.88377 
L 126.334986 147.543359 
L 126.468341 147.713515 
L 126.548205 146.04441 
L 126.600375 146.407476 
L 126.652842 147.306138 
L 126.758465 147.225342 
L 126.835825 146.551265 
L 127.152616 149.276195 
L 127.283871 148.822452 
L 127.600672 144.554562 
L 127.919907 147.366716 
L 128.025907 146.436497 
L 128.185417 146.179696 
L 128.451031 145.117903 
L 128.530642 144.902559 
L 128.713863 145.304366 
L 128.900038 145.438515 
L 129.243022 148.773052 
L 129.377047 148.426613 
L 129.587013 153.397082 
L 129.61465 152.535864 
L 129.772631 152.927392 
L 129.905157 155.156505 
L 129.931167 154.595599 
L 130.48823 158.97208 
L 130.567262 158.53176 
L 130.699505 159.54557 
L 131.227705 166.360081 
L 131.307261 166.15275 
L 131.545686 166.721221 
L 131.651389 168.540951 
L 131.677453 168.102328 
L 131.971277 171.190913 
L 132.179075 171.092611 
L 132.337223 169.564032 
L 132.415298 170.1836 
L 132.600284 167.856435 
L 132.679648 167.830068 
L 132.972169 169.71837 
L 133.103748 168.064015 
L 133.525048 172.030984 
L 133.684226 170.245584 
L 134.109656 177.378701 
L 134.241741 176.327626 
L 134.402101 176.658178 
L 134.534046 178.294898 
L 134.587076 177.941533 
L 134.665728 177.212487 
L 134.745611 177.403431 
L 134.771603 177.575692 
L 135.324466 185.333895 
L 135.561371 185.252899 
L 135.772772 189.384325 
L 135.852178 188.659151 
L 135.907736 188.193483 
L 135.934251 188.495762 
L 136.09123 191.004788 
L 136.460713 189.040131 
L 136.645999 189.912497 
L 136.74976 189.320484 
L 136.802071 191.496524 
L 136.855724 190.534928 
L 137.042988 191.96844 
L 137.068925 191.358803 
L 137.280338 191.644994 
L 137.540459 194.294447 
L 137.592936 193.462299 
L 137.619237 194.362938 
L 137.671302 196.281978 
L 137.723647 195.619158 
L 137.853812 194.380622 
L 138.197288 199.610268 
L 138.248688 198.917888 
L 138.276464 199.598901 
L 138.46111 197.933937 
L 138.513103 199.285974 
L 138.565516 198.925153 
L 138.59287 198.324538 
L 139.252071 195.157212 
L 139.331982 195.23242 
L 139.439485 192.805208 
L 139.51891 192.971651 
L 139.782492 195.906188 
L 139.80849 195.15317 
L 139.886269 194.785284 
L 140.067595 196.062951 
L 140.118901 195.849043 
L 140.171836 195.723966 
L 140.250185 193.781883 
L 140.5952 189.593472 
L 140.831778 185.330871 
L 140.965401 183.746196 
L 141.018487 184.433446 
L 141.150505 185.802228 
L 141.730812 189.150648 
L 142.312786 197.023498 
L 142.364741 196.550475 
L 142.556863 198.560081 
L 142.803299 197.422492 
L 142.830555 197.496372 
L 143.034866 202.47274 
L 143.229468 203.697863 
L 143.266812 203.586498 
L 143.43818 206.520565 
L 143.464037 206.145254 
L 143.574394 209.780603 
L 143.601653 210.904311 
L 143.711726 210.378344 
L 143.844219 211.783453 
L 143.871285 211.759751 
L 143.923956 213.509683 
L 144.001988 212.83843 
L 144.214938 210.088241 
L 144.267996 211.397903 
L 144.400151 209.940659 
L 144.426914 211.264722 
L 144.532211 210.18783 
L 144.744479 212.794319 
L 144.849773 210.536974 
L 144.876105 211.641171 
L 144.902533 211.279672 
L 145.032089 212.261127 
L 145.058439 211.581122 
L 145.375115 208.932518 
L 145.426047 209.385153 
L 145.610566 208.720626 
L 145.793829 208.847171 
L 146.109558 211.457512 
L 146.344849 211.935765 
L 146.531215 209.051927 
L 146.691022 211.355838 
L 146.954544 212.817413 
L 147.324592 207.93755 
L 147.565556 207.17078 
L 147.67134 203.817012 
L 147.856558 204.749875 
L 147.963222 205.801778 
L 148.066817 205.788475 
L 148.170288 207.559764 
L 148.196634 207.227116 
L 148.384452 206.58751 
L 148.410912 206.833053 
L 148.464164 207.167607 
L 148.623014 204.001399 
L 148.649738 204.639419 
L 148.729378 204.377588 
L 148.7559 204.646814 
L 148.887858 205.902405 
L 148.994278 203.537038 
L 149.020939 203.77816 
L 149.391434 200.372736 
L 149.469764 200.630066 
L 149.815462 204.272231 
L 149.842494 203.769398 
L 149.868721 204.177523 
L 150.028562 203.825794 
L 150.160445 202.277265 
L 150.212783 202.555592 
L 150.319192 204.528762 
L 150.372625 204.462536 
L 150.398293 204.631116 
L 150.555906 204.588791 
L 150.635819 203.735207 
L 150.686995 205.528341 
L 150.712515 205.079659 
L 150.843282 203.099323 
L 150.921895 204.61918 
L 151.00234 204.376979 
L 151.212319 203.881401 
L 151.239147 204.438056 
L 151.475892 201.614545 
L 151.503394 200.541076 
L 151.503394 200.541076 
" clip-path="url(#pbf82671383)" style="fill: none; stroke: #ff0000; stroke-width: 1.5; stroke-linecap: square"/>
   </g>
   <g id="patch_3">
    <path d="M 57.6 307.584 
L 57.6 41.472 
" style="fill: none; stroke: #000000; stroke-width: 0.8; stroke-linejoin: miter; stroke-linecap: square"/>
   </g>
   <g id="patch_4">
    <path d="M 414.72 307.584 
L 414.72 41.472 
" style="fill: none; stroke: #000000; stroke-width: 0.8; stroke-linejoin: miter; stroke-linecap: square"/>
   </g>
   <g id="patch_5">
    <path d="M 57.6 307.584 
L 414.72 307.584 
" style="fill: none; stroke: #000000; stroke-width: 0.8; stroke-linejoin: miter; stroke-linecap: square"/>
   </g>
   <g id="patch_6">
    <path d="M 57.6 41.472 
L 414.72 41.472 
" style="fill: none; stroke: #000000; stroke-width: 0.8; stroke-linejoin: miter; stroke-linecap: square"/>
   </g>
   <g id="legend_1">
    <g id="patch_7">
     <path d="M 352.666875 78.82825 
L 407.72 78.82825 
Q 409.72 78.82825 409.72 76.82825 
L 409.72 48.472 
Q 409.72 46.472 407.72 46.472 
L 352.666875 46.472 
Q 350.666875 46.472 350.666875 48.472 
L 350.666875 76.82825 
Q 350.666875 78.82825 352.666875 78.82825 
z
" style="fill: #ffffff; opacity: 0.8; stroke: #cccccc; stroke-linejoin: miter"/>
    </g>
    <g id="line2d_15">
     <path d="M 354.666875 54.570437 
L 364.666875 54.570437 
L 374.666875 54.570437 
" style="fill: none; stroke: #2e8b57; stroke-width: 1.5; stroke-linecap: square"/>
    </g>
    <g id="text_15">
     <!-- PPO -->
     <g transform="translate(382.666875 58.070437)scale(0.1 -0.1)">
      <defs>
       <path id="DejaVuSans-50" d="M 1259 4147 
L 1259 2394 
L 2053 2394 
Q 2494 2394 2734 2622 
Q 2975 2850 2975 3272 
Q 2975 3691 2734 3919 
Q 2494 4147 2053 4147 
L 1259 4147 
z
M 628 4666 
L 2053 4666 
Q 2838 4666 3239 4311 
Q 3641 3956 3641 3272 
Q 3641 2581 3239 2228 
Q 2838 1875 2053 1875 
L 1259 1875 
L 1259 0 
L 628 0 
L 628 4666 
z
" transform="scale(0.015625)"/>
       <path id="DejaVuSans-4f" d="M 2522 4238 
Q 1834 4238 1429 3725 
Q 1025 3213 1025 2328 
Q 1025 1447 1429 934 
Q 1834 422 2522 422 
Q 3209 422 3611 934 
Q 4013 1447 4013 2328 
Q 4013 3213 3611 3725 
Q 3209 4238 2522 4238 
z
M 2522 4750 
Q 3503 4750 4090 4092 
Q 4678 3434 4678 2328 
Q 4678 1225 4090 567 
Q 3503 -91 2522 -91 
Q 1538 -91 948 565 
Q 359 1222 359 2328 
Q 359 3434 948 4092 
Q 1538 4750 2522 4750 
z
" transform="scale(0.015625)"/>
      </defs>
      <use xlink:href="#DejaVuSans-50"/>
      <use xlink:href="#DejaVuSans-50" x="60.302734"/>
      <use xlink:href="#DejaVuSans-4f" x="120.605469"/>
     </g>
    </g>
    <g id="line2d_16">
     <path d="M 354.666875 69.248562 
L 364.666875 69.248562 
L 374.666875 69.248562 
" style="fill: none; stroke: #ff0000; stroke-width: 1.5; stroke-linecap: square"/>
    </g>
    <g id="text_16">
     <!-- DQN -->
     <g transform="translate(382.666875 72.748562)scale(0.1 -0.1)">
      <defs>
       <path id="DejaVuSans-44" d="M 1259 4147 
L 1259 519 
L 2022 519 
Q 2988 519 3436 956 
Q 3884 1394 3884 2338 
Q 3884 3275 3436 3711 
Q 2988 4147 2022 4147 
L 1259 4147 
z
M 628 4666 
L 1925 4666 
Q 3281 4666 3915 4102 
Q 4550 3538 4550 2338 
Q 4550 1131 3912 565 
Q 3275 0 1925 0 
L 628 0 
L 628 4666 
z
" transform="scale(0.015625)"/>
       <path id="DejaVuSans-51" d="M 2522 4238 
Q 1834 4238 1429 3725 
Q 1025 3213 1025 2328 
Q 1025 1447 1429 934 
Q 1834 422 2522 422 
Q 3209 422 3611 934 
Q 4013 1447 4013 2328 
Q 4013 3213 3611 3725 
Q 3209 4238 2522 4238 
z
M 3406 84 
L 4238 -825 
L 3475 -825 
L 2784 -78 
Q 2681 -84 2626 -87 
Q 2572 -91 2522 -91 
Q 1538 -91 948 567 
Q 359 1225 359 2328 
Q 359 3434 948 4092 
Q 1538 4750 2522 4750 
Q 3503 4750 4090 4092 
Q 4678 3434 4678 2328 
Q 4678 1516 4351 937 
Q 4025 359 3406 84 
z
" transform="scale(0.015625)"/>
       <path id="DejaVuSans-4e" d="M 628 4666 
L 1478 4666 
L 3547 763 
L 3547 4666 
L 4159 4666 
L 4159 0 
L 3309 0 
L 1241 3903 
L 1241 0 
L 628 0 
L 628 4666 
z
" transform="scale(0.015625)"/>
      </defs>
      <use xlink:href="#DejaVuSans-44"/>
      <use xlink:href="#DejaVuSans-51" x="77.001953"/>
      <use xlink:href="#DejaVuSans-4e" x="155.712891"/>
     </g>
    </g>
   </g>
  </g>
 </g>
 <defs>
  <clipPath id="pbf82671383">
   <rect x="57.6" y="41.472" width="357.12" height="266.112"/>
  </clipPath>
 </defs>
</svg>
