<?xml version="1.0" encoding="utf-8" standalone="no"?>
<!DOCTYPE svg PUBLIC "-//W3C//DTD SVG 1.1//EN"
  "http://www.w3.org/Graphics/SVG/1.1/DTD/svg11.dtd">
<svg xmlns:xlink="http://www.w3.org/1999/xlink" width="432pt" height="216pt" viewBox="0 0 432 216" xmlns="http://www.w3.org/2000/svg" version="1.1">
 <metadata>
  <rdf:RDF xmlns:dc="http://purl.org/dc/elements/1.1/" xmlns:cc="http://creativecommons.org/ns#" xmlns:rdf="http://www.w3.org/1999/02/22-rdf-syntax-ns#">
   <cc:Work>
    <dc:type rdf:resource="http://purl.org/dc/dcmitype/StillImage"/>
    <dc:date>2022-05-28T20:36:09.743627</dc:date>
    <dc:format>image/svg+xml</dc:format>
    <dc:creator>
     <cc:Agent>
      <dc:title>Matplotlib v3.5.2, https://matplotlib.org/</dc:title>
     </cc:Agent>
    </dc:creator>
   </cc:Work>
  </rdf:RDF>
 </metadata>
 <defs>
  <style type="text/css">*{stroke-linejoin: round; stroke-linecap: butt}</style>
 </defs>
 <g id="figure_1">
  <g id="patch_1">
   <path d="M 0 216 
L 432 216 
L 432 0 
L 0 0 
z
" style="fill: #ffffff"/>
  </g>
  <g id="axes_1">
   <g id="patch_2">
    <path d="M 54.02 174.04 
L 208.485473 174.04 
L 208.485473 10.8 
L 54.02 10.8 
z
" style="fill: #ffffff"/>
   </g>
   <g id="matplotlib.axis_1">
    <g id="xtick_1">
     <g id="line2d_1">
      <defs>
       <path id="ma95776bb4c" d="M 0 0 
L 0 3.5 
" style="stroke: #000000; stroke-width: 0.8"/>
      </defs>
      <g>
       <use xlink:href="#ma95776bb4c" x="61.041158" y="174.04" style="stroke: #000000; stroke-width: 0.8"/>
      </g>
     </g>
     <g id="text_1">
      <!-- 0 -->
      <g transform="translate(57.859908 188.638438)scale(0.1 -0.1)">
       <defs>
        <path id="DejaVuSans-30" d="M 2034 4250 
Q 1547 4250 1301 3770 
Q 1056 3291 1056 2328 
Q 1056 1369 1301 889 
Q 1547 409 2034 409 
Q 2525 409 2770 889 
Q 3016 1369 3016 2328 
Q 3016 3291 2770 3770 
Q 2525 4250 2034 4250 
z
M 2034 4750 
Q 2819 4750 3233 4129 
Q 3647 3509 3647 2328 
Q 3647 1150 3233 529 
Q 2819 -91 2034 -91 
Q 1250 -91 836 529 
Q 422 1150 422 2328 
Q 422 3509 836 4129 
Q 1250 4750 2034 4750 
z
" transform="scale(0.015625)"/>
       </defs>
       <use xlink:href="#DejaVuSans-30"/>
      </g>
     </g>
    </g>
    <g id="xtick_2">
     <g id="line2d_2">
      <g>
       <use xlink:href="#ma95776bb4c" x="109.580099" y="174.04" style="stroke: #000000; stroke-width: 0.8"/>
      </g>
     </g>
     <g id="text_2">
      <!-- 1 k -->
      <g transform="translate(102.505099 188.638438)scale(0.1 -0.1)">
       <defs>
        <path id="DejaVuSans-31" d="M 794 531 
L 1825 531 
L 1825 4091 
L 703 3866 
L 703 4441 
L 1819 4666 
L 2450 4666 
L 2450 531 
L 3481 531 
L 3481 0 
L 794 0 
L 794 531 
z
" transform="scale(0.015625)"/>
        <path id="DejaVuSans-2009" transform="scale(0.015625)"/>
        <path id="DejaVuSans-6b" d="M 581 4863 
L 1159 4863 
L 1159 1991 
L 2875 3500 
L 3609 3500 
L 1753 1863 
L 3688 0 
L 2938 0 
L 1159 1709 
L 1159 0 
L 581 0 
L 581 4863 
z
" transform="scale(0.015625)"/>
       </defs>
       <use xlink:href="#DejaVuSans-31"/>
       <use xlink:href="#DejaVuSans-2009" x="63.623047"/>
       <use xlink:href="#DejaVuSans-6b" x="83.59375"/>
      </g>
     </g>
    </g>
    <g id="xtick_3">
     <g id="line2d_3">
      <g>
       <use xlink:href="#ma95776bb4c" x="158.119041" y="174.04" style="stroke: #000000; stroke-width: 0.8"/>
      </g>
     </g>
     <g id="text_3">
      <!-- 2 k -->
      <g transform="translate(151.044041 188.638438)scale(0.1 -0.1)">
       <defs>
        <path id="DejaVuSans-32" d="M 1228 531 
L 3431 531 
L 3431 0 
L 469 0 
L 469 531 
Q 828 903 1448 1529 
Q 2069 2156 2228 2338 
Q 2531 2678 2651 2914 
Q 2772 3150 2772 3378 
Q 2772 3750 2511 3984 
Q 2250 4219 1831 4219 
Q 1534 4219 1204 4116 
Q 875 4013 500 3803 
L 500 4441 
Q 881 4594 1212 4672 
Q 1544 4750 1819 4750 
Q 2544 4750 2975 4387 
Q 3406 4025 3406 3419 
Q 3406 3131 3298 2873 
Q 3191 2616 2906 2266 
Q 2828 2175 2409 1742 
Q 1991 1309 1228 531 
z
" transform="scale(0.015625)"/>
       </defs>
       <use xlink:href="#DejaVuSans-32"/>
       <use xlink:href="#DejaVuSans-2009" x="63.623047"/>
       <use xlink:href="#DejaVuSans-6b" x="83.59375"/>
      </g>
     </g>
    </g>
    <g id="xtick_4">
     <g id="line2d_4">
      <g>
       <use xlink:href="#ma95776bb4c" x="206.657982" y="174.04" style="stroke: #000000; stroke-width: 0.8"/>
      </g>
     </g>
     <g id="text_4">
      <!-- 3 k -->
      <g transform="translate(199.582982 188.638438)scale(0.1 -0.1)">
       <defs>
        <path id="DejaVuSans-33" d="M 2597 2516 
Q 3050 2419 3304 2112 
Q 3559 1806 3559 1356 
Q 3559 666 3084 287 
Q 2609 -91 1734 -91 
Q 1441 -91 1130 -33 
Q 819 25 488 141 
L 488 750 
Q 750 597 1062 519 
Q 1375 441 1716 441 
Q 2309 441 2620 675 
Q 2931 909 2931 1356 
Q 2931 1769 2642 2001 
Q 2353 2234 1838 2234 
L 1294 2234 
L 1294 2753 
L 1863 2753 
Q 2328 2753 2575 2939 
Q 2822 3125 2822 3475 
Q 2822 3834 2567 4026 
Q 2313 4219 1838 4219 
Q 1578 4219 1281 4162 
Q 984 4106 628 3988 
L 628 4550 
Q 988 4650 1302 4700 
Q 1616 4750 1894 4750 
Q 2613 4750 3031 4423 
Q 3450 4097 3450 3541 
Q 3450 3153 3228 2886 
Q 3006 2619 2597 2516 
z
" transform="scale(0.015625)"/>
       </defs>
       <use xlink:href="#DejaVuSans-33"/>
       <use xlink:href="#DejaVuSans-2009" x="63.623047"/>
       <use xlink:href="#DejaVuSans-6b" x="83.59375"/>
      </g>
     </g>
    </g>
    <g id="text_5">
     <!-- Episodes -->
     <g transform="translate(109.010549 202.316563)scale(0.1 -0.1)">
      <defs>
       <path id="DejaVuSans-45" d="M 628 4666 
L 3578 4666 
L 3578 4134 
L 1259 4134 
L 1259 2753 
L 3481 2753 
L 3481 2222 
L 1259 2222 
L 1259 531 
L 3634 531 
L 3634 0 
L 628 0 
L 628 4666 
z
" transform="scale(0.015625)"/>
       <path id="DejaVuSans-70" d="M 1159 525 
L 1159 -1331 
L 581 -1331 
L 581 3500 
L 1159 3500 
L 1159 2969 
Q 1341 3281 1617 3432 
Q 1894 3584 2278 3584 
Q 2916 3584 3314 3078 
Q 3713 2572 3713 1747 
Q 3713 922 3314 415 
Q 2916 -91 2278 -91 
Q 1894 -91 1617 61 
Q 1341 213 1159 525 
z
M 3116 1747 
Q 3116 2381 2855 2742 
Q 2594 3103 2138 3103 
Q 1681 3103 1420 2742 
Q 1159 2381 1159 1747 
Q 1159 1113 1420 752 
Q 1681 391 2138 391 
Q 2594 391 2855 752 
Q 3116 1113 3116 1747 
z
" transform="scale(0.015625)"/>
       <path id="DejaVuSans-69" d="M 603 3500 
L 1178 3500 
L 1178 0 
L 603 0 
L 603 3500 
z
M 603 4863 
L 1178 4863 
L 1178 4134 
L 603 4134 
L 603 4863 
z
" transform="scale(0.015625)"/>
       <path id="DejaVuSans-73" d="M 2834 3397 
L 2834 2853 
Q 2591 2978 2328 3040 
Q 2066 3103 1784 3103 
Q 1356 3103 1142 2972 
Q 928 2841 928 2578 
Q 928 2378 1081 2264 
Q 1234 2150 1697 2047 
L 1894 2003 
Q 2506 1872 2764 1633 
Q 3022 1394 3022 966 
Q 3022 478 2636 193 
Q 2250 -91 1575 -91 
Q 1294 -91 989 -36 
Q 684 19 347 128 
L 347 722 
Q 666 556 975 473 
Q 1284 391 1588 391 
Q 1994 391 2212 530 
Q 2431 669 2431 922 
Q 2431 1156 2273 1281 
Q 2116 1406 1581 1522 
L 1381 1569 
Q 847 1681 609 1914 
Q 372 2147 372 2553 
Q 372 3047 722 3315 
Q 1072 3584 1716 3584 
Q 2034 3584 2315 3537 
Q 2597 3491 2834 3397 
z
" transform="scale(0.015625)"/>
       <path id="DejaVuSans-6f" d="M 1959 3097 
Q 1497 3097 1228 2736 
Q 959 2375 959 1747 
Q 959 1119 1226 758 
Q 1494 397 1959 397 
Q 2419 397 2687 759 
Q 2956 1122 2956 1747 
Q 2956 2369 2687 2733 
Q 2419 3097 1959 3097 
z
M 1959 3584 
Q 2709 3584 3137 3096 
Q 3566 2609 3566 1747 
Q 3566 888 3137 398 
Q 2709 -91 1959 -91 
Q 1206 -91 779 398 
Q 353 888 353 1747 
Q 353 2609 779 3096 
Q 1206 3584 1959 3584 
z
" transform="scale(0.015625)"/>
       <path id="DejaVuSans-64" d="M 2906 2969 
L 2906 4863 
L 3481 4863 
L 3481 0 
L 2906 0 
L 2906 525 
Q 2725 213 2448 61 
Q 2172 -91 1784 -91 
Q 1150 -91 751 415 
Q 353 922 353 1747 
Q 353 2572 751 3078 
Q 1150 3584 1784 3584 
Q 2172 3584 2448 3432 
Q 2725 3281 2906 2969 
z
M 947 1747 
Q 947 1113 1208 752 
Q 1469 391 1925 391 
Q 2381 391 2643 752 
Q 2906 1113 2906 1747 
Q 2906 2381 2643 2742 
Q 2381 3103 1925 3103 
Q 1469 3103 1208 2742 
Q 947 2381 947 1747 
z
" transform="scale(0.015625)"/>
       <path id="DejaVuSans-65" d="M 3597 1894 
L 3597 1613 
L 953 1613 
Q 991 1019 1311 708 
Q 1631 397 2203 397 
Q 2534 397 2845 478 
Q 3156 559 3463 722 
L 3463 178 
Q 3153 47 2828 -22 
Q 2503 -91 2169 -91 
Q 1331 -91 842 396 
Q 353 884 353 1716 
Q 353 2575 817 3079 
Q 1281 3584 2069 3584 
Q 2775 3584 3186 3129 
Q 3597 2675 3597 1894 
z
M 3022 2063 
Q 3016 2534 2758 2815 
Q 2500 3097 2075 3097 
Q 1594 3097 1305 2825 
Q 1016 2553 972 2059 
L 3022 2063 
z
" transform="scale(0.015625)"/>
      </defs>
      <use xlink:href="#DejaVuSans-45"/>
      <use xlink:href="#DejaVuSans-70" x="63.183594"/>
      <use xlink:href="#DejaVuSans-69" x="126.660156"/>
      <use xlink:href="#DejaVuSans-73" x="154.443359"/>
      <use xlink:href="#DejaVuSans-6f" x="206.542969"/>
      <use xlink:href="#DejaVuSans-64" x="267.724609"/>
      <use xlink:href="#DejaVuSans-65" x="331.201172"/>
      <use xlink:href="#DejaVuSans-73" x="392.724609"/>
     </g>
    </g>
   </g>
   <g id="matplotlib.axis_2">
    <g id="ytick_1">
     <g id="line2d_5">
      <defs>
       <path id="mbfcfdd6968" d="M 0 0 
L -3.5 0 
" style="stroke: #000000; stroke-width: 0.8"/>
      </defs>
      <g>
       <use xlink:href="#mbfcfdd6968" x="54.02" y="171.084375" style="stroke: #000000; stroke-width: 0.8"/>
      </g>
     </g>
     <g id="text_6">
      <!-- 0.0 -->
      <g transform="translate(31.116875 174.883594)scale(0.1 -0.1)">
       <defs>
        <path id="DejaVuSans-2e" d="M 684 794 
L 1344 794 
L 1344 0 
L 684 0 
L 684 794 
z
" transform="scale(0.015625)"/>
       </defs>
       <use xlink:href="#DejaVuSans-30"/>
       <use xlink:href="#DejaVuSans-2e" x="63.623047"/>
       <use xlink:href="#DejaVuSans-30" x="95.410156"/>
      </g>
     </g>
    </g>
    <g id="ytick_2">
     <g id="line2d_6">
      <g>
       <use xlink:href="#mbfcfdd6968" x="54.02" y="146.77748" style="stroke: #000000; stroke-width: 0.8"/>
      </g>
     </g>
     <g id="text_7">
      <!-- 2.5 -->
      <g transform="translate(31.116875 150.576699)scale(0.1 -0.1)">
       <defs>
        <path id="DejaVuSans-35" d="M 691 4666 
L 3169 4666 
L 3169 4134 
L 1269 4134 
L 1269 2991 
Q 1406 3038 1543 3061 
Q 1681 3084 1819 3084 
Q 2600 3084 3056 2656 
Q 3513 2228 3513 1497 
Q 3513 744 3044 326 
Q 2575 -91 1722 -91 
Q 1428 -91 1123 -41 
Q 819 9 494 109 
L 494 744 
Q 775 591 1075 516 
Q 1375 441 1709 441 
Q 2250 441 2565 725 
Q 2881 1009 2881 1497 
Q 2881 1984 2565 2268 
Q 2250 2553 1709 2553 
Q 1456 2553 1204 2497 
Q 953 2441 691 2322 
L 691 4666 
z
" transform="scale(0.015625)"/>
       </defs>
       <use xlink:href="#DejaVuSans-32"/>
       <use xlink:href="#DejaVuSans-2e" x="63.623047"/>
       <use xlink:href="#DejaVuSans-35" x="95.410156"/>
      </g>
     </g>
    </g>
    <g id="ytick_3">
     <g id="line2d_7">
      <g>
       <use xlink:href="#mbfcfdd6968" x="54.02" y="122.470585" style="stroke: #000000; stroke-width: 0.8"/>
      </g>
     </g>
     <g id="text_8">
      <!-- 5.0 -->
      <g transform="translate(31.116875 126.269804)scale(0.1 -0.1)">
       <use xlink:href="#DejaVuSans-35"/>
       <use xlink:href="#DejaVuSans-2e" x="63.623047"/>
       <use xlink:href="#DejaVuSans-30" x="95.410156"/>
      </g>
     </g>
    </g>
    <g id="ytick_4">
     <g id="line2d_8">
      <g>
       <use xlink:href="#mbfcfdd6968" x="54.02" y="98.16369" style="stroke: #000000; stroke-width: 0.8"/>
      </g>
     </g>
     <g id="text_9">
      <!-- 7.5 -->
      <g transform="translate(31.116875 101.962909)scale(0.1 -0.1)">
       <defs>
        <path id="DejaVuSans-37" d="M 525 4666 
L 3525 4666 
L 3525 4397 
L 1831 0 
L 1172 0 
L 2766 4134 
L 525 4134 
L 525 4666 
z
" transform="scale(0.015625)"/>
       </defs>
       <use xlink:href="#DejaVuSans-37"/>
       <use xlink:href="#DejaVuSans-2e" x="63.623047"/>
       <use xlink:href="#DejaVuSans-35" x="95.410156"/>
      </g>
     </g>
    </g>
    <g id="ytick_5">
     <g id="line2d_9">
      <g>
       <use xlink:href="#mbfcfdd6968" x="54.02" y="73.856796" style="stroke: #000000; stroke-width: 0.8"/>
      </g>
     </g>
     <g id="text_10">
      <!-- 10.0 -->
      <g transform="translate(24.754375 77.656014)scale(0.1 -0.1)">
       <use xlink:href="#DejaVuSans-31"/>
       <use xlink:href="#DejaVuSans-30" x="63.623047"/>
       <use xlink:href="#DejaVuSans-2e" x="127.246094"/>
       <use xlink:href="#DejaVuSans-30" x="159.033203"/>
      </g>
     </g>
    </g>
    <g id="ytick_6">
     <g id="line2d_10">
      <g>
       <use xlink:href="#mbfcfdd6968" x="54.02" y="49.549901" style="stroke: #000000; stroke-width: 0.8"/>
      </g>
     </g>
     <g id="text_11">
      <!-- 12.5 -->
      <g transform="translate(24.754375 53.34912)scale(0.1 -0.1)">
       <use xlink:href="#DejaVuSans-31"/>
       <use xlink:href="#DejaVuSans-32" x="63.623047"/>
       <use xlink:href="#DejaVuSans-2e" x="127.246094"/>
       <use xlink:href="#DejaVuSans-35" x="159.033203"/>
      </g>
     </g>
    </g>
    <g id="ytick_7">
     <g id="line2d_11">
      <g>
       <use xlink:href="#mbfcfdd6968" x="54.02" y="25.243006" style="stroke: #000000; stroke-width: 0.8"/>
      </g>
     </g>
     <g id="text_12">
      <!-- 15.0 -->
      <g transform="translate(24.754375 29.042225)scale(0.1 -0.1)">
       <use xlink:href="#DejaVuSans-31"/>
       <use xlink:href="#DejaVuSans-35" x="63.623047"/>
       <use xlink:href="#DejaVuSans-2e" x="127.246094"/>
       <use xlink:href="#DejaVuSans-30" x="159.033203"/>
      </g>
     </g>
    </g>
    <g id="text_13">
     <!-- Reward -->
     <g transform="translate(18.674688 111.041094)rotate(-90)scale(0.1 -0.1)">
      <defs>
       <path id="DejaVuSans-52" d="M 2841 2188 
Q 3044 2119 3236 1894 
Q 3428 1669 3622 1275 
L 4263 0 
L 3584 0 
L 2988 1197 
Q 2756 1666 2539 1819 
Q 2322 1972 1947 1972 
L 1259 1972 
L 1259 0 
L 628 0 
L 628 4666 
L 2053 4666 
Q 2853 4666 3247 4331 
Q 3641 3997 3641 3322 
Q 3641 2881 3436 2590 
Q 3231 2300 2841 2188 
z
M 1259 4147 
L 1259 2491 
L 2053 2491 
Q 2509 2491 2742 2702 
Q 2975 2913 2975 3322 
Q 2975 3731 2742 3939 
Q 2509 4147 2053 4147 
L 1259 4147 
z
" transform="scale(0.015625)"/>
       <path id="DejaVuSans-77" d="M 269 3500 
L 844 3500 
L 1563 769 
L 2278 3500 
L 2956 3500 
L 3675 769 
L 4391 3500 
L 4966 3500 
L 4050 0 
L 3372 0 
L 2619 2869 
L 1863 0 
L 1184 0 
L 269 3500 
z
" transform="scale(0.015625)"/>
       <path id="DejaVuSans-61" d="M 2194 1759 
Q 1497 1759 1228 1600 
Q 959 1441 959 1056 
Q 959 750 1161 570 
Q 1363 391 1709 391 
Q 2188 391 2477 730 
Q 2766 1069 2766 1631 
L 2766 1759 
L 2194 1759 
z
M 3341 1997 
L 3341 0 
L 2766 0 
L 2766 531 
Q 2569 213 2275 61 
Q 1981 -91 1556 -91 
Q 1019 -91 701 211 
Q 384 513 384 1019 
Q 384 1609 779 1909 
Q 1175 2209 1959 2209 
L 2766 2209 
L 2766 2266 
Q 2766 2663 2505 2880 
Q 2244 3097 1772 3097 
Q 1472 3097 1187 3025 
Q 903 2953 641 2809 
L 641 3341 
Q 956 3463 1253 3523 
Q 1550 3584 1831 3584 
Q 2591 3584 2966 3190 
Q 3341 2797 3341 1997 
z
" transform="scale(0.015625)"/>
       <path id="DejaVuSans-72" d="M 2631 2963 
Q 2534 3019 2420 3045 
Q 2306 3072 2169 3072 
Q 1681 3072 1420 2755 
Q 1159 2438 1159 1844 
L 1159 0 
L 581 0 
L 581 3500 
L 1159 3500 
L 1159 2956 
Q 1341 3275 1631 3429 
Q 1922 3584 2338 3584 
Q 2397 3584 2469 3576 
Q 2541 3569 2628 3553 
L 2631 2963 
z
" transform="scale(0.015625)"/>
      </defs>
      <use xlink:href="#DejaVuSans-52"/>
      <use xlink:href="#DejaVuSans-65" x="64.982422"/>
      <use xlink:href="#DejaVuSans-77" x="126.505859"/>
      <use xlink:href="#DejaVuSans-61" x="208.292969"/>
      <use xlink:href="#DejaVuSans-72" x="269.572266"/>
      <use xlink:href="#DejaVuSans-64" x="308.935547"/>
     </g>
    </g>
   </g>
   <g id="line2d_12">
    <path d="M 61.041158 166.62 
L 61.138236 121.420772 
L 61.186775 134.263544 
L 61.38093 155.988171 
L 61.478008 156.445912 
L 61.526547 154.470111 
L 61.623625 159.008355 
L 61.672164 156.916853 
L 61.720703 149.930766 
L 61.769242 151.537003 
L 61.963398 157.774058 
L 62.060476 153.110257 
L 62.109015 154.91142 
L 62.206092 151.888048 
L 62.30317 154.160057 
L 62.545865 145.375162 
L 62.691482 152.800194 
L 62.740021 151.17734 
L 62.837099 148.497688 
L 63.079793 153.820845 
L 63.128332 153.153517 
L 63.22541 149.780956 
L 63.273949 150.885009 
L 63.468105 140.777006 
L 63.516644 144.181673 
L 63.565183 142.832259 
L 63.807878 150.764368 
L 63.904955 146.065619 
L 64.002033 150.485487 
L 64.050572 150.346567 
L 64.196189 146.375653 
L 64.341806 151.337829 
L 64.390345 149.486138 
L 64.438884 151.531448 
L 64.487423 151.006086 
L 64.535962 151.38931 
L 64.63304 155.815289 
L 64.730117 155.559511 
L 64.778656 153.091904 
L 64.827195 153.574946 
L 64.875734 154.604225 
L 64.972812 151.761415 
L 65.06989 155.513974 
L 65.215507 152.344063 
L 65.458202 156.664929 
L 65.555279 156.545051 
L 65.603818 156.156481 
L 65.652357 156.690675 
L 65.700896 156.464555 
L 65.846513 153.984405 
L 65.99213 150.362561 
L 66.089208 150.492306 
L 66.137747 151.088799 
L 66.186286 150.819127 
L 66.234825 150.833494 
L 66.42898 144.013347 
L 66.477519 144.337997 
L 66.720214 136.014039 
L 66.865831 141.8222 
L 67.011448 140.761468 
L 67.205603 144.395122 
L 67.254142 143.448055 
L 67.448298 147.466471 
L 67.545376 146.649627 
L 67.739532 149.437189 
L 67.788071 149.247112 
L 67.83661 150.470895 
L 67.885149 149.445659 
L 67.933688 149.650364 
L 68.27346 144.100868 
L 68.321999 144.114695 
L 68.467616 148.71742 
L 68.516155 146.735877 
L 68.564694 147.398018 
L 68.613233 147.706689 
L 68.710311 152.060642 
L 68.807388 152.001521 
L 68.855927 154.122917 
L 68.904466 152.714863 
L 69.050083 150.00834 
L 69.244239 153.198781 
L 69.389856 149.28255 
L 69.438395 149.191792 
L 69.486934 149.47102 
L 69.63255 155.700264 
L 69.681089 155.241299 
L 69.729628 155.011789 
L 69.778167 155.433467 
L 69.826706 157.022641 
L 69.875245 155.413431 
L 70.069401 158.360262 
L 70.11794 158.104951 
L 70.312096 156.204852 
L 70.457712 148.831531 
L 70.748946 161.231903 
L 70.943102 165.69791 
L 70.991641 166.346981 
L 71.04018 165.622555 
L 71.088719 163.139724 
L 71.137258 163.512655 
L 71.185797 164.678985 
L 71.234336 164.475496 
L 71.379952 162.699981 
L 71.428491 163.734918 
L 71.47703 163.533988 
L 71.525569 161.598213 
L 71.622647 162.090651 
L 71.816803 164.699554 
L 71.96242 158.113106 
L 72.010959 159.633854 
L 72.059498 159.534523 
L 72.253653 153.56964 
L 72.302192 155.855191 
L 72.350731 154.824301 
L 72.447809 152.521407 
L 72.496348 153.062554 
L 72.544887 152.841651 
L 72.739043 156.397144 
L 72.787582 152.664346 
L 72.836121 155.28684 
L 72.88466 155.968395 
L 73.224432 146.436998 
L 73.272971 148.641648 
L 73.370049 148.472583 
L 73.515666 152.173823 
L 73.564205 151.39809 
L 73.612744 150.482579 
L 73.661283 151.071096 
L 73.758361 154.539146 
L 73.806899 152.879712 
L 73.855438 153.139578 
L 73.952516 155.852674 
L 74.001055 155.21187 
L 74.098133 150.51122 
L 74.195211 151.539716 
L 74.24375 152.546442 
L 74.292289 152.337995 
L 74.534984 144.81893 
L 74.583523 146.504172 
L 74.632061 146.183461 
L 74.6806 145.337524 
L 74.729139 142.513544 
L 74.777678 144.865749 
L 74.826217 144.237342 
L 74.971834 148.269009 
L 75.020373 147.549132 
L 75.311607 141.254204 
L 75.360146 141.428743 
L 75.408685 141.083936 
L 75.457223 142.591054 
L 75.505762 141.414131 
L 75.554301 141.551226 
L 75.60284 143.05926 
L 75.651379 142.904747 
L 75.699918 140.192473 
L 75.748457 143.389938 
L 75.796996 143.446746 
L 75.942613 146.068723 
L 76.039691 147.820306 
L 76.08823 147.625392 
L 76.136769 145.559405 
L 76.185308 145.807758 
L 76.282385 148.100011 
L 76.379463 146.289578 
L 76.476541 147.925726 
L 76.52508 146.504659 
L 76.573619 148.969006 
L 76.670697 148.354964 
L 76.719236 148.432929 
L 76.913392 147.228014 
L 77.01047 144.500482 
L 77.059009 145.035526 
L 77.107547 146.118898 
L 77.301703 141.560724 
L 77.44732 144.236707 
L 77.738554 135.176113 
L 77.835632 139.319571 
L 77.932709 139.275083 
L 77.981248 138.174833 
L 78.029787 139.312761 
L 78.175404 145.905961 
L 78.223943 145.900765 
L 78.272482 145.79547 
L 78.418099 150.096546 
L 78.563716 148.799076 
L 78.612255 149.600712 
L 78.709333 146.542699 
L 78.757871 146.57981 
L 79.000566 142.829051 
L 79.097644 146.836042 
L 79.146183 146.732234 
L 79.194722 143.108548 
L 79.243261 145.042091 
L 79.2918 146.075242 
L 79.340339 144.702708 
L 79.485956 149.437353 
L 79.534495 146.751059 
L 79.583033 147.846446 
L 79.631572 147.793695 
L 79.922806 154.517316 
L 79.971345 155.192184 
L 80.068423 152.876974 
L 80.359657 158.420241 
L 80.408195 158.089626 
L 80.456734 159.663025 
L 80.505273 158.925702 
L 80.553812 159.019537 
L 80.602351 158.846751 
L 80.747968 156.058805 
L 80.796507 156.479685 
L 80.845046 156.340405 
L 80.893585 154.512545 
L 80.942124 155.625929 
L 80.990663 155.493299 
L 81.039202 153.602084 
L 81.087741 153.960221 
L 81.13628 154.269143 
L 81.281896 152.794278 
L 81.427513 154.666075 
L 81.524591 155.208498 
L 81.57313 155.195717 
L 81.767286 152.916071 
L 81.815825 155.477355 
L 81.864364 153.464256 
L 81.912903 153.349452 
L 81.961442 153.391023 
L 82.009981 153.527997 
L 82.058519 153.327679 
L 82.155597 157.057801 
L 82.204136 157.037172 
L 82.252675 156.703625 
L 82.49537 162.511502 
L 82.543909 161.171245 
L 82.738065 158.895382 
L 82.786604 159.552755 
L 82.835143 158.334295 
L 82.883681 154.183256 
L 82.980759 155.029946 
L 83.029298 155.168122 
L 83.41761 150.098518 
L 83.563227 153.378274 
L 83.708843 151.011131 
L 83.85446 154.888355 
L 83.902999 154.793267 
L 84.291311 151.774239 
L 84.33985 152.072521 
L 84.388389 152.269448 
L 84.582544 149.374574 
L 84.631083 149.626037 
L 84.679622 149.734067 
L 84.728161 146.611659 
L 84.825239 147.037271 
L 84.873778 146.409116 
L 84.922317 146.792849 
L 84.970856 146.774162 
L 85.019395 145.94136 
L 85.067934 146.623812 
L 85.213551 148.010682 
L 85.310629 146.991853 
L 85.407706 147.723449 
L 85.456245 147.674278 
L 85.504784 146.544864 
L 85.553323 147.513125 
L 85.650401 148.710131 
L 85.796018 147.512381 
L 85.844557 147.561026 
L 85.893096 148.735823 
L 85.941635 148.406642 
L 86.135791 144.863044 
L 86.281407 142.804804 
L 86.378485 141.902108 
L 86.427024 142.269397 
L 86.524102 138.249383 
L 86.572641 139.109938 
L 86.815336 145.986786 
L 86.912414 141.691203 
L 86.960953 141.7779 
L 87.009491 141.714655 
L 87.106569 145.170057 
L 87.155108 144.726865 
L 87.203647 143.956365 
L 87.252186 144.690918 
L 87.300725 145.300553 
L 87.349264 144.509198 
L 87.446342 147.566041 
L 87.54342 142.230002 
L 87.591959 144.091123 
L 87.786115 145.391386 
L 87.834653 142.513484 
L 87.883192 145.157373 
L 87.931731 144.550585 
L 88.125887 149.643525 
L 88.174426 149.334247 
L 88.271504 147.21075 
L 88.320043 148.003934 
L 88.514199 153.197236 
L 88.611277 151.657834 
L 88.659815 151.578431 
L 88.708354 151.655146 
L 88.853971 149.530355 
L 88.951049 150.684302 
L 88.999588 150.213558 
L 89.290822 140.971993 
L 89.776211 151.129206 
L 89.82475 151.0119 
L 89.921828 148.912656 
L 89.970367 149.158988 
L 90.213062 153.782664 
L 90.261601 153.047676 
L 90.31014 154.037706 
L 90.358678 153.202728 
L 90.407217 153.102642 
L 90.455756 151.563987 
L 90.504295 152.429108 
L 90.552834 152.084604 
L 90.601373 153.812413 
L 90.649912 153.68216 
L 90.698451 153.229976 
L 90.74699 151.43344 
L 90.795529 153.011009 
L 91.426535 166.587869 
L 91.475074 166.490451 
L 91.66923 163.577017 
L 91.717769 163.840274 
L 91.911925 166.146374 
L 91.960464 165.811121 
L 92.009002 166.172011 
L 92.057541 166.612084 
L 92.10608 164.756304 
L 92.154619 165.169935 
L 92.300236 166.108279 
L 92.542931 163.359438 
L 92.59147 163.842912 
L 92.688548 162.87809 
L 92.737087 163.628701 
L 92.785626 162.918672 
L 92.834164 161.03887 
L 92.931242 161.421111 
L 93.125398 158.072818 
L 93.222476 158.982269 
L 93.465171 156.797168 
L 93.562249 157.207418 
L 93.659326 156.031572 
L 93.853482 159.013488 
L 93.902021 157.391623 
L 93.999099 157.673543 
L 94.047638 157.703073 
L 94.096177 156.207143 
L 94.144716 157.242687 
L 94.338872 158.515323 
L 94.533027 156.271661 
L 94.630105 156.909173 
L 94.775722 155.582283 
L 94.824261 155.808773 
L 94.921339 157.418575 
L 94.969878 157.177513 
L 95.115495 156.949978 
L 95.164034 157.227734 
L 95.212573 158.212249 
L 95.261112 157.519749 
L 95.358189 157.045744 
L 95.406728 156.130111 
L 95.455267 157.169507 
L 95.552345 156.458034 
L 95.600884 156.626129 
L 95.697962 156.033579 
L 95.843579 157.249242 
L 95.892118 157.015966 
L 95.989196 158.873774 
L 96.037735 158.102234 
L 96.183351 156.757477 
L 96.23189 156.574159 
L 96.280429 156.805478 
L 96.328968 157.476361 
L 96.377507 157.017233 
L 96.426046 157.2675 
L 96.571663 155.894683 
L 96.620202 156.139432 
L 96.765819 155.134849 
L 96.814358 155.174648 
L 96.911436 156.16722 
L 97.008513 155.111967 
L 97.202669 157.556729 
L 97.251208 156.989012 
L 97.299747 157.69378 
L 97.348286 157.347973 
L 97.63952 160.166054 
L 97.688059 160.153707 
L 97.882214 156.80111 
L 97.979292 156.481101 
L 98.027831 157.211265 
L 98.07637 156.325745 
L 98.221987 155.42773 
L 98.270526 155.554708 
L 98.367604 157.161217 
L 98.416143 157.103552 
L 98.56176 155.16856 
L 98.610298 155.964351 
L 98.658837 156.197257 
L 98.707376 155.607629 
L 98.755915 155.893958 
L 98.804454 155.959577 
L 98.901532 155.071589 
L 99.047149 153.582546 
L 99.047149 153.582546 
" clip-path="url(#p82290fbd6f)" style="fill: none; stroke: #2c1e3e; stroke-width: 1.5; stroke-linecap: square"/>
   </g>
   <g id="line2d_13">
    <path d="M 61.041158 131.545239 
L 61.138236 86.460292 
L 61.186775 102.926351 
L 61.235314 103.978416 
L 61.526547 100.793812 
L 61.575086 106.397932 
L 61.720703 110.32213 
L 61.769242 120.434184 
L 61.963398 126.006749 
L 62.011937 121.62556 
L 62.157554 123.512309 
L 62.30317 123.159757 
L 62.351709 122.217271 
L 62.448787 117.024175 
L 62.642943 117.150583 
L 62.837099 115.307577 
L 62.982716 110.623452 
L 63.322488 114.768862 
L 63.371027 112.611324 
L 63.516644 118.765358 
L 63.662261 114.679621 
L 63.807878 116.452882 
L 64.002033 118.199245 
L 64.050572 119.102243 
L 64.099111 114.591195 
L 64.196189 115.313286 
L 64.341806 111.977131 
L 64.584501 115.887257 
L 64.778656 113.256301 
L 64.875734 113.33031 
L 65.021351 115.612062 
L 65.06989 114.778084 
L 65.215507 116.77665 
L 65.361124 117.390939 
L 65.409663 119.72709 
L 65.652357 119.367212 
L 66.040669 123.941727 
L 66.186286 124.950063 
L 66.234825 123.918463 
L 66.331902 124.474538 
L 66.380441 122.027052 
L 66.574597 122.955838 
L 66.671675 122.0343 
L 66.91437 124.101928 
L 67.108526 123.457106 
L 67.302681 124.433496 
L 67.399759 123.657038 
L 67.448298 124.384673 
L 67.545376 124.00102 
L 67.642454 124.672046 
L 67.690993 123.583839 
L 68.030765 118.704659 
L 68.127843 115.714429 
L 68.176382 119.574453 
L 68.321999 121.031589 
L 68.661772 121.848028 
L 68.75885 120.835419 
L 68.807388 118.808169 
L 68.904466 119.804233 
L 69.001544 117.235841 
L 69.098622 118.82346 
L 69.292778 118.894905 
L 69.341317 118.090074 
L 69.389856 119.747756 
L 69.535473 117.455337 
L 69.63255 120.665654 
L 69.778167 116.873782 
L 69.923784 117.768622 
L 70.069401 112.03894 
L 70.215018 110.453222 
L 70.312096 106.381841 
L 70.360635 106.751913 
L 70.506251 107.140395 
L 70.846024 114.335779 
L 70.991641 111.557515 
L 71.185797 111.11022 
L 71.379952 111.227126 
L 71.47703 109.91127 
L 71.525569 110.088802 
L 71.622647 110.229045 
L 71.96242 101.788694 
L 72.156575 101.180358 
L 72.496348 98.123782 
L 72.641965 93.865597 
L 72.787582 95.474069 
L 72.981737 99.195964 
L 73.030276 98.04066 
L 73.272971 98.32494 
L 73.370049 96.824969 
L 73.515666 96.794895 
L 73.612744 94.193301 
L 73.661283 94.745146 
L 73.758361 94.869122 
L 74.146672 95.167087 
L 74.195211 97.823534 
L 74.340828 98.378602 
L 74.389367 97.858789 
L 74.437906 99.506674 
L 74.534984 96.719878 
L 74.632061 97.69606 
L 74.729139 96.175854 
L 74.777678 98.019742 
L 74.874756 96.788197 
L 75.117451 97.862853 
L 75.360146 96.896367 
L 75.408685 97.20652 
L 75.457223 99.402768 
L 75.505762 98.058782 
L 75.554301 98.261338 
L 75.796996 98.443571 
L 75.991152 93.889453 
L 76.039691 91.63687 
L 76.185308 92.656825 
L 76.233847 91.476597 
L 76.476541 99.213449 
L 76.52508 99.191056 
L 76.670697 99.326354 
L 77.059009 100.778999 
L 77.107547 100.636517 
L 77.156086 99.426078 
L 77.204625 102.135764 
L 77.398781 102.390019 
L 77.44732 101.237367 
L 77.544398 102.137766 
L 77.690015 101.047044 
L 77.787093 98.067645 
L 77.835632 99.072764 
L 77.932709 102.64481 
L 77.981248 102.122168 
L 78.126865 101.493243 
L 78.175404 101.670799 
L 78.272482 99.545079 
L 78.36956 100.674181 
L 78.418099 100.615617 
L 78.612255 97.889207 
L 78.660794 96.33053 
L 78.757871 99.020114 
L 78.80641 98.953573 
L 78.854949 99.980944 
L 78.903488 99.355064 
L 79.194722 100.539963 
L 79.243261 102.546896 
L 79.388878 100.158604 
L 79.583033 102.104392 
L 79.72865 101.371812 
L 79.777189 103.669743 
L 79.922806 105.010157 
L 79.971345 103.433366 
L 80.019884 104.131194 
L 80.116962 105.239522 
L 80.165501 105.116721 
L 80.311118 102.787665 
L 80.408195 107.339836 
L 80.505273 107.396031 
L 80.65089 111.021394 
L 80.845046 112.742452 
L 81.087741 109.325028 
L 81.13628 109.087431 
L 81.184819 107.415362 
L 81.330435 106.691956 
L 81.378974 108.261728 
L 81.670208 104.563185 
L 81.718747 105.409367 
L 81.912903 104.833327 
L 82.107058 100.807442 
L 82.301214 103.012159 
L 82.398292 100.300717 
L 82.446831 101.577882 
L 82.543909 101.540098 
L 82.640987 97.900339 
L 82.689526 97.951471 
L 82.883681 97.226126 
L 83.029298 95.087213 
L 83.077837 95.021891 
L 83.174915 97.031655 
L 83.271993 96.196031 
L 83.466149 98.048121 
L 83.563227 96.17067 
L 83.611766 97.271057 
L 83.660305 97.789368 
L 83.757382 97.646405 
L 83.85446 96.125461 
L 83.902999 98.083172 
L 84.048616 97.388343 
L 84.097155 98.66226 
L 84.242772 98.084923 
L 84.436928 100.658443 
L 84.631083 98.268586 
L 84.728161 100.825429 
L 84.7767 103.490871 
L 84.873778 102.814557 
L 85.019395 100.720565 
L 85.067934 97.903907 
L 85.213551 97.430781 
L 85.359167 96.232554 
L 85.407706 97.9013 
L 85.456245 97.5342 
L 85.601862 97.414635 
L 85.747479 95.660078 
L 85.796018 96.739019 
L 85.844557 96.439691 
L 85.893096 95.91406 
L 85.990174 92.228496 
L 86.135791 94.060206 
L 86.329946 88.389365 
L 86.427024 89.299985 
L 86.766797 88.463705 
L 86.912414 89.277683 
L 86.960953 86.645033 
L 87.05803 87.84792 
L 87.300725 81.899003 
L 87.397803 81.99568 
L 87.446342 83.295999 
L 87.54342 82.160905 
L 87.591959 83.866949 
L 87.834653 85.644903 
L 87.98027 83.567343 
L 88.028809 82.880833 
L 88.320043 84.004564 
L 88.417121 81.599176 
L 88.659815 82.577058 
L 88.853971 83.915921 
L 88.999588 83.518868 
L 89.193744 84.413738 
L 89.3879 82.992347 
L 89.436439 83.611797 
L 89.484978 83.490827 
L 89.582055 83.138591 
L 89.727672 80.213507 
L 89.873289 80.817736 
L 89.970367 80.627239 
L 90.018906 80.874856 
L 90.067445 79.420292 
L 90.115984 80.892937 
L 90.261601 81.916357 
L 90.407217 80.373402 
L 90.649912 78.958992 
L 90.989685 83.085962 
L 91.038224 82.434963 
L 91.135302 86.068202 
L 91.232379 85.658651 
L 91.280918 83.897975 
L 91.426535 83.041467 
L 91.572152 78.902202 
L 91.863386 75.348184 
L 91.960464 75.688175 
L 92.10608 77.61697 
L 92.203158 76.092197 
L 92.251697 76.816013 
L 92.348775 77.317032 
L 92.640009 74.447126 
L 92.688548 74.935475 
L 92.737087 74.961881 
L 92.834164 73.44331 
L 92.979781 72.988567 
L 93.02832 73.333986 
L 93.076859 72.254607 
L 93.416632 72.319096 
L 93.562249 71.981579 
L 94.290333 68.427786 
L 94.387411 67.272445 
L 94.630105 66.790974 
L 94.727183 65.319152 
L 94.824261 68.862334 
L 94.8728 68.520126 
L 95.261112 70.914415 
L 95.455267 71.553362 
L 95.503806 72.574568 
L 95.746501 71.01714 
L 95.843579 73.471072 
L 95.940657 72.481854 
L 95.989196 73.042465 
L 96.037735 73.331977 
L 96.134812 72.442009 
L 96.183351 72.961823 
L 96.377507 75.207403 
L 96.426046 74.10672 
L 96.571663 74.871564 
L 96.620202 72.992086 
L 96.911436 72.703566 
L 97.057052 71.543584 
L 97.202669 75.82773 
L 97.542442 74.846515 
L 97.736598 75.047728 
L 97.833675 74.172156 
L 98.07637 74.852671 
L 98.124909 74.703037 
L 98.319065 72.517904 
L 98.367604 73.364003 
L 98.416143 72.692429 
L 98.464682 72.636533 
L 98.707376 76.378202 
L 98.804454 76.389407 
L 98.950071 79.385867 
L 99.047149 82.285152 
L 99.192766 81.870298 
L 99.43546 80.46669 
L 99.532538 84.474279 
L 99.629616 84.40472 
L 99.678155 82.395616 
L 99.726694 83.194996 
L 99.872311 78.769794 
L 100.066467 78.918781 
L 100.115006 78.728962 
L 100.3577 75.348229 
L 100.503317 75.289347 
L 100.746012 74.786775 
L 100.940168 75.883064 
L 101.134323 73.374841 
L 101.182862 72.183378 
L 101.231401 73.220808 
L 101.425557 73.561078 
L 101.474096 73.909413 
L 101.571174 73.646826 
L 101.668252 74.631568 
L 101.813869 73.570563 
L 101.959485 74.116721 
L 102.056563 73.089458 
L 102.347797 73.677495 
L 102.493414 73.280662 
L 102.590492 74.698631 
L 102.639031 74.202128 
L 102.784647 75.235848 
L 102.881725 76.804512 
L 103.027342 76.936114 
L 103.075881 77.784521 
L 103.270037 77.916061 
L 103.318576 77.355915 
L 103.803965 78.183332 
L 103.901043 77.512594 
L 103.949582 78.332178 
L 103.998121 77.531607 
L 104.48351 73.427881 
L 104.580588 73.754827 
L 104.629127 73.305515 
L 104.823283 74.51685 
L 104.920361 73.238305 
L 105.842601 81.287443 
L 106.133834 82.249765 
L 106.425068 84.613058 
L 106.716302 85.23456 
L 106.764841 85.619431 
L 106.910457 84.503127 
L 107.104613 87.251214 
L 107.153152 86.392728 
L 107.347308 84.700423 
L 107.395847 85.014774 
L 107.444386 84.002464 
L 107.590003 84.351712 
L 107.735619 84.867262 
L 107.784158 84.607958 
L 107.881236 85.516778 
L 108.026853 83.896936 
L 108.17247 84.251461 
L 108.560781 83.475668 
L 108.900554 85.20935 
L 108.997632 86.392539 
L 109.09471 85.234335 
L 109.483021 86.982574 
L 109.628638 85.075529 
L 109.677177 85.565579 
L 109.774255 86.250179 
L 109.822794 84.956481 
L 109.871333 85.452484 
L 110.114028 86.020914 
L 110.308183 86.976704 
L 110.356722 85.866297 
L 110.405261 86.122354 
L 110.647956 85.413182 
L 110.93919 86.187588 
L 110.987729 85.382283 
L 111.278962 85.097228 
L 111.37604 85.720137 
L 111.424579 84.938205 
L 111.473118 85.240667 
L 111.667274 84.531322 
L 111.764352 84.854128 
L 111.958507 83.038993 
L 112.395358 84.513379 
L 112.589514 85.436741 
L 112.783669 85.977933 
L 112.929286 86.46636 
L 113.074903 85.208972 
L 113.026364 86.515959 
L 113.123442 85.643737 
L 113.171981 85.910922 
L 113.317598 85.469024 
L 113.560292 86.492655 
L 113.754448 86.930896 
L 113.802987 86.719748 
L 113.997143 86.933133 
L 114.045682 86.667763 
L 114.094221 86.883747 
L 114.433993 87.283856 
L 114.919383 94.724943 
L 115.113539 98.909757 
L 115.356233 100.257752 
L 115.50185 97.808058 
L 115.696006 97.143047 
L 115.938701 95.195876 
L 116.229934 94.290029 
L 117.103635 92.86595 
L 117.34633 92.682795 
L 117.443408 90.521032 
L 117.540486 90.592966 
L 118.122953 90.78983 
L 118.171492 89.688125 
L 118.220031 89.75309 
L 118.608342 90.250354 
L 118.802498 89.122168 
L 119.045193 89.388202 
L 119.093732 89.468163 
L 119.142271 88.795799 
L 119.19081 88.90538 
L 119.579121 89.291588 
L 119.773277 89.533458 
L 119.918894 88.56086 
L 119.967433 88.682189 
L 120.113049 88.90695 
L 120.161588 88.062905 
L 120.404283 88.348047 
L 120.889673 88.945126 
L 121.132367 87.452735 
L 121.229445 87.62947 
L 121.277984 87.124667 
L 121.326523 87.463647 
L 121.375062 88.30259 
L 121.423601 87.562351 
L 121.520679 85.388692 
L 121.714835 85.934569 
L 122.054607 87.202664 
L 122.200224 87.440517 
L 122.248763 86.457663 
L 122.39438 85.809671 
L 122.734152 81.806444 
L 122.976847 82.314108 
L 123.171003 83.643507 
L 123.268081 83.548115 
L 124.093243 85.79228 
L 124.190321 85.19684 
L 124.23886 85.486369 
L 124.627171 86.453382 
L 124.869866 87.143925 
L 125.11256 86.682469 
L 125.355255 87.481013 
L 125.500872 87.822889 
L 126.277495 88.274232 
L 126.326034 87.761634 
L 127.054118 88.954375 
L 127.296813 89.152598 
L 127.44243 89.509089 
L 127.636585 88.931905 
L 127.685124 89.083296 
L 128.655903 89.883092 
L 129.23837 90.213257 
L 130.014994 90.388391 
L 130.063532 90.418343 
L 130.840156 90.5691 
L 131.665318 90.812282 
L 132.733174 90.902016 
L 141.567262 90.987373 
L 148.362713 90.987432 
L 148.362713 90.987432 
" clip-path="url(#p82290fbd6f)" style="fill: none; stroke: #54968d; stroke-width: 1.5; stroke-linecap: square"/>
   </g>
   <g id="line2d_14">
    <path d="M 61.235314 66.525654 
L 61.720703 89.942199 
L 61.914859 107.814014 
L 62.30317 125.482722 
L 62.351709 134.88835 
L 63.322488 128.280319 
L 63.371027 131.919371 
L 63.419566 129.295536 
L 63.662261 131.053409 
L 64.050572 129.1952 
L 64.099111 130.842666 
L 64.244728 130.285732 
L 64.293267 131.163137 
L 64.438884 136.652044 
L 64.487423 133.259731 
L 64.778656 133.534391 
L 65.021351 137.058997 
L 65.361124 136.506611 
L 65.846513 133.711435 
L 66.040669 136.737543 
L 66.234825 135.362118 
L 66.91437 132.737757 
L 67.108526 130.430441 
L 67.157064 131.326484 
L 67.35122 128.795411 
L 67.642454 129.801678 
L 68.030765 130.230085 
L 68.176382 134.68208 
L 68.321999 128.572139 
L 68.904466 132.594818 
L 69.001544 133.87769 
L 69.63255 126.687537 
L 69.972323 125.330376 
L 70.020862 127.40824 
L 70.069401 126.014905 
L 70.312096 127.257664 
L 70.360635 131.6411 
L 70.894563 130.10807 
L 70.991641 132.022705 
L 71.282874 133.412643 
L 71.379952 135.648095 
L 71.47703 135.635654 
L 71.913881 137.659117 
L 72.156575 139.787848 
L 72.88466 139.065563 
L 72.933198 139.220252 
L 73.564205 136.299084 
L 73.661283 132.155492 
L 74.195211 130.716341 
L 74.534984 136.241264 
L 74.729139 130.607389 
L 74.874756 131.769679 
L 75.020373 131.271782 
L 75.117451 129.129477 
L 75.360146 128.728375 
L 75.505762 126.444629 
L 75.991152 123.27391 
L 76.185308 122.894463 
L 76.379463 123.917893 
L 76.52508 121.019743 
L 76.670697 120.701399 
L 77.398781 120.128107 
L 77.787093 121.107678 
L 77.835632 120.439708 
L 78.223943 118.913777 
L 78.418099 120.24268 
L 78.709333 115.782778 
L 78.757871 111.550065 
L 78.80641 111.881251 
L 79.388878 111.234294 
L 79.777189 109.707714 
L 79.971345 112.833248 
L 80.068423 110.773849 
L 80.311118 109.337556 
L 80.553812 111.252635 
L 80.65089 110.062588 
L 81.184819 109.8137 
L 81.524591 107.483217 
L 82.204136 105.674015 
L 82.349753 109.499984 
L 82.592448 107.775205 
L 82.689526 107.844533 
L 82.980759 107.339296 
L 83.174915 106.440266 
L 83.41761 109.941775 
L 83.611766 110.836912 
L 83.757382 109.852338 
L 83.85446 113.094484 
L 84.097155 113.955068 
L 84.33985 113.727351 
L 84.388389 113.848687 
L 84.679622 111.303094 
L 84.7767 111.817431 
L 85.019395 110.932077 
L 85.796018 109.456239 
L 85.893096 113.005851 
L 85.941635 111.859132 
L 86.135791 102.9072 
L 86.232868 98.522808 
L 86.912414 97.230466 
L 86.960953 98.936934 
L 87.05803 95.946374 
L 87.106569 96.23791 
L 87.252186 98.062641 
L 87.446342 97.548218 
L 87.54342 100.782725 
L 87.737576 100.162912 
L 88.028809 102.271312 
L 88.320043 103.409388 
L 88.417121 101.079598 
L 88.611277 100.95057 
L 88.853971 97.822347 
L 89.3879 96.866009 
L 89.436439 96.186265 
L 89.582055 95.92262 
L 89.679133 96.220409 
L 89.727672 98.314149 
L 89.873289 96.788449 
L 89.970367 94.55491 
L 90.552834 95.178914 
L 90.795529 94.484286 
L 90.844068 93.02241 
L 91.232379 89.6624 
L 91.280918 87.764574 
L 91.523613 86.864064 
L 91.572152 84.370216 
L 91.766308 84.251503 
L 91.960464 81.045797 
L 92.251697 79.581993 
L 92.300236 77.679308 
L 92.640009 79.991592 
L 92.979781 78.911614 
L 93.416632 80.57251 
L 93.562249 80.254056 
L 93.804943 79.100543 
L 93.853482 81.70606 
L 94.241794 85.556014 
L 94.727183 87.983714 
L 95.503806 86.627394 
L 96.037735 84.802737 
L 96.23189 86.360078 
L 96.523124 81.178348 
L 96.571663 80.989805 
L 96.620202 81.494264 
L 96.862897 78.077522 
L 97.15413 77.565196 
L 98.124909 76.225345 
L 98.173448 81.028402 
L 98.658837 85.279735 
L 98.804454 88.842073 
L 98.901532 86.574299 
L 98.99861 87.562622 
L 99.289844 84.568172 
L 100.066467 86.352184 
L 100.3577 90.814353 
L 100.746012 92.727154 
L 100.794551 95.473861 
L 101.231401 94.08019 
L 101.571174 88.794707 
L 101.619713 89.349351 
L 101.813869 89.954268 
L 102.347797 84.395969 
L 102.639031 85.326068 
L 102.784647 84.966085 
L 102.881725 86.671621 
L 103.075881 87.043891 
L 103.318576 86.343905 
L 103.949582 86.995649 
L 104.04666 85.451631 
L 104.337894 85.844398 
L 104.48351 85.15704 
L 104.580588 83.199321 
L 104.774744 83.271915 
L 104.823283 85.734206 
L 105.114517 86.862906 
L 106.085295 83.973332 
L 106.182373 86.037051 
L 106.279451 85.908916 
L 106.764841 88.185553 
L 107.104613 87.865034 
L 107.25023 89.946632 
L 107.395847 90.201233 
L 107.784158 93.037602 
L 108.560781 94.52279 
L 108.706398 94.400615 
L 108.900554 98.526526 
L 109.288866 99.267127 
L 109.53156 98.472327 
L 109.677177 99.972634 
L 109.725716 102.319959 
L 109.774255 100.926969 
L 110.211105 102.476231 
L 110.308183 101.140013 
L 110.647956 101.020169 
L 110.93919 105.15804 
L 111.327501 107.055565 
L 111.37604 106.016962 
L 111.812891 105.141394 
L 112.29828 104.577176 
L 112.589514 100.181145 
L 112.977825 101.244695 
L 113.123442 97.852944 
L 113.317598 95.360314 
L 113.754448 95.080914 
L 114.336915 97.97775 
L 114.531071 97.544898 
L 114.628149 95.861409 
L 114.870844 95.695891 
L 114.967922 93.488417 
L 115.50185 94.585526 
L 115.696006 92.385337 
L 115.841623 88.946827 
L 115.987239 88.381521 
L 116.084317 88.543961 
L 116.327012 92.330707 
L 116.666785 93.328897 
L 116.958018 92.325787 
L 117.443408 91.84874 
L 117.540486 90.338414 
L 118.025875 89.859817 
L 118.171492 87.898964 
L 118.753959 82.244928 
L 118.948115 82.239002 
L 118.996654 79.338352 
L 119.579121 79.341954 
L 119.967433 80.758766 
L 120.161588 78.596564 
L 120.404283 77.56045 
L 120.501361 75.859491 
L 120.695517 74.752607 
L 121.520679 75.579897 
L 121.763374 68.444097 
L 121.811912 69.05499 
L 122.054607 72.374681 
L 122.248763 70.856333 
L 122.539997 71.647032 
L 122.734152 69.692333 
L 122.976847 69.508633 
L 123.413698 68.256329 
L 123.656392 66.838769 
L 123.802009 67.964944 
L 124.044704 65.64621 
L 124.093243 67.690855 
L 124.23886 66.294607 
L 124.433015 66.711749 
L 124.869866 63.029452 
L 125.209638 63.514399 
L 125.355255 61.960946 
L 125.403794 64.003739 
L 125.840645 64.343032 
L 126.326034 61.741372 
L 126.471651 65.466944 
L 126.762884 61.815984 
L 127.054118 61.486411 
L 127.248274 63.601544 
L 127.782202 63.772088 
L 127.830741 62.376833 
L 128.024897 62.441031 
L 128.316131 61.469056 
L 128.510286 61.867265 
L 128.655903 60.616183 
L 129.820838 61.457993 
L 130.500383 61.149832 
L 130.985772 53.595654 
L 131.374084 56.963069 
L 131.762395 57.810321 
L 131.810934 58.571316 
L 131.956551 53.78674 
L 132.539018 54.981809 
L 132.684635 52.523546 
L 133.36418 48.904896 
L 133.558336 49.665499 
L 133.752492 49.191029 
L 133.946648 47.66677 
L 134.28642 46.918783 
L 134.334959 47.03722 
L 134.480576 48.851569 
L 134.626193 49.482881 
L 135.20866 50.402376 
L 135.645511 46.815471 
L 135.69405 45.875091 
L 136.325056 43.420373 
L 136.373595 44.199685 
L 137.150218 40.360777 
L 137.392913 41.775789 
L 137.538529 38.956268 
L 137.97538 42.825425 
L 138.509308 40.670905 
L 138.849081 43.888963 
L 140.014015 40.994338 
L 140.402327 38.285741 
L 140.645022 33.223985 
L 140.936255 31.286621 
L 140.984794 32.431134 
L 141.324567 30.79684 
L 141.712878 29.718521 
L 142.295346 26.884149 
L 142.926352 32.261642 
L 143.266125 31.000709 
L 143.751514 33.047506 
L 143.897131 39.133912 
L 144.042748 34.24314 
L 144.091287 35.099315 
L 144.431059 35.127906 
L 144.625215 34.018083 
L 144.673754 37.13471 
L 144.770832 35.261811 
L 145.013526 35.736384 
L 145.401838 34.709905 
L 145.450377 37.954278 
L 145.644533 36.989144 
L 145.741611 33.931799 
L 146.178461 31.04899 
L 146.712389 30.67997 
L 147.197779 29.020817 
L 147.294857 32.633552 
L 147.634629 34.181523 
L 147.731707 36.13288 
L 147.877324 37.4663 
L 148.217097 36.009809 
L 148.411252 38.321215 
L 149.333492 37.103847 
L 149.527648 37.758072 
L 149.721804 39.108559 
L 149.867421 37.066207 
L 150.886738 43.105471 
L 151.566283 43.869462 
L 151.614822 43.512276 
L 151.663361 44.959136 
L 152.294368 47.025584 
L 152.682679 50.664086 
L 153.653458 56.727115 
L 153.750536 59.084282 
L 154.138847 61.073076 
L 154.430081 61.993531 
L 154.47862 62.867963 
L 154.964009 63.698673 
L 155.012548 64.487848 
L 155.206704 65.237564 
L 155.255243 65.949794 
L 156.3231 70.032007 
L 156.468717 70.953398 
L 157.002645 71.379837 
L 157.488034 73.676842 
L 157.536573 73.564889 
L 157.68219 75.26321 
L 159.817904 78.757923 
L 159.866442 78.370629 
L 160.206215 79.492376 
L 160.400371 79.24435 
L 160.740143 79.896322 
L 160.788682 80.423039 
L 161.516766 83.761446 
L 161.953617 82.541898 
L 162.827318 78.391971 
L 162.972935 74.197113 
L 163.409785 77.994764 
L 163.65248 75.93257 
L 163.701019 77.499819 
L 163.895175 78.473985 
L 163.943714 76.931072 
L 164.283486 74.227058 
L 164.865953 71.821484 
L 165.836732 73.701102 
L 166.322122 74.330453 
L 167.195823 74.918818 
L 167.535595 74.421877 
L 167.875368 73.571984 
L 167.972446 74.013335 
L 168.263679 74.036244 
L 168.360757 76.979836 
L 168.506374 77.810086 
L 168.554913 78.946158 
L 168.846147 80.080378 
L 169.040302 81.829751 
L 169.574231 83.684481 
L 169.719848 83.53595 
L 169.962542 84.107526 
L 170.593549 82.955491 
L 171.078938 80.821309 
L 171.758483 79.526458 
L 172.680723 78.136615 
L 172.923418 76.959613 
L 172.971957 75.501165 
L 173.214651 73.9044 
L 173.457346 74.245053 
L 173.845658 71.159037 
L 174.379586 69.287846 
L 175.204748 62.102154 
L 175.544521 60.561954 
L 176.224066 58.48194 
L 176.757994 57.331599 
L 177.000689 56.305567 
L 177.097767 55.088863 
L 177.194845 51.515575 
L 177.243383 52.673731 
L 177.389 52.996159 
L 177.437539 50.872783 
L 178.893707 49.919637 
L 179.23348 47.774516 
L 179.282019 44.710229 
L 179.524714 44.869131 
L 179.573253 45.707912 
L 180.15572 44.648213 
L 180.641109 41.830528 
L 180.689648 42.008777 
L 180.883804 43.462976 
L 181.272116 44.245942 
L 181.660427 43.517475 
L 182.048739 43.746759 
L 182.291433 42.890335 
L 182.388511 41.112092 
L 182.631206 41.246698 
L 182.679745 41.721006 
L 182.776823 40.848784 
L 183.019517 40.711009 
L 183.310751 37.796481 
L 183.504907 34.829654 
L 183.747602 34.477484 
L 183.844679 32.860242 
L 184.232991 34.638199 
L 185.543542 35.480729 
L 185.689159 38.997121 
L 186.174549 40.104064 
L 186.514321 39.846015 
L 186.659938 41.180969 
L 186.708477 40.84882 
L 186.854094 41.587717 
L 187.193866 41.694982 
L 187.533639 43.902591 
L 188.116106 42.314671 
L 188.164645 39.560867 
L 188.552957 42.980845 
L 188.601496 42.64677 
L 188.892729 42.822362 
L 188.941268 40.046728 
L 189.086885 40.092556 
L 189.135424 39.761618 
L 189.183963 39.770664 
L 189.32958 39.740732 
L 190.25182 37.640195 
L 190.640131 36.124459 
L 190.68867 32.413498 
L 190.834287 31.110484 
L 191.17406 30.342043 
L 191.319676 30.534275 
L 191.416754 33.030284 
L 191.562371 32.22547 
L 191.756527 34.031254 
L 192.678767 29.209771 
L 192.727306 28.018329 
L 192.921462 28.251113 
L 192.97 27.676326 
L 193.018539 27.745261 
L 193.503929 26.527551 
L 193.552468 28.44897 
L 193.746624 29.958377 
L 194.232013 40.304971 
L 194.668863 42.312445 
L 194.717402 44.890267 
L 194.765941 43.595959 
L 195.057175 41.858639 
L 195.542564 35.787676 
L 195.73672 31.412806 
L 195.882337 31.705747 
L 196.22211 31.408831 
L 196.804577 29.968973 
L 196.901655 29.079868 
L 197.532661 29.800934 
L 197.5812 28.387813 
L 198.600518 26.283192 
L 199.085907 21.657816 
L 199.42568 23.16568 
L 199.474219 24.5746 
L 199.716913 23.30654 
L 200.153764 19.818798 
L 200.881848 18.22 
L 200.930387 20.410956 
L 201.367237 18.40416 
L 201.464315 18.552748 
L 201.464315 18.552748 
" clip-path="url(#p82290fbd6f)" style="fill: none; stroke: #c2d6af; stroke-width: 1.5; stroke-linecap: square"/>
   </g>
   <g id="line2d_15"/>
   <g id="line2d_16"/>
   <g id="line2d_17"/>
   <g id="patch_3">
    <path d="M 54.02 174.04 
L 54.02 10.8 
" style="fill: none; stroke: #000000; stroke-width: 0.8; stroke-linejoin: miter; stroke-linecap: square"/>
   </g>
   <g id="patch_4">
    <path d="M 208.485473 174.04 
L 208.485473 10.8 
" style="fill: none; stroke: #000000; stroke-width: 0.8; stroke-linejoin: miter; stroke-linecap: square"/>
   </g>
   <g id="patch_5">
    <path d="M 54.02 174.04 
L 208.485473 174.04 
" style="fill: none; stroke: #000000; stroke-width: 0.8; stroke-linejoin: miter; stroke-linecap: square"/>
   </g>
   <g id="patch_6">
    <path d="M 54.02 10.8 
L 208.485473 10.8 
" style="fill: none; stroke: #000000; stroke-width: 0.8; stroke-linejoin: miter; stroke-linecap: square"/>
   </g>
   <g id="legend_1">
    <g id="patch_7">
     <path d="M 147.219848 169.04 
L 201.485473 169.04 
Q 203.485473 169.04 203.485473 167.04 
L 203.485473 109.3275 
Q 203.485473 107.3275 201.485473 107.3275 
L 147.219848 107.3275 
Q 145.219848 107.3275 145.219848 109.3275 
L 145.219848 167.04 
Q 145.219848 169.04 147.219848 169.04 
z
" style="fill: #ffffff; opacity: 0.8; stroke: #cccccc; stroke-linejoin: miter"/>
    </g>
    <g id="text_14">
     <!-- LvFactor -->
     <g transform="translate(153.299536 118.925938)scale(0.1 -0.1)">
      <defs>
       <path id="DejaVuSans-4c" d="M 628 4666 
L 1259 4666 
L 1259 531 
L 3531 531 
L 3531 0 
L 628 0 
L 628 4666 
z
" transform="scale(0.015625)"/>
       <path id="DejaVuSans-76" d="M 191 3500 
L 800 3500 
L 1894 563 
L 2988 3500 
L 3597 3500 
L 2284 0 
L 1503 0 
L 191 3500 
z
" transform="scale(0.015625)"/>
       <path id="DejaVuSans-46" d="M 628 4666 
L 3309 4666 
L 3309 4134 
L 1259 4134 
L 1259 2759 
L 3109 2759 
L 3109 2228 
L 1259 2228 
L 1259 0 
L 628 0 
L 628 4666 
z
" transform="scale(0.015625)"/>
       <path id="DejaVuSans-63" d="M 3122 3366 
L 3122 2828 
Q 2878 2963 2633 3030 
Q 2388 3097 2138 3097 
Q 1578 3097 1268 2742 
Q 959 2388 959 1747 
Q 959 1106 1268 751 
Q 1578 397 2138 397 
Q 2388 397 2633 464 
Q 2878 531 3122 666 
L 3122 134 
Q 2881 22 2623 -34 
Q 2366 -91 2075 -91 
Q 1284 -91 818 406 
Q 353 903 353 1747 
Q 353 2603 823 3093 
Q 1294 3584 2113 3584 
Q 2378 3584 2631 3529 
Q 2884 3475 3122 3366 
z
" transform="scale(0.015625)"/>
       <path id="DejaVuSans-74" d="M 1172 4494 
L 1172 3500 
L 2356 3500 
L 2356 3053 
L 1172 3053 
L 1172 1153 
Q 1172 725 1289 603 
Q 1406 481 1766 481 
L 2356 481 
L 2356 0 
L 1766 0 
Q 1100 0 847 248 
Q 594 497 594 1153 
L 594 3053 
L 172 3053 
L 172 3500 
L 594 3500 
L 594 4494 
L 1172 4494 
z
" transform="scale(0.015625)"/>
      </defs>
      <use xlink:href="#DejaVuSans-4c"/>
      <use xlink:href="#DejaVuSans-76" x="55.712891"/>
      <use xlink:href="#DejaVuSans-46" x="114.892578"/>
      <use xlink:href="#DejaVuSans-61" x="163.287109"/>
      <use xlink:href="#DejaVuSans-63" x="224.566406"/>
      <use xlink:href="#DejaVuSans-74" x="279.546875"/>
      <use xlink:href="#DejaVuSans-6f" x="318.755859"/>
      <use xlink:href="#DejaVuSans-72" x="379.9375"/>
     </g>
    </g>
    <g id="line2d_18">
     <path d="M 149.219848 130.104062 
L 159.219848 130.104062 
L 169.219848 130.104062 
" style="fill: none; stroke: #2c1e3e; stroke-width: 1.5; stroke-linecap: square"/>
    </g>
    <g id="text_15">
     <!-- 0.2 -->
     <g transform="translate(177.219848 133.604062)scale(0.1 -0.1)">
      <use xlink:href="#DejaVuSans-30"/>
      <use xlink:href="#DejaVuSans-2e" x="63.623047"/>
      <use xlink:href="#DejaVuSans-32" x="95.410156"/>
     </g>
    </g>
    <g id="line2d_19">
     <path d="M 149.219848 144.782187 
L 159.219848 144.782187 
L 169.219848 144.782187 
" style="fill: none; stroke: #54968d; stroke-width: 1.5; stroke-linecap: square"/>
    </g>
    <g id="text_16">
     <!-- 0.5 -->
     <g transform="translate(177.219848 148.282187)scale(0.1 -0.1)">
      <use xlink:href="#DejaVuSans-30"/>
      <use xlink:href="#DejaVuSans-2e" x="63.623047"/>
      <use xlink:href="#DejaVuSans-35" x="95.410156"/>
     </g>
    </g>
    <g id="line2d_20">
     <path d="M 149.219848 159.460312 
L 159.219848 159.460312 
L 169.219848 159.460312 
" style="fill: none; stroke: #c2d6af; stroke-width: 1.5; stroke-linecap: square"/>
    </g>
    <g id="text_17">
     <!-- 0.75 -->
     <g transform="translate(177.219848 162.960312)scale(0.1 -0.1)">
      <use xlink:href="#DejaVuSans-30"/>
      <use xlink:href="#DejaVuSans-2e" x="63.623047"/>
      <use xlink:href="#DejaVuSans-37" x="95.410156"/>
      <use xlink:href="#DejaVuSans-35" x="159.033203"/>
     </g>
    </g>
   </g>
  </g>
  <g id="axes_2">
   <g id="patch_8">
    <path d="M 261.47 174.04 
L 415.935473 174.04 
L 415.935473 10.8 
L 261.47 10.8 
z
" style="fill: #ffffff"/>
   </g>
   <g id="matplotlib.axis_3">
    <g id="xtick_5">
     <g id="line2d_21">
      <g>
       <use xlink:href="#ma95776bb4c" x="268.491158" y="174.04" style="stroke: #000000; stroke-width: 0.8"/>
      </g>
     </g>
     <g id="text_18">
      <!-- 0 -->
      <g transform="translate(265.309908 188.638438)scale(0.1 -0.1)">
       <use xlink:href="#DejaVuSans-30"/>
      </g>
     </g>
    </g>
    <g id="xtick_6">
     <g id="line2d_22">
      <g>
       <use xlink:href="#ma95776bb4c" x="317.030099" y="174.04" style="stroke: #000000; stroke-width: 0.8"/>
      </g>
     </g>
     <g id="text_19">
      <!-- 1 k -->
      <g transform="translate(309.955099 188.638438)scale(0.1 -0.1)">
       <use xlink:href="#DejaVuSans-31"/>
       <use xlink:href="#DejaVuSans-2009" x="63.623047"/>
       <use xlink:href="#DejaVuSans-6b" x="83.59375"/>
      </g>
     </g>
    </g>
    <g id="xtick_7">
     <g id="line2d_23">
      <g>
       <use xlink:href="#ma95776bb4c" x="365.569041" y="174.04" style="stroke: #000000; stroke-width: 0.8"/>
      </g>
     </g>
     <g id="text_20">
      <!-- 2 k -->
      <g transform="translate(358.494041 188.638438)scale(0.1 -0.1)">
       <use xlink:href="#DejaVuSans-32"/>
       <use xlink:href="#DejaVuSans-2009" x="63.623047"/>
       <use xlink:href="#DejaVuSans-6b" x="83.59375"/>
      </g>
     </g>
    </g>
    <g id="xtick_8">
     <g id="line2d_24">
      <g>
       <use xlink:href="#ma95776bb4c" x="414.107982" y="174.04" style="stroke: #000000; stroke-width: 0.8"/>
      </g>
     </g>
     <g id="text_21">
      <!-- 3 k -->
      <g transform="translate(407.032982 188.638438)scale(0.1 -0.1)">
       <use xlink:href="#DejaVuSans-33"/>
       <use xlink:href="#DejaVuSans-2009" x="63.623047"/>
       <use xlink:href="#DejaVuSans-6b" x="83.59375"/>
      </g>
     </g>
    </g>
    <g id="text_22">
     <!-- Episodes -->
     <g transform="translate(316.460549 202.316563)scale(0.1 -0.1)">
      <use xlink:href="#DejaVuSans-45"/>
      <use xlink:href="#DejaVuSans-70" x="63.183594"/>
      <use xlink:href="#DejaVuSans-69" x="126.660156"/>
      <use xlink:href="#DejaVuSans-73" x="154.443359"/>
      <use xlink:href="#DejaVuSans-6f" x="206.542969"/>
      <use xlink:href="#DejaVuSans-64" x="267.724609"/>
      <use xlink:href="#DejaVuSans-65" x="331.201172"/>
      <use xlink:href="#DejaVuSans-73" x="392.724609"/>
     </g>
    </g>
   </g>
   <g id="matplotlib.axis_4">
    <g id="ytick_8">
     <g id="line2d_25">
      <g>
       <use xlink:href="#mbfcfdd6968" x="261.47" y="166.62" style="stroke: #000000; stroke-width: 0.8"/>
      </g>
     </g>
     <g id="text_23">
      <!-- 0.0 -->
      <g transform="translate(238.566875 170.419219)scale(0.1 -0.1)">
       <use xlink:href="#DejaVuSans-30"/>
       <use xlink:href="#DejaVuSans-2e" x="63.623047"/>
       <use xlink:href="#DejaVuSans-30" x="95.410156"/>
      </g>
     </g>
    </g>
    <g id="ytick_9">
     <g id="line2d_26">
      <g>
       <use xlink:href="#mbfcfdd6968" x="261.47" y="132.554686" style="stroke: #000000; stroke-width: 0.8"/>
      </g>
     </g>
     <g id="text_24">
      <!-- 0.5 -->
      <g transform="translate(238.566875 136.353905)scale(0.1 -0.1)">
       <use xlink:href="#DejaVuSans-30"/>
       <use xlink:href="#DejaVuSans-2e" x="63.623047"/>
       <use xlink:href="#DejaVuSans-35" x="95.410156"/>
      </g>
     </g>
    </g>
    <g id="ytick_10">
     <g id="line2d_27">
      <g>
       <use xlink:href="#mbfcfdd6968" x="261.47" y="98.489372" style="stroke: #000000; stroke-width: 0.8"/>
      </g>
     </g>
     <g id="text_25">
      <!-- 1.0 -->
      <g transform="translate(238.566875 102.28859)scale(0.1 -0.1)">
       <use xlink:href="#DejaVuSans-31"/>
       <use xlink:href="#DejaVuSans-2e" x="63.623047"/>
       <use xlink:href="#DejaVuSans-30" x="95.410156"/>
      </g>
     </g>
    </g>
    <g id="ytick_11">
     <g id="line2d_28">
      <g>
       <use xlink:href="#mbfcfdd6968" x="261.47" y="64.424057" style="stroke: #000000; stroke-width: 0.8"/>
      </g>
     </g>
     <g id="text_26">
      <!-- 1.5 -->
      <g transform="translate(238.566875 68.223276)scale(0.1 -0.1)">
       <use xlink:href="#DejaVuSans-31"/>
       <use xlink:href="#DejaVuSans-2e" x="63.623047"/>
       <use xlink:href="#DejaVuSans-35" x="95.410156"/>
      </g>
     </g>
    </g>
    <g id="ytick_12">
     <g id="line2d_29">
      <g>
       <use xlink:href="#mbfcfdd6968" x="261.47" y="30.358743" style="stroke: #000000; stroke-width: 0.8"/>
      </g>
     </g>
     <g id="text_27">
      <!-- 2.0 -->
      <g transform="translate(238.566875 34.157962)scale(0.1 -0.1)">
       <use xlink:href="#DejaVuSans-32"/>
       <use xlink:href="#DejaVuSans-2e" x="63.623047"/>
       <use xlink:href="#DejaVuSans-30" x="95.410156"/>
      </g>
     </g>
    </g>
    <g id="text_28">
     <!-- Unit moves -->
     <g transform="translate(232.487187 120.756719)rotate(-90)scale(0.1 -0.1)">
      <defs>
       <path id="DejaVuSans-55" d="M 556 4666 
L 1191 4666 
L 1191 1831 
Q 1191 1081 1462 751 
Q 1734 422 2344 422 
Q 2950 422 3222 751 
Q 3494 1081 3494 1831 
L 3494 4666 
L 4128 4666 
L 4128 1753 
Q 4128 841 3676 375 
Q 3225 -91 2344 -91 
Q 1459 -91 1007 375 
Q 556 841 556 1753 
L 556 4666 
z
" transform="scale(0.015625)"/>
       <path id="DejaVuSans-6e" d="M 3513 2113 
L 3513 0 
L 2938 0 
L 2938 2094 
Q 2938 2591 2744 2837 
Q 2550 3084 2163 3084 
Q 1697 3084 1428 2787 
Q 1159 2491 1159 1978 
L 1159 0 
L 581 0 
L 581 3500 
L 1159 3500 
L 1159 2956 
Q 1366 3272 1645 3428 
Q 1925 3584 2291 3584 
Q 2894 3584 3203 3211 
Q 3513 2838 3513 2113 
z
" transform="scale(0.015625)"/>
       <path id="DejaVuSans-20" transform="scale(0.015625)"/>
       <path id="DejaVuSans-6d" d="M 3328 2828 
Q 3544 3216 3844 3400 
Q 4144 3584 4550 3584 
Q 5097 3584 5394 3201 
Q 5691 2819 5691 2113 
L 5691 0 
L 5113 0 
L 5113 2094 
Q 5113 2597 4934 2840 
Q 4756 3084 4391 3084 
Q 3944 3084 3684 2787 
Q 3425 2491 3425 1978 
L 3425 0 
L 2847 0 
L 2847 2094 
Q 2847 2600 2669 2842 
Q 2491 3084 2119 3084 
Q 1678 3084 1418 2786 
Q 1159 2488 1159 1978 
L 1159 0 
L 581 0 
L 581 3500 
L 1159 3500 
L 1159 2956 
Q 1356 3278 1631 3431 
Q 1906 3584 2284 3584 
Q 2666 3584 2933 3390 
Q 3200 3197 3328 2828 
z
" transform="scale(0.015625)"/>
      </defs>
      <use xlink:href="#DejaVuSans-55"/>
      <use xlink:href="#DejaVuSans-6e" x="73.193359"/>
      <use xlink:href="#DejaVuSans-69" x="136.572266"/>
      <use xlink:href="#DejaVuSans-74" x="164.355469"/>
      <use xlink:href="#DejaVuSans-20" x="203.564453"/>
      <use xlink:href="#DejaVuSans-6d" x="235.351562"/>
      <use xlink:href="#DejaVuSans-6f" x="332.763672"/>
      <use xlink:href="#DejaVuSans-76" x="393.945312"/>
      <use xlink:href="#DejaVuSans-65" x="453.125"/>
      <use xlink:href="#DejaVuSans-73" x="514.648438"/>
     </g>
    </g>
   </g>
   <g id="line2d_30">
    <path d="M 268.491158 166.62 
L 268.636775 71.394551 
L 268.879469 50.872625 
L 269.025086 48.034518 
L 269.073625 47.986119 
L 269.122164 47.676216 
L 269.364859 44.285386 
L 269.413398 44.379966 
L 269.461937 44.203905 
L 269.75317 39.848138 
L 269.801709 39.541641 
L 269.850248 39.615273 
L 269.898787 39.683159 
L 270.190021 38.454017 
L 270.67541 43.22283 
L 270.772488 43.58016 
L 270.966644 47.060235 
L 271.1608 51.120617 
L 271.209339 51.078112 
L 271.791806 40.99153 
L 272.180117 45.386781 
L 272.568429 54.431395 
L 273.539208 73.685238 
L 273.733364 76.059207 
L 273.927519 77.188975 
L 274.121675 77.722661 
L 274.461448 74.429161 
L 274.607064 73.588865 
L 274.655603 73.698535 
L 274.752681 74.557987 
L 274.80122 74.481316 
L 275.140993 77.573957 
L 275.28661 79.191274 
L 275.335149 79.12385 
L 275.432226 79.400079 
L 275.626382 80.672055 
L 275.820538 80.875919 
L 275.966155 80.322911 
L 276.20885 77.183123 
L 276.548622 71.010329 
L 276.888395 66.574635 
L 277.034012 63.015083 
L 277.131089 60.844223 
L 277.179628 61.246916 
L 277.228167 61.388581 
L 277.56794 64.03763 
L 277.907712 66.43206 
L 277.956251 66.417683 
L 278.198946 58.897041 
L 278.49018 52.140109 
L 278.878491 48.771305 
L 278.92703 48.848551 
L 279.072647 47.953923 
L 279.121186 48.037629 
L 279.169725 47.87628 
L 279.315342 46.737603 
L 279.363881 46.950945 
L 279.655114 43.102251 
L 279.84927 41.878046 
L 279.897809 41.680584 
L 280.043426 39.715079 
L 280.140504 40.184376 
L 280.237582 40.909 
L 280.528815 44.070345 
L 280.625893 44.990724 
L 281.305438 58.355019 
L 281.353977 58.641266 
L 281.548133 60.847031 
L 281.839367 63.183773 
L 281.887906 63.125354 
L 282.421834 65.897905 
L 282.470373 65.566142 
L 282.518912 65.69829 
L 282.61599 66.240735 
L 282.664529 66.132696 
L 282.858685 66.941426 
L 283.05284 65.63527 
L 283.149918 65.683202 
L 283.198457 65.499812 
L 283.246996 65.669685 
L 283.441152 66.72181 
L 283.829463 69.122395 
L 283.878002 69.179958 
L 283.97508 68.166568 
L 284.023619 68.40956 
L 284.120697 68.857982 
L 284.169236 68.825538 
L 284.217775 68.794716 
L 284.266314 68.971891 
L 284.509009 67.308167 
L 284.557547 67.422032 
L 284.606086 67.495795 
L 284.703164 68.568375 
L 284.751703 68.550411 
L 285.091476 66.27926 
L 285.140015 66.788665 
L 285.188554 66.550001 
L 285.625404 61.959814 
L 285.673943 62.685191 
L 286.062255 66.249395 
L 286.159333 65.664533 
L 286.25641 65.871336 
L 286.450566 66.78296 
L 286.499105 66.751039 
L 286.547644 66.858351 
L 286.596183 66.547384 
L 286.887417 69.793889 
L 286.984495 69.67034 
L 287.033033 69.528459 
L 287.17865 70.985914 
L 287.324267 72.366514 
L 287.66404 75.834776 
L 287.906734 77.286424 
L 288.003812 78.219922 
L 288.052351 78.166703 
L 288.343585 75.588642 
L 288.392124 75.701396 
L 288.440663 75.602056 
L 288.634819 74.434777 
L 288.731896 74.097887 
L 288.780435 74.21636 
L 288.828974 74.466547 
L 289.02313 73.443668 
L 289.071669 73.388396 
L 289.217286 74.154852 
L 289.605597 71.237508 
L 289.702675 71.109124 
L 289.896831 73.443103 
L 290.042448 74.3929 
L 290.090987 74.358985 
L 290.285143 73.700302 
L 290.430759 73.254158 
L 290.527837 73.197544 
L 290.624915 74.125396 
L 290.721993 73.847918 
L 290.770532 73.841252 
L 291.207382 78.273924 
L 291.255921 77.90832 
L 291.30446 77.388949 
L 291.741311 84.499343 
L 292.129622 97.530659 
L 292.275239 100.033988 
L 292.323778 99.612663 
L 292.372317 99.728546 
L 292.420856 99.563359 
L 292.857706 97.724628 
L 293.14894 99.915879 
L 293.246018 100.34627 
L 293.294557 100.287834 
L 293.343096 100.060274 
L 293.391635 100.188185 
L 293.682868 102.166712 
L 293.731407 103.187174 
L 293.828485 102.995811 
L 293.877024 102.667261 
L 294.119719 104.54725 
L 294.168258 104.588451 
L 294.216797 105.109322 
L 294.265336 105.088009 
L 294.50803 102.684937 
L 294.556569 102.475159 
L 294.750725 99.507339 
L 294.896342 98.535895 
L 295.381731 90.153534 
L 295.43027 90.260641 
L 295.478809 90.190346 
L 295.770043 95.887545 
L 296.012738 101.055256 
L 296.303971 104.499364 
L 296.546666 105.844574 
L 296.789361 109.357894 
L 296.886439 108.559724 
L 297.032055 105.429809 
L 297.468906 91.659643 
L 297.565984 90.615394 
L 297.614523 91.009093 
L 297.808678 91.580718 
L 297.857217 91.582056 
L 298.148451 94.018873 
L 298.19699 93.760666 
L 298.294068 93.185992 
L 298.63384 96.573632 
L 298.876535 101.05968 
L 299.313386 113.090673 
L 299.653158 122.879255 
L 299.944392 129.890448 
L 300.235626 133.406147 
L 301.691794 148.46667 
L 301.837411 147.821734 
L 301.88595 147.901412 
L 301.983027 148.5772 
L 302.031566 148.481468 
L 302.177183 147.671149 
L 302.225722 148.033631 
L 302.516956 150.230944 
L 302.565495 150.396618 
L 302.614034 150.347552 
L 302.662573 150.300939 
L 303.24504 153.561706 
L 303.293579 153.251157 
L 303.342118 153.059364 
L 303.439196 153.984098 
L 303.487735 153.721248 
L 303.633351 153.282256 
L 303.778968 153.868908 
L 303.973124 152.435761 
L 304.021663 152.456785 
L 304.118741 152.92929 
L 304.215819 152.159999 
L 304.264358 152.22922 
L 305.138059 158.07071 
L 305.186598 158.016443 
L 305.52637 158.758412 
L 305.671987 159.220215 
L 305.720526 159.142882 
L 305.817604 159.268015 
L 305.866143 159.532386 
L 305.914682 159.405035 
L 306.060298 159.100877 
L 306.108837 159.201558 
L 306.157376 159.159567 
L 306.497149 156.160969 
L 306.497149 156.160969 
" clip-path="url(#pfe21bf4ed2)" style="fill: none; stroke: #2c1e3e; stroke-width: 1.5; stroke-linecap: square"/>
   </g>
   <g id="line2d_31">
    <path d="M 268.491158 166.62 
L 268.685314 67.096477 
L 269.170703 52.454613 
L 269.219242 49.172199 
L 269.413398 46.191567 
L 269.607554 42.584797 
L 269.75317 42.264725 
L 269.801709 41.476119 
L 269.898787 41.896835 
L 270.141482 41.146552 
L 270.23856 41.661844 
L 270.384177 40.042859 
L 270.432716 40.486393 
L 270.772488 39.722574 
L 270.869566 38.905758 
L 270.918105 39.391402 
L 270.966644 39.250307 
L 271.1608 37.802665 
L 271.257878 37.89584 
L 271.403494 38.066539 
L 271.500572 37.532593 
L 271.549111 37.678682 
L 271.646189 37.571965 
L 271.937423 35.634664 
L 272.034501 36.034266 
L 272.131578 36.140069 
L 272.325734 35.965974 
L 272.616968 36.374869 
L 272.665507 36.829924 
L 272.811124 36.741059 
L 272.859663 37.136199 
L 273.296513 37.397652 
L 273.345052 37.899943 
L 273.490669 37.610561 
L 273.636286 38.026194 
L 273.684825 37.587119 
L 273.781902 38.25431 
L 273.830441 38.165322 
L 274.024597 38.440201 
L 274.121675 38.879298 
L 274.607064 40.013485 
L 274.898298 41.076319 
L 274.995376 40.985502 
L 275.140993 42.354397 
L 275.432226 42.55021 
L 275.480765 42.80606 
L 275.771999 45.463821 
L 276.111772 47.214965 
L 276.403005 51.296867 
L 276.451544 51.03807 
L 276.742778 51.962458 
L 277.276706 61.013563 
L 277.665018 66.284799 
L 277.956251 71.879602 
L 278.150407 74.146709 
L 278.441641 79.133011 
L 279.41242 88.177999 
L 279.897809 89.585366 
L 280.237582 91.890568 
L 280.820049 93.708266 
L 281.014205 94.209178 
L 281.208361 94.788927 
L 281.596672 94.182194 
L 281.790828 92.633143 
L 281.984984 90.310578 
L 282.179139 90.438797 
L 282.567451 91.863344 
L 282.810146 92.160321 
L 283.004301 93.301899 
L 283.392613 93.87155 
L 283.441152 93.999237 
L 283.489691 93.914044 
L 283.780924 92.393238 
L 283.829463 92.353945 
L 283.97508 92.647665 
L 284.120697 92.698891 
L 284.217775 92.98845 
L 284.46047 93.125874 
L 284.654625 93.867249 
L 284.848781 94.029551 
L 284.994398 94.431727 
L 285.188554 94.827375 
L 285.479787 95.506765 
L 286.207871 96.646802 
L 286.353488 96.423646 
L 286.790339 95.841505 
L 286.838878 95.664209 
L 287.421345 95.998667 
L 287.566962 96.3195 
L 287.761118 95.636923 
L 287.809657 95.745137 
L 287.858195 95.779121 
L 288.197968 95.546899 
L 288.343585 95.634216 
L 289.120208 96.500448 
L 289.168747 96.599895 
L 289.751214 96.990839 
L 290.139526 97.41339 
L 290.527837 97.354923 
L 290.916149 97.515039 
L 291.207382 97.538701 
L 291.838389 97.77157 
L 292.081083 97.718227 
L 292.323778 97.830215 
L 293.877024 98.11711 
L 296.886439 98.227885 
L 297.032055 98.188002 
L 297.565984 98.244782 
L 299.410464 98.372856 
L 299.750236 98.343161 
L 300.866632 98.406207 
L 303.196501 98.36857 
L 303.584812 98.239971 
L 303.730429 98.175755 
L 303.876046 98.158375 
L 305.283675 98.305125 
L 312.952828 98.485382 
L 355.812713 98.489372 
L 355.812713 98.489372 
" clip-path="url(#pfe21bf4ed2)" style="fill: none; stroke: #4e8c8c; stroke-width: 1.5; stroke-linecap: square"/>
   </g>
   <g id="line2d_32">
    <path d="M 268.685314 39.993379 
L 269.170703 35.758375 
L 269.219242 38.449328 
L 269.559015 41.132893 
L 269.801709 39.719133 
L 270.432716 38.918668 
L 270.772488 39.22409 
L 270.869566 37.946186 
L 271.112261 37.02523 
L 271.549111 36.448885 
L 271.694728 35.597702 
L 271.743267 33.787424 
L 271.888884 33.445936 
L 271.937423 32.811185 
L 272.228656 32.780954 
L 272.471351 32.284218 
L 272.811124 32.243632 
L 273.490669 33.634038 
L 273.684825 34.550246 
L 274.36437 35.714048 
L 274.607064 39.074099 
L 274.80122 41.451191 
L 275.480765 43.444995 
L 275.577843 43.402171 
L 275.626382 43.529217 
L 275.771999 44.348775 
L 276.257388 46.126049 
L 276.451544 48.239935 
L 276.791317 48.714408 
L 276.839856 49.236776 
L 277.08255 49.764914 
L 277.422323 49.757222 
L 277.519401 48.977144 
L 277.762096 48.785088 
L 277.810635 48.528974 
L 278.441641 49.295193 
L 278.732874 49.238666 
L 278.92703 48.135015 
L 279.363881 48.030739 
L 279.606575 47.565291 
L 280.33466 47.455429 
L 280.383198 47.096431 
L 281.014205 46.357477 
L 281.111283 44.42337 
L 281.645211 42.712254 
L 281.984984 40.410783 
L 282.179139 40.03081 
L 282.324756 40.314873 
L 282.567451 39.203277 
L 283.441152 38.522284 
L 283.635308 37.82044 
L 283.926541 37.422445 
L 284.120697 36.680038 
L 284.848781 36.462797 
L 285.868099 35.023508 
L 286.159333 35.13613 
L 286.25641 35.373934 
L 286.838878 35.921963 
L 288.926052 41.572471 
L 288.974591 42.256321 
L 289.799753 41.72575 
L 289.993909 42.158259 
L 290.139526 43.708282 
L 290.624915 44.380421 
L 290.86761 44.332862 
L 291.207382 43.468595 
L 291.30446 42.844653 
L 292.469395 39.564458 
L 293.246018 38.412483 
L 293.391635 36.34995 
L 293.682868 31.765323 
L 294.50803 31.315455 
L 294.702186 30.083551 
L 294.99342 30.13971 
L 295.284653 30.261007 
L 295.770043 29.390378 
L 295.867121 29.852212 
L 296.061277 29.739784 
L 296.8379 28.715279 
L 297.032055 27.193335 
L 297.420367 23.802967 
L 298.002834 23.235741 
L 298.294068 22.460496 
L 298.730918 22.291108 
L 298.973613 21.179915 
L 299.022152 20.021059 
L 299.216308 18.748074 
L 299.410464 18.433827 
L 299.750236 18.522968 
L 299.992931 18.22 
L 300.429781 19.14921 
L 300.526859 19.537762 
L 301.012249 20.422735 
L 301.691794 22.083731 
L 302.080105 22.394322 
L 302.177183 22.861461 
L 303.584812 23.038901 
L 303.876046 25.131575 
L 303.973124 24.945585 
L 304.021663 25.457177 
L 304.070202 25.358149 
L 304.312897 26.055584 
L 304.60413 26.374007 
L 305.574909 26.779744 
L 305.623448 27.16519 
L 305.963221 27.256058 
L 306.108837 27.411206 
L 306.254454 26.967354 
L 306.351532 27.343409 
L 306.44861 26.702711 
L 307.516467 26.520655 
L 307.565006 26.953454 
L 307.662084 26.745201 
L 307.8077 26.994712 
L 308.196012 27.954384 
L 308.244551 28.590776 
L 308.681401 29.436224 
L 308.875557 30.136162 
L 309.263869 32.770571 
L 309.506563 33.732901 
L 309.797797 33.357723 
L 310.089031 34.653013 
L 310.331725 37.520506 
L 310.525881 37.988257 
L 311.399582 38.594964 
L 311.49666 39.14663 
L 311.787894 39.636301 
L 312.224744 41.383046 
L 312.273283 42.208223 
L 312.564517 43.57711 
L 313.049906 44.18935 
L 313.535295 46.973215 
L 313.729451 50.779723 
L 314.214841 52.649091 
L 314.554613 55.629333 
L 314.845847 60.594501 
L 315.234158 63.728018 
L 316.010781 66.051071 
L 316.350554 72.486203 
L 316.641788 75.885366 
L 316.738866 78.391965 
L 316.98156 80.463544 
L 317.224255 85.80499 
L 317.661105 86.267165 
L 317.758183 86.74064 
L 318.097956 85.263503 
L 318.38919 82.195057 
L 318.777501 81.667803 
L 318.82604 80.891636 
L 319.262891 82.150032 
L 319.74828 82.450859 
L 320.039514 82.144461 
L 320.573442 81.539325 
L 320.767598 80.907221 
L 321.204448 80.513179 
L 321.786915 80.999077 
L 322.417922 77.172836 
L 322.903311 75.623544 
L 322.95185 74.289355 
L 323.097467 73.365971 
L 323.291623 70.783122 
L 323.437239 70.482373 
L 323.534317 69.474063 
L 323.777012 68.447349 
L 324.359479 67.11656 
L 324.408018 66.655045 
L 324.893408 65.769283 
L 324.990486 64.446076 
L 325.475875 63.739582 
L 325.621492 61.962832 
L 326.398115 59.991529 
L 326.446654 59.06044 
L 327.029121 59.414645 
L 327.611588 58.097428 
L 327.854283 58.258917 
L 327.951361 57.827372 
L 328.145517 57.761498 
L 328.873601 56.804273 
L 329.504607 51.178718 
L 329.698763 50.65386 
L 329.989997 50.46493 
L 330.184152 50.010171 
L 330.426847 50.16311 
L 330.718081 49.689033 
L 331.106392 47.936805 
L 331.252009 47.195539 
L 331.494704 46.560156 
L 331.68886 44.299211 
L 331.883015 42.501086 
L 332.805255 39.123912 
L 332.853794 38.548016 
L 333.776034 36.409315 
L 333.921651 36.141196 
L 334.212884 36.058529 
L 334.698274 35.041715 
L 335.232202 34.979613 
L 335.280741 34.507704 
L 335.766131 35.247293 
L 336.105903 36.511776 
L 337.270838 36.651446 
L 337.950383 37.231456 
L 338.193078 37.231914 
L 338.387233 36.647336 
L 338.435772 37.124323 
L 338.824084 36.958091 
L 339.260934 37.279839 
L 339.358012 37.209059 
L 339.406551 37.485912 
L 339.989018 37.129554 
L 340.037557 37.272745 
L 340.134635 37.167911 
L 340.668564 37.378003 
L 341.202492 39.26753 
L 341.396648 39.99201 
L 341.930576 40.175816 
L 342.076193 39.650553 
L 342.65866 39.667694 
L 342.949894 39.408703 
L 343.095511 39.093843 
L 343.14405 38.588269 
L 343.629439 38.520887 
L 343.823595 37.676905 
L 344.308984 37.345406 
L 344.600218 36.162176 
L 344.842913 35.4935 
L 344.988529 34.410937 
L 345.42538 34.62124 
L 345.959308 34.442524 
L 346.202003 36.165262 
L 346.299081 35.393204 
L 347.464015 35.898488 
L 347.852327 35.380635 
L 347.949405 34.888675 
L 348.095022 35.006272 
L 348.386255 34.945943 
L 348.434794 34.682173 
L 349.162878 34.293327 
L 349.357034 34.062189 
L 349.745346 34.105413 
L 349.98804 36.171137 
L 350.279274 35.983746 
L 350.376352 35.496039 
L 350.716125 35.961772 
L 351.104436 37.126816 
L 351.347131 38.748273 
L 351.444209 38.913756 
L 351.492748 39.415059 
L 351.541287 41.095627 
L 351.881059 41.040515 
L 352.463526 38.896107 
L 352.900377 39.197504 
L 353.094533 39.030841 
L 353.191611 38.666055 
L 354.162389 40.008401 
L 354.647779 41.590482 
L 354.744857 42.577319 
L 355.084629 43.273948 
L 355.667097 54.141389 
L 355.861252 55.70501 
L 356.783492 56.467851 
L 357.171804 57.884457 
L 357.317421 57.74691 
L 357.705732 56.869293 
L 358.142583 56.541639 
L 358.336738 55.714226 
L 358.773589 54.446452 
L 359.064822 52.586513 
L 359.113361 53.092367 
L 359.744368 53.332062 
L 359.889984 52.355443 
L 360.132679 51.530883 
L 360.472452 51.676605 
L 360.666607 51.058034 
L 360.812224 50.02307 
L 361.103458 49.24631 
L 361.200536 47.611228 
L 361.588847 45.929111 
L 361.880081 45.150593 
L 361.92862 44.411 
L 362.414009 43.708387 
L 362.462548 43.040905 
L 362.656704 42.406797 
L 362.705243 41.804394 
L 363.7731 38.482596 
L 363.918717 37.69052 
L 364.452645 37.323932 
L 364.549723 36.975672 
L 364.986573 37.693134 
L 365.13219 37.60169 
L 366.831053 40.405208 
L 367.267904 41.864221 
L 367.316442 42.975008 
L 367.850371 46.854719 
L 368.190143 50.7096 
L 368.238682 53.408273 
L 368.82115 54.93973 
L 368.966766 56.910756 
L 369.403617 57.819767 
L 369.889006 58.167187 
L 370.277318 58.910148 
L 370.422935 59.476142 
L 370.568552 58.329956 
L 370.859785 57.757222 
L 371.345175 55.48482 
L 371.393714 54.951114 
L 371.733486 54.203228 
L 372.170337 54.490608 
L 372.315953 53.490471 
L 372.801343 52.643569 
L 373.286732 55.245544 
L 373.772122 54.930258 
L 374.111894 53.770501 
L 374.645823 55.834398 
L 374.985595 55.764944 
L 375.325368 55.974239 
L 375.422446 55.828974 
L 375.810757 57.45411 
L 376.004913 56.465684 
L 376.490302 58.618862 
L 377.024231 60.887663 
L 377.412542 65.168037 
L 378.043549 66.214735 
L 378.528938 66.4865 
L 379.208483 70.04798 
L 380.130723 71.642096 
L 380.373418 73.431782 
L 380.421957 75.338441 
L 380.907346 82.283938 
L 381.052963 85.709325 
L 381.295658 86.79565 
L 381.829586 86.925872 
L 382.266436 92.217438 
L 382.363514 93.528907 
L 382.654748 93.432836 
L 382.994521 90.347951 
L 383.674066 91.44321 
L 384.207994 91.141739 
L 384.450689 90.511248 
L 384.644845 87.951402 
L 384.839 92.089465 
L 384.887539 92.650326 
L 386.343707 89.466928 
L 386.489324 89.539547 
L 386.68348 88.369796 
L 386.732019 89.632782 
L 386.974714 86.875536 
L 387.023253 88.075597 
L 387.60572 87.701641 
L 388.091109 90.654565 
L 388.139648 92.732366 
L 388.333804 94.052499 
L 388.722116 95.306625 
L 389.110427 97.255051 
L 389.984128 103.867798 
L 390.081206 106.420448 
L 390.129745 104.200196 
L 390.226823 105.979219 
L 390.469517 105.226223 
L 390.663673 102.274266 
L 390.712212 103.90872 
L 390.760751 103.362477 
L 390.857829 103.566144 
L 390.954907 105.273642 
L 391.682991 98.805863 
L 392.993542 97.58571 
L 393.139159 93.873297 
L 393.57601 94.585833 
L 393.624549 93.989593 
L 393.964321 93.1823 
L 394.109938 94.514345 
L 394.158477 96.22711 
L 394.304094 95.583217 
L 394.643866 95.487658 
L 394.740944 93.848455 
L 394.983639 93.770816 
L 395.566106 92.836824 
L 395.614645 94.32378 
L 396.002957 93.671825 
L 396.051496 90.609399 
L 396.342729 91.209854 
L 396.536885 96.731763 
L 396.585424 94.755079 
L 396.633963 95.6988 
L 396.77958 95.115731 
L 397.70182 93.976855 
L 398.090131 96.02618 
L 398.13867 98.902092 
L 398.284287 100.705155 
L 398.62406 101.351373 
L 399.012371 96.767426 
L 399.206527 98.505175 
L 400.128767 105.094215 
L 400.177306 106.415625 
L 400.42 109.556885 
L 400.468539 110.551933 
L 400.711234 110.120852 
L 401.196624 105.345968 
L 401.439318 102.078339 
L 401.682013 93.671998 
L 402.118863 92.295624 
L 402.215941 86.941526 
L 402.458636 84.318843 
L 402.507175 84.855322 
L 402.992564 81.02555 
L 403.18672 76.997385 
L 403.332337 76.317105 
L 403.67211 79.593511 
L 404.254577 81.708224 
L 404.351655 81.342952 
L 404.982661 82.750823 
L 405.0312 82.608697 
L 405.565128 84.331785 
L 406.050518 87.379504 
L 406.39029 95.518697 
L 406.535907 96.2866 
L 406.87568 95.674141 
L 406.924219 93.715929 
L 407.361069 92.268176 
L 407.409608 91.478135 
L 407.603764 90.555549 
L 408.23477 89.919958 
L 408.331848 89.178509 
L 408.380387 90.469878 
L 408.817237 92.384866 
L 408.914315 93.653555 
L 408.914315 93.653555 
" clip-path="url(#pfe21bf4ed2)" style="fill: none; stroke: #c2d6af; stroke-width: 1.5; stroke-linecap: square"/>
   </g>
   <g id="line2d_33"/>
   <g id="line2d_34"/>
   <g id="line2d_35"/>
   <g id="patch_9">
    <path d="M 261.47 174.04 
L 261.47 10.8 
" style="fill: none; stroke: #000000; stroke-width: 0.8; stroke-linejoin: miter; stroke-linecap: square"/>
   </g>
   <g id="patch_10">
    <path d="M 415.935473 174.04 
L 415.935473 10.8 
" style="fill: none; stroke: #000000; stroke-width: 0.8; stroke-linejoin: miter; stroke-linecap: square"/>
   </g>
   <g id="patch_11">
    <path d="M 261.47 174.04 
L 415.935473 174.04 
" style="fill: none; stroke: #000000; stroke-width: 0.8; stroke-linejoin: miter; stroke-linecap: square"/>
   </g>
   <g id="patch_12">
    <path d="M 261.47 10.8 
L 415.935473 10.8 
" style="fill: none; stroke: #000000; stroke-width: 0.8; stroke-linejoin: miter; stroke-linecap: square"/>
   </g>
   <g id="legend_2">
    <g id="patch_13">
     <path d="M 311.569924 169.04 
L 365.835549 169.04 
Q 367.835549 169.04 367.835549 167.04 
L 367.835549 109.3275 
Q 367.835549 107.3275 365.835549 107.3275 
L 311.569924 107.3275 
Q 309.569924 107.3275 309.569924 109.3275 
L 309.569924 167.04 
Q 309.569924 169.04 311.569924 169.04 
z
" style="fill: #ffffff; opacity: 0.8; stroke: #cccccc; stroke-linejoin: miter"/>
    </g>
    <g id="text_29">
     <!-- LvFactor -->
     <g transform="translate(317.649612 118.925938)scale(0.1 -0.1)">
      <use xlink:href="#DejaVuSans-4c"/>
      <use xlink:href="#DejaVuSans-76" x="55.712891"/>
      <use xlink:href="#DejaVuSans-46" x="114.892578"/>
      <use xlink:href="#DejaVuSans-61" x="163.287109"/>
      <use xlink:href="#DejaVuSans-63" x="224.566406"/>
      <use xlink:href="#DejaVuSans-74" x="279.546875"/>
      <use xlink:href="#DejaVuSans-6f" x="318.755859"/>
      <use xlink:href="#DejaVuSans-72" x="379.9375"/>
     </g>
    </g>
    <g id="line2d_36">
     <path d="M 313.569924 130.104062 
L 323.569924 130.104062 
L 333.569924 130.104062 
" style="fill: none; stroke: #2c1e3e; stroke-width: 1.5; stroke-linecap: square"/>
    </g>
    <g id="text_30">
     <!-- 0.25 -->
     <g transform="translate(341.569924 133.604062)scale(0.1 -0.1)">
      <use xlink:href="#DejaVuSans-30"/>
      <use xlink:href="#DejaVuSans-2e" x="63.623047"/>
      <use xlink:href="#DejaVuSans-32" x="95.410156"/>
      <use xlink:href="#DejaVuSans-35" x="159.033203"/>
     </g>
    </g>
    <g id="line2d_37">
     <path d="M 313.569924 144.782187 
L 323.569924 144.782187 
L 333.569924 144.782187 
" style="fill: none; stroke: #4e8c8c; stroke-width: 1.5; stroke-linecap: square"/>
    </g>
    <g id="text_31">
     <!-- 0.5 -->
     <g transform="translate(341.569924 148.282187)scale(0.1 -0.1)">
      <use xlink:href="#DejaVuSans-30"/>
      <use xlink:href="#DejaVuSans-2e" x="63.623047"/>
      <use xlink:href="#DejaVuSans-35" x="95.410156"/>
     </g>
    </g>
    <g id="line2d_38">
     <path d="M 313.569924 159.460312 
L 323.569924 159.460312 
L 333.569924 159.460312 
" style="fill: none; stroke: #c2d6af; stroke-width: 1.5; stroke-linecap: square"/>
    </g>
    <g id="text_32">
     <!-- 0.75 -->
     <g transform="translate(341.569924 162.960312)scale(0.1 -0.1)">
      <use xlink:href="#DejaVuSans-30"/>
      <use xlink:href="#DejaVuSans-2e" x="63.623047"/>
      <use xlink:href="#DejaVuSans-37" x="95.410156"/>
      <use xlink:href="#DejaVuSans-35" x="159.033203"/>
     </g>
    </g>
   </g>
  </g>
 </g>
 <defs>
  <clipPath id="p82290fbd6f">
   <rect x="54.02" y="10.8" width="154.465473" height="163.24"/>
  </clipPath>
  <clipPath id="pfe21bf4ed2">
   <rect x="261.47" y="10.8" width="154.465473" height="163.24"/>
  </clipPath>
 </defs>
</svg>
