<?xml version="1.0" encoding="utf-8" standalone="no"?>
<!DOCTYPE svg PUBLIC "-//W3C//DTD SVG 1.1//EN"
  "http://www.w3.org/Graphics/SVG/1.1/DTD/svg11.dtd">
<svg xmlns:xlink="http://www.w3.org/1999/xlink" width="460.8pt" height="345.6pt" viewBox="0 0 460.8 345.6" xmlns="http://www.w3.org/2000/svg" version="1.1">
 <metadata>
  <rdf:RDF xmlns:dc="http://purl.org/dc/elements/1.1/" xmlns:cc="http://creativecommons.org/ns#" xmlns:rdf="http://www.w3.org/1999/02/22-rdf-syntax-ns#">
   <cc:Work>
    <dc:type rdf:resource="http://purl.org/dc/dcmitype/StillImage"/>
    <dc:date>2022-06-04T22:56:14.282554</dc:date>
    <dc:format>image/svg+xml</dc:format>
    <dc:creator>
     <cc:Agent>
      <dc:title>Matplotlib v3.5.2, https://matplotlib.org/</dc:title>
     </cc:Agent>
    </dc:creator>
   </cc:Work>
  </rdf:RDF>
 </metadata>
 <defs>
  <style type="text/css">*{stroke-linejoin: round; stroke-linecap: butt}</style>
 </defs>
 <g id="figure_1">
  <g id="patch_1">
   <path d="M 0 345.6 
L 460.8 345.6 
L 460.8 0 
L 0 0 
z
" style="fill: #ffffff"/>
  </g>
  <g id="axes_1">
   <g id="patch_2">
    <path d="M 57.6 307.584 
L 414.72 307.584 
L 414.72 41.472 
L 57.6 41.472 
z
" style="fill: #ffffff"/>
   </g>
   <g id="PolyCollection_1">
    <defs>
     <path id="mbe48872653" d="M 191.070032 -285.102479 
L 191.070032 -284.737576 
L 191.070032 -285.102479 
L 191.070032 -285.102479 
z
" style="stroke: #2e8b57; stroke-opacity: 0.2"/>
    </defs>
    <g clip-path="url(#p7719eb009b)">
     <use xlink:href="#mbe48872653" x="0" y="345.6" style="fill: #2e8b57; fill-opacity: 0.2; stroke: #2e8b57; stroke-opacity: 0.2"/>
    </g>
   </g>
   <g id="matplotlib.axis_1">
    <g id="xtick_1">
     <g id="line2d_1">
      <defs>
       <path id="mebe678aed7" d="M 0 0 
L 0 3.5 
" style="stroke: #000000; stroke-width: 0.8"/>
      </defs>
      <g>
       <use xlink:href="#mebe678aed7" x="73.731135" y="307.584" style="stroke: #000000; stroke-width: 0.8"/>
      </g>
     </g>
     <g id="text_1">
      <!-- 0 -->
      <g transform="translate(70.549885 322.182437)scale(0.1 -0.1)">
       <defs>
        <path id="DejaVuSans-30" d="M 2034 4250 
Q 1547 4250 1301 3770 
Q 1056 3291 1056 2328 
Q 1056 1369 1301 889 
Q 1547 409 2034 409 
Q 2525 409 2770 889 
Q 3016 1369 3016 2328 
Q 3016 3291 2770 3770 
Q 2525 4250 2034 4250 
z
M 2034 4750 
Q 2819 4750 3233 4129 
Q 3647 3509 3647 2328 
Q 3647 1150 3233 529 
Q 2819 -91 2034 -91 
Q 1250 -91 836 529 
Q 422 1150 422 2328 
Q 422 3509 836 4129 
Q 1250 4750 2034 4750 
z
" transform="scale(0.015625)"/>
       </defs>
       <use xlink:href="#DejaVuSans-30"/>
      </g>
     </g>
    </g>
    <g id="xtick_2">
     <g id="line2d_2">
      <g>
       <use xlink:href="#mebe678aed7" x="141.459214" y="307.584" style="stroke: #000000; stroke-width: 0.8"/>
      </g>
     </g>
     <g id="text_2">
      <!-- 2000 -->
      <g transform="translate(128.734214 322.182437)scale(0.1 -0.1)">
       <defs>
        <path id="DejaVuSans-32" d="M 1228 531 
L 3431 531 
L 3431 0 
L 469 0 
L 469 531 
Q 828 903 1448 1529 
Q 2069 2156 2228 2338 
Q 2531 2678 2651 2914 
Q 2772 3150 2772 3378 
Q 2772 3750 2511 3984 
Q 2250 4219 1831 4219 
Q 1534 4219 1204 4116 
Q 875 4013 500 3803 
L 500 4441 
Q 881 4594 1212 4672 
Q 1544 4750 1819 4750 
Q 2544 4750 2975 4387 
Q 3406 4025 3406 3419 
Q 3406 3131 3298 2873 
Q 3191 2616 2906 2266 
Q 2828 2175 2409 1742 
Q 1991 1309 1228 531 
z
" transform="scale(0.015625)"/>
       </defs>
       <use xlink:href="#DejaVuSans-32"/>
       <use xlink:href="#DejaVuSans-30" x="63.623047"/>
       <use xlink:href="#DejaVuSans-30" x="127.246094"/>
       <use xlink:href="#DejaVuSans-30" x="190.869141"/>
      </g>
     </g>
    </g>
    <g id="xtick_3">
     <g id="line2d_3">
      <g>
       <use xlink:href="#mebe678aed7" x="209.187293" y="307.584" style="stroke: #000000; stroke-width: 0.8"/>
      </g>
     </g>
     <g id="text_3">
      <!-- 4000 -->
      <g transform="translate(196.462293 322.182437)scale(0.1 -0.1)">
       <defs>
        <path id="DejaVuSans-34" d="M 2419 4116 
L 825 1625 
L 2419 1625 
L 2419 4116 
z
M 2253 4666 
L 3047 4666 
L 3047 1625 
L 3713 1625 
L 3713 1100 
L 3047 1100 
L 3047 0 
L 2419 0 
L 2419 1100 
L 313 1100 
L 313 1709 
L 2253 4666 
z
" transform="scale(0.015625)"/>
       </defs>
       <use xlink:href="#DejaVuSans-34"/>
       <use xlink:href="#DejaVuSans-30" x="63.623047"/>
       <use xlink:href="#DejaVuSans-30" x="127.246094"/>
       <use xlink:href="#DejaVuSans-30" x="190.869141"/>
      </g>
     </g>
    </g>
    <g id="xtick_4">
     <g id="line2d_4">
      <g>
       <use xlink:href="#mebe678aed7" x="276.915371" y="307.584" style="stroke: #000000; stroke-width: 0.8"/>
      </g>
     </g>
     <g id="text_4">
      <!-- 6000 -->
      <g transform="translate(264.190371 322.182437)scale(0.1 -0.1)">
       <defs>
        <path id="DejaVuSans-36" d="M 2113 2584 
Q 1688 2584 1439 2293 
Q 1191 2003 1191 1497 
Q 1191 994 1439 701 
Q 1688 409 2113 409 
Q 2538 409 2786 701 
Q 3034 994 3034 1497 
Q 3034 2003 2786 2293 
Q 2538 2584 2113 2584 
z
M 3366 4563 
L 3366 3988 
Q 3128 4100 2886 4159 
Q 2644 4219 2406 4219 
Q 1781 4219 1451 3797 
Q 1122 3375 1075 2522 
Q 1259 2794 1537 2939 
Q 1816 3084 2150 3084 
Q 2853 3084 3261 2657 
Q 3669 2231 3669 1497 
Q 3669 778 3244 343 
Q 2819 -91 2113 -91 
Q 1303 -91 875 529 
Q 447 1150 447 2328 
Q 447 3434 972 4092 
Q 1497 4750 2381 4750 
Q 2619 4750 2861 4703 
Q 3103 4656 3366 4563 
z
" transform="scale(0.015625)"/>
       </defs>
       <use xlink:href="#DejaVuSans-36"/>
       <use xlink:href="#DejaVuSans-30" x="63.623047"/>
       <use xlink:href="#DejaVuSans-30" x="127.246094"/>
       <use xlink:href="#DejaVuSans-30" x="190.869141"/>
      </g>
     </g>
    </g>
    <g id="xtick_5">
     <g id="line2d_5">
      <g>
       <use xlink:href="#mebe678aed7" x="344.64345" y="307.584" style="stroke: #000000; stroke-width: 0.8"/>
      </g>
     </g>
     <g id="text_5">
      <!-- 8000 -->
      <g transform="translate(331.91845 322.182437)scale(0.1 -0.1)">
       <defs>
        <path id="DejaVuSans-38" d="M 2034 2216 
Q 1584 2216 1326 1975 
Q 1069 1734 1069 1313 
Q 1069 891 1326 650 
Q 1584 409 2034 409 
Q 2484 409 2743 651 
Q 3003 894 3003 1313 
Q 3003 1734 2745 1975 
Q 2488 2216 2034 2216 
z
M 1403 2484 
Q 997 2584 770 2862 
Q 544 3141 544 3541 
Q 544 4100 942 4425 
Q 1341 4750 2034 4750 
Q 2731 4750 3128 4425 
Q 3525 4100 3525 3541 
Q 3525 3141 3298 2862 
Q 3072 2584 2669 2484 
Q 3125 2378 3379 2068 
Q 3634 1759 3634 1313 
Q 3634 634 3220 271 
Q 2806 -91 2034 -91 
Q 1263 -91 848 271 
Q 434 634 434 1313 
Q 434 1759 690 2068 
Q 947 2378 1403 2484 
z
M 1172 3481 
Q 1172 3119 1398 2916 
Q 1625 2713 2034 2713 
Q 2441 2713 2670 2916 
Q 2900 3119 2900 3481 
Q 2900 3844 2670 4047 
Q 2441 4250 2034 4250 
Q 1625 4250 1398 4047 
Q 1172 3844 1172 3481 
z
" transform="scale(0.015625)"/>
       </defs>
       <use xlink:href="#DejaVuSans-38"/>
       <use xlink:href="#DejaVuSans-30" x="63.623047"/>
       <use xlink:href="#DejaVuSans-30" x="127.246094"/>
       <use xlink:href="#DejaVuSans-30" x="190.869141"/>
      </g>
     </g>
    </g>
    <g id="xtick_6">
     <g id="line2d_6">
      <g>
       <use xlink:href="#mebe678aed7" x="412.371529" y="307.584" style="stroke: #000000; stroke-width: 0.8"/>
      </g>
     </g>
     <g id="text_6">
      <!-- 10000 -->
      <g transform="translate(396.465279 322.182437)scale(0.1 -0.1)">
       <defs>
        <path id="DejaVuSans-31" d="M 794 531 
L 1825 531 
L 1825 4091 
L 703 3866 
L 703 4441 
L 1819 4666 
L 2450 4666 
L 2450 531 
L 3481 531 
L 3481 0 
L 794 0 
L 794 531 
z
" transform="scale(0.015625)"/>
       </defs>
       <use xlink:href="#DejaVuSans-31"/>
       <use xlink:href="#DejaVuSans-30" x="63.623047"/>
       <use xlink:href="#DejaVuSans-30" x="127.246094"/>
       <use xlink:href="#DejaVuSans-30" x="190.869141"/>
       <use xlink:href="#DejaVuSans-30" x="254.492188"/>
      </g>
     </g>
    </g>
    <g id="text_7">
     <!-- Episodes -->
     <g transform="translate(213.917812 335.860562)scale(0.1 -0.1)">
      <defs>
       <path id="DejaVuSans-45" d="M 628 4666 
L 3578 4666 
L 3578 4134 
L 1259 4134 
L 1259 2753 
L 3481 2753 
L 3481 2222 
L 1259 2222 
L 1259 531 
L 3634 531 
L 3634 0 
L 628 0 
L 628 4666 
z
" transform="scale(0.015625)"/>
       <path id="DejaVuSans-70" d="M 1159 525 
L 1159 -1331 
L 581 -1331 
L 581 3500 
L 1159 3500 
L 1159 2969 
Q 1341 3281 1617 3432 
Q 1894 3584 2278 3584 
Q 2916 3584 3314 3078 
Q 3713 2572 3713 1747 
Q 3713 922 3314 415 
Q 2916 -91 2278 -91 
Q 1894 -91 1617 61 
Q 1341 213 1159 525 
z
M 3116 1747 
Q 3116 2381 2855 2742 
Q 2594 3103 2138 3103 
Q 1681 3103 1420 2742 
Q 1159 2381 1159 1747 
Q 1159 1113 1420 752 
Q 1681 391 2138 391 
Q 2594 391 2855 752 
Q 3116 1113 3116 1747 
z
" transform="scale(0.015625)"/>
       <path id="DejaVuSans-69" d="M 603 3500 
L 1178 3500 
L 1178 0 
L 603 0 
L 603 3500 
z
M 603 4863 
L 1178 4863 
L 1178 4134 
L 603 4134 
L 603 4863 
z
" transform="scale(0.015625)"/>
       <path id="DejaVuSans-73" d="M 2834 3397 
L 2834 2853 
Q 2591 2978 2328 3040 
Q 2066 3103 1784 3103 
Q 1356 3103 1142 2972 
Q 928 2841 928 2578 
Q 928 2378 1081 2264 
Q 1234 2150 1697 2047 
L 1894 2003 
Q 2506 1872 2764 1633 
Q 3022 1394 3022 966 
Q 3022 478 2636 193 
Q 2250 -91 1575 -91 
Q 1294 -91 989 -36 
Q 684 19 347 128 
L 347 722 
Q 666 556 975 473 
Q 1284 391 1588 391 
Q 1994 391 2212 530 
Q 2431 669 2431 922 
Q 2431 1156 2273 1281 
Q 2116 1406 1581 1522 
L 1381 1569 
Q 847 1681 609 1914 
Q 372 2147 372 2553 
Q 372 3047 722 3315 
Q 1072 3584 1716 3584 
Q 2034 3584 2315 3537 
Q 2597 3491 2834 3397 
z
" transform="scale(0.015625)"/>
       <path id="DejaVuSans-6f" d="M 1959 3097 
Q 1497 3097 1228 2736 
Q 959 2375 959 1747 
Q 959 1119 1226 758 
Q 1494 397 1959 397 
Q 2419 397 2687 759 
Q 2956 1122 2956 1747 
Q 2956 2369 2687 2733 
Q 2419 3097 1959 3097 
z
M 1959 3584 
Q 2709 3584 3137 3096 
Q 3566 2609 3566 1747 
Q 3566 888 3137 398 
Q 2709 -91 1959 -91 
Q 1206 -91 779 398 
Q 353 888 353 1747 
Q 353 2609 779 3096 
Q 1206 3584 1959 3584 
z
" transform="scale(0.015625)"/>
       <path id="DejaVuSans-64" d="M 2906 2969 
L 2906 4863 
L 3481 4863 
L 3481 0 
L 2906 0 
L 2906 525 
Q 2725 213 2448 61 
Q 2172 -91 1784 -91 
Q 1150 -91 751 415 
Q 353 922 353 1747 
Q 353 2572 751 3078 
Q 1150 3584 1784 3584 
Q 2172 3584 2448 3432 
Q 2725 3281 2906 2969 
z
M 947 1747 
Q 947 1113 1208 752 
Q 1469 391 1925 391 
Q 2381 391 2643 752 
Q 2906 1113 2906 1747 
Q 2906 2381 2643 2742 
Q 2381 3103 1925 3103 
Q 1469 3103 1208 2742 
Q 947 2381 947 1747 
z
" transform="scale(0.015625)"/>
       <path id="DejaVuSans-65" d="M 3597 1894 
L 3597 1613 
L 953 1613 
Q 991 1019 1311 708 
Q 1631 397 2203 397 
Q 2534 397 2845 478 
Q 3156 559 3463 722 
L 3463 178 
Q 3153 47 2828 -22 
Q 2503 -91 2169 -91 
Q 1331 -91 842 396 
Q 353 884 353 1716 
Q 353 2575 817 3079 
Q 1281 3584 2069 3584 
Q 2775 3584 3186 3129 
Q 3597 2675 3597 1894 
z
M 3022 2063 
Q 3016 2534 2758 2815 
Q 2500 3097 2075 3097 
Q 1594 3097 1305 2825 
Q 1016 2553 972 2059 
L 3022 2063 
z
" transform="scale(0.015625)"/>
      </defs>
      <use xlink:href="#DejaVuSans-45"/>
      <use xlink:href="#DejaVuSans-70" x="63.183594"/>
      <use xlink:href="#DejaVuSans-69" x="126.660156"/>
      <use xlink:href="#DejaVuSans-73" x="154.443359"/>
      <use xlink:href="#DejaVuSans-6f" x="206.542969"/>
      <use xlink:href="#DejaVuSans-64" x="267.724609"/>
      <use xlink:href="#DejaVuSans-65" x="331.201172"/>
      <use xlink:href="#DejaVuSans-73" x="392.724609"/>
     </g>
    </g>
   </g>
   <g id="matplotlib.axis_2">
    <g id="ytick_1">
     <g id="line2d_7">
      <defs>
       <path id="m20a19dc3ab" d="M 0 0 
L -3.5 0 
" style="stroke: #000000; stroke-width: 0.8"/>
      </defs>
      <g>
       <use xlink:href="#m20a19dc3ab" x="57.6" y="274.210697" style="stroke: #000000; stroke-width: 0.8"/>
      </g>
     </g>
     <g id="text_8">
      <!-- 5 -->
      <g transform="translate(44.2375 278.009915)scale(0.1 -0.1)">
       <defs>
        <path id="DejaVuSans-35" d="M 691 4666 
L 3169 4666 
L 3169 4134 
L 1269 4134 
L 1269 2991 
Q 1406 3038 1543 3061 
Q 1681 3084 1819 3084 
Q 2600 3084 3056 2656 
Q 3513 2228 3513 1497 
Q 3513 744 3044 326 
Q 2575 -91 1722 -91 
Q 1428 -91 1123 -41 
Q 819 9 494 109 
L 494 744 
Q 775 591 1075 516 
Q 1375 441 1709 441 
Q 2250 441 2565 725 
Q 2881 1009 2881 1497 
Q 2881 1984 2565 2268 
Q 2250 2553 1709 2553 
Q 1456 2553 1204 2497 
Q 953 2441 691 2322 
L 691 4666 
z
" transform="scale(0.015625)"/>
       </defs>
       <use xlink:href="#DejaVuSans-35"/>
      </g>
     </g>
    </g>
    <g id="ytick_2">
     <g id="line2d_8">
      <g>
       <use xlink:href="#m20a19dc3ab" x="57.6" y="223.023832" style="stroke: #000000; stroke-width: 0.8"/>
      </g>
     </g>
     <g id="text_9">
      <!-- 10 -->
      <g transform="translate(37.875 226.823051)scale(0.1 -0.1)">
       <use xlink:href="#DejaVuSans-31"/>
       <use xlink:href="#DejaVuSans-30" x="63.623047"/>
      </g>
     </g>
    </g>
    <g id="ytick_3">
     <g id="line2d_9">
      <g>
       <use xlink:href="#m20a19dc3ab" x="57.6" y="171.836968" style="stroke: #000000; stroke-width: 0.8"/>
      </g>
     </g>
     <g id="text_10">
      <!-- 15 -->
      <g transform="translate(37.875 175.636187)scale(0.1 -0.1)">
       <use xlink:href="#DejaVuSans-31"/>
       <use xlink:href="#DejaVuSans-35" x="63.623047"/>
      </g>
     </g>
    </g>
    <g id="ytick_4">
     <g id="line2d_10">
      <g>
       <use xlink:href="#m20a19dc3ab" x="57.6" y="120.650104" style="stroke: #000000; stroke-width: 0.8"/>
      </g>
     </g>
     <g id="text_11">
      <!-- 20 -->
      <g transform="translate(37.875 124.449322)scale(0.1 -0.1)">
       <use xlink:href="#DejaVuSans-32"/>
       <use xlink:href="#DejaVuSans-30" x="63.623047"/>
      </g>
     </g>
    </g>
    <g id="ytick_5">
     <g id="line2d_11">
      <g>
       <use xlink:href="#m20a19dc3ab" x="57.6" y="69.463239" style="stroke: #000000; stroke-width: 0.8"/>
      </g>
     </g>
     <g id="text_12">
      <!-- 25 -->
      <g transform="translate(37.875 73.262458)scale(0.1 -0.1)">
       <use xlink:href="#DejaVuSans-32"/>
       <use xlink:href="#DejaVuSans-35" x="63.623047"/>
      </g>
     </g>
    </g>
    <g id="text_13">
     <!-- Reward -->
     <g transform="translate(31.795312 193.149094)rotate(-90)scale(0.1 -0.1)">
      <defs>
       <path id="DejaVuSans-52" d="M 2841 2188 
Q 3044 2119 3236 1894 
Q 3428 1669 3622 1275 
L 4263 0 
L 3584 0 
L 2988 1197 
Q 2756 1666 2539 1819 
Q 2322 1972 1947 1972 
L 1259 1972 
L 1259 0 
L 628 0 
L 628 4666 
L 2053 4666 
Q 2853 4666 3247 4331 
Q 3641 3997 3641 3322 
Q 3641 2881 3436 2590 
Q 3231 2300 2841 2188 
z
M 1259 4147 
L 1259 2491 
L 2053 2491 
Q 2509 2491 2742 2702 
Q 2975 2913 2975 3322 
Q 2975 3731 2742 3939 
Q 2509 4147 2053 4147 
L 1259 4147 
z
" transform="scale(0.015625)"/>
       <path id="DejaVuSans-77" d="M 269 3500 
L 844 3500 
L 1563 769 
L 2278 3500 
L 2956 3500 
L 3675 769 
L 4391 3500 
L 4966 3500 
L 4050 0 
L 3372 0 
L 2619 2869 
L 1863 0 
L 1184 0 
L 269 3500 
z
" transform="scale(0.015625)"/>
       <path id="DejaVuSans-61" d="M 2194 1759 
Q 1497 1759 1228 1600 
Q 959 1441 959 1056 
Q 959 750 1161 570 
Q 1363 391 1709 391 
Q 2188 391 2477 730 
Q 2766 1069 2766 1631 
L 2766 1759 
L 2194 1759 
z
M 3341 1997 
L 3341 0 
L 2766 0 
L 2766 531 
Q 2569 213 2275 61 
Q 1981 -91 1556 -91 
Q 1019 -91 701 211 
Q 384 513 384 1019 
Q 384 1609 779 1909 
Q 1175 2209 1959 2209 
L 2766 2209 
L 2766 2266 
Q 2766 2663 2505 2880 
Q 2244 3097 1772 3097 
Q 1472 3097 1187 3025 
Q 903 2953 641 2809 
L 641 3341 
Q 956 3463 1253 3523 
Q 1550 3584 1831 3584 
Q 2591 3584 2966 3190 
Q 3341 2797 3341 1997 
z
" transform="scale(0.015625)"/>
       <path id="DejaVuSans-72" d="M 2631 2963 
Q 2534 3019 2420 3045 
Q 2306 3072 2169 3072 
Q 1681 3072 1420 2755 
Q 1159 2438 1159 1844 
L 1159 0 
L 581 0 
L 581 3500 
L 1159 3500 
L 1159 2956 
Q 1341 3275 1631 3429 
Q 1922 3584 2338 3584 
Q 2397 3584 2469 3576 
Q 2541 3569 2628 3553 
L 2631 2963 
z
" transform="scale(0.015625)"/>
      </defs>
      <use xlink:href="#DejaVuSans-52"/>
      <use xlink:href="#DejaVuSans-65" x="64.982422"/>
      <use xlink:href="#DejaVuSans-77" x="126.505859"/>
      <use xlink:href="#DejaVuSans-61" x="208.292969"/>
      <use xlink:href="#DejaVuSans-72" x="269.572266"/>
      <use xlink:href="#DejaVuSans-64" x="308.935547"/>
     </g>
    </g>
   </g>
   <g id="line2d_12">
    <path d="M 73.866591 292.705084 
L 74.340688 280.27829 
L 75.085697 276.731461 
L 75.322745 279.641154 
L 75.356609 279.403983 
L 75.830706 274.41826 
L 75.86457 274.93472 
L 76.338666 276.451372 
L 76.507986 275.66052 
L 76.745035 277.052389 
L 77.083675 276.425372 
L 77.219131 275.223708 
L 77.354587 275.982595 
L 77.828684 276.825968 
L 78.13346 275.258357 
L 79.149381 272.248065 
L 79.284838 270.110055 
L 79.55575 269.431171 
L 80.199167 264.337425 
L 80.605535 263.008283 
L 80.673263 261.947101 
L 81.486 262.153756 
L 81.993961 262.970324 
L 82.027825 262.366719 
L 83.009882 266.980077 
L 83.280794 269.448911 
L 83.382386 268.956151 
L 83.721027 269.882837 
L 84.432172 268.575038 
L 84.635356 269.354116 
L 85.448093 267.06008 
L 86.057645 266.992988 
L 86.531742 269.422072 
L 86.938111 267.474144 
L 87.412207 271.377815 
L 87.784711 271.119127 
L 88.02176 271.292827 
L 88.495856 273.548562 
L 88.52972 273.298709 
L 88.597448 272.635778 
L 88.834497 272.523786 
L 89.816554 269.27749 
L 90.222922 267.369976 
L 91.001795 268.27985 
L 91.103387 268.977523 
L 91.137251 268.68376 
L 91.238844 268.872521 
L 91.88226 263.57328 
L 91.949988 263.648915 
L 92.017716 264.1375 
L 92.424085 262.895675 
L 92.559541 265.458245 
L 92.762725 265.19284 
L 93.914103 258.42794 
L 94.828432 251.610744 
L 94.997752 252.063802 
L 95.031616 251.78567 
L 95.539577 255.40851 
L 96.013673 252.674773 
L 96.318449 251.727228 
L 96.589362 253.548728 
L 97.232778 253.569519 
L 98.147108 251.349405 
L 98.282564 251.850956 
L 98.485748 251.769502 
L 98.92598 250.633822 
L 99.603261 248.259978 
L 100.212814 251.527958 
L 100.415998 250.929732 
L 100.957823 250.191592 
L 100.991687 249.60619 
L 101.059415 250.585695 
L 101.465783 253.530242 
L 101.906016 253.461832 
L 102.752617 253.636689 
L 103.057393 256.541637 
L 103.226713 255.470774 
L 103.734674 254.920041 
L 104.107178 255.622591 
L 104.242635 254.907037 
L 105.224692 253.949827 
L 105.63106 252.831085 
L 105.868109 251.527802 
L 107.662903 246.514469 
L 107.730631 246.719558 
L 108.103135 239.794343 
L 108.340183 239.498735 
L 108.543368 240.12956 
L 108.848144 239.275814 
L 109.965657 234.744789 
L 109.999521 234.908224 
L 110.067249 235.394037 
L 110.202706 233.452221 
L 110.507482 232.824696 
L 111.117035 227.656901 
L 111.354083 229.968827 
L 111.828179 228.599589 
L 112.065228 227.683711 
L 112.132956 229.367507 
L 112.539324 227.7237 
L 112.742509 224.915398 
L 113.148877 221.464564 
L 113.487517 221.984831 
L 113.555245 221.511701 
L 113.826158 220.941808 
L 114.130934 220.022805 
L 114.164798 220.121872 
L 114.977535 222.004143 
L 115.214583 220.425271 
L 115.925728 216.80946 
L 116.095048 216.916903 
L 116.196641 218.035376 
L 116.298233 217.937969 
L 116.433689 217.092513 
L 116.636873 218.590312 
L 116.772329 218.602399 
L 116.941649 217.994508 
L 117.686658 217.963637 
L 117.957571 220.533573 
L 119.278268 228.052317 
L 119.786229 228.785908 
L 119.921685 226.836291 
L 120.294189 226.726466 
L 120.328053 226.575431 
L 121.716479 225.986588 
L 122.427624 221.312514 
L 122.461488 221.508577 
L 123.646729 228.209699 
L 123.714457 228.209386 
L 124.188554 227.348025 
L 124.594922 225.378316 
L 124.865835 222.497952 
L 125.069019 224.402414 
L 125.475387 223.862474 
L 125.814028 225.600378 
L 126.152668 226.156017 
L 126.25426 225.318175 
L 126.728357 218.765267 
L 126.829949 219.117559 
L 127.100861 216.255755 
L 127.778142 212.301066 
L 127.947462 211.871167 
L 128.01519 210.872654 
L 128.827927 207.148326 
L 129.09884 206.567752 
L 129.166568 205.539745 
L 130.284081 211.068033 
L 130.588857 211.137097 
L 130.792041 212.386503 
L 131.096818 212.196806 
L 131.36773 215.648928 
L 131.435458 215.485308 
L 131.672507 214.505794 
L 131.909555 216.29675 
L 132.823884 215.663524 
L 133.839805 217.896183 
L 133.907533 218.521501 
L 134.415494 220.239107 
L 134.686406 216.398921 
L 136.278016 209.726678 
L 136.413472 209.922214 
L 136.955297 206.489784 
L 137.666441 200.218562 
L 138.140538 201.651543 
L 138.377586 204.035492 
L 138.885547 207.048996 
L 138.919411 206.899933 
L 139.291915 206.65027 
L 139.427372 206.416034 
L 139.596692 207.151343 
L 139.66442 206.079772 
L 140.104652 205.117519 
L 140.138516 205.152676 
L 140.307837 205.702106 
L 140.748069 205.918486 
L 141.018981 207.557938 
L 143.829697 209.526817 
L 144.134473 209.603292 
L 144.473113 208.438581 
L 144.845618 210.012972 
L 145.150394 210.804575 
L 145.353578 207.469347 
L 145.489035 207.364511 
L 145.522899 207.665996 
L 145.759947 204.820525 
L 146.166315 204.552781 
L 147.182237 201.644172 
L 148.028838 203.45361 
L 148.536798 203.061562 
L 148.739982 204.467374 
L 149.552719 207.054932 
L 149.72204 207.121487 
L 150.975009 208.377103 
L 151.787746 208.295805 
L 152.702075 200.504992 
L 153.040715 198.016871 
L 153.616404 198.379356 
L 154.801645 190.504101 
L 156.223935 192.438468 
L 156.393255 191.478441 
L 156.833488 191.990263 
L 157.1044 192.508646 
L 157.205992 191.567354 
L 157.883273 192.136065 
L 158.154185 192.656567 
L 158.323506 192.666515 
L 158.492826 194.63021 
L 159.407155 189.892627 
L 160.62626 187.394304 
L 160.998765 187.259416 
L 161.032629 187.841542 
L 161.371269 186.332613 
L 161.506725 186.806437 
L 161.980822 189.13581 
L 162.421054 190.067944 
L 162.725831 191.246079 
L 163.233791 194.758927 
L 163.877208 193.945972 
L 164.520625 197.288561 
L 164.622217 196.974619 
L 164.689945 197.001301 
L 164.791537 197.944428 
L 164.926993 196.750858 
L 165.23177 196.73057 
L 165.434954 197.174811 
L 165.73973 198.444798 
L 166.315419 200.834995 
L 166.484739 200.782216 
L 167.195884 203.153316 
L 167.365204 203.283693 
L 167.466796 202.961637 
L 167.805437 201.089891 
L 168.042485 200.771681 
L 169.701823 195.044323 
L 170.040463 191.456601 
L 171.293433 185.876656 
L 172.546402 184.279634 
L 172.647994 183.939272 
L 173.088227 184.063781 
L 173.697779 188.622641 
L 174.03642 186.979547 
L 174.138012 188.788018 
L 174.408924 190.622528 
L 174.849157 191.931704 
L 175.187797 191.818002 
L 175.96667 195.097503 
L 176.474631 199.784454 
L 176.914863 199.708936 
L 178.574201 208.51899 
L 178.811249 208.903179 
L 178.878977 208.162949 
L 179.217618 206.818674 
L 179.386938 207.742031 
L 179.420802 207.692864 
L 181.351052 190.359627 
L 182.773342 182.40369 
L 182.84107 182.620236 
L 183.078118 184.013111 
L 183.484487 182.96959 
L 184.297224 188.635616 
L 184.398816 188.395658 
L 185.685649 190.012528 
L 186.837027 188.13182 
L 187.378851 188.278989 
L 187.683628 187.101967 
L 187.988404 186.439929 
L 188.327044 187.670493 
L 188.631821 187.847586 
L 189.004325 189.963927 
L 189.478422 193.396006 
L 189.613878 193.294459 
L 189.749334 193.778974 
L 190.020246 195.740785 
L 190.189567 195.733394 
L 190.934575 195.437923 
L 191.171624 196.527975 
L 191.679584 195.37705 
L 191.747312 194.908879 
L 191.950497 194.18058 
L 192.018225 193.158791 
L 192.255273 192.332431 
L 193.135738 190.756322 
L 193.745291 190.958096 
L 193.948475 189.875132 
L 194.219387 190.447368 
L 194.82894 188.708498 
L 195.201444 187.738454 
L 195.235308 187.833439 
L 195.641677 188.856419 
L 196.115773 188.022219 
L 196.183502 186.913675 
L 196.657598 185.694935 
L 197.470335 184.402405 
L 197.639655 182.993499 
L 197.707383 183.999452 
L 197.808975 183.666091 
L 197.944432 183.707799 
L 198.079888 184.714113 
L 198.68944 186.382688 
L 199.434449 184.763719 
L 199.603769 186.993508 
L 200.585827 192.302995 
L 200.653555 191.356324 
L 201.093787 192.690562 
L 201.161515 192.392962 
L 201.838796 186.878167 
L 201.974252 186.940504 
L 202.075844 187.72873 
L 202.854717 188.635655 
L 203.193358 186.082873 
L 204.039959 186.125899 
L 204.446327 183.285495 
L 204.751103 182.872251 
L 204.852696 184.426901 
L 205.868617 183.421671 
L 206.512034 186.387326 
L 206.918402 187.500204 
L 207.019994 186.722699 
L 207.595683 185.717683 
L 207.731139 186.055477 
L 208.035915 187.7213 
L 208.543876 184.641963 
L 209.593661 186.571087 
L 209.661389 185.819044 
L 209.966166 183.848339 
L 210.33867 180.365512 
L 210.541854 181.166302 
L 210.778902 181.594581 
L 212.031872 183.394441 
L 212.878473 184.337168 
L 213.081657 183.840587 
L 213.386434 182.761645 
L 214.131442 181.481417 
L 215.316684 177.766745 
L 215.689188 174.987204 
L 216.197149 174.571706 
L 216.87443 181.539312 
L 217.517846 182.622384 
L 217.619438 184.004715 
L 217.721031 183.993663 
L 217.754895 184.0123 
L 217.890351 182.518211 
L 218.703088 180.151875 
L 219.956057 178.68398 
L 220.497882 176.319411 
L 221.920171 182.960617 
L 222.021764 181.828896 
L 222.563588 183.636586 
L 222.834501 182.790124 
L 222.969957 183.407163 
L 223.477917 184.550209 
L 223.545645 184.044685 
L 224.189062 190.050565 
L 224.561567 191.607988 
L 225.746808 189.705791 
L 225.949992 188.554113 
L 226.085448 188.967152 
L 226.593409 185.305074 
L 226.965913 184.285473 
L 227.304554 179.547187 
L 227.44001 179.552898 
L 227.60933 179.688146 
L 228.422067 176.741237 
L 228.625251 178.755349 
L 228.896164 178.69428 
L 229.810493 181.502652 
L 229.912085 181.517316 
L 231.165054 180.474029 
L 231.334374 180.741021 
L 231.469831 179.490795 
L 231.503695 179.864644 
L 231.605287 180.041669 
L 231.774607 180.847283 
L 232.824392 175.496507 
L 233.129168 173.916825 
L 233.332353 174.268717 
L 233.908041 173.330608 
L 234.14509 173.896137 
L 234.890099 174.789687 
L 235.330331 174.419791 
L 235.499651 175.475897 
L 236.617165 186.197345 
L 236.752621 185.05507 
L 237.429901 187.715715 
L 237.49763 186.655333 
L 237.768542 186.98848 
L 238.378095 184.262363 
L 239.055375 181.892737 
L 239.495608 178.159662 
L 240.003568 175.82652 
L 240.646985 174.518399 
L 240.782441 173.49953 
L 241.01949 173.969018 
L 241.154946 172.842696 
L 241.324266 173.147247 
L 242.712692 175.205381 
L 242.746556 174.903476 
L 243.830205 173.222003 
L 244.642942 175.129687 
L 245.286359 171.377535 
L 245.760455 174.09589 
L 246.031367 174.173478 
L 246.099096 173.713469 
L 246.268416 174.857179 
L 247.521385 176.552535 
L 247.656841 175.904332 
L 247.792298 175.840901 
L 248.164802 174.102383 
L 248.198666 174.169582 
L 248.300258 174.193443 
L 249.383907 173.069484 
L 249.756412 175.729641 
L 249.82414 175.658536 
L 249.99346 174.86622 
L 250.230508 176.787319 
L 250.670741 180.724472 
L 251.110973 181.011928 
L 251.618934 181.959907 
L 251.652798 181.53322 
L 251.788254 182.656223 
L 251.92371 182.456635 
L 252.025302 181.692222 
L 252.736447 180.91992 
L 253.108952 182.625537 
L 253.853961 180.167399 
L 254.023281 176.975737 
L 254.158737 176.515943 
L 254.361921 173.28191 
L 255.581027 156.795476 
L 257.172636 123.396411 
L 257.409685 123.008659 
L 258.12083 119.865578 
L 258.425606 115.643693 
L 258.527198 116.214562 
L 258.594926 115.611631 
L 260.118808 114.324988 
L 260.321992 114.816191 
L 260.55904 114.179616 
L 260.762225 112.773922 
L 261.507233 112.943976 
L 262.252242 114.765461 
L 263.505212 113.295018 
L 264.825909 131.273471 
L 265.16455 130.763036 
L 265.638646 132.558923 
L 266.315927 132.716382 
L 267.772081 124.549064 
L 268.110721 118.44811 
L 268.68641 117.731048 
L 268.720274 117.151783 
L 269.19437 119.856811 
L 269.499147 119.92857 
L 269.770059 120.479347 
L 271.226213 117.251601 
L 272.817823 113.241399 
L 272.919415 113.90164 
L 275.154441 105.733404 
L 275.425354 112.11167 
L 276.271955 115.807342 
L 276.813779 117.876694 
L 277.016964 120.021984 
L 277.220148 120.665334 
L 277.254012 120.542065 
L 278.439253 125.910707 
L 278.710165 122.408305 
L 279.489038 118.08418 
L 279.556766 118.315839 
L 279.59063 118.358016 
L 280.538824 116.978702 
L 281.419289 120.257216 
L 281.588609 117.239104 
L 281.656337 117.443837 
L 281.724065 117.582297 
L 282.60453 119.766522 
L 283.857499 119.853863 
L 284.060684 118.837385 
L 284.53478 117.944255 
L 284.670236 118.856736 
L 284.907285 117.348607 
L 285.144333 117.270834 
L 285.415245 116.348102 
L 286.431166 114.811329 
L 286.668215 114.193284 
L 286.972991 114.151966 
L 287.074583 114.274962 
L 287.54868 113.10538 
L 288.158232 110.596141 
L 288.225961 110.592997 
L 288.666193 109.718573 
L 289.241882 107.031841 
L 289.30961 109.416775 
L 289.411202 109.166859 
L 290.664171 119.140999 
L 291.273724 132.596901 
L 291.917141 139.038061 
L 292.120325 139.486871 
L 292.458965 139.575325 
L 292.933062 138.702619 
L 293.542615 136.586834 
L 293.678071 134.145781 
L 294.897176 115.118027 
L 295.201953 115.752786 
L 295.405137 113.108797 
L 295.574457 112.968208 
L 295.608321 113.316907 
L 296.18401 111.393338 
L 296.725834 111.329429 
L 297.064475 113.11362 
L 297.199931 113.471321 
L 297.741756 112.159411 
L 298.215852 112.284184 
L 298.893133 110.979577 
L 299.299501 114.414126 
L 299.70587 114.522516 
L 300.891111 120.098155 
L 301.365208 123.705277 
L 301.63612 123.409845 
L 301.771576 124.76188 
L 302.313401 127.573971 
L 302.685905 124.163577 
L 302.753633 124.638748 
L 303.193866 124.943885 
L 303.498642 123.553636 
L 304.074331 117.824618 
L 305.056388 114.6427 
L 305.259572 113.133849 
L 305.496621 109.796151 
L 305.699805 109.462623 
L 306.004581 111.279227 
L 306.241629 111.736024 
L 306.377086 110.674109 
L 306.546406 111.044971 
L 307.934831 109.125932 
L 308.036424 106.630889 
L 308.408928 106.196157 
L 308.645976 108.261681 
L 309.390985 103.891299 
L 309.93281 103.239435 
L 310.474634 103.287098 
L 310.813275 105.690915 
L 311.185779 106.345669 
L 311.388963 106.370448 
L 311.761468 110.707245 
L 312.269428 107.696729 
L 312.574205 108.084832 
L 312.608069 109.080397 
L 313.725582 108.282164 
L 314.504455 105.177356 
L 314.741503 105.426823 
L 314.843095 104.644523 
L 315.04628 100.844151 
L 316.333113 105.688064 
L 316.773346 105.206742 
L 316.80721 104.9546 
L 317.078122 106.896621 
L 317.179714 106.146501 
L 317.789267 108.40885 
L 318.39882 109.787833 
L 319.211557 109.999887 
L 319.347013 111.834827 
L 319.753381 111.505458 
L 320.058158 111.403941 
L 320.701574 109.572927 
L 321.209535 110.707401 
L 322.09 109.905166 
L 322.225456 109.075008 
L 322.293184 109.684753 
L 322.801145 106.341139 
L 323.072057 106.71493 
L 323.207513 106.398448 
L 323.817066 106.417018 
L 324.900715 112.555794 
L 325.510268 118.431103 
L 325.544132 118.38545 
L 325.645724 118.181577 
L 325.747316 118.344562 
L 326.695509 121.955237 
L 327.101878 121.155013 
L 327.914615 117.467327 
L 328.79508 110.701036 
L 329.709409 112.781888 
L 329.912593 114.013506 
L 330.318961 111.627712 
L 330.860786 111.549802 
L 331.165562 110.628242 
L 331.233291 110.816846 
L 331.334883 110.977156 
L 332.587852 109.087817 
L 332.621716 109.211633 
L 333.163541 105.666214 
L 333.976278 105.999684 
L 335.195383 104.587995 
L 335.500159 105.668616 
L 336.549945 106.533492 
L 337.667458 107.773271 
L 337.701322 108.089167 
L 338.175419 106.940067 
L 338.581787 107.532552 
L 339.157476 107.382493 
L 339.292932 107.481764 
L 339.563844 108.085086 
L 339.733164 107.917336 
L 339.767028 108.068957 
L 340.173397 106.820039 
L 340.647493 107.742791 
L 341.087726 108.015377 
L 341.29091 109.350855 
L 341.731143 108.711058 
L 341.798871 109.817805 
L 341.832735 109.713926 
L 342.239103 113.257977 
L 342.476152 114.512675 
L 343.255025 116.438684 
L 344.169354 116.57365 
L 344.406402 121.158547 
L 345.523915 129.281287 
L 345.625507 129.122441 
L 345.659371 130.641719 
L 345.727099 129.621102 
L 346.201196 130.215754 
L 346.472108 130.037616 
L 346.709157 128.01007 
L 346.844613 127.841305 
L 347.250981 128.576234 
L 347.284845 128.256589 
L 347.521893 130.395181 
L 347.894398 123.288138 
L 348.774863 116.243285 
L 349.045775 116.900675 
L 349.452144 116.314439 
L 349.519872 115.952422 
L 349.689192 116.728063 
L 350.197153 117.918441 
L 350.264881 117.734172 
L 351.145346 114.81457 
L 351.416258 114.928837 
L 351.450122 115.580018 
L 351.991947 122.138921 
L 352.432179 128.558309 
L 354.023789 146.584913 
L 354.226973 146.858007 
L 354.362429 147.9983 
L 354.497886 148.048698 
L 354.667206 147.181947 
L 354.836526 145.359798 
L 357.240873 106.337136 
L 357.410193 105.286449 
L 357.681105 102.533737 
L 358.087474 102.218779 
L 358.56157 103.748093 
L 358.730891 102.691392 
L 359.408171 101.914013 
L 360.085452 103.490191 
L 360.119316 103.264624 
L 360.254772 104.621893 
L 361.270693 111.775155 
L 361.710926 112.659029 
L 362.286615 114.162433 
L 362.896167 118.517565 
L 363.404128 119.191728 
L 363.437992 119.453946 
L 363.708904 119.656003 
L 364.115273 116.663959 
L 365.571426 113.238646 
L 365.673019 113.499068 
L 365.876203 111.741823 
L 366.959852 106.887444 
L 367.095308 105.033799 
L 368.145093 105.355357 
L 368.348278 104.655595 
L 368.95783 106.189615 
L 369.161015 105.037548 
L 369.838295 103.360517 
L 370.176936 104.782965 
L 370.989673 101.897025 
L 371.328313 101.449992 
L 371.700818 101.910791 
L 371.904002 100.681869 
L 372.14105 101.466667 
L 372.411962 101.684385 
L 372.852195 104.525843 
L 373.935844 107.303021 
L 374.105164 109.207493 
L 375.527454 115.924617 
L 375.696774 115.697664 
L 375.83223 115.809842 
L 376.475647 115.770477 
L 377.356112 112.563312 
L 377.491568 111.5532 
L 377.999529 110.50177 
L 378.168849 109.600146 
L 378.710674 106.261823 
L 379.625003 104.434909 
L 380.166827 105.742328 
L 380.471604 108.412189 
L 380.708652 108.798692 
L 380.877972 109.567928 
L 382.605038 108.349432 
L 383.925736 105.431743 
L 384.061192 106.250674 
L 384.332104 105.947998 
L 385.043249 107.454056 
L 385.55121 111.097106 
L 386.160762 109.42236 
L 386.431675 109.479025 
L 387.075091 107.3344 
L 389.07307 101.769441 
L 389.445574 102.543754 
L 389.58103 102.170276 
L 389.648758 102.219579 
L 389.885807 103.993694 
L 390.190583 105.04733 
L 390.427631 106.761558 
L 390.66468 107.320419 
L 390.901728 106.694427 
L 391.274232 108.23411 
L 391.612873 108.817515 
L 392.154697 107.103775 
L 392.357882 106.970626 
L 392.662658 107.102623 
L 393.441531 107.586288 
L 393.509259 107.330592 
L 393.949491 106.29574 
L 394.220404 105.946592 
L 394.423588 104.833713 
L 394.491316 105.47761 
L 395.100869 103.806457 
L 395.168597 103.451548 
L 396.11679 103.019159 
L 396.218382 103.108199 
L 397.031119 98.841169 
L 397.335895 98.158083 
L 397.674536 98.463512 
L 397.843856 98.336377 
L 398.487273 101.303311 
L 398.487273 101.303311 
" clip-path="url(#p7719eb009b)" style="fill: none; stroke: #ff00ff; stroke-width: 1.5; stroke-linecap: square"/>
   </g>
   <g id="line2d_13">
    <path d="M 73.832727 284.799622 
L 73.866591 292.248953 
L 74.069776 295.488 
L 74.374552 280.407666 
L 74.408416 280.624085 
L 74.510008 282.42211 
L 74.645464 275.873512 
L 75.017969 276.161026 
L 75.085697 276.488564 
L 75.322745 276.70493 
L 75.458201 273.411121 
L 75.559793 274.874101 
L 75.661385 273.689981 
L 75.86457 276.319862 
L 75.932298 275.965739 
L 76.000026 275.460591 
L 76.03389 275.718147 
L 76.101618 274.964219 
L 76.135482 274.976677 
L 76.338666 274.564502 
L 76.507986 275.230132 
L 77.083675 271.727842 
L 77.185267 271.888309 
L 77.388451 267.941588 
L 77.79482 265.662763 
L 78.031868 264.334325 
L 78.099596 265.447032 
L 78.675285 257.717649 
L 78.776877 258.321293 
L 79.013925 256.116238 
L 79.250974 251.384562 
L 79.488022 248.479321 
L 79.962118 239.821943 
L 79.995982 239.556289 
L 80.436215 232.532222 
L 80.605535 228.086556 
L 80.673263 229.111303 
L 81.756912 217.697357 
L 82.468057 201.848885 
L 82.840562 197.424122 
L 83.009882 199.133225 
L 83.483978 190.138629 
L 83.653299 190.440983 
L 83.754891 190.038869 
L 84.059667 185.018595 
L 84.533764 178.965656 
L 85.346501 166.907803 
L 85.549685 165.7069 
L 85.617413 165.781461 
L 85.752869 165.485356 
L 86.023781 161.850234 
L 86.057645 161.228948 
L 86.43015 156.440099 
L 86.701062 155.906251 
L 87.073567 151.075382 
L 88.326536 136.679486 
L 88.3604 137.566329 
L 88.461992 137.426443 
L 88.699041 138.915065 
L 88.902225 136.586854 
L 89.037681 136.977183 
L 89.173137 136.050761 
L 89.342457 137.390554 
L 89.376321 136.626492 
L 89.444049 136.696005 
L 89.850418 133.451057 
L 89.985874 131.689126 
L 90.087466 132.01293 
L 90.798611 125.883097 
L 90.155194 132.090117 
L 90.832475 126.21268 
L 90.900203 127.030654 
L 90.934067 126.612441 
L 90.967931 126.720362 
L 91.069523 127.846577 
L 91.103387 127.247942 
L 91.137251 126.970474 
L 91.611348 127.104873 
L 91.746804 124.638123 
L 91.780668 124.690961 
L 91.916124 124.482636 
L 91.983852 125.050791 
L 92.085444 124.198724 
L 92.187037 124.126614 
L 92.390221 122.73822 
L 92.898181 118.390976 
L 92.96591 119.023275 
L 93.338414 116.000496 
L 93.47387 114.418968 
L 93.541598 115.00126 
L 93.575462 114.46794 
L 93.677054 114.294449 
L 93.812511 114.686634 
L 93.947967 113.269927 
L 94.117287 112.914921 
L 94.320471 111.904926 
L 94.625247 109.644979 
L 94.794568 111.088436 
L 94.828432 110.700157 
L 95.099344 109.659408 
L 95.336392 106.54097 
L 95.675033 103.86365 
L 95.810489 103.534496 
L 96.386177 97.334915 
L 96.420042 97.443578 
L 96.555498 97.404311 
L 96.792546 98.102667 
L 97.198914 94.848854 
L 97.266643 95.492712 
L 97.368235 94.429411 
L 97.537555 94.436772 
L 97.706875 93.75187 
L 97.910059 92.217478 
L 97.977787 92.061268 
L 98.180972 88.371883 
L 98.2487 88.115796 
L 98.282564 87.342479 
L 98.316428 87.835165 
L 98.485748 88.02826 
L 98.621204 87.803884 
L 98.688932 86.719338 
L 99.163029 85.409655 
L 99.366213 87.103517 
L 99.400077 87.00446 
L 99.501669 86.811756 
L 99.535533 86.042325 
L 99.738717 86.337386 
L 99.84031 85.694094 
L 99.874174 85.749607 
L 99.908038 85.530132 
L 99.975766 83.327631 
L 100.17895 83.345165 
L 100.280542 83.02183 
L 100.68691 82.495657 
L 100.720775 82.801926 
L 100.754639 82.229729 
L 100.890095 81.736808 
L 101.194871 82.408804 
L 101.499647 81.691234 
L 101.635104 82.505224 
L 101.736696 80.380281 
L 101.77056 80.650154 
L 101.906016 79.845614 
L 102.075336 80.314361 
L 102.481705 79.55934 
L 102.651025 78.299351 
L 102.786481 78.79643 
L 102.921937 80.286419 
L 102.955801 79.41424 
L 103.463762 76.962994 
L 103.599218 76.678478 
L 104.141043 73.222275 
L 104.174907 73.251994 
L 104.378091 72.400825 
L 104.547411 71.622431 
L 104.615139 70.804536 
L 104.852187 71.819002 
L 104.953779 70.427523 
L 104.987643 70.699543 
L 105.224692 71.433242 
L 105.664924 69.846168 
L 106.206749 65.222628 
L 106.545389 65.844695 
L 106.579253 65.469713 
L 106.680845 65.705629 
L 106.951758 64.513963 
L 107.087214 64.739725 
L 107.154942 64.688098 
L 107.459718 63.824745 
L 107.629039 63.517285 
L 107.696767 63.605328 
L 107.764495 64.063121 
L 108.001543 62.606522 
L 108.136999 60.989008 
L 108.204727 61.020835 
L 108.441776 60.070259 
L 108.47564 60.502316 
L 108.543368 60.206494 
L 108.712688 59.385669 
L 108.81428 60.107418 
L 109.220648 58.821029 
L 109.288376 58.8997 
L 109.525425 60.345774 
L 109.627017 60.117298 
L 109.694745 59.697581 
L 109.728609 59.835144 
L 109.762473 59.839947 
L 109.965657 59.471819 
L 110.134977 59.901181 
L 110.168842 59.677567 
L 110.202706 59.89095 
L 110.338162 61.427567 
L 110.57521 61.997733 
L 110.710666 63.381323 
L 110.74453 63.328583 
L 110.91385 63.966642 
L 111.083171 63.238841 
L 111.252491 63.352561 
L 111.354083 64.109047 
L 111.489539 65.35117 
L 111.557267 65.264043 
L 111.591131 65.09768 
L 111.929772 66.781193 
L 112.16682 67.418608 
L 112.370004 69.130454 
L 112.877965 71.069956 
L 113.250469 73.495759 
L 113.385925 74.426712 
L 113.453653 73.488339 
L 113.521381 74.600944 
L 113.622974 73.817981 
L 113.656838 74.243497 
L 113.75843 74.644351 
L 113.792294 74.284561 
L 114.130934 75.116749 
L 114.198662 74.361904 
L 114.43571 75.58907 
L 114.571167 75.665593 
L 114.740487 75.615684 
L 114.808215 75.153498 
L 115.045263 77.671465 
L 115.248447 78.146226 
L 115.68868 76.018725 
L 115.722544 75.615254 
L 116.02732 79.622644 
L 116.230505 80.852816 
L 116.365961 78.621495 
L 116.535281 79.972242 
L 116.569145 79.907317 
L 116.603009 79.572715 
L 116.840057 81.389554 
L 117.009377 81.388597 
L 117.11097 80.70596 
L 117.381882 83.240036 
L 117.517338 83.68994 
L 117.652794 83.643136 
L 118.194619 87.948554 
L 118.262347 87.707639 
L 118.499395 88.290166 
L 118.939628 90.967194 
L 119.142812 91.466323 
L 119.345996 88.590069 
L 119.481452 88.305806 
L 119.515316 88.774084 
L 119.54918 87.851763 
L 119.616909 88.543323 
L 119.887821 91.47675 
L 120.023277 91.477941 
L 120.192597 91.823575 
L 120.226461 91.725866 
L 120.361917 91.822169 
L 120.463509 92.779307 
L 120.598966 92.61019 
L 121.242382 94.310261 
L 121.377839 94.144171 
L 121.750343 94.385223 
L 121.953527 91.866963 
L 121.987391 92.085949 
L 122.055119 92.214823 
L 122.156711 93.078683 
L 122.39376 93.51939 
L 122.529216 94.638009 
L 122.7324 96.445553 
L 123.037176 96.400877 
L 123.240361 98.524785 
L 123.477409 98.470151 
L 123.612865 98.893675 
L 123.714457 98.718115 
L 123.849913 99.292225 
L 124.086962 101.208686 
L 124.32401 100.328248 
L 124.357874 100.616768 
L 124.391738 100.539698 
L 124.459466 100.893162 
L 124.561058 100.244442 
L 124.798107 100.516325 
L 124.967427 99.314407 
L 125.170611 100.153117 
L 125.272203 99.951509 
L 125.407659 101.182599 
L 125.644708 100.876682 
L 125.814028 103.303754 
L 126.25426 104.946868 
L 126.457444 102.793748 
L 126.491308 102.9202 
L 126.592901 106.748905 
L 126.728357 105.343641 
L 126.897677 106.574966 
L 127.236317 106.676151 
L 127.270181 106.051096 
L 127.304045 106.318879 
L 127.473366 105.594299 
L 127.744278 106.922044 
L 127.84587 106.364512 
L 128.286103 108.632719 
L 128.421559 107.969178 
L 128.624743 110.696798 
L 128.726335 110.370378 
L 128.760199 110.601667 
L 128.929519 110.725893 
L 128.963383 110.599265 
L 129.26816 107.835423 
L 129.471344 107.845655 
L 129.742256 109.563437 
L 129.979305 104.714154 
L 130.047033 106.46144 
L 130.250217 106.520741 
L 130.284081 106.651255 
L 130.317945 106.269985 
L 130.351809 106.588497 
L 130.521129 106.757009 
L 130.724313 110.118197 
L 130.792041 109.203139 
L 130.961362 108.699948 
L 131.02909 109.265896 
L 131.062954 108.967535 
L 131.130682 108.088327 
L 131.333866 108.244322 
L 131.503186 107.361619 
L 131.53705 108.312508 
L 131.570914 108.182092 
L 131.740235 109.762312 
L 132.011147 110.731477 
L 132.045011 110.605728 
L 132.180467 110.186148 
L 132.552972 112.837929 
L 132.823884 112.839198 
L 132.925476 113.066718 
L 133.331844 117.220222 
L 133.433437 116.770962 
L 133.602757 116.107031 
L 133.636621 116.299111 
L 133.738213 116.533953 
L 133.975261 120.090443 
L 134.110717 120.312885 
L 134.415494 122.878106 
L 134.72027 124.306333 
L 134.855726 125.900631 
L 135.05891 124.972354 
L 135.092774 125.155705 
L 135.160503 125.371392 
L 135.363687 124.67409 
L 135.600735 125.680278 
L 135.634599 125.202217 
L 135.668463 125.754048 
L 135.702327 126.617186 
L 135.803919 126.278405 
L 136.108696 129.895836 
L 136.278016 129.085927 
L 136.31188 129.210212 
L 136.345744 129.508748 
L 136.4812 128.07025 
L 136.515064 128.093857 
L 136.684384 128.23349 
L 136.785976 127.948133 
L 137.056889 130.064465 
L 137.124617 128.639245 
L 137.429393 130.176663 
L 137.497121 129.471863 
L 137.700306 132.210008 
L 137.73417 131.874801 
L 137.768034 131.2014 
L 137.869626 132.126104 
L 138.038946 132.119738 
L 138.614635 139.862126 
L 138.648499 139.720346 
L 138.783955 139.83356 
L 138.817819 140.313339 
L 138.851683 139.963214 
L 138.953275 139.96339 
L 139.021003 140.147327 
L 139.122595 139.277003 
L 139.325779 140.689063 
L 139.562828 138.160727 
L 139.732148 139.089415 
L 140.036924 140.533302 
L 140.104652 140.240975 
L 140.375565 143.050508 
L 140.409429 142.239602 
L 140.511021 142.389056 
L 141.357622 142.602146 
L 141.493078 143.072806 
L 141.526942 143.733594 
L 141.662398 143.91179 
L 141.730126 142.829256 
L 141.831718 143.340277 
L 142.001039 142.215468 
L 142.373543 145.287941 
L 142.610591 146.393907 
L 142.644455 145.960815 
L 142.678319 146.669794 
L 143.152416 151.088835 
L 143.457192 150.755815 
L 143.626512 150.922276 
L 143.728105 149.289414 
L 143.795833 149.644597 
L 143.863561 150.523746 
L 143.999017 150.444704 
L 144.100609 149.785264 
L 144.473113 152.451025 
L 144.642434 152.007135 
L 144.811754 150.354961 
L 145.048802 147.831917 
L 145.455171 150.583008 
L 145.590627 149.672988 
L 145.793811 149.421763 
L 145.963131 148.582428 
L 146.234043 148.172357 
L 146.471092 148.56544 
L 146.70814 148.696676 
L 147.148373 151.958807 
L 147.317693 151.61989 
L 147.554741 156.482432 
L 147.588605 155.639914 
L 147.791789 156.02294 
L 147.961109 158.20365 
L 147.994973 157.654924 
L 148.706118 161.936374 
L 148.80771 161.505615 
L 148.977031 162.497412 
L 149.315671 166.270476 
L 149.417263 168.725823 
L 149.451127 168.520241 
L 149.654311 169.163953 
L 149.755904 168.961124 
L 150.06068 169.517251 
L 150.196136 171.297468 
L 150.23 170.868369 
L 150.602505 173.889888 
L 150.873417 173.793722 
L 151.042737 172.298334 
L 151.144329 172.904448 
L 151.212057 171.433644 
L 151.48297 170.602021 
L 151.855474 172.449321 
L 152.024794 170.830888 
L 152.397299 172.738738 
L 152.431163 172.900738 
L 152.566619 174.711718 
L 152.600483 173.803983 
L 152.769803 172.965087 
L 153.2439 178.359034 
L 153.311628 179.943315 
L 153.480948 178.915064 
L 153.684132 179.238438 
L 153.853452 180.839619 
L 153.92118 180.493926 
L 154.022773 179.780711 
L 154.158229 180.13603 
L 154.598461 184.74554 
L 154.835509 187.725771 
L 155.140286 187.646534 
L 155.411198 191.688251 
L 155.51279 190.978823 
L 155.580518 190.523266 
L 155.614382 190.818981 
L 155.817567 193.273527 
L 156.291663 191.35153 
L 156.528711 192.204954 
L 156.664168 191.625796 
L 156.731896 193.754586 
L 156.799624 192.81387 
L 157.036672 194.216254 
L 157.070536 193.619855 
L 157.205992 193.905377 
L 157.341448 193.899831 
L 157.646225 196.491754 
L 157.713953 195.677676 
L 157.747817 196.558759 
L 157.815545 198.436128 
L 157.883273 197.787701 
L 158.052593 196.576059 
L 158.323506 200.343422 
L 158.492826 201.692148 
L 158.560554 201.014803 
L 158.594418 201.681028 
L 158.831466 200.052217 
L 158.899194 201.374896 
L 158.966922 201.02191 
L 159.000786 200.434336 
L 159.373291 198.962849 
L 159.745795 198.019165 
L 159.847387 197.335786 
L 159.948979 197.409361 
L 160.084436 195.034853 
L 160.186028 195.197682 
L 160.524668 198.068498 
L 160.558532 197.331832 
L 160.660124 196.971934 
L 160.897172 198.221857 
L 160.931037 198.012594 
L 160.998765 197.890233 
L 161.100357 195.99032 
L 161.540589 191.892856 
L 161.642181 189.621574 
L 161.811502 188.688474 
L 161.845366 187.722813 
L 162.014686 186.172547 
L 162.04855 186.872201 
L 162.082414 186.844874 
L 162.251734 188.183935 
L 162.353326 188.61813 
L 162.725831 189.647915 
L 163.267655 194.867698 
L 163.403111 196.9074 
L 163.741752 199.161548 
L 163.80948 198.698795 
L 163.911072 200.351838 
L 163.9788 200.040219 
L 164.046528 200.664765 
L 164.31744 199.551877 
L 164.351305 199.624154 
L 164.588353 204.492465 
L 164.825401 205.690985 
L 164.859265 205.582039 
L 165.062449 208.452396 
L 165.096313 208.085234 
L 165.164041 208.968435 
L 165.265634 212.740953 
L 165.40109 212.226408 
L 165.434954 213.083307 
L 165.57041 213.601006 
L 165.604274 213.577819 
L 165.672002 215.289753 
L 165.73973 214.971787 
L 166.044506 211.942604 
L 166.112235 213.223828 
L 166.281555 211.798227 
L 166.315419 213.093539 
L 166.450875 212.04003 
L 166.721787 214.589922 
L 166.857243 212.381593 
L 166.891107 213.461813 
L 166.924972 213.108164 
L 167.094292 214.068308 
L 167.128156 213.403069 
L 167.534524 210.811976 
L 167.602252 211.254782 
L 167.805437 210.604685 
L 168.042485 210.728482 
L 168.448853 213.282143 
L 168.75363 213.750011 
L 168.990678 210.928792 
L 169.193862 213.182676 
L 169.363182 214.322481 
L 169.532503 214.612514 
L 170.006599 209.838612 
L 170.311375 209.088492 
L 170.446832 205.807547 
L 170.68388 206.720155 
L 170.819336 207.749217 
L 170.954792 207.736203 
L 171.056384 209.469029 
L 171.090248 209.143605 
L 171.327297 208.517887 
L 171.428889 209.085388 
L 171.632073 205.987931 
L 171.665937 206.612097 
L 171.699801 206.45288 
L 171.767529 206.355951 
L 171.970713 207.847658 
L 172.10617 205.533653 
L 172.140034 205.769539 
L 172.61413 202.43806 
L 172.715722 202.689802 
L 173.155955 206.252882 
L 173.189819 205.760967 
L 173.223683 206.16023 
L 173.426867 205.816139 
L 173.596187 204.301235 
L 173.663915 204.573518 
L 173.799371 206.503843 
L 173.8671 206.439055 
L 173.900964 206.603974 
L 174.104148 206.562568 
L 174.20574 205.727519 
L 174.273468 207.481717 
L 174.307332 207.042777 
L 174.442788 205.105442 
L 174.54438 206.592297 
L 174.916885 205.870539 
L 174.950749 206.415106 
L 175.187797 204.56108 
L 175.289389 202.602745 
L 175.289389 202.602745 
" clip-path="url(#p7719eb009b)" style="fill: none; stroke: #ff0000; stroke-width: 1.5; stroke-linecap: square"/>
   </g>
   <g id="line2d_14">
    <path d="M 73.866591 280.314062 
L 74.205232 262.727004 
L 74.340688 252.477796 
L 74.374552 263.344086 
L 74.6116 257.906961 
L 74.645464 261.311855 
L 75.085697 253.662129 
L 75.322745 253.566784 
L 75.390473 259.295035 
L 75.830706 261.89713 
L 75.86457 255.448255 
L 75.966162 258.335335 
L 76.101618 255.348948 
L 76.135482 255.61709 
L 76.745035 263.571593 
L 77.185267 260.626608 
L 77.320723 261.558634 
L 77.79482 261.50002 
L 77.96414 263.179407 
L 78.099596 269.031981 
L 78.30278 262.455108 
L 78.573693 260.14697 
L 78.675285 261.460373 
L 78.776877 263.449295 
L 79.115517 261.990909 
L 79.183245 261.308792 
L 79.250974 267.065231 
L 79.521886 266.212036 
L 79.691206 264.784429 
L 79.928254 263.731499 
L 79.962118 261.027017 
L 80.199167 262.823095 
L 80.537807 260.259357 
L 80.605535 258.68819 
L 80.876447 261.554738 
L 80.944176 257.997684 
L 81.248952 261.481415 
L 81.418272 260.781597 
L 81.926233 260.412221 
L 81.960097 261.155431 
L 82.400329 258.118869 
L 82.434193 255.489408 
L 82.942154 253.972741 
L 83.213066 251.083254 
L 83.483978 253.203422 
L 83.653299 250.654366 
L 83.721027 247.650721 
L 83.754891 251.629772 
L 84.059667 254.087292 
L 84.195123 251.459708 
L 84.432172 256.561022 
L 84.533764 256.12409 
L 85.312637 254.655488 
L 85.346501 255.357193 
L 85.752869 256.402367 
L 85.956053 254.856218 
L 85.989917 256.102105 
L 86.023781 254.804631 
L 86.43015 250.961972 
L 86.701062 254.05701 
L 86.836518 252.970455 
L 86.904246 250.039359 
L 87.073567 249.636249 
L 87.209023 250.502538 
L 87.276751 247.437531 
L 87.649255 248.760908 
L 87.886304 256.144091 
L 88.394264 253.204279 
L 88.461992 251.268506 
L 88.699041 251.02539 
L 88.902225 250.600796 
L 89.037681 251.728051 
L 89.207001 251.411403 
L 89.342457 253.297492 
L 89.884282 238.761669 
L 90.087466 240.268548 
L 90.832475 240.835669 
L 90.934067 238.86604 
L 91.069523 241.543922 
L 91.137251 241.948145 
L 91.611348 243.139162 
L 91.645212 244.978916 
L 91.71294 243.825186 
L 91.780668 243.636488 
L 91.848396 242.696901 
L 91.983852 244.324111 
L 92.254765 235.991017 
L 92.390221 236.119137 
L 92.593405 233.94983 
L 92.796589 237.305108 
L 93.338414 236.568148 
L 93.541598 229.052903 
L 93.677054 227.570822 
L 93.744782 225.150631 
L 94.286607 223.256487 
L 94.320471 226.158479 
L 94.625247 224.735349 
L 94.794568 226.903827 
L 94.963888 224.282368 
L 95.099344 223.13777 
L 95.573441 225.302748 
L 95.810489 224.708317 
L 95.878217 224.935561 
L 96.115265 225.13127 
L 96.420042 226.366515 
L 96.690954 228.092045 
L 96.961866 228.922486 
L 97.029594 228.024677 
L 97.537555 228.838076 
L 97.977787 228.280333 
L 98.045515 228.412884 
L 98.079379 227.432766 
L 98.147108 229.147236 
L 98.316428 223.850111 
L 98.485748 220.389183 
L 98.688932 219.297368 
L 99.366213 218.2493 
L 99.738717 217.40944 
L 99.772581 217.603668 
L 99.908038 219.240566 
L 100.17895 217.539922 
L 100.68691 216.373219 
L 100.788503 217.994116 
L 100.890095 221.23565 
L 101.194871 219.237014 
L 101.635104 221.30966 
L 101.906016 221.384289 
L 102.007608 219.351824 
L 102.481705 220.458509 
L 102.651025 218.673682 
L 102.786481 215.234749 
L 102.955801 215.116498 
L 103.396034 213.578222 
L 103.463762 213.678289 
L 103.666946 213.425542 
L 103.971722 209.862255 
L 104.174907 211.942775 
L 104.919915 212.517736 
L 104.987643 214.253437 
L 105.326284 209.979952 
L 106.037429 211.693059 
L 106.579253 212.682059 
L 106.680845 211.172589 
L 107.019486 209.704027 
L 107.087214 210.09493 
L 107.256534 208.284602 
L 107.324262 208.84305 
L 107.39199 208.013242 
L 107.764495 209.472144 
L 108.001543 207.730213 
L 108.204727 211.034879 
L 108.47564 213.107853 
L 108.509504 212.144185 
L 109.288376 211.031357 
L 109.627017 209.188344 
L 109.728609 209.897222 
L 110.168842 205.68924 
L 110.57521 202.712681 
L 110.676802 199.413044 
L 110.74453 200.190181 
L 110.846122 201.040573 
L 110.91385 200.778723 
L 110.981578 200.238433 
L 111.320219 198.590227 
L 111.354083 198.803368 
L 111.760451 189.993869 
L 111.929772 190.615389 
L 112.33614 189.594982 
L 112.370004 188.980495 
L 113.115013 186.295888 
L 113.182741 185.019242 
L 113.216605 185.523627 
L 113.622974 184.774389 
L 113.75843 184.270303 
L 113.792294 183.556435 
L 114.164798 185.785052 
L 114.571167 181.505699 
L 114.740487 181.400784 
L 114.808215 180.297488 
L 114.943671 182.236978 
L 115.451632 181.807836 
L 115.51936 181.274255 
L 115.68868 181.668112 
L 115.790272 179.910554 
L 115.891864 180.188797 
L 116.230505 178.05725 
L 116.365961 177.975878 
L 116.738465 175.204665 
L 116.840057 173.423342 
L 117.009377 174.65754 
L 117.28029 171.86844 
L 117.381882 171.657046 
L 117.517338 171.890355 
L 118.059163 167.094511 
L 118.160755 167.165848 
L 118.194619 166.725928 
L 118.499395 167.378317 
L 118.838036 169.380452 
L 119.142812 168.619957 
L 119.345996 169.805056 
L 119.481452 168.416036 
L 119.853957 167.200072 
L 120.023277 163.753608 
L 120.226461 163.827525 
L 120.361917 162.216156 
L 120.463509 163.664518 
L 121.242382 164.247742 
L 121.885799 164.459356 
L 121.953527 164.283779 
L 122.326032 167.737178 
L 122.596944 167.428483 
L 122.7324 165.521104 
L 123.240361 164.801486 
L 123.612865 162.928356 
L 123.849913 159.332465 
L 123.98537 160.80292 
L 124.086962 160.787086 
L 124.32401 161.161906 
L 124.357874 160.065097 
L 124.561058 163.275393 
L 124.967427 160.245561 
L 125.272203 160.529269 
L 125.306067 158.724678 
L 125.644708 158.385154 
L 125.7463 157.469069 
L 126.118804 157.439706 
L 126.321988 155.828616 
L 126.491308 153.548142 
L 126.592901 154.268459 
L 126.897677 152.617552 
L 127.270181 154.420461 
L 127.405638 153.596158 
L 127.473366 154.750812 
L 128.286103 153.643268 
L 128.557015 152.72168 
L 128.726335 149.924667 
L 128.929519 148.218012 
L 128.963383 145.509916 
L 129.200432 144.998972 
L 129.471344 146.793804 
L 129.6068 145.963412 
L 129.742256 146.808769 
L 129.877712 146.280762 
L 129.979305 146.672972 
L 130.047033 148.807424 
L 130.554993 146.893271 
L 130.85977 144.111292 
L 130.961362 145.275588 
L 131.062954 143.26751 
L 131.096818 144.005274 
L 131.333866 143.640389 
L 131.469322 142.679912 
L 131.503186 143.266077 
L 131.740235 141.47078 
L 132.045011 141.439608 
L 132.180467 140.933576 
L 132.248195 139.358134 
L 132.552972 138.840082 
L 132.925476 137.903653 
L 133.264116 135.753211 
L 133.331844 134.20794 
L 133.568893 133.773691 
L 133.602757 132.584469 
L 133.738213 132.56502 
L 133.839805 130.544304 
L 134.076853 130.508765 
L 134.72027 129.73872 
L 135.092774 126.909931 
L 135.295959 127.276372 
L 135.363687 126.147598 
L 135.668463 125.493238 
L 135.803919 124.078469 
L 136.108696 122.963001 
L 136.278016 122.877368 
L 136.345744 121.592678 
L 136.887569 120.818931 
L 137.056889 121.654895 
L 137.293937 120.93706 
L 137.429393 121.067512 
L 137.497121 120.373693 
L 137.700306 121.259545 
L 138.038946 117.963824 
L 138.24213 117.363002 
L 138.275994 116.390495 
L 138.648499 119.834122 
L 138.783955 119.308447 
L 138.817819 116.871 
L 139.021003 114.075618 
L 139.224187 115.70335 
L 139.325779 115.493286 
L 139.461236 114.440615 
L 139.4951 113.259981 
L 139.562828 113.659499 
L 139.66442 115.679077 
L 140.104652 116.330811 
L 140.511021 114.138739 
L 141.662398 114.187197 
L 142.001039 114.679045 
L 142.373543 113.712276 
L 142.610591 115.92072 
L 142.644455 115.726519 
L 143.050824 115.388468 
L 143.152416 116.113076 
L 143.457192 116.267566 
L 143.795833 116.004834 
L 144.066745 115.069638 
L 144.236065 112.839651 
L 144.439249 112.901877 
L 144.811754 109.237766 
L 145.353578 107.523646 
L 145.455171 110.032841 
L 146.132451 109.253192 
L 146.471092 107.629174 
L 147.317693 108.773234 
L 147.520877 108.575038 
L 147.791789 107.734805 
L 147.859517 109.030167 
L 147.994973 108.857444 
L 148.333614 107.661868 
L 148.706118 106.662545 
L 148.80771 106.777692 
L 148.977031 107.990361 
L 149.417263 105.84722 
L 150.839553 101.205206 
L 151.008873 99.027913 
L 151.042737 100.926197 
L 151.381377 98.609293 
L 151.65229 94.365856 
L 152.024794 91.934585 
L 152.261842 91.36332 
L 153.311628 86.16701 
L 153.853452 84.536878 
L 154.124365 80.267865 
L 154.158229 79.035063 
L 155.140286 77.761529 
L 155.241878 76.654044 
L 155.580518 77.272802 
L 155.614382 76.08738 
L 156.020751 75.012417 
L 156.291663 73.940014 
L 156.393255 71.953389 
L 157.070536 71.033938 
L 157.341448 70.16046 
L 157.510769 70.575526 
L 157.713953 68.14931 
L 157.747817 67.420063 
L 158.120321 66.727278 
L 158.323506 64.285641 
L 158.492826 68.29239 
L 158.560554 67.555989 
L 158.831466 66.907594 
L 159.745795 70.755326 
L 159.779659 69.895779 
L 160.152164 69.079208 
L 160.186028 68.303466 
L 160.423076 67.566511 
L 160.897172 65.015398 
L 161.100357 64.442847 
L 161.540589 65.194981 
L 161.811502 64.61345 
L 161.845366 67.316169 
L 162.082414 66.628579 
L 162.21787 65.354818 
L 162.353326 64.20525 
L 162.996743 63.673206 
L 163.267655 65.889605 
L 163.301519 65.273343 
L 163.403111 64.687894 
L 163.64016 64.131718 
L 163.741752 66.540009 
L 163.80948 65.891227 
L 164.046528 64.689359 
L 164.520625 63.604672 
L 164.656081 65.898951 
L 164.689945 65.282222 
L 164.893129 64.139732 
L 165.23177 63.610963 
L 165.265634 63.108634 
L 165.40109 63.927479 
L 165.57041 63.409323 
L 165.73973 62.005187 
L 166.044506 61.583146 
L 166.112235 60.801315 
L 166.281555 61.735526 
L 166.654059 60.570115 
L 166.891107 59.570921 
L 167.128156 59.270593 
L 167.534524 58.985282 
L 167.602252 58.714236 
L 168.008621 58.456743 
L 168.042485 58.212124 
L 168.75363 57.758968 
L 169.09227 57.349995 
L 169.329318 58.456772 
L 169.363182 59.50821 
L 169.532503 59.211018 
L 169.667959 66.301756 
L 169.701823 65.664887 
L 169.837279 65.059861 
L 170.345239 64.485086 
L 170.379104 63.939051 
L 170.68388 63.420317 
L 170.819336 62.459362 
L 171.462753 61.190714 
L 171.564345 60.809396 
L 171.665937 64.210993 
L 171.767529 63.678662 
L 172.10617 65.219832 
L 172.140034 64.637059 
L 172.61413 64.083424 
L 172.817314 63.057816 
L 173.054363 63.879202 
L 173.426867 62.408049 
L 174.20574 60.40744 
L 174.307332 61.361345 
L 174.37506 60.971496 
L 174.950749 60.249301 
L 175.289389 61.211113 
L 175.458709 62.124834 
L 175.898942 65.765898 
L 175.96667 65.155822 
L 176.542359 65.872307 
L 176.813271 64.672283 
L 177.118047 64.116888 
L 177.151911 63.589262 
L 177.795328 61.729707 
L 177.89692 60.933587 
L 178.337153 59.566643 
L 178.371017 59.317716 
L 178.946705 58.497145 
L 179.522394 58.0162 
L 180.131947 57.793608 
L 180.301267 57.582146 
L 180.707636 57.190413 
L 180.775364 57.009111 
L 181.114004 56.673249 
L 181.147868 56.517805 
L 181.554237 56.229845 
L 181.757421 55.895877 
L 182.400837 55.563346 
L 182.468566 56.888069 
L 182.67175 56.721884 
L 183.213574 56.564008 
L 183.315167 56.414026 
L 184.331088 56.007594 
L 184.568136 57.130304 
L 185.719513 70.291688 
L 185.888834 69.455322 
L 186.261338 68.660775 
L 186.566114 69.2532 
L 186.735435 68.468759 
L 186.803163 69.019597 
L 186.972483 67.512713 
L 187.040211 71.120279 
L 187.209531 70.242483 
L 187.243395 69.408578 
L 187.514307 68.616367 
L 187.649764 67.148798 
L 187.988404 65.824316 
L 188.022268 65.211319 
L 188.327044 64.628971 
L 188.597957 63.550173 
L 188.868869 63.050882 
L 189.038189 64.11075 
L 189.54615 63.583431 
L 189.580014 63.082478 
L 189.71547 67.070279 
L 189.783198 66.394983 
L 190.460479 64.565017 
L 190.595935 62.524466 
L 190.799119 62.076461 
L 191.171624 60.150864 
L 191.747312 59.508681 
L 191.950497 59.211465 
L 192.255273 64.561426 
L 192.289137 69.643889 
L 193.034146 66.006395 
L 193.305058 65.384294 
L 193.40665 66.089356 
L 193.609835 65.463107 
L 193.643699 64.86817 
L 193.914611 64.30298 
L 194.050067 63.255965 
L 194.862804 62.311035 
L 194.896668 61.873702 
L 194.930532 62.754293 
L 194.964396 62.294797 
L 195.438493 61.858276 
L 196.25123 61.44358 
L 196.860782 59.066716 
L 197.470335 58.791599 
L 198.01216 58.281944 
L 198.3508 57.6091 
L 198.486256 57.214739 
L 198.858761 57.032221 
L 198.892625 56.858828 
L 199.298993 56.694105 
L 199.536041 56.113559 
L 199.603769 55.865013 
L 199.908546 55.6407 
L 199.976274 55.536884 
L 200.518099 55.344564 
L 200.721283 55.090664 
L 200.822875 55.014349 
L 201.567884 54.807546 
L 201.940388 54.576944 
L 202.888581 54.389118 
L 203.667454 54.170636 
L 204.988152 54.033487 
L 205.191336 55.306089 
L 205.699297 54.912079 
L 206.410441 54.780677 
L 206.681354 57.923847 
L 206.715218 57.705874 
L 207.223178 57.302077 
L 207.392499 56.768987 
L 209.424341 55.296017 
L 210.067758 55.127181 
L 210.812767 54.773644 
L 211.117543 54.655739 
L 212.980065 54.288407 
L 213.454162 54.217813 
L 218.669224 53.719776 
L 218.838544 55.008064 
L 220.836522 54.385543 
L 224.595431 53.907719 
L 226.898185 53.715487 
L 228.930028 53.646028 
L 232.756664 53.584813 
L 233.163033 55.030717 
L 234.619186 54.356725 
L 236.752621 53.971119 
L 237.429901 53.931461 
L 248.23253 53.591204 
L 254.869882 53.568392 
L 255.039202 53.568 
L 255.039202 53.568 
" clip-path="url(#p7719eb009b)" style="fill: none; stroke: #2e8b57; stroke-width: 1.5; stroke-linecap: square"/>
   </g>
   <g id="patch_3">
    <path d="M 57.6 307.584 
L 57.6 41.472 
" style="fill: none; stroke: #000000; stroke-width: 0.8; stroke-linejoin: miter; stroke-linecap: square"/>
   </g>
   <g id="patch_4">
    <path d="M 414.72 307.584 
L 414.72 41.472 
" style="fill: none; stroke: #000000; stroke-width: 0.8; stroke-linejoin: miter; stroke-linecap: square"/>
   </g>
   <g id="patch_5">
    <path d="M 57.6 307.584 
L 414.72 307.584 
" style="fill: none; stroke: #000000; stroke-width: 0.8; stroke-linejoin: miter; stroke-linecap: square"/>
   </g>
   <g id="patch_6">
    <path d="M 57.6 41.472 
L 414.72 41.472 
" style="fill: none; stroke: #000000; stroke-width: 0.8; stroke-linejoin: miter; stroke-linecap: square"/>
   </g>
   <g id="legend_1">
    <g id="patch_7">
     <path d="M 314.052813 93.506375 
L 407.72 93.506375 
Q 409.72 93.506375 409.72 91.506375 
L 409.72 48.472 
Q 409.72 46.472 407.72 46.472 
L 314.052813 46.472 
Q 312.052813 46.472 312.052813 48.472 
L 312.052813 91.506375 
Q 312.052813 93.506375 314.052813 93.506375 
z
" style="fill: #ffffff; opacity: 0.8; stroke: #cccccc; stroke-linejoin: miter"/>
    </g>
    <g id="line2d_15">
     <path d="M 316.052813 54.570438 
L 326.052813 54.570438 
L 336.052813 54.570438 
" style="fill: none; stroke: #ff00ff; stroke-width: 1.5; stroke-linecap: square"/>
    </g>
    <g id="text_14">
     <!-- PPO -->
     <g transform="translate(344.052813 58.070438)scale(0.1 -0.1)">
      <defs>
       <path id="DejaVuSans-50" d="M 1259 4147 
L 1259 2394 
L 2053 2394 
Q 2494 2394 2734 2622 
Q 2975 2850 2975 3272 
Q 2975 3691 2734 3919 
Q 2494 4147 2053 4147 
L 1259 4147 
z
M 628 4666 
L 2053 4666 
Q 2838 4666 3239 4311 
Q 3641 3956 3641 3272 
Q 3641 2581 3239 2228 
Q 2838 1875 2053 1875 
L 1259 1875 
L 1259 0 
L 628 0 
L 628 4666 
z
" transform="scale(0.015625)"/>
       <path id="DejaVuSans-4f" d="M 2522 4238 
Q 1834 4238 1429 3725 
Q 1025 3213 1025 2328 
Q 1025 1447 1429 934 
Q 1834 422 2522 422 
Q 3209 422 3611 934 
Q 4013 1447 4013 2328 
Q 4013 3213 3611 3725 
Q 3209 4238 2522 4238 
z
M 2522 4750 
Q 3503 4750 4090 4092 
Q 4678 3434 4678 2328 
Q 4678 1225 4090 567 
Q 3503 -91 2522 -91 
Q 1538 -91 948 565 
Q 359 1222 359 2328 
Q 359 3434 948 4092 
Q 1538 4750 2522 4750 
z
" transform="scale(0.015625)"/>
      </defs>
      <use xlink:href="#DejaVuSans-50"/>
      <use xlink:href="#DejaVuSans-50" x="60.302734"/>
      <use xlink:href="#DejaVuSans-4f" x="120.605469"/>
     </g>
    </g>
    <g id="line2d_16">
     <path d="M 316.052813 69.248563 
L 326.052813 69.248563 
L 336.052813 69.248563 
" style="fill: none; stroke: #ff0000; stroke-width: 1.5; stroke-linecap: square"/>
    </g>
    <g id="text_15">
     <!-- Double DQN -->
     <g transform="translate(344.052813 72.748563)scale(0.1 -0.1)">
      <defs>
       <path id="DejaVuSans-44" d="M 1259 4147 
L 1259 519 
L 2022 519 
Q 2988 519 3436 956 
Q 3884 1394 3884 2338 
Q 3884 3275 3436 3711 
Q 2988 4147 2022 4147 
L 1259 4147 
z
M 628 4666 
L 1925 4666 
Q 3281 4666 3915 4102 
Q 4550 3538 4550 2338 
Q 4550 1131 3912 565 
Q 3275 0 1925 0 
L 628 0 
L 628 4666 
z
" transform="scale(0.015625)"/>
       <path id="DejaVuSans-75" d="M 544 1381 
L 544 3500 
L 1119 3500 
L 1119 1403 
Q 1119 906 1312 657 
Q 1506 409 1894 409 
Q 2359 409 2629 706 
Q 2900 1003 2900 1516 
L 2900 3500 
L 3475 3500 
L 3475 0 
L 2900 0 
L 2900 538 
Q 2691 219 2414 64 
Q 2138 -91 1772 -91 
Q 1169 -91 856 284 
Q 544 659 544 1381 
z
M 1991 3584 
L 1991 3584 
z
" transform="scale(0.015625)"/>
       <path id="DejaVuSans-62" d="M 3116 1747 
Q 3116 2381 2855 2742 
Q 2594 3103 2138 3103 
Q 1681 3103 1420 2742 
Q 1159 2381 1159 1747 
Q 1159 1113 1420 752 
Q 1681 391 2138 391 
Q 2594 391 2855 752 
Q 3116 1113 3116 1747 
z
M 1159 2969 
Q 1341 3281 1617 3432 
Q 1894 3584 2278 3584 
Q 2916 3584 3314 3078 
Q 3713 2572 3713 1747 
Q 3713 922 3314 415 
Q 2916 -91 2278 -91 
Q 1894 -91 1617 61 
Q 1341 213 1159 525 
L 1159 0 
L 581 0 
L 581 4863 
L 1159 4863 
L 1159 2969 
z
" transform="scale(0.015625)"/>
       <path id="DejaVuSans-6c" d="M 603 4863 
L 1178 4863 
L 1178 0 
L 603 0 
L 603 4863 
z
" transform="scale(0.015625)"/>
       <path id="DejaVuSans-20" transform="scale(0.015625)"/>
       <path id="DejaVuSans-51" d="M 2522 4238 
Q 1834 4238 1429 3725 
Q 1025 3213 1025 2328 
Q 1025 1447 1429 934 
Q 1834 422 2522 422 
Q 3209 422 3611 934 
Q 4013 1447 4013 2328 
Q 4013 3213 3611 3725 
Q 3209 4238 2522 4238 
z
M 3406 84 
L 4238 -825 
L 3475 -825 
L 2784 -78 
Q 2681 -84 2626 -87 
Q 2572 -91 2522 -91 
Q 1538 -91 948 567 
Q 359 1225 359 2328 
Q 359 3434 948 4092 
Q 1538 4750 2522 4750 
Q 3503 4750 4090 4092 
Q 4678 3434 4678 2328 
Q 4678 1516 4351 937 
Q 4025 359 3406 84 
z
" transform="scale(0.015625)"/>
       <path id="DejaVuSans-4e" d="M 628 4666 
L 1478 4666 
L 3547 763 
L 3547 4666 
L 4159 4666 
L 4159 0 
L 3309 0 
L 1241 3903 
L 1241 0 
L 628 0 
L 628 4666 
z
" transform="scale(0.015625)"/>
      </defs>
      <use xlink:href="#DejaVuSans-44"/>
      <use xlink:href="#DejaVuSans-6f" x="77.001953"/>
      <use xlink:href="#DejaVuSans-75" x="138.183594"/>
      <use xlink:href="#DejaVuSans-62" x="201.5625"/>
      <use xlink:href="#DejaVuSans-6c" x="265.039062"/>
      <use xlink:href="#DejaVuSans-65" x="292.822266"/>
      <use xlink:href="#DejaVuSans-20" x="354.345703"/>
      <use xlink:href="#DejaVuSans-44" x="386.132812"/>
      <use xlink:href="#DejaVuSans-51" x="463.134766"/>
      <use xlink:href="#DejaVuSans-4e" x="541.845703"/>
     </g>
    </g>
    <g id="line2d_17">
     <path d="M 316.052813 83.926688 
L 326.052813 83.926688 
L 336.052813 83.926688 
" style="fill: none; stroke: #2e8b57; stroke-width: 1.5; stroke-linecap: square"/>
    </g>
    <g id="text_16">
     <!-- PPO LSTM -->
     <g transform="translate(344.052813 87.426688)scale(0.1 -0.1)">
      <defs>
       <path id="DejaVuSans-4c" d="M 628 4666 
L 1259 4666 
L 1259 531 
L 3531 531 
L 3531 0 
L 628 0 
L 628 4666 
z
" transform="scale(0.015625)"/>
       <path id="DejaVuSans-53" d="M 3425 4513 
L 3425 3897 
Q 3066 4069 2747 4153 
Q 2428 4238 2131 4238 
Q 1616 4238 1336 4038 
Q 1056 3838 1056 3469 
Q 1056 3159 1242 3001 
Q 1428 2844 1947 2747 
L 2328 2669 
Q 3034 2534 3370 2195 
Q 3706 1856 3706 1288 
Q 3706 609 3251 259 
Q 2797 -91 1919 -91 
Q 1588 -91 1214 -16 
Q 841 59 441 206 
L 441 856 
Q 825 641 1194 531 
Q 1563 422 1919 422 
Q 2459 422 2753 634 
Q 3047 847 3047 1241 
Q 3047 1584 2836 1778 
Q 2625 1972 2144 2069 
L 1759 2144 
Q 1053 2284 737 2584 
Q 422 2884 422 3419 
Q 422 4038 858 4394 
Q 1294 4750 2059 4750 
Q 2388 4750 2728 4690 
Q 3069 4631 3425 4513 
z
" transform="scale(0.015625)"/>
       <path id="DejaVuSans-54" d="M -19 4666 
L 3928 4666 
L 3928 4134 
L 2272 4134 
L 2272 0 
L 1638 0 
L 1638 4134 
L -19 4134 
L -19 4666 
z
" transform="scale(0.015625)"/>
       <path id="DejaVuSans-4d" d="M 628 4666 
L 1569 4666 
L 2759 1491 
L 3956 4666 
L 4897 4666 
L 4897 0 
L 4281 0 
L 4281 4097 
L 3078 897 
L 2444 897 
L 1241 4097 
L 1241 0 
L 628 0 
L 628 4666 
z
" transform="scale(0.015625)"/>
      </defs>
      <use xlink:href="#DejaVuSans-50"/>
      <use xlink:href="#DejaVuSans-50" x="60.302734"/>
      <use xlink:href="#DejaVuSans-4f" x="120.605469"/>
      <use xlink:href="#DejaVuSans-20" x="199.316406"/>
      <use xlink:href="#DejaVuSans-4c" x="231.103516"/>
      <use xlink:href="#DejaVuSans-53" x="286.816406"/>
      <use xlink:href="#DejaVuSans-54" x="350.292969"/>
      <use xlink:href="#DejaVuSans-4d" x="411.376953"/>
     </g>
    </g>
   </g>
  </g>
 </g>
 <defs>
  <clipPath id="p7719eb009b">
   <rect x="57.6" y="41.472" width="357.12" height="266.112"/>
  </clipPath>
 </defs>
</svg>
