<?xml version="1.0" encoding="utf-8" standalone="no"?>
<!DOCTYPE svg PUBLIC "-//W3C//DTD SVG 1.1//EN"
  "http://www.w3.org/Graphics/SVG/1.1/DTD/svg11.dtd">
<svg xmlns:xlink="http://www.w3.org/1999/xlink" width="432pt" height="216pt" viewBox="0 0 432 216" xmlns="http://www.w3.org/2000/svg" version="1.1">
 <metadata>
  <rdf:RDF xmlns:dc="http://purl.org/dc/elements/1.1/" xmlns:cc="http://creativecommons.org/ns#" xmlns:rdf="http://www.w3.org/1999/02/22-rdf-syntax-ns#">
   <cc:Work>
    <dc:type rdf:resource="http://purl.org/dc/dcmitype/StillImage"/>
    <dc:date>2022-05-28T20:36:42.711856</dc:date>
    <dc:format>image/svg+xml</dc:format>
    <dc:creator>
     <cc:Agent>
      <dc:title>Matplotlib v3.5.2, https://matplotlib.org/</dc:title>
     </cc:Agent>
    </dc:creator>
   </cc:Work>
  </rdf:RDF>
 </metadata>
 <defs>
  <style type="text/css">*{stroke-linejoin: round; stroke-linecap: butt}</style>
 </defs>
 <g id="figure_1">
  <g id="patch_1">
   <path d="M 0 216 
L 432 216 
L 432 0 
L 0 0 
z
" style="fill: #ffffff"/>
  </g>
  <g id="axes_1">
   <g id="patch_2">
    <path d="M 44.57 174.04 
L 204.73387 174.04 
L 204.73387 12.413793 
L 44.57 12.413793 
z
" style="fill: #ffffff"/>
   </g>
   <g id="matplotlib.axis_1">
    <g id="xtick_1">
     <g id="line2d_1">
      <defs>
       <path id="m5f03d0490b" d="M 0 0 
L 0 3.5 
" style="stroke: #000000; stroke-width: 0.8"/>
      </defs>
      <g>
       <use xlink:href="#m5f03d0490b" x="51.850176" y="174.04" style="stroke: #000000; stroke-width: 0.8"/>
      </g>
     </g>
     <g id="text_1">
      <!-- 0 -->
      <g transform="translate(48.668926 188.638438)scale(0.1 -0.1)">
       <defs>
        <path id="DejaVuSans-30" d="M 2034 4250 
Q 1547 4250 1301 3770 
Q 1056 3291 1056 2328 
Q 1056 1369 1301 889 
Q 1547 409 2034 409 
Q 2525 409 2770 889 
Q 3016 1369 3016 2328 
Q 3016 3291 2770 3770 
Q 2525 4250 2034 4250 
z
M 2034 4750 
Q 2819 4750 3233 4129 
Q 3647 3509 3647 2328 
Q 3647 1150 3233 529 
Q 2819 -91 2034 -91 
Q 1250 -91 836 529 
Q 422 1150 422 2328 
Q 422 3509 836 4129 
Q 1250 4750 2034 4750 
z
" transform="scale(0.015625)"/>
       </defs>
       <use xlink:href="#DejaVuSans-30"/>
      </g>
     </g>
    </g>
    <g id="xtick_2">
     <g id="line2d_2">
      <g>
       <use xlink:href="#m5f03d0490b" x="88.287493" y="174.04" style="stroke: #000000; stroke-width: 0.8"/>
      </g>
     </g>
     <g id="text_2">
      <!-- 250 -->
      <g transform="translate(78.743743 188.638438)scale(0.1 -0.1)">
       <defs>
        <path id="DejaVuSans-32" d="M 1228 531 
L 3431 531 
L 3431 0 
L 469 0 
L 469 531 
Q 828 903 1448 1529 
Q 2069 2156 2228 2338 
Q 2531 2678 2651 2914 
Q 2772 3150 2772 3378 
Q 2772 3750 2511 3984 
Q 2250 4219 1831 4219 
Q 1534 4219 1204 4116 
Q 875 4013 500 3803 
L 500 4441 
Q 881 4594 1212 4672 
Q 1544 4750 1819 4750 
Q 2544 4750 2975 4387 
Q 3406 4025 3406 3419 
Q 3406 3131 3298 2873 
Q 3191 2616 2906 2266 
Q 2828 2175 2409 1742 
Q 1991 1309 1228 531 
z
" transform="scale(0.015625)"/>
        <path id="DejaVuSans-35" d="M 691 4666 
L 3169 4666 
L 3169 4134 
L 1269 4134 
L 1269 2991 
Q 1406 3038 1543 3061 
Q 1681 3084 1819 3084 
Q 2600 3084 3056 2656 
Q 3513 2228 3513 1497 
Q 3513 744 3044 326 
Q 2575 -91 1722 -91 
Q 1428 -91 1123 -41 
Q 819 9 494 109 
L 494 744 
Q 775 591 1075 516 
Q 1375 441 1709 441 
Q 2250 441 2565 725 
Q 2881 1009 2881 1497 
Q 2881 1984 2565 2268 
Q 2250 2553 1709 2553 
Q 1456 2553 1204 2497 
Q 953 2441 691 2322 
L 691 4666 
z
" transform="scale(0.015625)"/>
       </defs>
       <use xlink:href="#DejaVuSans-32"/>
       <use xlink:href="#DejaVuSans-35" x="63.623047"/>
       <use xlink:href="#DejaVuSans-30" x="127.246094"/>
      </g>
     </g>
    </g>
    <g id="xtick_3">
     <g id="line2d_3">
      <g>
       <use xlink:href="#m5f03d0490b" x="124.72481" y="174.04" style="stroke: #000000; stroke-width: 0.8"/>
      </g>
     </g>
     <g id="text_3">
      <!-- 500 -->
      <g transform="translate(115.18106 188.638438)scale(0.1 -0.1)">
       <use xlink:href="#DejaVuSans-35"/>
       <use xlink:href="#DejaVuSans-30" x="63.623047"/>
       <use xlink:href="#DejaVuSans-30" x="127.246094"/>
      </g>
     </g>
    </g>
    <g id="xtick_4">
     <g id="line2d_4">
      <g>
       <use xlink:href="#m5f03d0490b" x="161.162126" y="174.04" style="stroke: #000000; stroke-width: 0.8"/>
      </g>
     </g>
     <g id="text_4">
      <!-- 750 -->
      <g transform="translate(151.618376 188.638438)scale(0.1 -0.1)">
       <defs>
        <path id="DejaVuSans-37" d="M 525 4666 
L 3525 4666 
L 3525 4397 
L 1831 0 
L 1172 0 
L 2766 4134 
L 525 4134 
L 525 4666 
z
" transform="scale(0.015625)"/>
       </defs>
       <use xlink:href="#DejaVuSans-37"/>
       <use xlink:href="#DejaVuSans-35" x="63.623047"/>
       <use xlink:href="#DejaVuSans-30" x="127.246094"/>
      </g>
     </g>
    </g>
    <g id="xtick_5">
     <g id="line2d_5">
      <g>
       <use xlink:href="#m5f03d0490b" x="197.599443" y="174.04" style="stroke: #000000; stroke-width: 0.8"/>
      </g>
     </g>
     <g id="text_5">
      <!-- 1000 -->
      <g transform="translate(184.874443 188.638438)scale(0.1 -0.1)">
       <defs>
        <path id="DejaVuSans-31" d="M 794 531 
L 1825 531 
L 1825 4091 
L 703 3866 
L 703 4441 
L 1819 4666 
L 2450 4666 
L 2450 531 
L 3481 531 
L 3481 0 
L 794 0 
L 794 531 
z
" transform="scale(0.015625)"/>
       </defs>
       <use xlink:href="#DejaVuSans-31"/>
       <use xlink:href="#DejaVuSans-30" x="63.623047"/>
       <use xlink:href="#DejaVuSans-30" x="127.246094"/>
       <use xlink:href="#DejaVuSans-30" x="190.869141"/>
      </g>
     </g>
    </g>
    <g id="text_6">
     <!-- Episodes -->
     <g transform="translate(102.409747 202.316563)scale(0.1 -0.1)">
      <defs>
       <path id="DejaVuSans-45" d="M 628 4666 
L 3578 4666 
L 3578 4134 
L 1259 4134 
L 1259 2753 
L 3481 2753 
L 3481 2222 
L 1259 2222 
L 1259 531 
L 3634 531 
L 3634 0 
L 628 0 
L 628 4666 
z
" transform="scale(0.015625)"/>
       <path id="DejaVuSans-70" d="M 1159 525 
L 1159 -1331 
L 581 -1331 
L 581 3500 
L 1159 3500 
L 1159 2969 
Q 1341 3281 1617 3432 
Q 1894 3584 2278 3584 
Q 2916 3584 3314 3078 
Q 3713 2572 3713 1747 
Q 3713 922 3314 415 
Q 2916 -91 2278 -91 
Q 1894 -91 1617 61 
Q 1341 213 1159 525 
z
M 3116 1747 
Q 3116 2381 2855 2742 
Q 2594 3103 2138 3103 
Q 1681 3103 1420 2742 
Q 1159 2381 1159 1747 
Q 1159 1113 1420 752 
Q 1681 391 2138 391 
Q 2594 391 2855 752 
Q 3116 1113 3116 1747 
z
" transform="scale(0.015625)"/>
       <path id="DejaVuSans-69" d="M 603 3500 
L 1178 3500 
L 1178 0 
L 603 0 
L 603 3500 
z
M 603 4863 
L 1178 4863 
L 1178 4134 
L 603 4134 
L 603 4863 
z
" transform="scale(0.015625)"/>
       <path id="DejaVuSans-73" d="M 2834 3397 
L 2834 2853 
Q 2591 2978 2328 3040 
Q 2066 3103 1784 3103 
Q 1356 3103 1142 2972 
Q 928 2841 928 2578 
Q 928 2378 1081 2264 
Q 1234 2150 1697 2047 
L 1894 2003 
Q 2506 1872 2764 1633 
Q 3022 1394 3022 966 
Q 3022 478 2636 193 
Q 2250 -91 1575 -91 
Q 1294 -91 989 -36 
Q 684 19 347 128 
L 347 722 
Q 666 556 975 473 
Q 1284 391 1588 391 
Q 1994 391 2212 530 
Q 2431 669 2431 922 
Q 2431 1156 2273 1281 
Q 2116 1406 1581 1522 
L 1381 1569 
Q 847 1681 609 1914 
Q 372 2147 372 2553 
Q 372 3047 722 3315 
Q 1072 3584 1716 3584 
Q 2034 3584 2315 3537 
Q 2597 3491 2834 3397 
z
" transform="scale(0.015625)"/>
       <path id="DejaVuSans-6f" d="M 1959 3097 
Q 1497 3097 1228 2736 
Q 959 2375 959 1747 
Q 959 1119 1226 758 
Q 1494 397 1959 397 
Q 2419 397 2687 759 
Q 2956 1122 2956 1747 
Q 2956 2369 2687 2733 
Q 2419 3097 1959 3097 
z
M 1959 3584 
Q 2709 3584 3137 3096 
Q 3566 2609 3566 1747 
Q 3566 888 3137 398 
Q 2709 -91 1959 -91 
Q 1206 -91 779 398 
Q 353 888 353 1747 
Q 353 2609 779 3096 
Q 1206 3584 1959 3584 
z
" transform="scale(0.015625)"/>
       <path id="DejaVuSans-64" d="M 2906 2969 
L 2906 4863 
L 3481 4863 
L 3481 0 
L 2906 0 
L 2906 525 
Q 2725 213 2448 61 
Q 2172 -91 1784 -91 
Q 1150 -91 751 415 
Q 353 922 353 1747 
Q 353 2572 751 3078 
Q 1150 3584 1784 3584 
Q 2172 3584 2448 3432 
Q 2725 3281 2906 2969 
z
M 947 1747 
Q 947 1113 1208 752 
Q 1469 391 1925 391 
Q 2381 391 2643 752 
Q 2906 1113 2906 1747 
Q 2906 2381 2643 2742 
Q 2381 3103 1925 3103 
Q 1469 3103 1208 2742 
Q 947 2381 947 1747 
z
" transform="scale(0.015625)"/>
       <path id="DejaVuSans-65" d="M 3597 1894 
L 3597 1613 
L 953 1613 
Q 991 1019 1311 708 
Q 1631 397 2203 397 
Q 2534 397 2845 478 
Q 3156 559 3463 722 
L 3463 178 
Q 3153 47 2828 -22 
Q 2503 -91 2169 -91 
Q 1331 -91 842 396 
Q 353 884 353 1716 
Q 353 2575 817 3079 
Q 1281 3584 2069 3584 
Q 2775 3584 3186 3129 
Q 3597 2675 3597 1894 
z
M 3022 2063 
Q 3016 2534 2758 2815 
Q 2500 3097 2075 3097 
Q 1594 3097 1305 2825 
Q 1016 2553 972 2059 
L 3022 2063 
z
" transform="scale(0.015625)"/>
      </defs>
      <use xlink:href="#DejaVuSans-45"/>
      <use xlink:href="#DejaVuSans-70" x="63.183594"/>
      <use xlink:href="#DejaVuSans-69" x="126.660156"/>
      <use xlink:href="#DejaVuSans-73" x="154.443359"/>
      <use xlink:href="#DejaVuSans-6f" x="206.542969"/>
      <use xlink:href="#DejaVuSans-64" x="267.724609"/>
      <use xlink:href="#DejaVuSans-65" x="331.201172"/>
      <use xlink:href="#DejaVuSans-73" x="392.724609"/>
     </g>
    </g>
   </g>
   <g id="matplotlib.axis_2">
    <g id="ytick_1">
     <g id="line2d_6">
      <defs>
       <path id="m3dc56cabcb" d="M 0 0 
L -3.5 0 
" style="stroke: #000000; stroke-width: 0.8"/>
      </defs>
      <g>
       <use xlink:href="#m3dc56cabcb" x="44.57" y="161.763366" style="stroke: #000000; stroke-width: 0.8"/>
      </g>
     </g>
     <g id="text_7">
      <!-- 2 -->
      <g transform="translate(31.2075 165.562585)scale(0.1 -0.1)">
       <use xlink:href="#DejaVuSans-32"/>
      </g>
     </g>
    </g>
    <g id="ytick_2">
     <g id="line2d_7">
      <g>
       <use xlink:href="#m3dc56cabcb" x="44.57" y="133.740012" style="stroke: #000000; stroke-width: 0.8"/>
      </g>
     </g>
     <g id="text_8">
      <!-- 4 -->
      <g transform="translate(31.2075 137.539231)scale(0.1 -0.1)">
       <defs>
        <path id="DejaVuSans-34" d="M 2419 4116 
L 825 1625 
L 2419 1625 
L 2419 4116 
z
M 2253 4666 
L 3047 4666 
L 3047 1625 
L 3713 1625 
L 3713 1100 
L 3047 1100 
L 3047 0 
L 2419 0 
L 2419 1100 
L 313 1100 
L 313 1709 
L 2253 4666 
z
" transform="scale(0.015625)"/>
       </defs>
       <use xlink:href="#DejaVuSans-34"/>
      </g>
     </g>
    </g>
    <g id="ytick_3">
     <g id="line2d_8">
      <g>
       <use xlink:href="#m3dc56cabcb" x="44.57" y="105.716659" style="stroke: #000000; stroke-width: 0.8"/>
      </g>
     </g>
     <g id="text_9">
      <!-- 6 -->
      <g transform="translate(31.2075 109.515877)scale(0.1 -0.1)">
       <defs>
        <path id="DejaVuSans-36" d="M 2113 2584 
Q 1688 2584 1439 2293 
Q 1191 2003 1191 1497 
Q 1191 994 1439 701 
Q 1688 409 2113 409 
Q 2538 409 2786 701 
Q 3034 994 3034 1497 
Q 3034 2003 2786 2293 
Q 2538 2584 2113 2584 
z
M 3366 4563 
L 3366 3988 
Q 3128 4100 2886 4159 
Q 2644 4219 2406 4219 
Q 1781 4219 1451 3797 
Q 1122 3375 1075 2522 
Q 1259 2794 1537 2939 
Q 1816 3084 2150 3084 
Q 2853 3084 3261 2657 
Q 3669 2231 3669 1497 
Q 3669 778 3244 343 
Q 2819 -91 2113 -91 
Q 1303 -91 875 529 
Q 447 1150 447 2328 
Q 447 3434 972 4092 
Q 1497 4750 2381 4750 
Q 2619 4750 2861 4703 
Q 3103 4656 3366 4563 
z
" transform="scale(0.015625)"/>
       </defs>
       <use xlink:href="#DejaVuSans-36"/>
      </g>
     </g>
    </g>
    <g id="ytick_4">
     <g id="line2d_9">
      <g>
       <use xlink:href="#m3dc56cabcb" x="44.57" y="77.693305" style="stroke: #000000; stroke-width: 0.8"/>
      </g>
     </g>
     <g id="text_10">
      <!-- 8 -->
      <g transform="translate(31.2075 81.492524)scale(0.1 -0.1)">
       <defs>
        <path id="DejaVuSans-38" d="M 2034 2216 
Q 1584 2216 1326 1975 
Q 1069 1734 1069 1313 
Q 1069 891 1326 650 
Q 1584 409 2034 409 
Q 2484 409 2743 651 
Q 3003 894 3003 1313 
Q 3003 1734 2745 1975 
Q 2488 2216 2034 2216 
z
M 1403 2484 
Q 997 2584 770 2862 
Q 544 3141 544 3541 
Q 544 4100 942 4425 
Q 1341 4750 2034 4750 
Q 2731 4750 3128 4425 
Q 3525 4100 3525 3541 
Q 3525 3141 3298 2862 
Q 3072 2584 2669 2484 
Q 3125 2378 3379 2068 
Q 3634 1759 3634 1313 
Q 3634 634 3220 271 
Q 2806 -91 2034 -91 
Q 1263 -91 848 271 
Q 434 634 434 1313 
Q 434 1759 690 2068 
Q 947 2378 1403 2484 
z
M 1172 3481 
Q 1172 3119 1398 2916 
Q 1625 2713 2034 2713 
Q 2441 2713 2670 2916 
Q 2900 3119 2900 3481 
Q 2900 3844 2670 4047 
Q 2441 4250 2034 4250 
Q 1625 4250 1398 4047 
Q 1172 3844 1172 3481 
z
" transform="scale(0.015625)"/>
       </defs>
       <use xlink:href="#DejaVuSans-38"/>
      </g>
     </g>
    </g>
    <g id="ytick_5">
     <g id="line2d_10">
      <g>
       <use xlink:href="#m3dc56cabcb" x="44.57" y="49.669951" style="stroke: #000000; stroke-width: 0.8"/>
      </g>
     </g>
     <g id="text_11">
      <!-- 10 -->
      <g transform="translate(24.845 53.46917)scale(0.1 -0.1)">
       <use xlink:href="#DejaVuSans-31"/>
       <use xlink:href="#DejaVuSans-30" x="63.623047"/>
      </g>
     </g>
    </g>
    <g id="ytick_6">
     <g id="line2d_11">
      <g>
       <use xlink:href="#m3dc56cabcb" x="44.57" y="21.646597" style="stroke: #000000; stroke-width: 0.8"/>
      </g>
     </g>
     <g id="text_12">
      <!-- 12 -->
      <g transform="translate(24.845 25.445816)scale(0.1 -0.1)">
       <use xlink:href="#DejaVuSans-31"/>
       <use xlink:href="#DejaVuSans-32" x="63.623047"/>
      </g>
     </g>
    </g>
    <g id="text_13">
     <!-- Reward -->
     <g transform="translate(18.765313 111.84799)rotate(-90)scale(0.1 -0.1)">
      <defs>
       <path id="DejaVuSans-52" d="M 2841 2188 
Q 3044 2119 3236 1894 
Q 3428 1669 3622 1275 
L 4263 0 
L 3584 0 
L 2988 1197 
Q 2756 1666 2539 1819 
Q 2322 1972 1947 1972 
L 1259 1972 
L 1259 0 
L 628 0 
L 628 4666 
L 2053 4666 
Q 2853 4666 3247 4331 
Q 3641 3997 3641 3322 
Q 3641 2881 3436 2590 
Q 3231 2300 2841 2188 
z
M 1259 4147 
L 1259 2491 
L 2053 2491 
Q 2509 2491 2742 2702 
Q 2975 2913 2975 3322 
Q 2975 3731 2742 3939 
Q 2509 4147 2053 4147 
L 1259 4147 
z
" transform="scale(0.015625)"/>
       <path id="DejaVuSans-77" d="M 269 3500 
L 844 3500 
L 1563 769 
L 2278 3500 
L 2956 3500 
L 3675 769 
L 4391 3500 
L 4966 3500 
L 4050 0 
L 3372 0 
L 2619 2869 
L 1863 0 
L 1184 0 
L 269 3500 
z
" transform="scale(0.015625)"/>
       <path id="DejaVuSans-61" d="M 2194 1759 
Q 1497 1759 1228 1600 
Q 959 1441 959 1056 
Q 959 750 1161 570 
Q 1363 391 1709 391 
Q 2188 391 2477 730 
Q 2766 1069 2766 1631 
L 2766 1759 
L 2194 1759 
z
M 3341 1997 
L 3341 0 
L 2766 0 
L 2766 531 
Q 2569 213 2275 61 
Q 1981 -91 1556 -91 
Q 1019 -91 701 211 
Q 384 513 384 1019 
Q 384 1609 779 1909 
Q 1175 2209 1959 2209 
L 2766 2209 
L 2766 2266 
Q 2766 2663 2505 2880 
Q 2244 3097 1772 3097 
Q 1472 3097 1187 3025 
Q 903 2953 641 2809 
L 641 3341 
Q 956 3463 1253 3523 
Q 1550 3584 1831 3584 
Q 2591 3584 2966 3190 
Q 3341 2797 3341 1997 
z
" transform="scale(0.015625)"/>
       <path id="DejaVuSans-72" d="M 2631 2963 
Q 2534 3019 2420 3045 
Q 2306 3072 2169 3072 
Q 1681 3072 1420 2755 
Q 1159 2438 1159 1844 
L 1159 0 
L 581 0 
L 581 3500 
L 1159 3500 
L 1159 2956 
Q 1341 3275 1631 3429 
Q 1922 3584 2338 3584 
Q 2397 3584 2469 3576 
Q 2541 3569 2628 3553 
L 2631 2963 
z
" transform="scale(0.015625)"/>
      </defs>
      <use xlink:href="#DejaVuSans-52"/>
      <use xlink:href="#DejaVuSans-65" x="64.982422"/>
      <use xlink:href="#DejaVuSans-77" x="126.505859"/>
      <use xlink:href="#DejaVuSans-61" x="208.292969"/>
      <use xlink:href="#DejaVuSans-72" x="269.572266"/>
      <use xlink:href="#DejaVuSans-64" x="308.935547"/>
     </g>
    </g>
   </g>
   <g id="line2d_12">
    <path d="M 51.850176 76.264779 
L 52.141674 149.307578 
L 52.287424 125.717283 
L 52.433173 140.958948 
L 52.578922 139.422358 
L 52.724672 135.178458 
L 52.870421 143.086563 
L 53.01617 143.148404 
L 53.161919 142.608881 
L 53.453418 128.974964 
L 53.599167 132.182576 
L 53.744916 132.937097 
L 53.890666 130.65341 
L 54.182164 138.784334 
L 54.327913 127.043568 
L 54.473663 129.665245 
L 54.619412 125.100701 
L 54.765161 125.145822 
L 54.910911 131.933266 
L 55.05666 133.448417 
L 55.348158 146.946823 
L 55.493908 144.556382 
L 55.639657 134.768714 
L 55.785406 133.930813 
L 56.076905 141.157965 
L 56.222654 150.429669 
L 56.368403 149.715878 
L 56.514152 144.290271 
L 56.659902 147.648925 
L 56.805651 146.627233 
L 56.9514 151.244532 
L 57.388648 140.804941 
L 57.680147 151.766195 
L 57.825896 150.798876 
L 57.971645 153.510413 
L 58.117394 145.872065 
L 58.263144 150.045027 
L 58.700391 148.391151 
L 58.99189 152.262514 
L 59.137639 150.416981 
L 59.283389 151.052062 
L 59.720636 135.212542 
L 59.866386 136.954974 
L 60.012135 135.701335 
L 60.157884 136.037097 
L 60.449383 140.333624 
L 60.595132 136.111364 
L 60.740881 137.888885 
L 61.323878 110.517468 
L 61.469628 120.851262 
L 61.615377 123.306035 
L 61.761126 117.620579 
L 61.906875 121.162141 
L 62.052625 121.869223 
L 62.344123 132.650487 
L 62.489872 127.891128 
L 62.781371 143.667558 
L 62.92712 152.246702 
L 63.072869 152.210554 
L 63.218619 147.955593 
L 63.364368 155.802282 
L 63.510117 152.848533 
L 63.655867 152.477495 
L 63.801616 149.507588 
L 63.947365 150.569322 
L 64.093114 147.854728 
L 64.238864 149.205399 
L 64.530362 141.776121 
L 64.676111 142.388497 
L 64.821861 148.22288 
L 64.96761 146.385744 
L 65.113359 151.426817 
L 65.259108 150.595877 
L 65.550607 163.41735 
L 65.696356 159.671155 
L 65.842106 166.693354 
L 65.987855 165.361105 
L 66.133604 161.845498 
L 66.279353 151.430204 
L 66.425103 150.251156 
L 66.570852 139.991204 
L 66.716601 137.825256 
L 66.86235 124.834209 
L 67.153849 127.299084 
L 67.299598 130.335267 
L 67.445347 126.867145 
L 67.591097 128.013696 
L 67.736846 127.908457 
L 67.882595 122.03986 
L 68.028345 123.119987 
L 68.465592 131.074085 
L 68.757091 120.683224 
L 69.048589 129.338804 
L 69.340088 137.560133 
L 69.631587 134.872963 
L 69.923085 141.435972 
L 70.068834 134.245421 
L 70.214584 137.999411 
L 70.506082 134.174744 
L 70.94333 140.93223 
L 71.089079 134.591189 
L 71.234828 133.572015 
L 71.526327 125.822467 
L 71.672076 116.598254 
L 71.963575 120.5787 
L 72.109324 126.9297 
L 72.255073 125.412568 
L 72.546572 114.782942 
L 72.83807 101.305723 
L 73.129569 99.308288 
L 73.275318 98.662996 
L 73.421067 97.082942 
L 73.566817 99.374622 
L 73.712566 98.510307 
L 73.858315 98.735901 
L 74.149814 95.400275 
L 74.295563 89.485301 
L 74.441312 91.570822 
L 74.587062 88.797874 
L 75.315808 67.039582 
L 75.753056 98.434572 
L 76.044554 113.751999 
L 76.336053 126.777453 
L 76.91905 137.53451 
L 77.502047 144.592214 
L 78.085044 149.222774 
L 78.668041 152.260885 
L 78.81379 152.840502 
L 78.95954 160.393575 
L 79.105289 159.333046 
L 79.251038 162.250135 
L 79.688286 148.323434 
L 79.834035 141.852611 
L 79.979784 141.918927 
L 80.125534 142.209858 
L 80.271283 149.09397 
L 80.417032 147.907513 
L 81.000029 156.739283 
L 81.145779 156.04886 
L 81.291528 150.4397 
L 81.437277 156.104055 
L 81.583026 156.369583 
L 81.728776 156.298981 
L 81.874525 158.903563 
L 82.020274 156.434359 
L 82.166023 159.876315 
L 82.311773 165.949925 
L 82.457522 151.576566 
L 82.603271 157.697508 
L 82.749021 157.20758 
L 82.89477 164.36555 
L 83.040519 148.374312 
L 83.186268 149.626424 
L 83.332018 149.794481 
L 83.477767 148.20198 
L 83.769265 141.849489 
L 83.915015 140.25768 
L 84.206513 128.416227 
L 84.352262 128.629332 
L 84.498012 125.938904 
L 84.643761 126.925535 
L 84.93526 144.645285 
L 85.081009 145.612995 
L 85.226758 138.073462 
L 85.372507 137.11319 
L 85.518257 137.437098 
L 85.664006 138.75911 
L 85.809755 142.11264 
L 86.101254 159.236132 
L 86.247003 158.824647 
L 86.392752 158.607526 
L 86.538502 163.889774 
L 86.83 159.609206 
L 86.975749 145.652665 
L 87.121499 142.846927 
L 87.995994 73.633226 
L 88.141743 67.548171 
L 88.433242 79.60661 
L 88.578991 82.983104 
L 89.016239 103.769824 
L 89.307738 84.314488 
L 89.453487 86.170788 
L 89.599236 89.566586 
L 89.744985 89.361756 
L 89.890735 84.488174 
L 90.036484 85.393507 
L 90.619481 55.375875 
L 90.76523 57.208395 
L 90.91098 55.855112 
L 91.348227 46.462262 
L 91.493977 45.492023 
L 91.785475 42.211388 
L 91.931224 43.590579 
L 92.368472 34.476195 
L 92.514221 43.469078 
L 92.659971 41.960249 
L 92.80572 42.57835 
L 92.951469 46.150128 
L 93.097219 43.753983 
L 93.242968 38.72372 
L 93.388717 41.468839 
L 93.680216 26.39548 
L 93.825965 30.829867 
L 93.971714 30.799166 
L 94.84621 81.055283 
L 95.137708 89.575869 
L 95.283458 89.173763 
L 95.574956 97.489592 
L 95.866455 99.615458 
L 96.012204 99.496322 
L 96.303702 110.966341 
L 96.595201 116.972839 
L 96.74095 124.55076 
L 96.886699 125.489299 
L 97.323947 111.817234 
L 97.469697 114.380992 
L 97.615446 108.939266 
L 97.906944 87.228709 
L 98.198443 88.667472 
L 98.344192 85.835316 
L 98.489941 88.393443 
L 98.635691 86.017497 
L 99.072938 70.394492 
L 99.218688 60.014402 
L 99.364437 60.419372 
L 99.510186 53.11588 
L 99.655936 53.650236 
L 99.801685 53.722277 
L 100.093183 79.428582 
L 100.67618 106.468915 
L 101.259177 124.210078 
L 101.842175 135.850054 
L 102.425172 143.487043 
L 103.008169 148.497671 
L 103.591166 151.785145 
L 104.174163 153.942056 
L 104.75716 155.357205 
L 105.340157 156.285685 
L 106.068903 157.01108 
L 106.79765 157.439419 
L 107.817895 157.761643 
L 109.275387 157.954054 
L 112.044623 158.043144 
L 125.016308 158.057057 
L 170.34433 158.057059 
L 170.34433 158.057059 
" clip-path="url(#pd523abd5f4)" style="fill: none; stroke: #4682b4; stroke-width: 1.5; stroke-linecap: square"/>
   </g>
   <g id="line2d_13">
    <path d="M 51.850176 34.136157 
L 52.141674 93.326429 
L 52.287424 93.69691 
L 52.433173 103.899706 
L 52.578922 102.084402 
L 52.870421 119.527373 
L 53.01617 117.462282 
L 53.161919 121.305176 
L 53.307669 121.006217 
L 53.453418 119.470505 
L 54.036415 135.570644 
L 54.182164 134.40868 
L 54.473663 127.081215 
L 54.619412 127.108623 
L 54.910911 120.770337 
L 55.05666 122.019954 
L 55.348158 119.383153 
L 55.493908 120.474278 
L 55.785406 112.725505 
L 55.931155 114.878051 
L 56.076905 112.803858 
L 56.659902 122.941215 
L 56.805651 125.521595 
L 56.9514 125.711885 
L 57.09715 123.41092 
L 57.242899 123.556414 
L 57.388648 125.506671 
L 57.534397 123.853771 
L 57.680147 123.673598 
L 57.825896 125.250372 
L 57.971645 123.947868 
L 58.117394 124.853663 
L 58.263144 127.035137 
L 58.408893 127.084668 
L 58.554642 127.97552 
L 58.700391 127.676089 
L 58.846141 128.053965 
L 58.99189 127.055685 
L 59.283389 129.017627 
L 59.429138 130.427681 
L 59.574887 130.64701 
L 59.720636 128.26763 
L 59.866386 128.178841 
L 60.157884 130.05178 
L 60.449383 125.695202 
L 60.740881 123.658745 
L 61.03238 127.481974 
L 61.178129 125.57754 
L 61.323878 125.786357 
L 61.469628 125.344648 
L 61.615377 125.782243 
L 61.906875 121.750387 
L 62.052625 121.377529 
L 62.198374 121.327055 
L 62.344123 121.631637 
L 62.489872 120.939027 
L 62.781371 117.552333 
L 63.218619 116.088162 
L 63.364368 116.145764 
L 63.510117 115.384531 
L 63.655867 115.277277 
L 63.801616 115.589735 
L 63.947365 113.638191 
L 64.238864 115.848389 
L 64.384613 115.609924 
L 64.530362 114.675891 
L 64.676111 114.993687 
L 64.96761 116.37816 
L 65.259108 113.108073 
L 65.550607 113.95921 
L 65.696356 112.03841 
L 66.133604 115.87407 
L 66.279353 113.818344 
L 66.425103 114.115943 
L 66.570852 113.799361 
L 66.716601 114.130027 
L 67.299598 118.256883 
L 67.445347 116.048411 
L 67.591097 118.588857 
L 68.028345 119.978124 
L 68.174094 120.53553 
L 68.465592 122.70994 
L 68.611342 122.670145 
L 68.757091 121.589929 
L 68.90284 122.285588 
L 69.194339 120.32728 
L 69.340088 119.46912 
L 69.485837 119.466888 
L 69.777336 118.791594 
L 70.068834 117.100772 
L 70.360333 115.867046 
L 70.506082 116.902467 
L 70.797581 115.937192 
L 70.94333 116.725756 
L 71.380578 111.924126 
L 71.526327 113.091299 
L 71.817826 109.881988 
L 72.109324 106.411644 
L 72.255073 107.070082 
L 72.400823 106.511243 
L 72.546572 106.77756 
L 72.692321 105.719059 
L 72.83807 105.928593 
L 73.275318 102.818239 
L 73.421067 103.13362 
L 73.566817 102.195359 
L 73.712566 104.616363 
L 74.004065 103.102708 
L 74.732811 106.052368 
L 74.87856 105.823703 
L 75.024309 104.872881 
L 75.170059 105.33429 
L 75.461557 105.387255 
L 75.607306 106.849918 
L 75.753056 107.058823 
L 75.898805 106.161137 
L 76.044554 108.485173 
L 76.190304 107.976125 
L 76.336053 109.424252 
L 76.481802 109.353591 
L 76.627551 109.626661 
L 76.773301 109.171748 
L 76.91905 109.616922 
L 77.356298 114.383648 
L 77.502047 113.516076 
L 77.793545 114.125619 
L 78.085044 112.227378 
L 78.230793 111.557415 
L 78.522292 109.698234 
L 78.668041 108.932115 
L 78.95954 106.802064 
L 79.105289 106.32097 
L 79.396787 102.890586 
L 79.688286 102.168476 
L 79.834035 102.268106 
L 79.979784 102.152749 
L 80.271283 100.216855 
L 80.562782 97.47427 
L 80.708531 96.95555 
L 80.85428 95.52069 
L 81.000029 96.818201 
L 81.145779 95.998907 
L 81.291528 94.237541 
L 81.437277 94.52027 
L 81.583026 94.020321 
L 81.874525 92.71183 
L 82.311773 90.799186 
L 82.89477 88.216795 
L 83.332018 85.763293 
L 84.060764 82.615986 
L 84.498012 84.434048 
L 84.643761 84.710113 
L 84.78951 84.428476 
L 85.518257 88.689573 
L 85.664006 88.928705 
L 85.809755 89.602446 
L 85.955504 90.866805 
L 86.101254 90.541069 
L 86.247003 90.498479 
L 86.392752 91.20598 
L 86.684251 89.124782 
L 86.83 90.171585 
L 87.121499 88.969676 
L 87.267248 90.186476 
L 87.412997 89.802033 
L 87.704496 90.628162 
L 87.850245 91.931808 
L 88.141743 90.993307 
L 88.287493 91.064634 
L 88.578991 91.824324 
L 88.724741 91.788156 
L 88.87049 91.636498 
L 89.016239 91.984129 
L 89.161988 90.701295 
L 89.307738 91.124008 
L 89.453487 91.05922 
L 89.744985 90.40361 
L 89.890735 90.988881 
L 90.182233 93.547119 
L 90.327982 92.462643 
L 90.473732 93.462636 
L 90.619481 93.55826 
L 91.931224 100.670269 
L 92.222723 100.633967 
L 92.368472 100.995787 
L 92.514221 100.937989 
L 92.659971 101.176881 
L 92.951469 103.567577 
L 93.242968 102.873995 
L 93.388717 104.369004 
L 93.534466 104.342157 
L 93.825965 105.381454 
L 94.117463 104.554673 
L 94.263213 103.208455 
L 94.554711 102.868906 
L 94.70046 103.224618 
L 94.84621 102.312115 
L 94.991959 103.63096 
L 95.137708 102.771444 
L 95.429207 103.243581 
L 95.866455 105.77367 
L 96.012204 104.754669 
L 96.157953 105.475515 
L 96.303702 105.438811 
L 96.595201 103.458466 
L 97.032449 100.851585 
L 97.178198 100.340218 
L 97.906944 96.023545 
L 98.344192 93.961023 
L 98.78144 91.590405 
L 98.927189 91.116846 
L 99.655936 84.660146 
L 100.238933 82.74073 
L 100.384682 82.695209 
L 100.67618 81.156877 
L 101.113428 77.529301 
L 101.404927 76.244032 
L 101.550676 77.102014 
L 101.842175 76.323292 
L 101.987924 76.036608 
L 102.133673 76.005738 
L 103.445417 70.56101 
L 103.591166 69.053467 
L 103.882664 70.092547 
L 104.028414 69.685382 
L 104.174163 69.615449 
L 104.465661 68.126352 
L 104.611411 69.540483 
L 104.75716 68.735184 
L 105.048658 68.732791 
L 105.194408 67.993486 
L 105.631656 68.721884 
L 105.777405 67.773748 
L 105.923154 67.627213 
L 106.068903 66.227119 
L 106.214653 67.277678 
L 106.360402 67.213335 
L 106.506151 67.795539 
L 106.6519 67.134335 
L 106.79765 67.01801 
L 106.943399 66.14679 
L 107.234897 67.81332 
L 107.380647 66.902809 
L 107.526396 67.695021 
L 107.817895 66.08705 
L 107.963644 66.886602 
L 108.109393 66.508863 
L 108.255142 65.519993 
L 108.400892 65.750253 
L 108.546641 65.538881 
L 108.838139 63.983223 
L 109.421136 60.154072 
L 109.858384 56.866396 
L 110.004134 56.840459 
L 110.295632 56.389456 
L 110.441381 56.424907 
L 110.587131 55.844033 
L 110.73288 56.637619 
L 110.878629 55.805908 
L 111.024378 56.382474 
L 111.315877 55.779225 
L 111.461626 55.483243 
L 112.044623 52.620221 
L 112.190373 53.922245 
L 112.481871 59.16866 
L 112.62762 58.860969 
L 113.064868 60.639589 
L 113.210617 60.36313 
L 113.356367 59.274135 
L 113.502116 61.513283 
L 113.647865 61.163157 
L 113.793614 61.716256 
L 114.66811 59.255411 
L 115.105358 57.133886 
L 115.251107 56.313058 
L 115.396856 56.276607 
L 116.271352 49.885546 
L 116.562851 49.1537 
L 116.7086 49.784349 
L 117.000098 53.082911 
L 117.291597 51.040547 
L 118.166092 54.170258 
L 118.311842 54.298437 
L 118.457591 53.702282 
L 118.60334 53.884374 
L 118.74909 54.626906 
L 119.186337 59.550527 
L 119.332087 59.157792 
L 119.477836 59.62569 
L 119.769334 62.134988 
L 119.915084 62.749761 
L 120.789579 69.337164 
L 120.935329 68.847862 
L 121.226827 69.895811 
L 122.101323 76.301227 
L 122.247072 75.593971 
L 122.538571 76.103771 
L 122.68432 75.564391 
L 122.830069 76.180007 
L 122.975818 75.143369 
L 123.267317 77.006436 
L 124.141812 69.245736 
L 124.287562 69.316723 
L 124.433311 69.095521 
L 124.57906 69.223706 
L 124.870559 69.887507 
L 125.016308 69.227052 
L 125.307807 70.928502 
L 125.599305 70.204138 
L 126.182302 75.041597 
L 126.328051 74.934496 
L 126.473801 77.084828 
L 126.61955 77.385249 
L 127.202547 82.977918 
L 127.348296 82.740111 
L 127.494046 83.795805 
L 127.639795 83.247349 
L 127.785544 84.331503 
L 127.931293 82.887532 
L 128.077043 82.593803 
L 128.368541 81.059937 
L 128.66004 80.591351 
L 128.805789 80.541398 
L 128.951538 80.331701 
L 129.097288 78.091039 
L 129.388786 77.295452 
L 129.534535 77.311418 
L 129.826034 76.156761 
L 129.971783 76.215534 
L 130.117532 74.512543 
L 130.263282 74.423187 
L 130.55478 72.601162 
L 130.700529 72.693247 
L 130.992028 72.060354 
L 131.283527 73.718821 
L 131.575025 73.186358 
L 132.012273 73.984305 
L 132.158022 73.434284 
L 132.303771 73.735926 
L 132.449521 73.710988 
L 132.59527 73.50443 
L 132.741019 73.988549 
L 133.032518 72.562277 
L 133.178267 73.093263 
L 133.615515 72.591686 
L 133.761264 71.715279 
L 133.907013 71.543186 
L 134.052763 70.603178 
L 134.198512 70.672276 
L 134.49001 69.124593 
L 134.63576 68.995718 
L 134.927258 67.97697 
L 135.218757 67.258674 
L 135.364506 67.454197 
L 135.947503 64.060352 
L 136.093252 64.186833 
L 136.384751 62.942564 
L 136.5305 62.952951 
L 136.676249 64.301288 
L 136.967748 64.379796 
L 137.259247 65.197166 
L 137.404996 67.856718 
L 137.842244 65.90536 
L 137.987993 67.270219 
L 138.279491 64.972411 
L 138.425241 64.208791 
L 138.57099 65.781485 
L 138.862488 66.051173 
L 139.153987 64.01017 
L 139.299736 64.26849 
L 139.445486 64.034031 
L 139.591235 63.440073 
L 139.736984 61.329969 
L 139.882733 61.61387 
L 140.174232 59.361926 
L 140.319981 59.259544 
L 140.902978 55.754179 
L 141.048727 55.129155 
L 141.340226 55.026865 
L 141.631725 53.60284 
L 141.777474 53.902621 
L 141.923223 53.149778 
L 142.068972 53.597283 
L 142.214722 53.016185 
L 143.089217 41.104453 
L 143.380716 39.466388 
L 143.672214 37.786863 
L 144.109462 34.980376 
L 144.255211 34.579028 
L 144.400961 34.638078 
L 144.54671 34.011156 
L 144.692459 31.958013 
L 144.838208 31.831514 
L 144.983958 30.865881 
L 145.275456 31.878828 
L 145.421205 31.866451 
L 145.712704 30.323739 
L 146.004203 28.761175 
L 146.149952 28.456187 
L 146.44145 25.721176 
L 146.5872 27.104233 
L 146.878698 25.031046 
L 147.024447 25.451644 
L 147.315946 24.785733 
L 147.607444 22.531751 
L 148.044692 24.289972 
L 148.336191 24.104586 
L 148.48194 23.836684 
L 149.210686 21.066117 
L 149.356436 20.206806 
L 149.502185 21.064671 
L 149.647934 20.147538 
L 149.793683 20.171683 
L 149.939433 19.760439 
L 150.085182 20.158082 
L 150.230931 19.84658 
L 150.376681 20.069966 
L 150.52243 20.890253 
L 150.668179 22.648788 
L 150.813928 26.184332 
L 151.105427 26.873559 
L 151.251176 27.716877 
L 151.542675 31.889941 
L 151.688424 33.206055 
L 151.979922 32.02012 
L 152.271421 30.867997 
L 152.56292 31.802637 
L 152.708669 31.080159 
L 153.000167 32.050023 
L 153.145917 33.888832 
L 153.291666 34.108806 
L 153.437415 33.11651 
L 153.583164 33.113767 
L 153.728914 32.846939 
L 154.020412 31.75279 
L 154.166162 31.858037 
L 154.311911 31.068196 
L 154.603409 33.795802 
L 155.623654 25.895403 
L 155.915153 27.81106 
L 156.060902 29.377445 
L 156.643899 40.968161 
L 157.081147 46.226522 
L 157.226896 47.092096 
L 157.372645 46.744611 
L 157.518395 47.801619 
L 157.809893 53.037731 
L 157.955642 53.339871 
L 158.247141 56.031509 
L 158.39289 56.170051 
L 158.53864 55.434019 
L 158.684389 55.668581 
L 158.830138 54.879733 
L 158.975887 54.777602 
L 160.287631 63.735454 
L 160.43338 62.257018 
L 160.579129 63.174003 
L 160.870628 66.327092 
L 161.016377 67.003312 
L 161.307876 68.967196 
L 161.599374 66.806703 
L 161.890873 65.262008 
L 162.036622 65.404137 
L 162.182371 65.141033 
L 162.47387 66.786017 
L 162.765368 65.399796 
L 163.056867 64.287119 
L 163.348365 63.534514 
L 163.639864 61.035562 
L 163.785613 60.517417 
L 163.931362 61.041754 
L 164.077112 60.642571 
L 164.36861 59.264972 
L 165.534604 53.959097 
L 165.680354 52.72122 
L 165.826103 52.675269 
L 166.4091 48.504142 
L 166.700598 48.168112 
L 166.846348 48.255852 
L 167.137846 47.009768 
L 167.429345 47.766758 
L 167.575094 47.497203 
L 167.720843 47.4965 
L 167.866593 48.248589 
L 168.158091 45.596528 
L 168.30384 45.874358 
L 168.44959 45.324367 
L 168.741088 42.863329 
L 169.032587 42.549411 
L 169.324085 41.886268 
L 169.469835 41.915443 
L 169.615584 41.82213 
L 169.761333 39.751066 
L 169.907082 39.492965 
L 170.052832 38.804764 
L 170.490079 35.549152 
L 170.635829 36.398706 
L 171.218826 44.868527 
L 171.364575 44.855735 
L 171.656074 44.442724 
L 171.801823 45.382215 
L 171.947572 45.595977 
L 172.093321 45.596362 
L 172.239071 45.444444 
L 172.38482 45.639663 
L 172.676318 48.877362 
L 173.842313 59.093062 
L 173.988062 57.971577 
L 174.27956 60.191816 
L 174.571059 60.74883 
L 174.862557 62.126382 
L 175.154056 61.979971 
L 175.591304 61.439447 
L 176.32005 65.667334 
L 176.757298 72.342291 
L 176.903047 72.434808 
L 177.340295 76.140825 
L 177.486044 75.739536 
L 177.631794 74.752047 
L 177.923292 71.106634 
L 178.214791 69.967208 
L 178.797788 65.945618 
L 178.943537 65.935968 
L 179.089286 65.708336 
L 179.235035 64.72422 
L 179.380785 65.584771 
L 179.672283 64.802765 
L 179.818033 64.793022 
L 179.963782 64.653169 
L 180.109531 63.765609 
L 180.25528 63.659873 
L 180.546779 63.110886 
L 180.838277 61.883475 
L 181.421274 62.738016 
L 181.567024 62.169256 
L 181.712773 62.678174 
L 182.29577 57.329176 
L 182.441519 56.518225 
L 182.733018 59.415981 
L 182.878767 59.371264 
L 183.607513 53.48027 
L 183.753263 52.802344 
L 184.773508 58.848017 
L 185.065006 58.517612 
L 185.210755 59.049432 
L 185.502254 59.234254 
L 186.231 63.721125 
L 186.37675 63.294778 
L 186.522499 64.079218 
L 186.668248 63.067463 
L 186.959747 63.040852 
L 187.105496 62.388525 
L 187.396994 62.780289 
L 187.542744 62.641991 
L 187.979992 60.643896 
L 188.417239 59.005042 
L 188.854487 54.288252 
L 189.145986 52.374984 
L 190.603478 54.260215 
L 192.060971 55.800585 
L 192.789717 56.46164 
L 193.226965 60.867387 
L 193.372714 61.131651 
L 193.518464 60.397078 
L 193.955711 63.101463 
L 194.101461 63.075563 
L 194.24721 62.790513 
L 194.538709 60.717531 
L 194.684458 61.971477 
L 194.830207 61.487462 
L 194.975956 62.866126 
L 195.121706 63.033286 
L 195.267455 64.268941 
L 195.413204 64.198389 
L 196.724948 58.447559 
L 197.162195 54.68912 
L 197.453694 53.234941 
L 197.453694 53.234941 
" clip-path="url(#pd523abd5f4)" style="fill: none; stroke: #ff4500; stroke-width: 1.5; stroke-linecap: square"/>
   </g>
   <g id="patch_3">
    <path d="M 44.57 174.04 
L 44.57 12.413793 
" style="fill: none; stroke: #000000; stroke-width: 0.8; stroke-linejoin: miter; stroke-linecap: square"/>
   </g>
   <g id="patch_4">
    <path d="M 204.73387 174.04 
L 204.73387 12.413793 
" style="fill: none; stroke: #000000; stroke-width: 0.8; stroke-linejoin: miter; stroke-linecap: square"/>
   </g>
   <g id="patch_5">
    <path d="M 44.57 174.04 
L 204.73387 174.04 
" style="fill: none; stroke: #000000; stroke-width: 0.8; stroke-linejoin: miter; stroke-linecap: square"/>
   </g>
   <g id="patch_6">
    <path d="M 44.57 12.413793 
L 204.73387 12.413793 
" style="fill: none; stroke: #000000; stroke-width: 0.8; stroke-linejoin: miter; stroke-linecap: square"/>
   </g>
  </g>
  <g id="axes_2">
   <g id="patch_7">
    <path d="M 255.17 174.04 
L 415.33387 174.04 
L 415.33387 12.413793 
L 255.17 12.413793 
z
" style="fill: #ffffff"/>
   </g>
   <g id="matplotlib.axis_3">
    <g id="xtick_6">
     <g id="line2d_14">
      <g>
       <use xlink:href="#m5f03d0490b" x="262.450176" y="174.04" style="stroke: #000000; stroke-width: 0.8"/>
      </g>
     </g>
     <g id="text_14">
      <!-- 0 -->
      <g transform="translate(259.268926 188.638438)scale(0.1 -0.1)">
       <use xlink:href="#DejaVuSans-30"/>
      </g>
     </g>
    </g>
    <g id="xtick_7">
     <g id="line2d_15">
      <g>
       <use xlink:href="#m5f03d0490b" x="298.887493" y="174.04" style="stroke: #000000; stroke-width: 0.8"/>
      </g>
     </g>
     <g id="text_15">
      <!-- 250 -->
      <g transform="translate(289.343743 188.638438)scale(0.1 -0.1)">
       <use xlink:href="#DejaVuSans-32"/>
       <use xlink:href="#DejaVuSans-35" x="63.623047"/>
       <use xlink:href="#DejaVuSans-30" x="127.246094"/>
      </g>
     </g>
    </g>
    <g id="xtick_8">
     <g id="line2d_16">
      <g>
       <use xlink:href="#m5f03d0490b" x="335.32481" y="174.04" style="stroke: #000000; stroke-width: 0.8"/>
      </g>
     </g>
     <g id="text_16">
      <!-- 500 -->
      <g transform="translate(325.78106 188.638438)scale(0.1 -0.1)">
       <use xlink:href="#DejaVuSans-35"/>
       <use xlink:href="#DejaVuSans-30" x="63.623047"/>
       <use xlink:href="#DejaVuSans-30" x="127.246094"/>
      </g>
     </g>
    </g>
    <g id="xtick_9">
     <g id="line2d_17">
      <g>
       <use xlink:href="#m5f03d0490b" x="371.762126" y="174.04" style="stroke: #000000; stroke-width: 0.8"/>
      </g>
     </g>
     <g id="text_17">
      <!-- 750 -->
      <g transform="translate(362.218376 188.638438)scale(0.1 -0.1)">
       <use xlink:href="#DejaVuSans-37"/>
       <use xlink:href="#DejaVuSans-35" x="63.623047"/>
       <use xlink:href="#DejaVuSans-30" x="127.246094"/>
      </g>
     </g>
    </g>
    <g id="xtick_10">
     <g id="line2d_18">
      <g>
       <use xlink:href="#m5f03d0490b" x="408.199443" y="174.04" style="stroke: #000000; stroke-width: 0.8"/>
      </g>
     </g>
     <g id="text_18">
      <!-- 1000 -->
      <g transform="translate(395.474443 188.638438)scale(0.1 -0.1)">
       <use xlink:href="#DejaVuSans-31"/>
       <use xlink:href="#DejaVuSans-30" x="63.623047"/>
       <use xlink:href="#DejaVuSans-30" x="127.246094"/>
       <use xlink:href="#DejaVuSans-30" x="190.869141"/>
      </g>
     </g>
    </g>
    <g id="text_19">
     <!-- Episodes -->
     <g transform="translate(313.009747 202.316563)scale(0.1 -0.1)">
      <use xlink:href="#DejaVuSans-45"/>
      <use xlink:href="#DejaVuSans-70" x="63.183594"/>
      <use xlink:href="#DejaVuSans-69" x="126.660156"/>
      <use xlink:href="#DejaVuSans-73" x="154.443359"/>
      <use xlink:href="#DejaVuSans-6f" x="206.542969"/>
      <use xlink:href="#DejaVuSans-64" x="267.724609"/>
      <use xlink:href="#DejaVuSans-65" x="331.201172"/>
      <use xlink:href="#DejaVuSans-73" x="392.724609"/>
     </g>
    </g>
   </g>
   <g id="matplotlib.axis_4">
    <g id="ytick_7">
     <g id="line2d_19">
      <g>
       <use xlink:href="#m3dc56cabcb" x="255.17" y="166.693354" style="stroke: #000000; stroke-width: 0.8"/>
      </g>
     </g>
     <g id="text_20">
      <!-- 0 -->
      <g transform="translate(241.8075 170.492573)scale(0.1 -0.1)">
       <use xlink:href="#DejaVuSans-30"/>
      </g>
     </g>
    </g>
    <g id="ytick_8">
     <g id="line2d_20">
      <g>
       <use xlink:href="#m3dc56cabcb" x="255.17" y="141.360093" style="stroke: #000000; stroke-width: 0.8"/>
      </g>
     </g>
     <g id="text_21">
      <!-- 5 -->
      <g transform="translate(241.8075 145.159312)scale(0.1 -0.1)">
       <use xlink:href="#DejaVuSans-35"/>
      </g>
     </g>
    </g>
    <g id="ytick_9">
     <g id="line2d_21">
      <g>
       <use xlink:href="#m3dc56cabcb" x="255.17" y="116.026832" style="stroke: #000000; stroke-width: 0.8"/>
      </g>
     </g>
     <g id="text_22">
      <!-- 10 -->
      <g transform="translate(235.445 119.82605)scale(0.1 -0.1)">
       <use xlink:href="#DejaVuSans-31"/>
       <use xlink:href="#DejaVuSans-30" x="63.623047"/>
      </g>
     </g>
    </g>
    <g id="ytick_10">
     <g id="line2d_22">
      <g>
       <use xlink:href="#m3dc56cabcb" x="255.17" y="90.69357" style="stroke: #000000; stroke-width: 0.8"/>
      </g>
     </g>
     <g id="text_23">
      <!-- 15 -->
      <g transform="translate(235.445 94.492789)scale(0.1 -0.1)">
       <use xlink:href="#DejaVuSans-31"/>
       <use xlink:href="#DejaVuSans-35" x="63.623047"/>
      </g>
     </g>
    </g>
    <g id="ytick_11">
     <g id="line2d_23">
      <g>
       <use xlink:href="#m3dc56cabcb" x="255.17" y="65.360309" style="stroke: #000000; stroke-width: 0.8"/>
      </g>
     </g>
     <g id="text_24">
      <!-- 20 -->
      <g transform="translate(235.445 69.159528)scale(0.1 -0.1)">
       <use xlink:href="#DejaVuSans-32"/>
       <use xlink:href="#DejaVuSans-30" x="63.623047"/>
      </g>
     </g>
    </g>
    <g id="ytick_12">
     <g id="line2d_24">
      <g>
       <use xlink:href="#m3dc56cabcb" x="255.17" y="40.027048" style="stroke: #000000; stroke-width: 0.8"/>
      </g>
     </g>
     <g id="text_25">
      <!-- 25 -->
      <g transform="translate(235.445 43.826267)scale(0.1 -0.1)">
       <use xlink:href="#DejaVuSans-32"/>
       <use xlink:href="#DejaVuSans-35" x="63.623047"/>
      </g>
     </g>
    </g>
    <g id="ytick_13">
     <g id="line2d_25">
      <g>
       <use xlink:href="#m3dc56cabcb" x="255.17" y="14.693787" style="stroke: #000000; stroke-width: 0.8"/>
      </g>
     </g>
     <g id="text_26">
      <!-- 30 -->
      <g transform="translate(235.445 18.493005)scale(0.1 -0.1)">
       <defs>
        <path id="DejaVuSans-33" d="M 2597 2516 
Q 3050 2419 3304 2112 
Q 3559 1806 3559 1356 
Q 3559 666 3084 287 
Q 2609 -91 1734 -91 
Q 1441 -91 1130 -33 
Q 819 25 488 141 
L 488 750 
Q 750 597 1062 519 
Q 1375 441 1716 441 
Q 2309 441 2620 675 
Q 2931 909 2931 1356 
Q 2931 1769 2642 2001 
Q 2353 2234 1838 2234 
L 1294 2234 
L 1294 2753 
L 1863 2753 
Q 2328 2753 2575 2939 
Q 2822 3125 2822 3475 
Q 2822 3834 2567 4026 
Q 2313 4219 1838 4219 
Q 1578 4219 1281 4162 
Q 984 4106 628 3988 
L 628 4550 
Q 988 4650 1302 4700 
Q 1616 4750 1894 4750 
Q 2613 4750 3031 4423 
Q 3450 4097 3450 3541 
Q 3450 3153 3228 2886 
Q 3006 2619 2597 2516 
z
" transform="scale(0.015625)"/>
       </defs>
       <use xlink:href="#DejaVuSans-33"/>
       <use xlink:href="#DejaVuSans-30" x="63.623047"/>
      </g>
     </g>
    </g>
    <g id="text_27">
     <!-- Invalid moves -->
     <g transform="translate(229.365312 128.005803)rotate(-90)scale(0.1 -0.1)">
      <defs>
       <path id="DejaVuSans-49" d="M 628 4666 
L 1259 4666 
L 1259 0 
L 628 0 
L 628 4666 
z
" transform="scale(0.015625)"/>
       <path id="DejaVuSans-6e" d="M 3513 2113 
L 3513 0 
L 2938 0 
L 2938 2094 
Q 2938 2591 2744 2837 
Q 2550 3084 2163 3084 
Q 1697 3084 1428 2787 
Q 1159 2491 1159 1978 
L 1159 0 
L 581 0 
L 581 3500 
L 1159 3500 
L 1159 2956 
Q 1366 3272 1645 3428 
Q 1925 3584 2291 3584 
Q 2894 3584 3203 3211 
Q 3513 2838 3513 2113 
z
" transform="scale(0.015625)"/>
       <path id="DejaVuSans-76" d="M 191 3500 
L 800 3500 
L 1894 563 
L 2988 3500 
L 3597 3500 
L 2284 0 
L 1503 0 
L 191 3500 
z
" transform="scale(0.015625)"/>
       <path id="DejaVuSans-6c" d="M 603 4863 
L 1178 4863 
L 1178 0 
L 603 0 
L 603 4863 
z
" transform="scale(0.015625)"/>
       <path id="DejaVuSans-20" transform="scale(0.015625)"/>
       <path id="DejaVuSans-6d" d="M 3328 2828 
Q 3544 3216 3844 3400 
Q 4144 3584 4550 3584 
Q 5097 3584 5394 3201 
Q 5691 2819 5691 2113 
L 5691 0 
L 5113 0 
L 5113 2094 
Q 5113 2597 4934 2840 
Q 4756 3084 4391 3084 
Q 3944 3084 3684 2787 
Q 3425 2491 3425 1978 
L 3425 0 
L 2847 0 
L 2847 2094 
Q 2847 2600 2669 2842 
Q 2491 3084 2119 3084 
Q 1678 3084 1418 2786 
Q 1159 2488 1159 1978 
L 1159 0 
L 581 0 
L 581 3500 
L 1159 3500 
L 1159 2956 
Q 1356 3278 1631 3431 
Q 1906 3584 2284 3584 
Q 2666 3584 2933 3390 
Q 3200 3197 3328 2828 
z
" transform="scale(0.015625)"/>
      </defs>
      <use xlink:href="#DejaVuSans-49"/>
      <use xlink:href="#DejaVuSans-6e" x="29.492188"/>
      <use xlink:href="#DejaVuSans-76" x="92.871094"/>
      <use xlink:href="#DejaVuSans-61" x="152.050781"/>
      <use xlink:href="#DejaVuSans-6c" x="213.330078"/>
      <use xlink:href="#DejaVuSans-69" x="241.113281"/>
      <use xlink:href="#DejaVuSans-64" x="268.896484"/>
      <use xlink:href="#DejaVuSans-20" x="332.373047"/>
      <use xlink:href="#DejaVuSans-6d" x="364.160156"/>
      <use xlink:href="#DejaVuSans-6f" x="461.572266"/>
      <use xlink:href="#DejaVuSans-76" x="522.753906"/>
      <use xlink:href="#DejaVuSans-65" x="581.933594"/>
      <use xlink:href="#DejaVuSans-73" x="643.457031"/>
     </g>
    </g>
   </g>
   <g id="line2d_26">
    <path d="M 262.450176 166.693354 
L 262.741674 128.740203 
L 263.033173 118.8824 
L 263.178922 117.191637 
L 263.324672 118.263267 
L 263.470421 118.463666 
L 263.61617 113.930361 
L 263.907669 113.57558 
L 264.199167 108.244451 
L 264.344916 108.158609 
L 264.490666 109.787463 
L 264.636415 109.102201 
L 264.782164 106.487503 
L 264.927913 107.212473 
L 265.073663 106.278915 
L 265.219412 104.504674 
L 265.365161 104.850262 
L 265.510911 107.026689 
L 265.65666 106.717041 
L 265.948158 105.511353 
L 266.093908 105.732764 
L 266.531155 112.71552 
L 266.676905 113.06131 
L 266.968403 108.275558 
L 267.259902 113.282206 
L 267.405651 111.311797 
L 267.69715 114.070698 
L 267.842899 115.302112 
L 267.988648 118.638254 
L 268.425896 114.419526 
L 268.571645 114.240551 
L 268.863144 116.951151 
L 269.008893 116.687762 
L 269.154642 117.981926 
L 269.300391 121.184562 
L 269.446141 121.005541 
L 269.737639 121.514386 
L 269.883389 120.454541 
L 270.174887 122.525159 
L 270.466386 124.792677 
L 270.612135 124.083232 
L 270.757884 124.799176 
L 271.049383 123.637007 
L 271.195132 125.243025 
L 271.340881 124.9966 
L 271.48663 123.252897 
L 271.63238 124.220315 
L 271.778129 122.892893 
L 271.923878 123.896129 
L 272.069628 124.122725 
L 272.361126 121.028577 
L 272.506875 122.049038 
L 272.652625 121.446477 
L 272.798374 121.918083 
L 272.944123 120.990757 
L 273.089872 116.439171 
L 273.235622 117.411628 
L 273.381371 115.414711 
L 273.52712 115.64488 
L 273.818619 108.402824 
L 274.110117 103.567786 
L 274.547365 109.691191 
L 274.693114 110.324837 
L 274.838864 112.077459 
L 274.984613 110.61447 
L 275.130362 110.817949 
L 275.421861 103.311978 
L 275.56761 103.401251 
L 275.859108 102.27028 
L 276.150607 106.792668 
L 276.296356 107.547226 
L 276.442106 108.901902 
L 276.587855 105.223176 
L 276.733604 106.979147 
L 276.879353 105.01276 
L 277.170852 108.760621 
L 277.6081 114.945315 
L 277.753849 118.600175 
L 277.899598 118.680619 
L 278.045347 116.557443 
L 278.336846 118.517084 
L 278.482595 115.734709 
L 278.774094 119.286227 
L 278.919843 119.466953 
L 279.065592 118.447382 
L 279.211342 120.569775 
L 279.357091 120.453257 
L 279.50284 122.206171 
L 279.794339 119.022314 
L 279.940088 117.87832 
L 280.085837 118.199837 
L 280.231587 118.995869 
L 280.668834 116.699972 
L 280.814584 117.814878 
L 280.960333 117.973851 
L 281.106082 117.948037 
L 281.397581 116.333232 
L 281.54333 116.640369 
L 281.689079 116.241238 
L 281.834828 117.908683 
L 282.126327 114.528026 
L 282.272076 115.691238 
L 282.417826 118.427013 
L 282.855073 99.350832 
L 283.000823 101.525098 
L 283.43807 111.004743 
L 283.58382 114.546944 
L 283.875318 111.957019 
L 284.166817 113.980058 
L 284.312566 115.029178 
L 284.604065 112.550295 
L 284.749814 114.417944 
L 284.895563 113.90328 
L 285.041312 115.973407 
L 285.187062 115.809862 
L 285.47856 108.892883 
L 285.915808 119.000382 
L 286.207306 113.351866 
L 286.644554 93.418351 
L 286.790304 86.728113 
L 286.936053 85.773552 
L 287.51905 63.071642 
L 288.102047 48.176919 
L 288.685044 38.404492 
L 289.268041 31.992802 
L 289.705289 28.84672 
L 289.996787 40.158512 
L 290.288286 49.726396 
L 290.871283 71.936344 
L 291.600029 86.293572 
L 291.891528 88.362457 
L 292.037277 93.831109 
L 292.183026 91.659583 
L 292.328776 94.434085 
L 292.474525 93.891145 
L 292.620274 99.482482 
L 292.766023 99.279144 
L 293.203271 109.272863 
L 293.349021 109.441595 
L 293.49477 112.464556 
L 293.640519 110.963011 
L 293.786268 111.300505 
L 293.932018 113.124245 
L 294.515015 124.549953 
L 294.806513 126.950104 
L 294.952262 124.337781 
L 295.38951 130.053669 
L 295.53526 127.975432 
L 295.826758 123.104316 
L 295.972507 122.903233 
L 296.264006 123.370045 
L 296.555504 125.774824 
L 296.847003 120.308494 
L 296.992752 113.462568 
L 297.138502 112.536776 
L 297.284251 109.84579 
L 297.43 105.059466 
L 297.721499 110.115701 
L 298.012997 110.428151 
L 298.304496 115.089224 
L 298.450245 117.716311 
L 298.595994 117.378475 
L 298.741743 115.554426 
L 299.033242 104.733992 
L 299.324741 95.412108 
L 299.47049 93.926924 
L 299.761988 96.690355 
L 300.199236 105.777818 
L 300.344985 104.944947 
L 300.490735 105.039805 
L 300.636484 106.814061 
L 300.782233 106.553119 
L 300.927982 107.838268 
L 301.073732 107.643794 
L 301.36523 114.100557 
L 301.656729 108.133234 
L 301.802478 109.429259 
L 301.948227 108.906797 
L 302.093977 110.294354 
L 302.239726 110.529825 
L 302.531224 115.897799 
L 302.676974 115.235149 
L 302.822723 115.483206 
L 302.968472 118.915337 
L 303.114221 119.30204 
L 303.40572 113.528653 
L 303.551469 114.116248 
L 303.697219 111.267315 
L 303.842968 112.756597 
L 303.988717 112.914732 
L 304.425965 117.505745 
L 304.863213 120.462461 
L 305.008962 120.187786 
L 305.30046 123.382971 
L 305.591959 121.681305 
L 305.737708 121.115858 
L 306.029207 124.202265 
L 306.320705 121.432936 
L 306.466455 121.905656 
L 306.757953 126.581552 
L 306.903702 123.499419 
L 307.195201 110.81477 
L 307.632449 100.579005 
L 307.778198 98.070466 
L 307.923947 97.839441 
L 308.069697 100.840399 
L 308.215446 99.656828 
L 308.652694 111.443123 
L 308.798443 107.510395 
L 308.944192 110.557588 
L 309.235691 106.057205 
L 309.38144 107.560832 
L 309.818688 117.583452 
L 310.110186 119.719687 
L 310.547434 125.618015 
L 311.42193 77.136652 
L 312.004927 57.404972 
L 312.587924 44.459017 
L 313.170921 35.965176 
L 313.753918 30.392367 
L 314.336915 26.736047 
L 314.919912 24.337135 
L 315.502909 22.763209 
L 316.085906 21.730557 
L 316.814653 20.923774 
L 317.543399 20.447376 
L 318.563644 20.088999 
L 319.875387 19.88773 
L 322.353125 19.781667 
L 331.389579 19.76047 
L 380.94433 19.760439 
L 380.94433 19.760439 
" clip-path="url(#pc6f58b29af)" style="fill: none; stroke: #4682b4; stroke-width: 1.5; stroke-linecap: square"/>
   </g>
   <g id="line2d_27">
    <path d="M 262.450176 166.693354 
L 262.741674 141.328933 
L 263.324672 125.63197 
L 263.61617 129.490173 
L 264.053418 121.261135 
L 264.199167 118.747721 
L 264.490666 110.057539 
L 264.636415 107.888012 
L 264.782164 108.662103 
L 265.073663 110.787639 
L 265.219412 112.153123 
L 265.365161 111.260618 
L 265.510911 112.725987 
L 265.65666 111.420359 
L 265.802409 111.370352 
L 265.948158 111.144212 
L 266.239657 109.385658 
L 266.531155 113.687425 
L 266.968403 118.768758 
L 267.114152 119.182918 
L 267.259902 116.426199 
L 267.405651 116.90491 
L 267.5514 119.752354 
L 267.69715 119.889242 
L 267.842899 120.35596 
L 267.988648 119.915819 
L 268.280147 115.367077 
L 268.425896 116.459462 
L 268.717394 114.756305 
L 269.008893 117.723226 
L 269.154642 116.701924 
L 269.300391 118.843591 
L 269.446141 118.730153 
L 269.737639 122.982008 
L 270.029138 119.672095 
L 270.320636 120.569777 
L 270.612135 116.115203 
L 270.903633 117.553725 
L 271.049383 117.569953 
L 271.195132 116.231257 
L 271.340881 118.578669 
L 271.48663 118.32315 
L 271.63238 116.571458 
L 271.778129 116.686005 
L 271.923878 115.774775 
L 272.069628 112.250295 
L 272.215377 112.121183 
L 272.361126 111.835996 
L 272.506875 112.93132 
L 272.652625 115.437834 
L 272.798374 110.765486 
L 272.944123 111.629793 
L 273.089872 110.886972 
L 273.381371 116.628111 
L 273.52712 116.061148 
L 273.818619 118.60546 
L 273.964368 118.685392 
L 274.255867 120.545032 
L 274.401616 121.106632 
L 274.547365 124.145744 
L 274.693114 124.1783 
L 274.838864 124.03869 
L 274.984613 124.588669 
L 275.130362 123.732405 
L 275.56761 119.254116 
L 275.713359 121.295951 
L 275.859108 119.417828 
L 276.150607 123.012799 
L 276.296356 123.327545 
L 276.442106 124.624182 
L 276.587855 124.608889 
L 276.733604 124.088445 
L 276.879353 125.984548 
L 277.025103 124.144291 
L 277.170852 125.359232 
L 277.316601 123.919299 
L 277.753849 116.201947 
L 277.899598 115.846654 
L 278.045347 113.162427 
L 278.191097 112.77331 
L 278.336846 111.409765 
L 278.482595 111.871476 
L 278.774094 105.432526 
L 278.919843 106.154184 
L 279.065592 108.492569 
L 279.357091 108.792528 
L 279.50284 108.840405 
L 279.648589 109.390161 
L 279.940088 113.184466 
L 280.231587 114.028517 
L 280.523085 112.820643 
L 280.668834 110.94571 
L 280.960333 117.433783 
L 281.106082 117.461976 
L 281.251831 117.825127 
L 281.54333 115.524344 
L 281.689079 112.703487 
L 282.126327 115.873975 
L 282.272076 111.49816 
L 282.417826 113.471024 
L 282.563575 113.388828 
L 282.855073 116.237598 
L 283.000823 113.852083 
L 283.146572 113.731781 
L 283.43807 110.80696 
L 283.58382 110.653394 
L 283.729569 110.684073 
L 283.875318 111.218349 
L 284.021067 115.245854 
L 284.166817 115.323952 
L 284.458315 109.698403 
L 284.604065 108.81125 
L 284.895563 112.479093 
L 285.187062 111.092725 
L 285.332811 111.417247 
L 285.624309 115.873503 
L 285.915808 124.4315 
L 286.061557 123.92881 
L 286.207306 124.827497 
L 286.353056 124.116318 
L 286.644554 129.098408 
L 286.790304 125.933478 
L 286.936053 127.47614 
L 287.227551 125.351438 
L 287.51905 126.754864 
L 287.664799 129.904271 
L 287.956298 122.589349 
L 288.102047 122.946428 
L 288.539295 133.241316 
L 288.830793 137.570542 
L 289.122292 128.782139 
L 289.41379 121.393312 
L 289.705289 119.225239 
L 289.996787 120.357092 
L 290.434035 121.286252 
L 290.725534 116.959861 
L 290.871283 117.204335 
L 291.600029 124.185297 
L 291.891528 124.239629 
L 292.037277 124.43168 
L 292.328776 127.985855 
L 292.474525 124.594404 
L 292.620274 123.906535 
L 292.911773 131.715142 
L 293.057522 128.626316 
L 294.223516 147.026224 
L 294.806513 153.208943 
L 294.952262 154.388495 
L 295.098012 150.552329 
L 295.38951 152.470683 
L 295.53526 152.035177 
L 295.681009 149.447673 
L 295.972507 150.613247 
L 296.118257 151.039039 
L 296.555504 145.615875 
L 296.701254 144.345855 
L 296.847003 138.811738 
L 297.138502 138.012374 
L 297.43 140.202214 
L 297.867248 142.05795 
L 298.012997 143.339272 
L 298.158746 143.47913 
L 298.595994 136.547911 
L 298.741743 135.340245 
L 299.033242 132.042251 
L 299.178991 126.049611 
L 300.053487 121.197681 
L 300.199236 123.213922 
L 300.490735 121.882153 
L 300.636484 117.749964 
L 300.782233 117.239874 
L 301.51098 132.328498 
L 301.948227 138.706093 
L 302.093977 137.451498 
L 302.239726 134.126812 
L 302.385475 133.667922 
L 302.676974 133.524994 
L 302.822723 132.788509 
L 303.114221 135.937105 
L 303.551469 141.627256 
L 303.697219 141.093875 
L 303.988717 136.060915 
L 304.280216 132.034885 
L 304.863213 122.59394 
L 305.008962 122.950559 
L 305.154711 122.595964 
L 305.44621 120.73983 
L 305.591959 121.619638 
L 306.029207 126.594369 
L 306.174956 126.213169 
L 306.320705 126.376754 
L 306.466455 124.835096 
L 306.903702 125.634981 
L 307.049452 126.700827 
L 307.195201 126.140093 
L 307.632449 121.550071 
L 307.923947 119.183326 
L 308.215446 123.228023 
L 308.361195 123.859011 
L 308.506944 127.63578 
L 308.652694 127.825992 
L 308.944192 135.058792 
L 309.089941 136.026699 
L 309.235691 135.715596 
L 309.38144 131.888947 
L 309.527189 131.316066 
L 309.672938 125.902709 
L 309.818688 127.448448 
L 309.964437 126.812951 
L 310.110186 128.943219 
L 310.255936 129.171576 
L 310.401685 130.897093 
L 310.693183 126.433526 
L 310.838933 123.197307 
L 310.984682 123.324702 
L 311.130431 122.594915 
L 311.27618 121.093664 
L 311.42193 123.120307 
L 311.567679 123.255402 
L 311.859177 125.394853 
L 312.004927 124.626939 
L 312.150676 125.962477 
L 312.296425 124.800025 
L 312.442175 125.442701 
L 312.587924 127.203329 
L 312.733673 126.254567 
L 312.879422 123.205133 
L 313.608169 128.52674 
L 313.899667 130.019302 
L 314.045417 129.971162 
L 314.336915 132.27017 
L 314.482664 127.774733 
L 314.628414 127.95105 
L 314.774163 129.967508 
L 314.919912 130.431213 
L 315.065661 131.355212 
L 315.211411 133.031254 
L 315.35716 132.513031 
L 315.502909 135.931063 
L 315.648658 133.602863 
L 315.794408 133.365255 
L 315.940157 134.333628 
L 316.085906 132.671836 
L 316.523154 134.416667 
L 316.668903 133.591014 
L 316.814653 134.874587 
L 316.960402 131.807593 
L 317.2519 131.54524 
L 317.39765 133.202279 
L 317.543399 132.666953 
L 317.689148 132.691825 
L 317.980647 129.694365 
L 318.126396 129.003165 
L 318.417895 125.000777 
L 318.563644 124.778936 
L 318.709393 125.761498 
L 318.855142 125.801362 
L 319.146641 127.45708 
L 319.29239 126.651832 
L 319.583889 128.129072 
L 319.729638 127.594402 
L 319.875387 129.984301 
L 320.021136 130.277438 
L 320.166886 132.567923 
L 320.312635 132.940475 
L 320.604134 135.215756 
L 320.895632 132.60008 
L 321.041381 134.996077 
L 321.187131 129.552496 
L 321.33288 129.551036 
L 321.478629 128.029728 
L 321.624378 131.389425 
L 321.770128 128.839835 
L 321.915877 129.416307 
L 322.061626 129.428467 
L 322.207375 128.763857 
L 322.498874 134.906464 
L 322.790373 132.771775 
L 323.22762 121.000404 
L 323.37337 122.867485 
L 323.519119 118.974539 
L 323.664868 118.51088 
L 323.810617 119.106918 
L 324.102116 123.774131 
L 324.247865 116.919418 
L 324.393614 116.661271 
L 324.539364 115.24672 
L 324.685113 115.324731 
L 324.830862 119.617151 
L 325.122361 115.01678 
L 325.26811 115.793338 
L 325.559609 121.715019 
L 325.851107 123.691143 
L 325.996856 126.133592 
L 326.142606 125.629581 
L 326.434104 129.716153 
L 326.579853 130.204993 
L 327.454349 139.305638 
L 327.600098 135.288873 
L 327.745848 136.40266 
L 327.891597 136.391738 
L 328.037346 137.057462 
L 328.183095 138.838833 
L 328.328845 138.92207 
L 328.620343 136.328414 
L 328.766092 133.453814 
L 328.911842 134.919995 
L 329.057591 135.226228 
L 329.34909 136.830772 
L 329.494839 134.919267 
L 329.640588 131.172251 
L 329.786337 131.008816 
L 330.223585 133.917034 
L 330.369334 134.154675 
L 330.660833 133.767265 
L 330.806582 135.033213 
L 330.952332 134.314794 
L 331.098081 128.094899 
L 331.24383 127.901423 
L 332.118326 138.629653 
L 332.264075 137.382701 
L 332.555573 141.245952 
L 332.992821 146.904246 
L 333.138571 147.700938 
L 333.28432 149.262403 
L 333.867317 146.48231 
L 334.158815 140.864657 
L 334.450314 139.371239 
L 335.033311 138.159096 
L 335.17906 138.648084 
L 335.470559 133.184716 
L 335.616308 132.651146 
L 335.762057 132.846487 
L 335.907807 132.515629 
L 336.199305 134.196077 
L 336.345054 135.925809 
L 336.636553 135.201884 
L 336.782302 135.479928 
L 337.073801 140.160705 
L 337.21955 139.098425 
L 337.365299 139.155703 
L 337.511049 137.856146 
L 337.656798 138.713206 
L 337.802547 137.964564 
L 337.948296 137.96634 
L 338.094046 140.670153 
L 338.385544 141.763906 
L 338.531293 140.710194 
L 338.968541 144.493773 
L 339.11429 145.869289 
L 339.26004 144.742816 
L 339.405789 146.768981 
L 339.551538 146.565869 
L 339.697288 142.836412 
L 339.988786 144.633239 
L 340.134535 143.968147 
L 340.280285 144.045119 
L 340.426034 145.634389 
L 340.571783 142.504745 
L 340.717532 143.741387 
L 340.863282 143.672146 
L 341.15478 140.040865 
L 341.300529 141.861672 
L 341.446279 140.291518 
L 341.592028 140.060599 
L 341.737777 140.359437 
L 341.883527 139.277283 
L 342.175025 134.876586 
L 342.320774 137.044933 
L 342.612273 134.976821 
L 342.903771 136.172754 
L 343.19527 140.147673 
L 343.341019 140.268915 
L 343.486768 138.351372 
L 343.632518 139.327798 
L 343.924016 133.414396 
L 344.069766 133.702301 
L 344.215515 134.299192 
L 344.361264 136.525277 
L 344.652763 134.083013 
L 344.798512 135.655163 
L 344.944261 134.70566 
L 345.09001 135.70888 
L 345.381509 140.802155 
L 345.527258 139.506842 
L 345.673007 136.652175 
L 345.964506 139.573341 
L 346.110255 139.583127 
L 346.693252 146.981851 
L 346.839002 140.677469 
L 346.984751 142.772392 
L 347.1305 142.968939 
L 347.421999 137.10683 
L 347.567748 136.856602 
L 347.713497 137.47584 
L 347.859247 136.513158 
L 348.004996 136.828963 
L 348.150745 134.74875 
L 348.587993 137.217666 
L 348.879491 136.231399 
L 349.025241 137.926487 
L 349.17099 133.709861 
L 349.316739 132.954889 
L 349.462488 133.964297 
L 349.608238 133.859435 
L 349.753987 134.271724 
L 349.899736 134.136119 
L 350.045486 134.351851 
L 350.191235 135.559341 
L 350.336984 133.943867 
L 350.482733 136.374373 
L 350.628483 136.535169 
L 350.774232 137.18655 
L 350.919981 139.292788 
L 351.06573 138.148411 
L 351.21148 138.976245 
L 351.502978 141.624725 
L 351.648727 142.273816 
L 351.794477 139.986894 
L 352.085975 140.247802 
L 352.231725 140.865696 
L 352.377474 142.435132 
L 352.523223 140.976521 
L 352.668972 143.379315 
L 352.814722 142.839617 
L 352.960471 143.367218 
L 353.10622 144.348724 
L 353.251969 143.374307 
L 353.543468 146.960484 
L 353.689217 147.751552 
L 353.980716 151.350495 
L 354.126465 151.702562 
L 354.272214 151.343869 
L 354.417964 151.865487 
L 354.563713 150.477171 
L 354.709462 150.91657 
L 354.855211 150.636476 
L 355.000961 151.735499 
L 355.292459 143.5153 
L 355.438208 144.650887 
L 355.729707 138.654985 
L 355.875456 136.054393 
L 356.021205 135.909409 
L 356.166955 136.623366 
L 356.312704 138.110369 
L 356.604203 141.852252 
L 356.895701 145.778286 
L 357.04145 145.843132 
L 357.1872 145.732605 
L 357.332949 144.450912 
L 357.478698 144.986272 
L 357.624447 142.428105 
L 357.770197 142.152415 
L 357.915946 139.708745 
L 358.061695 140.88721 
L 358.207444 143.298936 
L 358.353194 141.585056 
L 358.498943 143.082556 
L 358.644692 142.910309 
L 358.790442 143.261953 
L 358.936191 141.382883 
L 359.08194 141.549492 
L 359.519188 147.282593 
L 359.956436 149.948784 
L 360.102185 149.089914 
L 360.247934 148.992486 
L 360.393683 148.229247 
L 361.268179 140.114019 
L 361.413928 139.90085 
L 361.705427 132.510572 
L 361.996925 130.831102 
L 362.142675 126.986237 
L 362.434173 129.548381 
L 362.579922 128.534003 
L 362.871421 131.41007 
L 363.16292 125.396597 
L 363.308669 125.979616 
L 363.454418 127.686552 
L 363.600167 125.50725 
L 363.745917 126.41698 
L 363.891666 126.222408 
L 364.037415 126.891734 
L 364.183164 126.818575 
L 364.474663 124.312145 
L 364.620412 125.172498 
L 364.766162 127.973476 
L 364.911911 128.129919 
L 365.05766 129.452936 
L 365.203409 129.123656 
L 365.349159 122.578433 
L 366.077905 136.501152 
L 366.369403 141.595895 
L 366.515153 142.247868 
L 366.660902 140.807983 
L 366.952401 127.840921 
L 367.389648 119.604739 
L 367.535398 119.922502 
L 367.826896 113.321897 
L 367.972645 114.099055 
L 368.264144 117.184436 
L 368.555642 110.698732 
L 368.701392 110.724876 
L 368.847141 109.228411 
L 369.721637 115.476354 
L 369.867386 111.984746 
L 370.013135 114.415615 
L 370.158884 113.225629 
L 370.304634 114.181303 
L 370.450383 114.196968 
L 370.741881 117.077968 
L 370.887631 117.310631 
L 371.03338 115.324479 
L 371.179129 116.239156 
L 371.324879 116.049036 
L 371.470628 114.695708 
L 371.616377 114.82882 
L 371.762126 115.11751 
L 372.199374 117.228464 
L 372.345123 119.472738 
L 372.490873 118.959259 
L 372.782371 116.172771 
L 373.07387 117.93526 
L 373.219619 117.237752 
L 374.094115 125.161754 
L 374.239864 128.132695 
L 374.385613 127.935439 
L 374.531362 131.135677 
L 374.677112 130.469235 
L 374.822861 130.54499 
L 374.96861 133.653161 
L 375.260109 134.965479 
L 375.405858 133.747168 
L 375.697357 135.497622 
L 375.988855 133.740389 
L 376.134604 133.826806 
L 376.280354 132.215697 
L 376.426103 133.130136 
L 376.571852 129.730922 
L 376.717601 130.72495 
L 376.863351 130.606246 
L 377.0091 131.174965 
L 377.154849 131.011259 
L 377.592097 132.900418 
L 378.029345 131.107579 
L 378.175094 128.417286 
L 378.320843 128.698236 
L 378.466593 129.626645 
L 378.612342 127.084445 
L 378.758091 128.174233 
L 378.90384 130.168373 
L 379.195339 131.349024 
L 379.632587 135.995796 
L 379.778336 136.025561 
L 380.215584 134.419405 
L 380.361333 134.100144 
L 380.507082 134.319473 
L 380.652832 135.361312 
L 380.94433 139.017518 
L 381.090079 139.927329 
L 381.381578 137.125785 
L 381.964575 130.464173 
L 382.110324 130.709323 
L 382.547572 135.818253 
L 382.693321 134.683553 
L 382.98482 138.350311 
L 383.130569 138.989066 
L 383.422068 133.258245 
L 383.567817 131.703992 
L 383.713566 134.696263 
L 383.859316 133.167097 
L 384.005065 130.270852 
L 384.296563 129.810704 
L 384.442313 131.472308 
L 384.588062 130.941091 
L 384.733811 127.760781 
L 384.87956 127.600717 
L 385.02531 128.469989 
L 385.171059 127.901227 
L 385.316808 127.896006 
L 385.462557 126.877977 
L 385.899805 130.311165 
L 386.045555 130.064951 
L 386.191304 130.6878 
L 386.337053 133.275025 
L 386.482802 133.576866 
L 386.628552 136.888515 
L 386.774301 136.322342 
L 387.065799 126.909767 
L 387.357298 128.354888 
L 387.503047 127.45986 
L 387.794546 127.854688 
L 387.940295 127.685233 
L 388.086044 125.67495 
L 388.814791 132.082095 
L 389.106289 137.999569 
L 389.252038 138.673398 
L 389.397788 138.773179 
L 389.543537 134.809661 
L 389.689286 133.944708 
L 390.126534 128.160078 
L 390.272283 129.986745 
L 390.563782 135.137006 
L 390.709531 135.083761 
L 390.85528 136.049171 
L 391.00103 136.073598 
L 391.292528 134.325151 
L 391.438277 136.041975 
L 391.584027 134.884903 
L 391.875525 136.554299 
L 392.021274 136.528213 
L 392.167024 135.660294 
L 392.312773 136.061385 
L 392.458522 133.0446 
L 392.604272 134.045037 
L 392.750021 133.932101 
L 393.187269 125.992493 
L 393.333018 124.995927 
L 393.478767 124.943459 
L 393.624516 125.234016 
L 393.770266 125.157739 
L 393.916015 126.609086 
L 394.061764 126.564191 
L 394.353263 126.166533 
L 394.644761 121.571553 
L 394.790511 120.341527 
L 394.93626 120.7545 
L 395.082009 117.072853 
L 395.227758 116.968251 
L 395.519257 120.403593 
L 395.810755 124.739994 
L 395.956505 124.375343 
L 396.685251 135.185206 
L 396.831 135.127141 
L 396.97675 134.230441 
L 397.122499 134.943406 
L 397.268248 129.336203 
L 397.413997 129.863039 
L 397.559747 128.648306 
L 397.851245 129.931993 
L 397.996994 129.892584 
L 398.142744 130.53267 
L 398.579992 135.246985 
L 398.87149 128.504498 
L 399.017239 128.101174 
L 399.308738 129.623927 
L 399.454487 130.12199 
L 399.745986 133.40567 
L 400.328983 143.69169 
L 400.91198 150.440348 
L 401.494977 154.868142 
L 402.077974 157.773218 
L 402.660971 159.679238 
L 403.243968 160.929778 
L 403.535467 161.383082 
L 403.826965 144.928972 
L 403.972714 137.64766 
L 404.118464 137.005573 
L 404.264213 138.454355 
L 404.409962 135.029384 
L 404.555711 136.506897 
L 404.701461 134.796667 
L 404.84721 135.284121 
L 404.992959 130.993955 
L 405.138709 132.537234 
L 405.284458 132.743966 
L 405.430207 129.552257 
L 405.575956 131.577483 
L 405.867455 125.819311 
L 406.013204 123.151179 
L 406.158953 126.660955 
L 406.8877 125.76425 
L 407.179198 125.518581 
L 407.470697 128.832467 
L 407.762195 130.587829 
L 408.053694 133.580334 
L 408.053694 133.580334 
" clip-path="url(#pc6f58b29af)" style="fill: none; stroke: #ff4500; stroke-width: 1.5; stroke-linecap: square"/>
   </g>
   <g id="patch_8">
    <path d="M 255.17 174.04 
L 255.17 12.413793 
" style="fill: none; stroke: #000000; stroke-width: 0.8; stroke-linejoin: miter; stroke-linecap: square"/>
   </g>
   <g id="patch_9">
    <path d="M 415.33387 174.04 
L 415.33387 12.413793 
" style="fill: none; stroke: #000000; stroke-width: 0.8; stroke-linejoin: miter; stroke-linecap: square"/>
   </g>
   <g id="patch_10">
    <path d="M 255.17 174.04 
L 415.33387 174.04 
" style="fill: none; stroke: #000000; stroke-width: 0.8; stroke-linejoin: miter; stroke-linecap: square"/>
   </g>
   <g id="patch_11">
    <path d="M 255.17 12.413793 
L 415.33387 12.413793 
" style="fill: none; stroke: #000000; stroke-width: 0.8; stroke-linejoin: miter; stroke-linecap: square"/>
   </g>
  </g>
 </g>
 <defs>
  <clipPath id="pd523abd5f4">
   <rect x="44.57" y="12.413793" width="160.16387" height="161.626207"/>
  </clipPath>
  <clipPath id="pc6f58b29af">
   <rect x="255.17" y="12.413793" width="160.16387" height="161.626207"/>
  </clipPath>
 </defs>
</svg>
