<?xml version="1.0" encoding="utf-8" standalone="no"?>
<!DOCTYPE svg PUBLIC "-//W3C//DTD SVG 1.1//EN"
  "http://www.w3.org/Graphics/SVG/1.1/DTD/svg11.dtd">
<svg xmlns:xlink="http://www.w3.org/1999/xlink" width="432pt" height="216pt" viewBox="0 0 432 216" xmlns="http://www.w3.org/2000/svg" version="1.1">
 <metadata>
  <rdf:RDF xmlns:dc="http://purl.org/dc/elements/1.1/" xmlns:cc="http://creativecommons.org/ns#" xmlns:rdf="http://www.w3.org/1999/02/22-rdf-syntax-ns#">
   <cc:Work>
    <dc:type rdf:resource="http://purl.org/dc/dcmitype/StillImage"/>
    <dc:date>2022-05-28T20:08:17.156140</dc:date>
    <dc:format>image/svg+xml</dc:format>
    <dc:creator>
     <cc:Agent>
      <dc:title>Matplotlib v3.5.2, https://matplotlib.org/</dc:title>
     </cc:Agent>
    </dc:creator>
   </cc:Work>
  </rdf:RDF>
 </metadata>
 <defs>
  <style type="text/css">*{stroke-linejoin: round; stroke-linecap: butt}</style>
 </defs>
 <g id="figure_1">
  <g id="patch_1">
   <path d="M 0 216 
L 432 216 
L 432 0 
L 0 0 
z
" style="fill: #ffffff"/>
  </g>
  <g id="axes_1">
   <g id="patch_2">
    <path d="M 44.57 174.04 
L 194.005152 174.04 
L 194.005152 10.8 
L 44.57 10.8 
z
" style="fill: #ffffff"/>
   </g>
   <g id="matplotlib.axis_1">
    <g id="xtick_1">
     <g id="line2d_1">
      <defs>
       <path id="mae439e8d01" d="M 0 0 
L 0 3.5 
" style="stroke: #000000; stroke-width: 0.8"/>
      </defs>
      <g>
       <use xlink:href="#mae439e8d01" x="51.30582" y="174.04" style="stroke: #000000; stroke-width: 0.8"/>
      </g>
     </g>
     <g id="text_1">
      <!-- 0 -->
      <g transform="translate(48.12457 188.638438)scale(0.1 -0.1)">
       <defs>
        <path id="DejaVuSans-30" d="M 2034 4250 
Q 1547 4250 1301 3770 
Q 1056 3291 1056 2328 
Q 1056 1369 1301 889 
Q 1547 409 2034 409 
Q 2525 409 2770 889 
Q 3016 1369 3016 2328 
Q 3016 3291 2770 3770 
Q 2525 4250 2034 4250 
z
M 2034 4750 
Q 2819 4750 3233 4129 
Q 3647 3509 3647 2328 
Q 3647 1150 3233 529 
Q 2819 -91 2034 -91 
Q 1250 -91 836 529 
Q 422 1150 422 2328 
Q 422 3509 836 4129 
Q 1250 4750 2034 4750 
z
" transform="scale(0.015625)"/>
       </defs>
       <use xlink:href="#DejaVuSans-30"/>
      </g>
     </g>
    </g>
    <g id="xtick_2">
     <g id="line2d_2">
      <g>
       <use xlink:href="#mae439e8d01" x="122.164436" y="174.04" style="stroke: #000000; stroke-width: 0.8"/>
      </g>
     </g>
     <g id="text_2">
      <!-- 5 k -->
      <g transform="translate(115.089436 188.638438)scale(0.1 -0.1)">
       <defs>
        <path id="DejaVuSans-35" d="M 691 4666 
L 3169 4666 
L 3169 4134 
L 1269 4134 
L 1269 2991 
Q 1406 3038 1543 3061 
Q 1681 3084 1819 3084 
Q 2600 3084 3056 2656 
Q 3513 2228 3513 1497 
Q 3513 744 3044 326 
Q 2575 -91 1722 -91 
Q 1428 -91 1123 -41 
Q 819 9 494 109 
L 494 744 
Q 775 591 1075 516 
Q 1375 441 1709 441 
Q 2250 441 2565 725 
Q 2881 1009 2881 1497 
Q 2881 1984 2565 2268 
Q 2250 2553 1709 2553 
Q 1456 2553 1204 2497 
Q 953 2441 691 2322 
L 691 4666 
z
" transform="scale(0.015625)"/>
        <path id="DejaVuSans-2009" transform="scale(0.015625)"/>
        <path id="DejaVuSans-6b" d="M 581 4863 
L 1159 4863 
L 1159 1991 
L 2875 3500 
L 3609 3500 
L 1753 1863 
L 3688 0 
L 2938 0 
L 1159 1709 
L 1159 0 
L 581 0 
L 581 4863 
z
" transform="scale(0.015625)"/>
       </defs>
       <use xlink:href="#DejaVuSans-35"/>
       <use xlink:href="#DejaVuSans-2009" x="63.623047"/>
       <use xlink:href="#DejaVuSans-6b" x="83.59375"/>
      </g>
     </g>
    </g>
    <g id="xtick_3">
     <g id="line2d_3">
      <g>
       <use xlink:href="#mae439e8d01" x="193.023051" y="174.04" style="stroke: #000000; stroke-width: 0.8"/>
      </g>
     </g>
     <g id="text_3">
      <!-- 10 k -->
      <g transform="translate(182.766801 188.638438)scale(0.1 -0.1)">
       <defs>
        <path id="DejaVuSans-31" d="M 794 531 
L 1825 531 
L 1825 4091 
L 703 3866 
L 703 4441 
L 1819 4666 
L 2450 4666 
L 2450 531 
L 3481 531 
L 3481 0 
L 794 0 
L 794 531 
z
" transform="scale(0.015625)"/>
       </defs>
       <use xlink:href="#DejaVuSans-31"/>
       <use xlink:href="#DejaVuSans-30" x="63.623047"/>
       <use xlink:href="#DejaVuSans-2009" x="127.246094"/>
       <use xlink:href="#DejaVuSans-6b" x="147.216797"/>
      </g>
     </g>
    </g>
    <g id="text_4">
     <!-- Episodes -->
     <g transform="translate(97.045388 202.316563)scale(0.1 -0.1)">
      <defs>
       <path id="DejaVuSans-45" d="M 628 4666 
L 3578 4666 
L 3578 4134 
L 1259 4134 
L 1259 2753 
L 3481 2753 
L 3481 2222 
L 1259 2222 
L 1259 531 
L 3634 531 
L 3634 0 
L 628 0 
L 628 4666 
z
" transform="scale(0.015625)"/>
       <path id="DejaVuSans-70" d="M 1159 525 
L 1159 -1331 
L 581 -1331 
L 581 3500 
L 1159 3500 
L 1159 2969 
Q 1341 3281 1617 3432 
Q 1894 3584 2278 3584 
Q 2916 3584 3314 3078 
Q 3713 2572 3713 1747 
Q 3713 922 3314 415 
Q 2916 -91 2278 -91 
Q 1894 -91 1617 61 
Q 1341 213 1159 525 
z
M 3116 1747 
Q 3116 2381 2855 2742 
Q 2594 3103 2138 3103 
Q 1681 3103 1420 2742 
Q 1159 2381 1159 1747 
Q 1159 1113 1420 752 
Q 1681 391 2138 391 
Q 2594 391 2855 752 
Q 3116 1113 3116 1747 
z
" transform="scale(0.015625)"/>
       <path id="DejaVuSans-69" d="M 603 3500 
L 1178 3500 
L 1178 0 
L 603 0 
L 603 3500 
z
M 603 4863 
L 1178 4863 
L 1178 4134 
L 603 4134 
L 603 4863 
z
" transform="scale(0.015625)"/>
       <path id="DejaVuSans-73" d="M 2834 3397 
L 2834 2853 
Q 2591 2978 2328 3040 
Q 2066 3103 1784 3103 
Q 1356 3103 1142 2972 
Q 928 2841 928 2578 
Q 928 2378 1081 2264 
Q 1234 2150 1697 2047 
L 1894 2003 
Q 2506 1872 2764 1633 
Q 3022 1394 3022 966 
Q 3022 478 2636 193 
Q 2250 -91 1575 -91 
Q 1294 -91 989 -36 
Q 684 19 347 128 
L 347 722 
Q 666 556 975 473 
Q 1284 391 1588 391 
Q 1994 391 2212 530 
Q 2431 669 2431 922 
Q 2431 1156 2273 1281 
Q 2116 1406 1581 1522 
L 1381 1569 
Q 847 1681 609 1914 
Q 372 2147 372 2553 
Q 372 3047 722 3315 
Q 1072 3584 1716 3584 
Q 2034 3584 2315 3537 
Q 2597 3491 2834 3397 
z
" transform="scale(0.015625)"/>
       <path id="DejaVuSans-6f" d="M 1959 3097 
Q 1497 3097 1228 2736 
Q 959 2375 959 1747 
Q 959 1119 1226 758 
Q 1494 397 1959 397 
Q 2419 397 2687 759 
Q 2956 1122 2956 1747 
Q 2956 2369 2687 2733 
Q 2419 3097 1959 3097 
z
M 1959 3584 
Q 2709 3584 3137 3096 
Q 3566 2609 3566 1747 
Q 3566 888 3137 398 
Q 2709 -91 1959 -91 
Q 1206 -91 779 398 
Q 353 888 353 1747 
Q 353 2609 779 3096 
Q 1206 3584 1959 3584 
z
" transform="scale(0.015625)"/>
       <path id="DejaVuSans-64" d="M 2906 2969 
L 2906 4863 
L 3481 4863 
L 3481 0 
L 2906 0 
L 2906 525 
Q 2725 213 2448 61 
Q 2172 -91 1784 -91 
Q 1150 -91 751 415 
Q 353 922 353 1747 
Q 353 2572 751 3078 
Q 1150 3584 1784 3584 
Q 2172 3584 2448 3432 
Q 2725 3281 2906 2969 
z
M 947 1747 
Q 947 1113 1208 752 
Q 1469 391 1925 391 
Q 2381 391 2643 752 
Q 2906 1113 2906 1747 
Q 2906 2381 2643 2742 
Q 2381 3103 1925 3103 
Q 1469 3103 1208 2742 
Q 947 2381 947 1747 
z
" transform="scale(0.015625)"/>
       <path id="DejaVuSans-65" d="M 3597 1894 
L 3597 1613 
L 953 1613 
Q 991 1019 1311 708 
Q 1631 397 2203 397 
Q 2534 397 2845 478 
Q 3156 559 3463 722 
L 3463 178 
Q 3153 47 2828 -22 
Q 2503 -91 2169 -91 
Q 1331 -91 842 396 
Q 353 884 353 1716 
Q 353 2575 817 3079 
Q 1281 3584 2069 3584 
Q 2775 3584 3186 3129 
Q 3597 2675 3597 1894 
z
M 3022 2063 
Q 3016 2534 2758 2815 
Q 2500 3097 2075 3097 
Q 1594 3097 1305 2825 
Q 1016 2553 972 2059 
L 3022 2063 
z
" transform="scale(0.015625)"/>
      </defs>
      <use xlink:href="#DejaVuSans-45"/>
      <use xlink:href="#DejaVuSans-70" x="63.183594"/>
      <use xlink:href="#DejaVuSans-69" x="126.660156"/>
      <use xlink:href="#DejaVuSans-73" x="154.443359"/>
      <use xlink:href="#DejaVuSans-6f" x="206.542969"/>
      <use xlink:href="#DejaVuSans-64" x="267.724609"/>
      <use xlink:href="#DejaVuSans-65" x="331.201172"/>
      <use xlink:href="#DejaVuSans-73" x="392.724609"/>
     </g>
    </g>
   </g>
   <g id="matplotlib.axis_2">
    <g id="ytick_1">
     <g id="line2d_4">
      <defs>
       <path id="m453fb9884c" d="M 0 0 
L -3.5 0 
" style="stroke: #000000; stroke-width: 0.8"/>
      </defs>
      <g>
       <use xlink:href="#m453fb9884c" x="44.57" y="152.512524" style="stroke: #000000; stroke-width: 0.8"/>
      </g>
     </g>
     <g id="text_5">
      <!-- 5 -->
      <g transform="translate(31.2075 156.311743)scale(0.1 -0.1)">
       <use xlink:href="#DejaVuSans-35"/>
      </g>
     </g>
    </g>
    <g id="ytick_2">
     <g id="line2d_5">
      <g>
       <use xlink:href="#m453fb9884c" x="44.57" y="113.467303" style="stroke: #000000; stroke-width: 0.8"/>
      </g>
     </g>
     <g id="text_6">
      <!-- 10 -->
      <g transform="translate(24.845 117.266522)scale(0.1 -0.1)">
       <use xlink:href="#DejaVuSans-31"/>
       <use xlink:href="#DejaVuSans-30" x="63.623047"/>
      </g>
     </g>
    </g>
    <g id="ytick_3">
     <g id="line2d_6">
      <g>
       <use xlink:href="#m453fb9884c" x="44.57" y="74.422082" style="stroke: #000000; stroke-width: 0.8"/>
      </g>
     </g>
     <g id="text_7">
      <!-- 15 -->
      <g transform="translate(24.845 78.221301)scale(0.1 -0.1)">
       <use xlink:href="#DejaVuSans-31"/>
       <use xlink:href="#DejaVuSans-35" x="63.623047"/>
      </g>
     </g>
    </g>
    <g id="ytick_4">
     <g id="line2d_7">
      <g>
       <use xlink:href="#m453fb9884c" x="44.57" y="35.376861" style="stroke: #000000; stroke-width: 0.8"/>
      </g>
     </g>
     <g id="text_8">
      <!-- 20 -->
      <g transform="translate(24.845 39.17608)scale(0.1 -0.1)">
       <defs>
        <path id="DejaVuSans-32" d="M 1228 531 
L 3431 531 
L 3431 0 
L 469 0 
L 469 531 
Q 828 903 1448 1529 
Q 2069 2156 2228 2338 
Q 2531 2678 2651 2914 
Q 2772 3150 2772 3378 
Q 2772 3750 2511 3984 
Q 2250 4219 1831 4219 
Q 1534 4219 1204 4116 
Q 875 4013 500 3803 
L 500 4441 
Q 881 4594 1212 4672 
Q 1544 4750 1819 4750 
Q 2544 4750 2975 4387 
Q 3406 4025 3406 3419 
Q 3406 3131 3298 2873 
Q 3191 2616 2906 2266 
Q 2828 2175 2409 1742 
Q 1991 1309 1228 531 
z
" transform="scale(0.015625)"/>
       </defs>
       <use xlink:href="#DejaVuSans-32"/>
       <use xlink:href="#DejaVuSans-30" x="63.623047"/>
      </g>
     </g>
    </g>
    <g id="text_9">
     <!-- Reward -->
     <g transform="translate(18.765313 111.041094)rotate(-90)scale(0.1 -0.1)">
      <defs>
       <path id="DejaVuSans-52" d="M 2841 2188 
Q 3044 2119 3236 1894 
Q 3428 1669 3622 1275 
L 4263 0 
L 3584 0 
L 2988 1197 
Q 2756 1666 2539 1819 
Q 2322 1972 1947 1972 
L 1259 1972 
L 1259 0 
L 628 0 
L 628 4666 
L 2053 4666 
Q 2853 4666 3247 4331 
Q 3641 3997 3641 3322 
Q 3641 2881 3436 2590 
Q 3231 2300 2841 2188 
z
M 1259 4147 
L 1259 2491 
L 2053 2491 
Q 2509 2491 2742 2702 
Q 2975 2913 2975 3322 
Q 2975 3731 2742 3939 
Q 2509 4147 2053 4147 
L 1259 4147 
z
" transform="scale(0.015625)"/>
       <path id="DejaVuSans-77" d="M 269 3500 
L 844 3500 
L 1563 769 
L 2278 3500 
L 2956 3500 
L 3675 769 
L 4391 3500 
L 4966 3500 
L 4050 0 
L 3372 0 
L 2619 2869 
L 1863 0 
L 1184 0 
L 269 3500 
z
" transform="scale(0.015625)"/>
       <path id="DejaVuSans-61" d="M 2194 1759 
Q 1497 1759 1228 1600 
Q 959 1441 959 1056 
Q 959 750 1161 570 
Q 1363 391 1709 391 
Q 2188 391 2477 730 
Q 2766 1069 2766 1631 
L 2766 1759 
L 2194 1759 
z
M 3341 1997 
L 3341 0 
L 2766 0 
L 2766 531 
Q 2569 213 2275 61 
Q 1981 -91 1556 -91 
Q 1019 -91 701 211 
Q 384 513 384 1019 
Q 384 1609 779 1909 
Q 1175 2209 1959 2209 
L 2766 2209 
L 2766 2266 
Q 2766 2663 2505 2880 
Q 2244 3097 1772 3097 
Q 1472 3097 1187 3025 
Q 903 2953 641 2809 
L 641 3341 
Q 956 3463 1253 3523 
Q 1550 3584 1831 3584 
Q 2591 3584 2966 3190 
Q 3341 2797 3341 1997 
z
" transform="scale(0.015625)"/>
       <path id="DejaVuSans-72" d="M 2631 2963 
Q 2534 3019 2420 3045 
Q 2306 3072 2169 3072 
Q 1681 3072 1420 2755 
Q 1159 2438 1159 1844 
L 1159 0 
L 581 0 
L 581 3500 
L 1159 3500 
L 1159 2956 
Q 1341 3275 1631 3429 
Q 1922 3584 2338 3584 
Q 2397 3584 2469 3576 
Q 2541 3569 2628 3553 
L 2631 2963 
z
" transform="scale(0.015625)"/>
      </defs>
      <use xlink:href="#DejaVuSans-52"/>
      <use xlink:href="#DejaVuSans-65" x="64.982422"/>
      <use xlink:href="#DejaVuSans-77" x="126.505859"/>
      <use xlink:href="#DejaVuSans-61" x="208.292969"/>
      <use xlink:href="#DejaVuSans-72" x="269.572266"/>
      <use xlink:href="#DejaVuSans-64" x="308.935547"/>
     </g>
    </g>
   </g>
   <g id="line2d_8">
    <path d="M 51.362507 166.62 
L 51.560911 157.140871 
L 51.872689 154.435358 
L 51.971891 156.654864 
L 51.986063 156.473951 
L 52.184467 152.670854 
L 52.198639 153.064808 
L 52.397043 154.221706 
L 52.467901 153.618446 
L 52.567103 154.680161 
L 52.708821 154.201874 
L 52.765507 153.285247 
L 52.822194 153.864125 
L 53.020599 154.507447 
L 53.148144 153.311678 
L 53.573296 151.015434 
L 53.629983 149.384564 
L 53.743356 148.866714 
L 54.211023 143.157882 
L 54.551145 143.315519 
L 54.76372 143.938395 
L 54.777892 143.477966 
L 55.188872 146.997024 
L 55.302246 148.880245 
L 55.344761 148.50437 
L 55.486478 149.211244 
L 55.784085 148.213657 
L 55.869115 148.807936 
L 56.209236 147.058051 
L 56.464327 147.006873 
L 56.662731 148.859773 
L 56.832792 147.373898 
L 57.031196 150.351609 
L 57.187085 150.154282 
L 57.286287 150.28678 
L 57.484691 152.00745 
L 57.498863 151.816862 
L 57.626409 151.225753 
L 58.207449 147.294439 
L 58.561742 148.28546 
L 58.575914 148.520672 
L 58.632601 148.440576 
L 58.901864 144.398328 
L 58.95855 144.828714 
L 59.128611 143.881453 
L 59.185298 145.836175 
L 59.270328 145.633724 
L 59.752167 140.473475 
L 60.134804 135.273333 
L 60.219834 135.406766 
L 60.43241 138.17026 
L 60.758359 135.362187 
L 60.871733 136.751623 
L 61.140996 136.767482 
L 61.523632 135.073984 
L 61.580319 135.456566 
L 61.66535 135.394434 
L 62.133016 132.717377 
L 62.388107 135.210184 
L 62.473138 134.753859 
L 62.699885 134.190807 
L 62.714057 133.744264 
L 62.742401 134.491428 
L 62.912461 136.737522 
L 63.096694 136.685339 
L 63.450987 136.818719 
L 63.578532 139.034607 
L 63.649391 138.217755 
L 63.861967 137.797658 
L 64.017856 138.333561 
L 64.074543 137.787738 
L 64.485523 137.05758 
L 65.505887 131.385907 
L 65.53423 131.542348 
L 65.789321 126.034321 
L 65.874351 126.515513 
L 66.001897 125.864277 
L 66.696311 120.943379 
L 66.951402 117.001398 
L 67.050604 118.76493 
L 67.348211 117.021848 
L 67.376554 118.306244 
L 67.546615 117.052352 
L 67.801706 112.277898 
L 67.943423 112.674756 
L 68.08514 111.87914 
L 68.212686 111.178127 
L 68.226857 111.253695 
L 68.566979 112.689487 
L 68.963787 108.726995 
L 69.048817 108.97455 
L 69.077161 109.662121 
L 69.119676 109.587819 
L 69.176363 108.942907 
L 69.31808 110.094644 
L 69.388939 109.630946 
L 69.700717 109.607398 
L 70.083353 114.350306 
L 70.366788 117.30302 
L 70.579363 117.862602 
L 70.63605 116.375438 
L 70.806111 116.176454 
L 71.387152 115.727286 
L 71.684758 112.161914 
L 71.69893 112.31147 
L 72.223283 117.422832 
L 72.478374 116.326234 
L 72.591748 115.263298 
L 72.705122 113.066163 
L 72.747637 114.216679 
L 72.790152 114.518882 
L 72.960213 114.107018 
L 73.243647 115.856526 
L 73.286163 115.217423 
L 73.640456 108.30463 
L 74.023092 104.198413 
L 74.504931 100.130482 
L 74.972598 104.347448 
L 75.100143 104.40013 
L 75.185173 105.353174 
L 75.312719 105.208473 
L 75.426093 107.841744 
L 75.496951 107.376527 
L 75.553638 106.969763 
L 75.65284 108.335901 
L 76.035477 107.852877 
L 76.488972 110.032936 
L 76.701548 111.343122 
L 76.814922 108.413837 
L 77.764427 100.85517 
L 78.062033 96.071496 
L 78.260437 97.164571 
L 78.572215 101.281736 
L 78.586387 101.16803 
L 78.798963 100.798913 
L 78.869821 101.359806 
L 78.898165 100.542414 
L 79.082397 99.808409 
L 79.096569 99.835227 
L 79.167428 100.254331 
L 79.35166 100.419385 
L 79.465034 101.669955 
L 80.768832 103.230146 
L 80.91055 102.341708 
L 81.193984 104.146483 
L 81.335701 101.52241 
L 81.349873 101.752382 
L 81.449075 99.581863 
L 81.619136 99.377629 
L 82.044287 97.158948 
L 82.398581 98.539184 
L 82.611156 98.24013 
L 82.696187 99.31248 
L 83.107167 101.337032 
L 83.63152 102.294812 
L 83.971642 102.232799 
L 84.495996 94.392051 
L 84.736915 94.668554 
L 85.232925 88.661328 
L 85.828138 90.136859 
L 85.898996 89.404552 
L 86.196602 90.19039 
L 86.239118 89.472375 
L 86.522552 89.906187 
L 86.706784 90.310813 
L 86.777643 91.808715 
L 87.16028 88.194897 
L 87.670462 86.289182 
L 87.826351 86.18629 
L 87.840522 86.630335 
L 87.982239 85.479327 
L 88.038926 85.840759 
L 88.23733 87.617599 
L 88.549108 89.227307 
L 88.761684 91.9069 
L 89.030947 91.286779 
L 89.413584 94.336792 
L 89.47027 93.42634 
L 89.597816 93.410864 
L 89.753705 94.444443 
L 89.980452 96.071466 
L 89.994624 96.022329 
L 90.136341 96.595658 
L 90.490634 98.409571 
L 91.468483 92.124599 
L 91.610201 89.387893 
L 92.134554 85.131524 
L 92.701423 83.653692 
L 92.885656 83.748667 
L 93.140747 87.226155 
L 93.183262 86.751159 
L 93.282464 85.972806 
L 93.438353 88.751664 
L 93.622585 89.7503 
L 93.764303 89.663569 
L 94.090252 92.165164 
L 94.302828 95.74036 
L 94.48706 95.682755 
L 95.280677 102.696102 
L 95.450738 101.106047 
L 95.521596 101.810381 
L 95.535768 101.772877 
L 96.54196 86.585323 
L 96.938768 82.482353 
L 96.967112 82.647534 
L 97.066314 83.710016 
L 97.236375 82.91402 
L 97.576496 87.236052 
L 97.619011 87.053013 
L 98.157537 88.286358 
L 98.639375 86.851757 
L 98.866123 86.964018 
L 99.121214 85.561187 
L 99.277103 86.527428 
L 99.390477 86.634944 
L 100.042376 92.650221 
L 100.354154 92.424836 
L 100.453356 93.256325 
L 100.779305 91.465737 
L 100.906851 90.055974 
L 101.275316 88.853721 
L 101.530407 89.007635 
L 101.615437 88.181552 
L 101.728811 88.618052 
L 102.139791 86.551699 
L 102.153963 86.624153 
L 102.324023 87.40448 
L 102.522427 86.768154 
L 102.550771 85.92256 
L 102.749175 84.992907 
L 103.089296 84.006969 
L 103.160155 82.932259 
L 103.188498 83.699597 
L 103.231014 83.44531 
L 103.2877 83.477124 
L 103.344387 84.244738 
L 103.599478 85.517524 
L 103.911256 84.282578 
L 103.982115 85.983456 
L 104.393095 90.03352 
L 104.492297 89.710412 
L 104.506469 89.63979 
L 104.605671 90.329155 
L 104.634014 90.102147 
L 104.917449 85.895474 
L 104.974136 85.943025 
L 105.016651 86.544281 
L 105.3426 87.236082 
L 105.484318 85.288825 
L 105.838611 85.321646 
L 106.008671 83.154992 
L 106.136217 82.839771 
L 106.178732 84.025654 
L 106.603884 83.258867 
L 106.873146 85.521061 
L 107.043207 86.369963 
L 107.085722 85.776883 
L 107.326642 85.01026 
L 107.383328 85.267928 
L 107.510874 86.538614 
L 107.72345 84.189703 
L 108.162773 85.661234 
L 108.474551 80.927636 
L 108.658784 81.865167 
L 109.53743 83.957206 
L 110.557794 78.945303 
L 110.713683 76.825075 
L 110.926259 76.508134 
L 111.209694 81.823008 
L 111.478956 82.649172 
L 111.578158 83.709398 
L 111.634845 82.56971 
L 111.974967 80.764674 
L 112.49932 79.644968 
L 112.726068 77.84128 
L 113.32128 82.907176 
L 113.363796 82.043902 
L 113.590543 83.422804 
L 113.703917 82.777124 
L 113.97318 84.119713 
L 114.001523 83.7341 
L 114.270786 88.315372 
L 114.426675 89.50337 
L 114.922685 88.052379 
L 115.957221 78.507886 
L 116.042251 78.163047 
L 116.127282 79.699407 
L 116.240655 79.652824 
L 116.665807 81.806229 
L 117.190161 81.010412 
L 117.261019 81.214073 
L 117.317706 80.260404 
L 117.374393 80.680609 
L 117.445252 81.295129 
L 118.012121 76.008592 
L 118.097151 76.277015 
L 118.139666 76.154343 
L 118.33807 75.561428 
L 118.437272 75.992812 
L 118.74905 76.674409 
L 118.933283 76.392254 
L 119.004141 77.197849 
L 119.471808 85.376145 
L 119.528495 84.50482 
L 119.81193 86.534354 
L 119.826101 86.102739 
L 119.840273 85.725497 
L 119.939475 85.886686 
L 119.953647 85.979621 
L 121.21493 75.690281 
L 121.314132 76.048406 
L 121.370819 75.18925 
L 121.441678 75.42156 
L 122.022718 76.9915 
L 122.03689 76.761208 
L 122.490385 75.478584 
L 122.830507 76.933761 
L 123.099769 74.071628 
L 123.411547 76.204367 
L 123.439891 75.853473 
L 123.510749 76.725892 
L 124.035103 78.019106 
L 124.304366 76.150135 
L 124.346881 76.247427 
L 124.814548 75.362242 
L 124.970437 77.391404 
L 124.99878 77.337166 
L 125.069639 76.732789 
L 125.097982 77.037353 
L 125.353073 81.20145 
L 125.537306 81.42072 
L 125.82074 82.674985 
L 125.877427 82.52274 
L 125.919942 81.939647 
L 126.217548 81.350537 
L 126.373437 82.651578 
L 126.685215 80.776515 
L 126.897791 75.524281 
L 127.407973 62.948468 
L 128.173246 37.175962 
L 128.470852 34.778427 
L 128.669257 31.533526 
L 129.306984 30.552078 
L 129.392014 30.926766 
L 129.547903 29.685572 
L 129.576247 29.368928 
L 129.888025 29.498645 
L 130.199803 30.88807 
L 130.724156 29.766419 
L 131.276854 43.480341 
L 131.418571 43.090982 
L 131.616975 44.460881 
L 131.900409 44.580991 
L 132.509794 38.350979 
L 132.651511 33.697186 
L 132.906602 32.70835 
L 133.105006 34.77174 
L 133.232551 34.826477 
L 133.345925 35.246608 
L 134.62138 29.725519 
L 134.663895 30.229149 
L 135.599229 23.998438 
L 135.825977 29.804415 
L 136.973886 39.389637 
L 137.08726 36.718013 
L 137.41321 33.419581 
L 137.455725 33.628462 
L 137.852533 32.576325 
L 138.220998 35.077168 
L 138.291857 32.774959 
L 138.348543 33.036746 
L 138.717008 34.702867 
L 139.241362 34.769491 
L 139.46811 33.34408 
L 139.524797 33.312846 
L 139.581483 34.008884 
L 139.779888 32.799162 
L 139.893261 32.095305 
L 140.78608 29.621763 
L 141.055343 27.697519 
L 141.069514 27.705324 
L 141.253747 27.038315 
L 141.494666 24.988882 
L 141.523009 26.808105 
L 141.565525 26.617469 
L 142.089878 34.22572 
L 142.344969 44.489851 
L 142.699262 49.745504 
L 142.84098 49.812976 
L 143.039384 49.147278 
L 143.294475 47.533362 
L 143.733798 35.130267 
L 143.861344 31.157006 
L 143.988889 31.641199 
L 144.144778 29.517129 
L 144.15895 29.783116 
L 144.399869 28.315822 
L 144.626617 28.267072 
L 144.825021 29.900903 
L 145.051769 28.900181 
L 145.250173 28.995357 
L 145.533607 28.000206 
L 145.703668 30.620072 
L 145.873728 30.702752 
L 146.539799 37.251105 
L 146.568143 37.70734 
L 146.596486 37.64806 
L 146.681517 37.481985 
L 146.964951 40.658372 
L 147.12084 38.056931 
L 147.149184 38.41939 
L 147.333416 38.652147 
L 147.460961 37.591669 
L 147.701881 33.221587 
L 148.197891 29.64348 
L 148.382123 26.843077 
L 148.608871 28.577222 
L 148.665558 27.767196 
L 148.736417 28.050088 
L 149.289114 26.55594 
L 149.317457 26.58625 
L 149.359972 24.683037 
L 149.515861 24.351424 
L 149.615063 25.927002 
L 149.926841 22.593284 
L 150.153589 22.096044 
L 150.380336 22.132401 
L 150.677943 24.465472 
L 150.762973 24.484373 
L 150.918862 27.792472 
L 151.131438 25.496057 
L 151.258983 25.792101 
L 151.273155 26.551516 
L 151.740822 25.942626 
L 152.066771 23.574285 
L 152.165974 23.764578 
L 152.208489 23.167842 
L 152.293519 20.268927 
L 152.832045 23.963853 
L 153.030449 23.404368 
L 153.058792 23.754629 
L 153.143822 24.885737 
L 153.186338 24.313547 
L 153.69652 27.091146 
L 154.036641 27.252901 
L 154.093328 28.652589 
L 154.390934 28.32391 
L 154.660197 26.927217 
L 154.872773 27.792591 
L 155.241237 27.180648 
L 155.538844 24.462016 
L 155.581359 24.533287 
L 155.652217 24.747143 
L 155.708904 24.505732 
L 155.963995 24.519897 
L 156.516693 30.904111 
L 156.672581 33.684213 
L 156.771784 33.6182 
L 157.168592 36.372414 
L 157.338652 35.762005 
L 157.678774 32.949046 
L 158.047239 27.787735 
L 158.514905 30.31448 
L 158.684966 28.494602 
L 158.911714 28.435173 
L 159.039259 27.732208 
L 159.067603 27.876075 
L 159.110118 27.99836 
L 159.634472 26.557176 
L 159.648643 26.651622 
L 159.875391 23.947186 
L 160.215512 24.201555 
L 160.725694 23.124722 
L 160.85324 23.949018 
L 161.292563 24.608743 
L 161.774402 25.795408 
L 161.972806 24.918877 
L 162.142867 25.370823 
L 162.440473 25.332083 
L 162.638877 25.779992 
L 162.808938 24.827321 
L 163.007342 25.531193 
L 163.191574 25.739121 
L 163.276604 26.757821 
L 163.460837 26.269785 
L 163.673413 29.738164 
L 163.772615 30.695245 
L 164.098564 32.164401 
L 164.481201 32.267352 
L 164.580403 35.764701 
L 165.104757 42.998442 
L 165.1331 42.219918 
L 165.331504 42.673517 
L 165.444878 42.537634 
L 165.600767 40.862293 
L 165.770828 41.422895 
L 165.784999 41.179071 
L 165.884202 42.810384 
L 166.04009 37.389147 
L 166.408555 32.015351 
L 166.521929 32.516806 
L 166.720333 31.793481 
L 167.003768 33.293156 
L 167.400576 30.92553 
L 167.51395 31.012693 
L 167.754869 36.512528 
L 168.293394 48.742295 
L 168.74689 56.238002 
L 168.803576 56.276445 
L 168.945294 54.225359 
L 170.022345 23.657501 
L 170.135718 21.557739 
L 170.305779 21.31749 
L 170.504183 22.484047 
L 170.575042 21.677998 
L 170.858476 21.085015 
L 171.141911 22.28732 
L 171.156083 22.115258 
L 171.212769 23.150579 
L 171.637921 28.607071 
L 172.063073 30.428081 
L 172.445709 34.01441 
L 172.658285 34.618564 
L 172.828346 32.336239 
L 173.43773 29.723419 
L 173.480245 29.922068 
L 173.565275 28.581646 
L 174.018771 24.878737 
L 174.075457 23.46478 
L 174.514781 23.710064 
L 174.599811 23.176287 
L 174.854902 24.346434 
L 174.939933 23.46764 
L 175.223367 22.188405 
L 175.365084 23.273445 
L 175.846923 20.731061 
L 176.002812 21.082558 
L 176.087842 20.145138 
L 176.938146 25.195738 
L 177.108206 27.49753 
L 177.604217 31.772271 
L 177.731762 31.684721 
L 178.001025 31.654693 
L 178.709611 26.94798 
L 178.936359 24.401515 
L 179.318995 23.007949 
L 179.545743 24.005245 
L 179.77249 26.336632 
L 179.843349 26.923404 
L 180.566107 25.993938 
L 181.118804 23.768332 
L 181.175491 24.39301 
L 181.288865 24.162129 
L 181.586471 25.310947 
L 181.799047 28.089857 
L 182.054138 26.812365 
L 182.167511 26.855589 
L 182.436774 25.219673 
L 183.272906 20.974736 
L 183.428795 21.56538 
L 183.485482 21.280492 
L 183.513825 21.3181 
L 183.839775 24.782711 
L 183.938977 25.209009 
L 184.024007 24.723327 
L 184.038179 24.731504 
L 184.335785 26.35099 
L 184.647563 24.942187 
L 184.775108 25.042875 
L 185.101058 25.411813 
L 185.299462 24.419567 
L 185.313634 24.427386 
L 185.427008 24.161057 
L 185.512038 23.312156 
L 185.540382 23.803319 
L 185.823816 22.257843 
L 186.277311 21.855809 
L 186.603261 18.741057 
L 186.730806 18.22 
L 186.872523 18.452981 
L 186.943382 18.356002 
L 187.212645 20.619173 
L 187.212645 20.619173 
" clip-path="url(#pe9d5b0f708)" style="fill: none; stroke: #2e8b57; stroke-width: 1.5; stroke-linecap: square"/>
   </g>
   <g id="patch_3">
    <path d="M 44.57 174.04 
L 44.57 10.8 
" style="fill: none; stroke: #000000; stroke-width: 0.8; stroke-linejoin: miter; stroke-linecap: square"/>
   </g>
   <g id="patch_4">
    <path d="M 194.005152 174.04 
L 194.005152 10.8 
" style="fill: none; stroke: #000000; stroke-width: 0.8; stroke-linejoin: miter; stroke-linecap: square"/>
   </g>
   <g id="patch_5">
    <path d="M 44.57 174.04 
L 194.005152 174.04 
" style="fill: none; stroke: #000000; stroke-width: 0.8; stroke-linejoin: miter; stroke-linecap: square"/>
   </g>
   <g id="patch_6">
    <path d="M 44.57 10.8 
L 194.005152 10.8 
" style="fill: none; stroke: #000000; stroke-width: 0.8; stroke-linejoin: miter; stroke-linecap: square"/>
   </g>
  </g>
  <g id="axes_2">
   <g id="patch_7">
    <path d="M 262.505 174.04 
L 411.940152 174.04 
L 411.940152 10.8 
L 262.505 10.8 
z
" style="fill: #ffffff"/>
   </g>
   <g id="matplotlib.axis_3">
    <g id="xtick_4">
     <g id="line2d_9">
      <g>
       <use xlink:href="#mae439e8d01" x="269.24082" y="174.04" style="stroke: #000000; stroke-width: 0.8"/>
      </g>
     </g>
     <g id="text_10">
      <!-- 0 -->
      <g transform="translate(266.05957 188.638438)scale(0.1 -0.1)">
       <use xlink:href="#DejaVuSans-30"/>
      </g>
     </g>
    </g>
    <g id="xtick_5">
     <g id="line2d_10">
      <g>
       <use xlink:href="#mae439e8d01" x="340.099436" y="174.04" style="stroke: #000000; stroke-width: 0.8"/>
      </g>
     </g>
     <g id="text_11">
      <!-- 5 k -->
      <g transform="translate(333.024436 188.638438)scale(0.1 -0.1)">
       <use xlink:href="#DejaVuSans-35"/>
       <use xlink:href="#DejaVuSans-2009" x="63.623047"/>
       <use xlink:href="#DejaVuSans-6b" x="83.59375"/>
      </g>
     </g>
    </g>
    <g id="xtick_6">
     <g id="line2d_11">
      <g>
       <use xlink:href="#mae439e8d01" x="410.958051" y="174.04" style="stroke: #000000; stroke-width: 0.8"/>
      </g>
     </g>
     <g id="text_12">
      <!-- 10 k -->
      <g transform="translate(400.701801 188.638438)scale(0.1 -0.1)">
       <use xlink:href="#DejaVuSans-31"/>
       <use xlink:href="#DejaVuSans-30" x="63.623047"/>
       <use xlink:href="#DejaVuSans-2009" x="127.246094"/>
       <use xlink:href="#DejaVuSans-6b" x="147.216797"/>
      </g>
     </g>
    </g>
    <g id="text_13">
     <!-- Episodes -->
     <g transform="translate(314.980388 202.316563)scale(0.1 -0.1)">
      <use xlink:href="#DejaVuSans-45"/>
      <use xlink:href="#DejaVuSans-70" x="63.183594"/>
      <use xlink:href="#DejaVuSans-69" x="126.660156"/>
      <use xlink:href="#DejaVuSans-73" x="154.443359"/>
      <use xlink:href="#DejaVuSans-6f" x="206.542969"/>
      <use xlink:href="#DejaVuSans-64" x="267.724609"/>
      <use xlink:href="#DejaVuSans-65" x="331.201172"/>
      <use xlink:href="#DejaVuSans-73" x="392.724609"/>
     </g>
    </g>
   </g>
   <g id="matplotlib.axis_4">
    <g id="ytick_5">
     <g id="line2d_12">
      <g>
       <use xlink:href="#m453fb9884c" x="262.505" y="173.496265" style="stroke: #000000; stroke-width: 0.8"/>
      </g>
     </g>
     <g id="text_14">
      <!-- −150 -->
      <g transform="translate(228.037812 177.295484)scale(0.1 -0.1)">
       <defs>
        <path id="DejaVuSans-2212" d="M 678 2272 
L 4684 2272 
L 4684 1741 
L 678 1741 
L 678 2272 
z
" transform="scale(0.015625)"/>
       </defs>
       <use xlink:href="#DejaVuSans-2212"/>
       <use xlink:href="#DejaVuSans-31" x="83.789062"/>
       <use xlink:href="#DejaVuSans-35" x="147.412109"/>
       <use xlink:href="#DejaVuSans-30" x="211.035156"/>
      </g>
     </g>
    </g>
    <g id="ytick_6">
     <g id="line2d_13">
      <g>
       <use xlink:href="#m453fb9884c" x="262.505" y="151.925196" style="stroke: #000000; stroke-width: 0.8"/>
      </g>
     </g>
     <g id="text_15">
      <!-- −100 -->
      <g transform="translate(228.037812 155.724415)scale(0.1 -0.1)">
       <use xlink:href="#DejaVuSans-2212"/>
       <use xlink:href="#DejaVuSans-31" x="83.789062"/>
       <use xlink:href="#DejaVuSans-30" x="147.412109"/>
       <use xlink:href="#DejaVuSans-30" x="211.035156"/>
      </g>
     </g>
    </g>
    <g id="ytick_7">
     <g id="line2d_14">
      <g>
       <use xlink:href="#m453fb9884c" x="262.505" y="130.354127" style="stroke: #000000; stroke-width: 0.8"/>
      </g>
     </g>
     <g id="text_16">
      <!-- −50 -->
      <g transform="translate(234.400312 134.153346)scale(0.1 -0.1)">
       <use xlink:href="#DejaVuSans-2212"/>
       <use xlink:href="#DejaVuSans-35" x="83.789062"/>
       <use xlink:href="#DejaVuSans-30" x="147.412109"/>
      </g>
     </g>
    </g>
    <g id="ytick_8">
     <g id="line2d_15">
      <g>
       <use xlink:href="#m453fb9884c" x="262.505" y="108.783059" style="stroke: #000000; stroke-width: 0.8"/>
      </g>
     </g>
     <g id="text_17">
      <!-- 0 -->
      <g transform="translate(249.1425 112.582277)scale(0.1 -0.1)">
       <use xlink:href="#DejaVuSans-30"/>
      </g>
     </g>
    </g>
    <g id="ytick_9">
     <g id="line2d_16">
      <g>
       <use xlink:href="#m453fb9884c" x="262.505" y="87.21199" style="stroke: #000000; stroke-width: 0.8"/>
      </g>
     </g>
     <g id="text_18">
      <!-- 50 -->
      <g transform="translate(242.78 91.011208)scale(0.1 -0.1)">
       <use xlink:href="#DejaVuSans-35"/>
       <use xlink:href="#DejaVuSans-30" x="63.623047"/>
      </g>
     </g>
    </g>
    <g id="ytick_10">
     <g id="line2d_17">
      <g>
       <use xlink:href="#m453fb9884c" x="262.505" y="65.640921" style="stroke: #000000; stroke-width: 0.8"/>
      </g>
     </g>
     <g id="text_19">
      <!-- 100 -->
      <g transform="translate(236.4175 69.440139)scale(0.1 -0.1)">
       <use xlink:href="#DejaVuSans-31"/>
       <use xlink:href="#DejaVuSans-30" x="63.623047"/>
       <use xlink:href="#DejaVuSans-30" x="127.246094"/>
      </g>
     </g>
    </g>
    <g id="ytick_11">
     <g id="line2d_18">
      <g>
       <use xlink:href="#m453fb9884c" x="262.505" y="44.069852" style="stroke: #000000; stroke-width: 0.8"/>
      </g>
     </g>
     <g id="text_20">
      <!-- 150 -->
      <g transform="translate(236.4175 47.86907)scale(0.1 -0.1)">
       <use xlink:href="#DejaVuSans-31"/>
       <use xlink:href="#DejaVuSans-35" x="63.623047"/>
       <use xlink:href="#DejaVuSans-30" x="127.246094"/>
      </g>
     </g>
    </g>
    <g id="ytick_12">
     <g id="line2d_19">
      <g>
       <use xlink:href="#m453fb9884c" x="262.505" y="22.498783" style="stroke: #000000; stroke-width: 0.8"/>
      </g>
     </g>
     <g id="text_21">
      <!-- 200 -->
      <g transform="translate(236.4175 26.298001)scale(0.1 -0.1)">
       <use xlink:href="#DejaVuSans-32"/>
       <use xlink:href="#DejaVuSans-30" x="63.623047"/>
       <use xlink:href="#DejaVuSans-30" x="127.246094"/>
      </g>
     </g>
    </g>
    <g id="text_22">
     <!-- Gold -->
     <g transform="translate(221.958125 103.916875)rotate(-90)scale(0.1 -0.1)">
      <defs>
       <path id="DejaVuSans-47" d="M 3809 666 
L 3809 1919 
L 2778 1919 
L 2778 2438 
L 4434 2438 
L 4434 434 
Q 4069 175 3628 42 
Q 3188 -91 2688 -91 
Q 1594 -91 976 548 
Q 359 1188 359 2328 
Q 359 3472 976 4111 
Q 1594 4750 2688 4750 
Q 3144 4750 3555 4637 
Q 3966 4525 4313 4306 
L 4313 3634 
Q 3963 3931 3569 4081 
Q 3175 4231 2741 4231 
Q 1884 4231 1454 3753 
Q 1025 3275 1025 2328 
Q 1025 1384 1454 906 
Q 1884 428 2741 428 
Q 3075 428 3337 486 
Q 3600 544 3809 666 
z
" transform="scale(0.015625)"/>
       <path id="DejaVuSans-6c" d="M 603 4863 
L 1178 4863 
L 1178 0 
L 603 0 
L 603 4863 
z
" transform="scale(0.015625)"/>
      </defs>
      <use xlink:href="#DejaVuSans-47"/>
      <use xlink:href="#DejaVuSans-6f" x="77.490234"/>
      <use xlink:href="#DejaVuSans-6c" x="138.671875"/>
      <use xlink:href="#DejaVuSans-64" x="166.455078"/>
     </g>
    </g>
   </g>
   <g id="line2d_20">
    <path d="M 269.297507 156.23941 
L 269.495911 105.107987 
L 269.906891 157.492073 
L 269.921063 165.130679 
L 270.119467 140.236768 
L 270.133639 155.696062 
L 270.247012 117.903078 
L 270.332043 134.97117 
L 270.402901 115.144112 
L 270.502103 134.004369 
L 270.700507 103.85251 
L 270.955599 133.725688 
L 271.054801 130.412478 
L 271.083144 106.258095 
L 271.465781 120.79882 
L 271.508296 99.528228 
L 271.536639 115.639128 
L 271.678356 143.442049 
L 271.947619 123.717944 
L 272.11768 126.34892 
L 272.146023 119.97874 
L 272.486145 144.109024 
L 272.69872 139.655123 
L 272.712892 133.609476 
L 272.911296 113.54637 
L 273.081357 114.937 
L 273.123872 145.148653 
L 273.237246 135.532212 
L 273.279761 112.536784 
L 273.421478 131.409079 
L 273.719085 147.548794 
L 273.804115 116.476312 
L 274.144236 126.05774 
L 274.314297 115.390045 
L 274.597731 166.096141 
L 274.711105 159.689266 
L 274.767792 132.769557 
L 274.937853 139.612245 
L 274.966196 127.425143 
L 275.122085 120.355418 
L 275.221287 150.971034 
L 275.419691 149.908696 
L 275.433863 159.071291 
L 275.462206 130.309874 
L 275.561409 104.53964 
L 275.773984 140.94873 
L 275.972388 122.790571 
L 276.142449 115.631475 
L 276.468399 134.735612 
L 276.510914 148.305183 
L 276.525086 123.17665 
L 276.567601 133.450488 
L 276.836864 86.230159 
L 276.89355 112.862671 
L 277.205328 144.91112 
L 277.290359 135.449075 
L 277.602137 114.751077 
L 277.687167 144.483001 
L 278.069804 152.685515 
L 278.154834 114.665872 
L 278.268208 121.498151 
L 278.353238 121.646058 
L 278.36741 132.914781 
L 278.565814 125.641878 
L 278.693359 108.51432 
L 278.806733 112.054087 
L 279.075996 99.27181 
L 279.515319 134.959261 
L 279.60035 134.209315 
L 280.068016 116.749108 
L 280.408138 135.760618 
L 280.649057 102.917948 
L 280.677401 118.508074 
L 281.031694 166.62 
L 281.385987 141.364639 
L 281.584391 166.307224 
L 281.952856 121.35412 
L 282.009543 141.786167 
L 282.420523 127.06432 
L 282.590583 134.250325 
L 282.689785 117.135754 
L 283.398371 113.949893 
L 283.625119 136.560441 
L 283.781008 126.99217 
L 283.809351 148.246267 
L 283.936897 127.642812 
L 284.20616 139.500427 
L 284.404564 125.703463 
L 284.418735 143.869285 
L 284.503766 113.445672 
L 284.631311 110.975821 
L 284.858059 93.740527 
L 284.985604 135.290154 
L 285.127322 153.954801 
L 285.283211 115.326123 
L 285.311554 141.358912 
L 285.481615 123.549694 
L 285.552473 129.655119 
L 285.566645 85.241651 
L 285.878423 120.593448 
L 286.02014 106.303897 
L 286.147686 109.037047 
L 286.161857 126.819084 
L 286.501979 142.577209 
L 286.601181 138.558141 
L 286.898787 115.839251 
L 286.969646 82.08864 
L 287.012161 99.399751 
L 287.054676 127.932813 
L 287.111363 111.559538 
L 287.196393 118.728391 
L 287.25308 111.703077 
L 287.323939 70.545719 
L 287.975838 131.919084 
L 288.018353 92.764212 
L 288.301788 95.324593 
L 288.514363 120.337182 
L 288.57105 102.170894 
L 288.726939 103.103714 
L 288.741111 126.985809 
L 289.322152 107.302152 
L 289.619758 105.460502 
L 289.63393 127.810684 
L 289.903192 113.329291 
L 290.12994 115.42187 
L 290.158283 142.514119 
L 290.356687 88.059758 
L 290.413374 95.360577 
L 290.640122 79.376839 
L 290.725152 119.258076 
L 290.895213 118.61864 
L 291.03693 159.897575 
L 291.178647 109.286858 
L 291.221163 119.054648 
L 291.419567 106.769637 
L 291.53294 81.054872 
L 291.575456 99.078193 
L 291.703001 70.052945 
L 291.929749 87.689906 
L 291.958092 73.918913 
L 292.411587 114.859843 
L 292.439931 99.132129 
L 292.907598 111.013711 
L 293.035143 105.637852 
L 293.120173 89.735107 
L 293.247719 102.677123 
L 293.361093 99.915808 
L 293.389436 92.219174 
L 293.488638 125.682596 
L 293.58784 127.036548 
L 293.970477 101.150585 
L 294.395629 127.423909 
L 294.423972 113.624813 
L 294.594033 131.229041 
L 294.749922 87.304067 
L 295.415993 119.773389 
L 295.47268 110.386283 
L 295.600225 109.905035 
L 295.671084 89.546077 
L 295.699427 93.07655 
L 295.997033 90.947129 
L 296.152922 107.588113 
L 296.195437 101.634654 
L 296.294639 93.886184 
L 296.507215 100.764914 
L 296.521387 125.606381 
L 296.677276 123.644786 
L 296.733963 120.714837 
L 296.804821 125.85868 
L 296.833165 88.960528 
L 297.017397 59.22074 
L 297.031569 108.822529 
L 297.102428 105.431786 
L 297.258317 84.615354 
L 297.28666 101.446057 
L 297.400034 84.902892 
L 298.576287 129.028238 
L 298.703832 90.069873 
L 298.84555 94.381574 
L 299.001439 102.620843 
L 299.128984 96.531023 
L 299.199843 75.330761 
L 299.214014 86.418646 
L 299.284873 110.081522 
L 299.384075 91.290391 
L 299.554136 90.882821 
L 299.979287 67.184565 
L 300.333581 105.440541 
L 300.546156 100.883004 
L 300.631187 77.97565 
L 301.042167 105.990635 
L 301.56652 110.049101 
L 301.906642 122.125673 
L 302.105046 70.429081 
L 302.430996 98.532303 
L 302.671915 107.438685 
L 303.097067 94.852181 
L 303.153753 103.907251 
L 303.167925 91.933636 
L 303.763138 91.668805 
L 304.018229 87.785992 
L 304.131602 117.698671 
L 304.174118 100.686567 
L 304.457552 94.732331 
L 304.570926 78.627153 
L 304.641784 93.180861 
L 304.712643 90.983638 
L 304.911047 84.045284 
L 304.939391 90.029577 
L 305.09528 93.6143 
L 305.605462 89.452798 
L 305.761351 91.361359 
L 305.775522 104.368007 
L 305.917239 99.946769 
L 306.073128 108.289503 
L 306.17233 118.705574 
L 306.469937 65.355082 
L 306.58331 113.642519 
L 306.639997 120.018282 
L 306.654169 101.498431 
L 306.696684 103.4292 
L 306.965947 86.718687 
L 307.079321 122.933593 
L 307.093492 114.296593 
L 307.136008 100.056688 
L 307.23521 107.411372 
L 307.306068 86.93826 
L 307.348584 134.788247 
L 307.40527 93.768419 
L 307.532816 118.109977 
L 307.688705 106.504435 
L 307.745392 117.519953 
L 307.915452 107.354189 
L 307.929624 97.626846 
L 307.986311 110.486862 
L 308.05717 112.744477 
L 308.071341 106.24362 
L 308.255574 100.042386 
L 308.354776 113.960695 
L 308.46815 98.39666 
L 308.709069 117.634027 
L 309.091705 77.669182 
L 309.403483 85.55455 
L 309.545201 77.097473 
L 309.78612 122.931254 
L 309.800292 90.740168 
L 310.069554 97.420417 
L 310.593908 87.9807 
L 310.636423 75.142387 
L 310.820656 53.823543 
L 311.075747 89.547228 
L 311.118262 71.203889 
L 311.217464 73.196438 
L 311.373353 81.064387 
L 311.557585 95.155589 
L 311.699303 81.018685 
L 312.025252 117.012657 
L 312.237828 109.980875 
L 312.42206 94.059404 
L 312.932242 88.486889 
L 312.946414 85.975661 
L 313.116475 99.678774 
L 313.229849 132.317044 
L 313.24402 93.464346 
L 313.385738 93.887097 
L 313.442424 127.125079 
L 313.470768 110.104557 
L 313.541627 71.668781 
L 313.56997 80.650171 
L 313.810889 94.449766 
L 314.207698 92.54945 
L 314.576162 106.926088 
L 314.647021 106.450575 
L 314.831253 88.337017 
L 314.873768 112.8439 
L 314.902112 104.035027 
L 315.171375 72.980183 
L 315.554011 108.014675 
L 316.092537 98.418864 
L 316.574375 96.182026 
L 316.801123 86.425568 
L 317.056214 111.96121 
L 317.197931 95.683993 
L 317.212103 122.145515 
L 317.325477 114.581614 
L 317.481366 95.108815 
L 317.793143 109.889134 
L 317.906517 108.609337 
L 317.977376 110.404799 
L 318.289154 103.74219 
L 318.600932 105.501525 
L 318.615103 110.999609 
L 318.629275 95.537656 
L 318.714305 81.713256 
L 318.742649 90.895911 
L 318.841851 94.10984 
L 319.210316 90.187085 
L 319.550437 80.369545 
L 319.663811 105.568502 
L 319.777185 105.414573 
L 319.8197 101.434763 
L 319.918902 115.18472 
L 320.074791 77.372772 
L 320.088963 85.450807 
L 320.259023 92.204054 
L 320.457427 57.117101 
L 320.485771 80.604713 
L 320.684175 96.677246 
L 321.024296 97.255003 
L 321.066811 87.922805 
L 321.166014 111.190667 
L 321.534478 64.043624 
L 321.917115 126.265983 
L 322.313923 99.759191 
L 322.328095 106.746401 
L 322.356438 99.096664 
L 322.427297 86.884843 
L 322.441469 99.996988 
L 322.540671 100.660304 
L 322.569014 87.992965 
L 322.838277 106.09606 
L 322.951651 94.768643 
L 323.773611 52.143681 
L 323.801954 80.546559 
L 324.071217 90.012943 
L 324.113732 78.657911 
L 324.538884 81.974671 
L 324.723116 73.895258 
L 324.978207 99.012995 
L 325.020722 66.104191 
L 325.261642 88.236977 
L 325.445874 112.659828 
L 325.573419 98.362124 
L 325.65845 71.484864 
L 326.097773 39.643911 
L 326.126117 27.93873 
L 326.409551 104.964827 
L 326.494581 110.811764 
L 326.593784 78.085629 
L 327.118137 84.578611 
L 327.47243 98.628959 
L 327.557461 50.826888 
L 327.642491 50.921597 
L 327.685006 72.827809 
L 327.996784 68.717179 
L 328.138501 99.246783 
L 328.492794 76.281277 
L 328.648683 94.042348 
L 328.861259 68.851247 
L 329.144694 103.807284 
L 329.413956 97.507125 
L 329.456472 109.323264 
L 329.569845 55.086816 
L 329.909967 79.894113 
L 330.43432 61.095126 
L 330.505179 75.266848 
L 330.576038 67.8883 
L 330.661068 73.157677 
L 331.25628 93.509936 
L 331.298796 61.373881 
L 331.525543 81.533738 
L 331.638917 108.219361 
L 331.695604 95.125417 
L 331.90818 104.563732 
L 331.936523 75.33797 
L 332.092412 84.738626 
L 332.361675 80.290999 
L 332.531736 69.646752 
L 332.857685 72.65144 
L 332.942715 68.65545 
L 332.999402 113.246373 
L 333.211978 92.958937 
L 333.367867 89.784269 
L 333.509584 52.778876 
L 333.566271 61.700053 
L 333.63713 57.531443 
L 333.920564 49.28028 
L 334.175655 58.509338 
L 334.515777 68.192497 
L 334.600807 81.096379 
L 335.125161 78.341352 
L 335.252706 51.492985 
L 335.266878 37.694384 
L 335.309393 84.46287 
L 335.380252 70.54606 
L 335.536141 70.722806 
L 335.649515 59.567711 
L 335.819575 69.260196 
L 335.932949 59.616646 
L 335.947121 64.093272 
L 336.032151 96.50672 
L 336.074666 68.031233 
L 336.27307 65.355834 
L 336.372272 89.657596 
L 336.68405 98.72406 
L 336.783252 97.971388 
L 336.868283 73.591497 
L 336.92497 111.048055 
L 336.939141 104.528177 
L 337.321778 109.537241 
L 337.406808 115.858001 
L 337.463495 91.629616 
L 337.690243 68.567638 
L 337.761101 98.309597 
L 337.775273 64.175458 
L 337.874475 66.249704 
L 337.888647 95.578928 
L 338.143738 85.653636 
L 338.427172 103.491999 
L 338.611405 81.693037 
L 338.823981 75.745944 
L 339.093243 91.61159 
L 339.14993 91.556089 
L 339.305819 61.412338 
L 339.376678 86.033981 
L 339.816001 100.820881 
L 339.957718 77.953907 
L 339.97189 99.675399 
L 340.425385 75.309597 
L 340.765507 80.241913 
L 340.963911 80.846528 
L 341.034769 77.693057 
L 341.219002 90.610537 
L 341.233174 87.840633 
L 341.346547 86.871167 
L 341.445749 123.176667 
L 341.970103 113.820822 
L 342.02679 99.32932 
L 342.083477 100.987468 
L 342.253538 93.41431 
L 342.281881 105.08654 
L 342.296053 88.420452 
L 342.749548 94.925973 
L 343.004639 71.122505 
L 343.103841 96.261687 
L 343.188871 102.718035 
L 343.288073 96.56504 
L 343.472306 99.459122 
L 343.684882 89.815942 
L 343.699053 71.297939 
L 343.75574 76.033594 
L 343.812427 77.691073 
L 343.854942 75.466952 
L 344.152548 92.635639 
L 344.280094 75.64992 
L 344.308437 97.747308 
L 344.606044 98.190372 
L 344.691074 78.65444 
L 344.747761 80.290913 
L 344.832791 42.16518 
L 345.229599 36.112195 
L 345.342973 60.621532 
L 345.668923 40.889375 
L 345.796468 59.221271 
L 345.81064 35.912501 
L 346.009044 94.495319 
L 346.108246 70.131482 
L 346.505055 58.619569 
L 346.604257 40.014798 
L 347.241984 39.846344 
L 347.327014 49.74984 
L 347.482903 36.100552 
L 347.511247 42.402292 
L 347.823025 60.872487 
L 348.134803 61.728578 
L 348.659156 62.589057 
L 349.211854 76.350572 
L 349.353571 40.225213 
L 349.551975 38.798294 
L 349.835409 24.838525 
L 350.203874 30.945736 
L 350.444794 44.340988 
L 350.586511 26.778468 
L 350.799087 54.767029 
L 350.82743 73.612862 
L 350.841602 44.875493 
L 351.040006 33.695718 
L 351.167551 38.195514 
L 351.280925 34.161964 
L 351.890309 45.088873 
L 352.372148 67.982117 
L 352.598895 56.921968 
L 353.534229 55.859114 
L 353.605088 114.936981 
L 353.647603 113.74117 
L 353.760977 76.86753 
L 354.001896 63.400908 
L 354.129442 68.222003 
L 354.313674 58.189361 
L 354.398704 57.424397 
L 354.412876 43.135464 
L 354.908886 47.668751 
L 355.02226 44.768618 
L 355.390725 55.309756 
L 355.787533 73.241969 
L 355.872564 59.000604 
L 356.2552 57.097733 
L 356.283543 73.867761 
L 356.652008 62.911837 
L 357.459797 57.10102 
L 357.516483 103.032996 
L 357.714888 63.7717 
L 357.828261 73.39941 
L 358.22507 62.747914 
L 358.253413 52.850565 
L 358.352615 54.99497 
L 358.465989 51.819578 
L 358.480161 68.094472 
L 358.522676 60.891186 
L 358.72108 58.370035 
L 358.919484 50.757459 
L 358.976171 42.48458 
L 358.990343 51.927723 
L 359.004514 55.232824 
L 359.358807 56.93619 
L 359.429666 56.985787 
L 359.458009 110.283686 
L 359.500525 75.657411 
L 360.024878 130.279102 
L 360.279969 103.407174 
L 360.549232 119.800998 
L 360.634262 59.919645 
L 360.77598 58.029996 
L 360.974384 57.368619 
L 361.229475 57.137137 
L 361.27199 38.548141 
L 361.286162 43.258949 
L 361.923889 56.806104 
L 362.00892 40.675671 
L 362.079778 42.32104 
L 362.09395 51.870485 
L 362.334869 56.382597 
L 362.561617 56.792029 
L 362.632475 51.326853 
L 362.703334 68.482866 
L 362.760021 61.027123 
L 362.986769 58.417614 
L 363.185173 102.932956 
L 363.468607 73.084655 
L 363.638668 136.669658 
L 363.808728 84.892501 
L 364.304739 57.796931 
L 364.403941 88.133675 
L 364.503143 84.716954 
L 364.531486 54.931251 
L 364.616517 65.818471 
L 364.673204 54.486107 
L 364.899951 79.683865 
L 365.05584 57.095604 
L 365.084184 64.332603 
L 365.268416 55.087749 
L 365.395961 42.317638 
L 365.636881 44.578272 
L 365.906143 43.126103 
L 366.20375 56.220817 
L 366.317123 56.915513 
L 366.444669 56.97855 
L 366.543871 37.931788 
L 366.600558 50.334246 
L 366.671417 18.22 
L 367.224114 35.022404 
L 367.252457 42.585788 
L 367.294972 42.428734 
L 367.450861 48.54309 
L 367.550063 119.667394 
L 367.861841 78.941708 
L 368.088589 64.687718 
L 368.315336 59.698822 
L 368.414538 46.545248 
L 368.457054 52.788109 
L 368.612943 40.951916 
L 368.697973 51.391291 
L 368.83969 35.4154 
L 368.853862 19.167729 
L 369.066438 28.063087 
L 369.193983 26.68968 
L 369.208155 66.029181 
L 369.675822 42.221204 
L 370.001771 43.983673 
L 370.100974 46.843928 
L 370.228519 56.888539 
L 370.767045 49.678088 
L 370.965449 28.660529 
L 371.078822 50.735138 
L 371.121338 52.572028 
L 371.376429 55.45833 
L 371.63152 56.468536 
L 371.971641 56.822108 
L 372.028328 79.940618 
L 372.198389 72.889206 
L 372.325934 62.569342 
L 372.807773 57.250743 
L 373.4455 57.016068 
L 373.473844 41.870854 
L 373.516359 51.712919 
L 373.643904 56.363295 
L 373.785622 56.785274 
L 373.898995 57.493814 
L 374.451693 79.78579 
L 374.607581 97.512319 
L 374.664268 36.819698 
L 374.706784 37.045516 
L 374.961875 50.584899 
L 375.018561 39.619945 
L 375.075248 47.560014 
L 375.103592 54.264973 
L 375.273652 56.611709 
L 375.613774 57.433066 
L 375.783835 44.260194 
L 375.897208 45.819015 
L 375.982239 41.316972 
L 376.279845 62.615434 
L 376.364875 60.095218 
L 376.449905 66.504164 
L 376.619966 39.022362 
L 376.747512 50.715947 
L 376.846714 41.348355 
L 376.945916 52.65174 
L 376.974259 28.004688 
L 377.045118 45.242617 
L 377.484441 52.893036 
L 377.498613 55.570683 
L 377.569472 49.216838 
L 377.583643 54.284014 
L 377.810391 56.895509 
L 378.150512 56.971549 
L 378.660694 53.633076 
L 378.745725 44.051893 
L 378.759896 54.719674 
L 378.78824 46.114746 
L 379.156705 49.833195 
L 379.170876 47.769565 
L 379.227563 55.438422 
L 379.69523 56.461568 
L 379.709402 44.481018 
L 380.077867 57.159931 
L 380.318786 57.064096 
L 380.375473 48.056989 
L 380.559705 55.915444 
L 380.573877 54.945982 
L 380.658907 39.46378 
L 380.743938 50.870444 
L 380.942342 54.862776 
L 381.126574 56.260092 
L 381.211604 42.16711 
L 381.395837 51.816609 
L 381.42418 77.066997 
L 381.438352 53.375461 
L 381.594241 46.75212 
L 381.707615 55.755597 
L 382.033564 77.323948 
L 382.416201 64.121502 
L 382.515403 80.252015 
L 383.025585 58.288961 
L 383.039757 53.533322 
L 383.0681 55.794783 
L 383.379878 56.863323 
L 383.47908 56.960284 
L 383.535767 47.459807 
L 383.705828 45.817184 
L 383.819202 59.567002 
L 383.97509 53.419789 
L 384.343555 52.950808 
L 384.456929 66.807859 
L 384.62699 60.440871 
L 384.655333 36.900209 
L 384.726192 49.973194 
L 384.967111 56.710683 
L 385.335576 56.999553 
L 385.44895 53.082029 
L 385.463121 37.128854 
L 385.675697 60.709327 
L 385.689869 55.502146 
L 385.85993 66.018284 
L 385.874101 91.571996 
L 386.228394 62.938993 
L 386.540172 59.086768 
L 386.625203 53.812555 
L 386.667718 80.00897 
L 386.738576 59.829561 
L 386.809435 57.998467 
L 386.880294 46.701476 
L 387.603052 38.503324 
L 387.758941 50.534284 
L 387.886486 29.354303 
L 387.957345 47.332126 
L 388.070718 38.481474 
L 388.240779 37.066289 
L 388.439183 42.179453 
L 388.510042 33.873799 
L 388.793476 36.014451 
L 389.076911 36.202831 
L 389.147769 60.324169 
L 389.572921 45.832928 
L 389.757154 47.491167 
L 389.998073 46.389008 
L 390.253164 55.318523 
L 390.46574 44.550457 
L 390.479911 38.068738 
L 390.593285 50.382179 
L 390.763346 47.400862 
L 391.131811 45.796553 
L 391.202669 41.869958 
L 391.37273 39.373954 
L 391.500275 53.812346 
L 391.953771 50.844811 
L 392.010457 54.853804 
L 392.449781 56.256952 
L 392.534811 51.700423 
L 392.719044 47.862247 
L 392.789902 41.471256 
L 392.874933 45.964582 
L 393.158367 36.881138 
L 393.271741 26.410911 
L 393.300084 46.301939 
L 393.455973 20.734627 
L 393.994499 53.738967 
L 394.022842 39.602173 
L 394.122044 43.067012 
L 394.235418 63.34853 
L 394.306277 40.542588 
L 394.41965 50.687178 
L 394.873146 53.676937 
L 394.944004 44.067245 
L 395.043206 52.481656 
L 395.199095 34.114484 
L 395.383328 43.775718 
L 395.539217 41.723514 
L 395.610075 30.349134 
L 395.666762 47.680317 
L 395.936025 37.481645 
L 396.30449 36.155501 
L 396.361176 49.712546 
L 396.573752 37.442018 
L 396.587924 39.506719 
L 396.644611 48.081233 
L 396.871359 31.45264 
L 397.098106 44.701458 
L 397.253995 44.290914 
L 397.608288 61.371044 
L 397.70749 58.537986 
L 397.778349 53.059633 
L 398.44442 47.216275 
L 398.501107 49.097034 
L 398.94043 54.242082 
L 399.053804 59.968784 
L 399.067976 58.608043 
L 399.096319 76.63976 
L 399.110491 63.882037 
L 399.223865 59.416833 
L 399.478956 57.307025 
L 399.521471 47.581167 
L 399.663188 55.857155 
L 399.734047 105.962731 
L 399.790733 58.441338 
L 399.918279 57.512589 
L 399.989138 42.659966 
L 400.102511 51.989109 
L 400.300916 46.280744 
L 400.357602 53.256381 
L 400.371774 39.994115 
L 400.9103 41.521648 
L 401.08036 44.860524 
L 401.207906 55.523877 
L 401.349623 56.491477 
L 401.420482 42.590965 
L 401.448825 49.160719 
L 401.505512 82.306762 
L 401.548027 64.182944 
L 401.774775 57.890873 
L 401.873977 57.319926 
L 401.959007 53.19416 
L 401.973179 55.676076 
L 402.058209 56.544747 
L 402.129068 55.727086 
L 402.270785 56.562601 
L 402.412502 49.564009 
L 402.497533 54.405524 
L 402.582563 43.200554 
L 402.710108 48.813228 
L 403.036058 56.008083 
L 403.064402 44.322298 
L 403.234462 43.59736 
L 403.362008 36.664865 
L 403.475382 54.519909 
L 403.702129 33.145329 
L 403.716301 92.965961 
L 403.758816 38.422033 
L 404.155624 43.775659 
L 404.198139 36.675863 
L 404.212311 45.968738 
L 404.410715 53.147179 
L 404.665806 32.674918 
L 404.807523 29.986365 
L 404.878382 44.188261 
L 405.147645 51.402316 
L 405.147645 51.402316 
" clip-path="url(#p89d4e50e13)" style="fill: none; stroke: #fece65; stroke-width: 1.5; stroke-linecap: square"/>
   </g>
   <g id="line2d_21">
    <path d="M 269.297507 156.23941 
L 269.495911 121.021338 
L 269.807689 133.243046 
L 269.921063 147.965779 
L 270.119467 144.087523 
L 270.133639 147.292877 
L 270.402901 136.353845 
L 270.502103 137.216932 
L 270.757194 128.794912 
L 270.955599 130.13706 
L 271.054801 130.011236 
L 271.083144 127.072917 
L 271.465781 127.192481 
L 271.508296 124.292626 
L 271.564983 125.494632 
L 271.678356 127.103812 
L 271.947619 126.183759 
L 272.11768 126.285063 
L 272.146023 125.67616 
L 272.712892 128.304546 
L 273.081357 126.199719 
L 273.237246 128.282192 
L 273.279761 126.761812 
L 273.719085 129.060323 
L 273.804115 127.117505 
L 274.144236 127.325596 
L 274.314297 126.43772 
L 274.711105 132.113427 
L 274.767792 131.449734 
L 274.937853 132.013407 
L 274.966196 131.486863 
L 275.122085 130.786519 
L 275.221287 132.49395 
L 275.419691 133.273072 
L 275.433863 134.685848 
L 275.462206 133.778152 
L 275.561409 131.81905 
L 275.773984 133.117663 
L 276.142449 130.101835 
L 276.468399 130.75765 
L 276.510914 132.419671 
L 276.567601 131.75705 
L 276.794348 129.424522 
L 276.89355 126.478167 
L 277.063611 127.121989 
L 277.205328 128.823234 
L 277.290359 128.888041 
L 277.602137 127.820265 
L 277.687167 129.420914 
L 278.069804 130.582544 
L 278.140662 130.175463 
L 278.268208 128.971672 
L 278.353238 128.669832 
L 278.36741 129.098711 
L 278.565814 128.792573 
L 278.806733 127.006119 
L 279.075996 125.575043 
L 279.458632 126.484793 
L 279.60035 127.21213 
L 279.784582 127.128423 
L 280.068016 126.445587 
L 280.238077 126.55166 
L 280.323107 126.353999 
L 280.408138 127.011968 
L 280.634885 125.525997 
L 280.649057 124.524944 
L 280.677401 124.621984 
L 281.031694 128.194699 
L 281.385987 128.177228 
L 281.584391 131.414056 
L 281.796967 131.581342 
L 281.952856 130.620557 
L 282.009543 131.520146 
L 282.420523 131.017919 
L 282.590583 131.305792 
L 282.689785 130.358358 
L 283.398371 129.624469 
L 283.46923 129.344441 
L 283.724321 129.858262 
L 283.781008 129.634278 
L 283.809351 130.848101 
L 283.936897 130.270844 
L 284.20616 130.900954 
L 284.404564 130.391596 
L 284.418735 131.329557 
L 284.503766 129.974253 
L 284.801372 127.709184 
L 284.886402 125.689355 
L 285.184009 128.697198 
L 285.283211 127.618954 
L 285.311554 128.734791 
L 285.481615 128.140978 
L 285.552473 128.333926 
L 285.566645 125.64183 
L 285.736706 125.380543 
L 285.878423 125.476333 
L 286.02014 123.920187 
L 286.147686 123.381804 
L 286.161857 123.904086 
L 286.601181 125.451457 
L 286.898787 124.574976 
L 287.012161 120.840815 
L 287.111363 120.979561 
L 287.196393 121.044074 
L 287.25308 120.517918 
L 287.323939 117.626228 
L 287.635717 117.61762 
L 287.74909 117.159772 
L 287.975838 118.345606 
L 288.018353 116.475534 
L 288.301788 115.683227 
L 288.514363 116.409364 
L 288.57105 115.446966 
L 288.726939 114.972578 
L 288.741111 115.969003 
L 289.619758 114.767511 
L 289.63393 115.771976 
L 289.903192 115.296625 
L 290.12994 115.346766 
L 290.158283 117.018892 
L 290.640122 111.311632 
L 290.682637 112.108586 
L 290.725152 112.528159 
L 290.895213 112.758203 
L 291.03693 115.535147 
L 291.178647 114.194079 
L 291.221163 114.599192 
L 291.419567 114.020989 
L 291.575456 110.983314 
L 291.85889 107.720591 
L 291.929749 107.10698 
L 291.958092 105.481962 
L 292.298214 105.855798 
L 292.411587 106.525446 
L 292.439931 105.890655 
L 292.907598 106.351703 
L 293.035143 106.207296 
L 293.120173 105.205459 
L 293.247719 105.38315 
L 293.361093 105.104872 
L 293.389436 104.423412 
L 293.431951 105.461018 
L 293.58784 107.309716 
L 293.970477 106.505549 
L 294.395629 107.908603 
L 294.423972 107.84002 
L 294.594033 109.155123 
L 294.749922 106.960678 
L 295.415993 108.172831 
L 295.47268 108.059157 
L 295.600225 108.122642 
L 295.699427 106.462183 
L 295.997033 105.79558 
L 296.152922 106.225787 
L 296.294639 104.854705 
L 296.507215 104.839268 
L 296.521387 106.205219 
L 296.733963 107.351787 
L 296.804821 108.202974 
L 296.833165 106.638333 
L 297.017397 104.100748 
L 297.031569 105.358123 
L 297.102428 105.28803 
L 297.400034 103.141276 
L 298.576287 105.12735 
L 298.703832 103.685806 
L 298.84555 103.406477 
L 299.001439 103.552527 
L 299.128984 103.140465 
L 299.214014 101.204004 
L 299.270701 101.921386 
L 299.284873 102.299422 
L 299.384075 101.454269 
L 299.554136 101.022603 
L 299.979287 99.158535 
L 300.333581 100.233858 
L 300.546156 100.161657 
L 300.631187 98.780748 
L 300.971308 99.353441 
L 301.042167 99.730645 
L 301.56652 100.230822 
L 301.906642 101.366783 
L 302.062531 100.351865 
L 302.105046 98.687242 
L 302.289278 98.60788 
L 302.671915 99.378034 
L 303.097067 98.925888 
L 303.153753 99.320189 
L 303.167925 98.766814 
L 303.763138 98.47718 
L 304.018229 97.658849 
L 304.131602 99.104759 
L 304.174118 98.801608 
L 304.457552 98.510584 
L 304.570926 97.368335 
L 304.641784 97.514304 
L 304.939391 96.398747 
L 305.761351 95.720547 
L 305.775522 96.3466 
L 305.917239 96.395381 
L 306.17233 98.539938 
L 306.356563 97.707157 
L 306.469937 95.837747 
L 306.484108 96.666195 
L 306.639997 98.699913 
L 306.696684 98.655199 
L 306.965947 97.817811 
L 307.093492 100.004216 
L 307.136008 99.699606 
L 307.23521 100.16649 
L 307.277725 99.855389 
L 307.306068 99.108051 
L 307.348584 101.565895 
L 307.40527 100.370482 
L 307.617846 101.684418 
L 307.688705 101.830309 
L 307.745392 102.695159 
L 307.915452 102.662565 
L 307.929624 102.251621 
L 307.986311 102.85802 
L 308.05717 103.302106 
L 308.071341 103.279748 
L 308.255574 103.016687 
L 308.354776 103.896712 
L 308.46815 103.20159 
L 308.609867 103.528391 
L 308.709069 104.325314 
L 309.091705 102.39828 
L 309.403483 101.894368 
L 309.545201 100.720335 
L 309.78612 102.595968 
L 309.800292 101.428385 
L 310.069554 101.411949 
L 310.593908 100.67138 
L 310.820656 97.092511 
L 311.075747 97.560134 
L 311.259979 94.432934 
L 311.373353 94.040554 
L 311.557585 94.388659 
L 311.699303 93.549371 
L 312.025252 95.263161 
L 312.237828 95.700416 
L 312.42206 95.291851 
L 312.932242 94.899628 
L 312.946414 94.488581 
L 313.116475 94.991333 
L 313.229849 98.368462 
L 313.24402 97.335468 
L 313.385738 97.206639 
L 313.470768 99.419954 
L 313.56997 97.002226 
L 313.810889 97.19735 
L 314.278556 97.028842 
L 314.647021 98.341105 
L 314.831253 97.550802 
L 314.902112 98.714425 
L 315.171375 96.746849 
L 315.511496 97.469894 
L 315.554011 98.060476 
L 316.574375 97.75251 
L 316.801123 97.089292 
L 317.056214 98.643898 
L 317.197931 98.124526 
L 317.325477 100.089444 
L 317.481366 99.470805 
L 317.736457 100.265771 
L 317.977376 101.41334 
L 318.289154 101.362992 
L 318.600932 101.675518 
L 318.615103 102.166902 
L 318.629275 101.568705 
L 318.841851 100.113244 
L 319.210316 99.631707 
L 319.465407 98.755267 
L 319.550437 97.982913 
L 319.777185 99.089187 
L 319.8197 99.097291 
L 319.918902 100.036942 
L 320.088963 97.975346 
L 320.259023 97.889948 
L 320.443256 95.909713 
L 320.485771 94.177214 
L 320.684175 94.623393 
L 321.024296 94.741101 
L 321.066811 94.267368 
L 321.2227 96.830953 
L 321.279387 96.854075 
L 321.534478 94.811733 
L 321.676196 95.12899 
L 321.846256 95.916749 
L 321.917115 97.570354 
L 322.313923 97.086992 
L 322.328095 97.623862 
L 322.356438 97.518011 
L 322.427297 96.82966 
L 322.441469 97.238769 
L 322.540671 97.389917 
L 322.569014 96.741204 
L 322.838277 97.781924 
L 322.852449 97.635236 
L 322.909136 98.012121 
L 322.951651 97.683657 
L 323.2776 96.643544 
L 323.773611 93.507478 
L 323.801954 93.600795 
L 324.071217 93.4699 
L 324.113732 92.63285 
L 324.538884 92.277961 
L 324.808146 90.518307 
L 324.978207 91.248897 
L 325.020722 89.534303 
L 325.261642 89.959117 
L 325.445874 91.912583 
L 325.573419 91.862614 
L 325.65845 90.46861 
L 326.097773 87.749816 
L 326.126117 85.105261 
L 326.253662 85.74175 
L 326.494581 88.219135 
L 326.593784 87.108924 
L 327.118137 87.14756 
L 327.47243 87.909439 
L 327.642491 84.019596 
L 327.685006 84.04375 
L 327.996784 83.342151 
L 328.138501 84.635897 
L 328.492794 83.80707 
L 328.648683 84.599028 
L 328.861259 83.426539 
L 329.059663 84.130176 
L 329.144694 85.219833 
L 329.413956 85.575629 
L 329.456472 86.780035 
L 329.513158 85.380891 
L 329.569845 83.831991 
L 329.909967 84.208787 
L 330.505179 82.880077 
L 330.661068 81.876425 
L 331.25628 82.780122 
L 331.298796 81.231711 
L 331.525543 81.678004 
L 331.695604 83.504842 
L 331.90818 84.550484 
L 331.936523 83.552506 
L 332.092412 83.802426 
L 332.361675 83.494047 
L 332.531736 82.710895 
L 332.857685 82.373233 
L 332.942715 81.738454 
L 332.999402 83.959191 
L 333.211978 83.882221 
L 333.367867 84.049925 
L 333.63713 80.3383 
L 333.892221 78.922076 
L 334.062282 76.150455 
L 334.175655 75.453964 
L 334.515777 75.372066 
L 334.600807 75.962082 
L 335.125161 75.997913 
L 335.196019 75.583634 
L 335.266878 72.461334 
L 335.380252 73.512864 
L 335.536141 73.405069 
L 335.947121 71.088633 
L 336.032151 72.803492 
L 336.074666 71.999284 
L 336.27307 71.675922 
L 336.372272 72.918611 
L 336.68405 74.146107 
L 336.783252 75.082907 
L 336.868283 74.498145 
L 336.939141 77.736921 
L 337.321778 79.116821 
L 337.406808 82.019724 
L 337.463495 81.882277 
L 337.690243 80.852972 
L 337.761101 82.775971 
L 337.775273 81.296753 
L 337.874475 80.739547 
L 337.888647 81.964829 
L 338.143738 81.898606 
L 338.427172 83.146552 
L 338.823981 82.215886 
L 339.14993 83.277147 
L 339.249132 82.847807 
L 339.305819 81.607313 
L 339.376678 82.314692 
L 339.816001 83.373426 
L 339.957718 82.664126 
L 339.97189 83.812425 
L 340.425385 82.94751 
L 340.963911 82.874583 
L 341.034769 82.599401 
L 341.374891 84.009953 
L 341.445749 86.208857 
L 342.02679 87.2884 
L 342.083477 87.872077 
L 342.239366 87.949215 
L 342.281881 89.089732 
L 342.296053 88.703999 
L 342.749548 89.092997 
L 342.93378 87.729263 
L 343.004639 86.983784 
L 343.032982 87.648673 
L 343.288073 88.982366 
L 343.472306 89.463771 
L 343.684882 89.270158 
L 343.812427 87.402222 
L 343.854942 86.876907 
L 344.152548 87.477043 
L 344.280094 86.638112 
L 344.308437 87.558423 
L 344.606044 87.993244 
L 344.662731 88.506302 
L 344.691074 87.764255 
L 344.747761 87.500569 
L 344.832791 84.865984 
L 345.31463 81.754541 
L 345.342973 81.14451 
L 345.796468 78.708624 
L 345.81064 76.494744 
L 346.009044 78.476551 
L 346.108246 77.617989 
L 346.405852 76.793769 
L 346.505055 76.002518 
L 346.604257 71.991162 
L 347.241984 70.701741 
L 347.511247 65.593706 
L 347.823025 65.802677 
L 348.134803 65.658152 
L 348.659156 65.553921 
L 349.211854 66.282189 
L 349.353571 64.461826 
L 350.104672 60.447418 
L 350.345591 58.700933 
L 350.444794 58.219231 
L 350.586511 56.583331 
L 350.756571 56.462442 
L 350.799087 56.622499 
L 350.82743 57.708024 
L 350.841602 56.575764 
L 351.280925 53.914209 
L 351.890309 53.796544 
L 352.372148 54.857052 
L 352.598895 55.070983 
L 353.534229 55.079616 
L 353.647603 60.920394 
L 354.001896 60.579501 
L 354.129442 60.98904 
L 354.398704 60.498879 
L 354.412876 59.496581 
L 354.908886 59.121108 
L 355.02226 58.484544 
L 355.34821 58.425662 
L 355.390725 58.11607 
L 355.787533 59.107339 
L 355.84422 59.023545 
L 355.872564 58.943103 
L 356.226857 58.791743 
L 356.2552 58.720573 
L 356.283543 59.687661 
L 357.40311 59.284638 
L 357.459797 59.193752 
L 357.516483 61.936626 
L 357.615685 61.739661 
L 357.714888 61.619601 
L 357.828261 62.29816 
L 358.22507 62.086733 
L 358.352615 61.289934 
L 358.465989 60.842727 
L 358.480161 61.483333 
L 358.522676 61.304499 
L 358.72108 61.132819 
L 358.919484 60.553841 
L 359.004514 59.445879 
L 359.358807 59.165397 
L 359.429666 59.079281 
L 359.458009 62.275412 
L 359.500525 62.064895 
L 360.024878 65.969931 
L 360.279969 66.88864 
L 360.549232 69.358233 
L 360.634262 67.690937 
L 360.974384 66.853747 
L 361.229475 66.460097 
L 361.286162 64.177332 
L 361.668798 63.890738 
L 361.923889 63.097924 
L 362.09395 60.943935 
L 362.561617 60.490782 
L 362.632475 60.006513 
L 362.703334 60.715081 
L 362.760021 60.566978 
L 362.986769 60.424798 
L 363.185173 63.083917 
L 363.468607 62.84106 
L 363.638668 67.163727 
L 364.304739 65.815651 
L 364.503143 68.7786 
L 364.531486 67.583167 
L 364.616517 67.747073 
L 364.673204 66.972553 
L 364.899951 68.023727 
L 365.395961 65.222943 
L 366.444669 62.109684 
L 366.671417 58.197304 
L 367.224114 57.632206 
L 367.294972 56.599289 
L 367.450861 56.408735 
L 367.550063 60.470989 
L 368.315336 60.072349 
L 368.612943 57.777539 
L 368.697973 57.746937 
L 368.83969 56.50958 
L 368.853862 54.665956 
L 369.066438 53.793433 
L 369.193983 52.679702 
L 369.208155 54.060994 
L 369.675822 53.074615 
L 370.100974 52.574343 
L 370.143489 52.751869 
L 370.228519 52.991322 
L 370.767045 52.70349 
L 370.951277 51.598843 
L 370.965449 50.572895 
L 370.993792 50.830479 
L 371.971641 51.703135 
L 372.028328 53.330572 
L 372.325934 54.083099 
L 372.722742 54.312763 
L 372.807773 54.420752 
L 373.232924 54.623945 
L 373.261268 54.719487 
L 373.4455 54.811207 
L 373.473844 53.967388 
L 373.516359 54.089192 
L 373.898995 54.564111 
L 374.35249 55.697458 
L 374.607581 58.796347 
L 374.706784 55.280122 
L 374.961875 55.383931 
L 375.075248 54.409932 
L 375.103592 54.548549 
L 375.613774 54.809369 
L 375.982239 53.209344 
L 376.251501 53.709071 
L 376.364875 54.368418 
L 376.449905 54.991887 
L 376.619966 53.76119 
L 376.747512 53.891242 
L 376.846714 53.187763 
L 376.945916 53.40978 
L 377.045118 51.360819 
L 377.484441 51.586886 
L 377.498613 51.80391 
L 377.569472 51.563575 
L 377.583643 51.781532 
L 377.767876 51.99077 
L 377.810391 52.384474 
L 378.150512 52.569594 
L 378.660694 52.540228 
L 378.78824 51.89904 
L 379.156705 51.896496 
L 379.170876 51.686972 
L 379.227563 52.102014 
L 379.69523 52.298433 
L 379.709402 51.727693 
L 380.318786 52.43624 
L 380.375473 52.067071 
L 380.573877 52.533559 
L 380.658907 51.677305 
L 380.743938 51.890712 
L 381.126574 52.29226 
L 381.211604 51.583713 
L 381.395837 51.800864 
L 381.42418 53.355364 
L 381.438352 52.845889 
L 381.565898 52.667416 
L 381.594241 52.358027 
L 381.608413 52.544205 
L 381.707615 52.722937 
L 382.033564 54.171526 
L 382.416201 54.285165 
L 382.515403 55.671266 
L 383.039757 55.329802 
L 383.0681 55.39711 
L 383.47908 55.583305 
L 383.535767 55.05374 
L 383.705828 54.648898 
L 383.719999 54.743442 
L 383.819202 55.0758 
L 383.97509 54.877158 
L 384.343555 54.790003 
L 384.456929 55.569176 
L 384.62699 55.626909 
L 384.655333 54.370811 
L 384.726192 54.476479 
L 384.938768 54.675302 
L 384.967111 54.76879 
L 385.236374 54.944696 
L 385.335576 55.027408 
L 385.44895 54.865215 
L 385.463121 53.812154 
L 385.85993 55.206454 
L 385.874101 57.211463 
L 386.228394 56.823854 
L 386.540172 56.831399 
L 386.625203 56.597047 
L 386.667718 58.097755 
L 386.738576 58.01267 
L 386.809435 57.972663 
L 386.880294 57.278496 
L 387.560536 56.405013 
L 387.603052 55.67001 
L 387.758941 55.72371 
L 387.886486 53.455729 
L 387.957345 53.598 
L 388.240779 52.142772 
L 388.439183 51.854369 
L 388.510042 50.956255 
L 389.091083 49.678867 
L 389.147769 50.489917 
L 389.757154 49.927221 
L 389.998073 49.761953 
L 390.253164 50.264129 
L 390.380709 50.154413 
L 390.46574 49.807489 
L 390.479911 49.198333 
L 390.593285 49.510899 
L 391.131811 49.185101 
L 391.37273 48.376804 
L 391.500275 48.818202 
L 391.953771 48.83535 
L 392.010457 49.162436 
L 392.534811 49.467257 
L 392.719044 49.320388 
L 392.874933 48.849382 
L 393.158367 48.175009 
L 393.455973 45.855929 
L 393.611862 45.542889 
L 393.640206 45.138831 
L 393.781923 44.854476 
L 393.937812 45.202742 
L 393.994499 45.675132 
L 394.022842 45.127728 
L 394.122044 45.119927 
L 394.235418 46.285904 
L 394.277933 45.852125 
L 394.306277 45.539238 
L 394.41965 45.963654 
L 394.873146 46.33658 
L 394.944004 46.038829 
L 395.043206 46.477776 
L 395.284126 45.492418 
L 395.383328 45.504543 
L 395.539217 45.3091 
L 395.610075 44.465715 
L 395.666762 44.967586 
L 395.936025 44.448485 
L 396.30449 44.088202 
L 396.361176 44.605174 
L 396.488722 44.48022 
L 396.587924 43.912394 
L 396.644611 44.26383 
L 396.871359 43.393228 
L 397.098106 43.730916 
L 397.253995 43.744474 
L 397.778349 46.055045 
L 398.44442 45.975638 
L 398.501107 46.141002 
L 398.94043 46.575862 
L 399.067976 47.66054 
L 399.110491 49.52026 
L 399.478956 50.383845 
L 399.521471 50.062258 
L 399.663188 50.607156 
L 399.734047 53.900576 
L 399.790733 53.058669 
L 399.918279 53.216822 
L 399.989138 52.164226 
L 400.102511 52.358157 
L 400.300916 51.992111 
L 400.357602 52.192926 
L 400.371774 51.419325 
L 401.08036 50.880401 
L 401.207906 51.361157 
L 401.349623 51.587211 
L 401.420482 50.792148 
L 401.448825 50.868393 
L 401.548027 52.903208 
L 402.270785 53.776632 
L 402.412502 53.457388 
L 402.497533 53.599593 
L 402.582563 52.942293 
L 402.710108 52.898019 
L 402.993543 53.062598 
L 403.036058 53.220594 
L 403.064402 52.612968 
L 403.234462 52.23673 
L 403.362008 51.017997 
L 403.475382 51.487965 
L 403.702129 50.293884 
L 403.716301 53.289212 
L 403.758816 51.32392 
L 404.155624 51.137299 
L 404.198139 50.405923 
L 404.212311 50.428589 
L 404.410715 50.691946 
L 404.807523 48.204738 
L 404.878382 48.349966 
L 405.147645 48.62744 
L 405.147645 48.62744 
" clip-path="url(#p89d4e50e13)" style="fill: none; stroke: #e1640e; stroke-width: 1.5; stroke-linecap: square"/>
   </g>
   <g id="patch_8">
    <path d="M 262.505 174.04 
L 262.505 10.8 
" style="fill: none; stroke: #000000; stroke-width: 0.8; stroke-linejoin: miter; stroke-linecap: square"/>
   </g>
   <g id="patch_9">
    <path d="M 411.940152 174.04 
L 411.940152 10.8 
" style="fill: none; stroke: #000000; stroke-width: 0.8; stroke-linejoin: miter; stroke-linecap: square"/>
   </g>
   <g id="patch_10">
    <path d="M 262.505 174.04 
L 411.940152 174.04 
" style="fill: none; stroke: #000000; stroke-width: 0.8; stroke-linejoin: miter; stroke-linecap: square"/>
   </g>
   <g id="patch_11">
    <path d="M 262.505 10.8 
L 411.940152 10.8 
" style="fill: none; stroke: #000000; stroke-width: 0.8; stroke-linejoin: miter; stroke-linecap: square"/>
   </g>
  </g>
 </g>
 <defs>
  <clipPath id="pe9d5b0f708">
   <rect x="44.57" y="10.8" width="149.435152" height="163.24"/>
  </clipPath>
  <clipPath id="p89d4e50e13">
   <rect x="262.505" y="10.8" width="149.435152" height="163.24"/>
  </clipPath>
 </defs>
</svg>
